<?xml version="1.0" standalone="no"?>
<!DOCTYPE svg PUBLIC "-//W3C//DTD SVG 1.1//EN" "http://www.w3.org/Graphics/SVG/1.1/DTD/svg11.dtd" >
<svg xmlns="http://www.w3.org/2000/svg">
<metadata>
This is a custom SVG webfont generated by Font Squirrel.
Copyright   : Part of the digitally encoded machine readable outline data for producing the Typefaces provided is copyrighted  2008  2009 Linotype GmbH wwwlinotypecom All rights reserved This software is the property of Linotype GmbH and may not be reproduced used displayed modified disclosed or transferred without the express written approval of Linotype GmbH  The digitally encoded machine readable software for producing the Typefaces licensed to you is copyrighted c 1990 Adobe Systems All Rights Reserved This software is the property of Adobe Systems Incorporated and its licensors and may not be reproduced used displayed modified disclosed or transferred without the express written approval of Adobe Helvetica is a trademark of Linotype Corp registered in the US Patent and Trademark Office and may be registered in certain other jurisdictions in the name of Linotype Corp or its licensee Linotype GmbH This typeface is original artwork of Linotype Design Studio The design may be protected in certain jurisdictions
Designer    : Linotype Design Studio
Foundry     : Linotype GmbH
Foundry URL : httpwwwlinotypecom
</metadata>
<defs>
<font id="HelveticaNeueLTW1G37ThCn" horiz-adv-x="915" >
<font-face units-per-em="2048" ascent="1462" descent="-586" />
<missing-glyph horiz-adv-x="516" />
<glyph unicode="IJ" horiz-adv-x="1234" d="M131 0v1536h90v-1536h-90zM416 416v33h90v-48q0 -354 250 -354q113 0 187.5 69.5t74.5 233.5v1186h90v-1186q0 -184 -94 -280.5t-252 -96.5q-193 0 -269.5 116t-76.5 327z" />
<glyph unicode="ij" horiz-adv-x="655" d="M119 0v1124h82v-1124h-82zM119 1317v219h82v-219h-82zM256 -305q39 -4 59 -4q41 0 69 8t50.5 46t22.5 103v1276h80v-1265q0 -242 -203 -242q-27 0 -78 4v74zM457 1317v219h80v-219h-80z" />
<glyph unicode="&#x22;n" horiz-adv-x="970" d="M16 1040v74q61 45 62 203h-27v219h90v-215q0 -123 -27.5 -181.5t-97.5 -99.5zM207 0v1124h82v-170h4q35 84 106.5 140.5t178.5 56.5q129 0 206.5 -76t77.5 -227v-848h-82v809q0 143 -56 205.5t-167 62.5q-125 0 -196.5 -101.5t-71.5 -254.5v-721h-82z" />
<glyph unicode="&#xfb00;" horiz-adv-x="864" d="M16 1051v73h154v187q0 225 199 225q55 0 82 -6v-74q-29 6 -70 6q-129 0 -129 -145v-193h344v187q0 225 197 225q57 0 84 -6v-74q-29 6 -70 6q-129 0 -129 -145v-193h186v-73h-186v-1051h-82v1051h-344v-1051h-82v1051h-154z" />
<glyph unicode="&#xfb01;" horiz-adv-x="794" d="M16 1051v73h154v187q0 225 199 225q55 0 82 -6v-74q-29 6 -70 6q-129 0 -129 -145v-193h186v-73h-186v-1051h-82v1051h-154zM596 0v1124h82v-1124h-82zM596 1317v219h82v-219h-82z" />
<glyph unicode="&#xfb02;" horiz-adv-x="794" d="M16 1051v73h154v187q0 225 199 225q55 0 82 -6v-74q-29 6 -70 6q-129 0 -129 -145v-193h186v-73h-186v-1051h-82v1051h-154zM596 0v1536h82v-1536h-82z" />
<glyph unicode="&#xfb03;" horiz-adv-x="1220" d="M16 1051v73h154v187q0 225 199 225q55 0 82 -6v-74q-29 6 -70 6q-129 0 -129 -145v-193h344v187q0 225 197 225q57 0 84 -6v-74q-29 6 -70 6q-129 0 -129 -145v-193h186v-73h-186v-1051h-82v1051h-344v-1051h-82v1051h-154zM1022 0v1124h82v-1124h-82zM1022 1317v219h82 v-219h-82z" />
<glyph unicode="&#xfb04;" horiz-adv-x="1220" d="M16 1051v73h154v187q0 225 199 225q55 0 82 -6v-74q-29 6 -70 6q-129 0 -129 -145v-193h344v187q0 225 197 225q57 0 84 -6v-74q-29 6 -70 6q-129 0 -129 -145v-193h186v-73h-186v-1051h-82v1051h-344v-1051h-82v1051h-154zM1022 0v1536h82v-1536h-82z" />
<glyph unicode="&#xd;" horiz-adv-x="0" />
<glyph unicode=" "  horiz-adv-x="516" />
<glyph unicode="&#x09;" horiz-adv-x="516" />
<glyph unicode="&#xa0;" horiz-adv-x="516" />
<glyph unicode="!" horiz-adv-x="477" d="M193 0v207h92v-207h-92zM193 1040v496h92v-496l-15 -641h-63z" />
<glyph unicode="&#x22;" horiz-adv-x="634" d="M162 1044v492h71v-492h-71zM401 1044v492h74v-492h-74z" />
<glyph unicode="#" horiz-adv-x="1032" d="M29 483v74h239l56 383h-236v74h244l65 483h74l-68 -483h295l68 483h74l-68 -483h232v-74h-240l-55 -383h235v-74h-244l-65 -483h-74l68 483h-295l-68 -483h-73l67 483h-231zM342 557h295l53 383h-295z" />
<glyph unicode="$" horiz-adv-x="1032" d="M74 399v47h90v-51q0 -326 319 -348v701l-73 26q-150 51 -229 134t-79 225q0 174 104.5 279.5t276.5 109.5v151h66v-151q377 -20 377 -402h-92q0 307 -285 330v-633l90 -31q166 -55 242.5 -142t76.5 -251q0 -188 -113.5 -298.5t-295.5 -121.5v-180h-66v180 q-115 2 -199.5 41t-127.5 103.5t-62.5 135t-19.5 146.5zM193 1143q0 -125 62 -190.5t200 -104.5l28 -8v610q-127 -8 -208.5 -84t-81.5 -223zM549 47q141 12 230 104.5t89 235.5q0 139 -67.5 211t-202.5 115l-49 14v-680z" />
<glyph unicode="%" horiz-adv-x="1472" d="M119 1143q0 379 262 379q147 0 204.5 -92.5t57.5 -286.5q0 -381 -262 -381q-150 0 -206 91t-56 290zM190 1143q0 -180 48.5 -249t142.5 -69q90 0 137 69t51 249q0 178 -47 246.5t-141 68.5q-191 0 -191 -315zM371 -27l651 1549h72l-652 -1549h-71zM829 354q0 381 263 381 q150 0 207 -92t57 -289q0 -381 -264 -381q-147 0 -205 92t-58 289zM903 354q0 -178 47 -246.5t142 -68.5q92 0 139 68.5t51 246.5q0 178 -47 248t-143 70q-189 -1 -189 -318z" />
<glyph unicode="&#x26;" horiz-adv-x="1153" d="M43 365q0 145 65.5 236t208.5 202l93 67l-72 97q-121 164 -121 297q0 119 83 195.5t206 76.5q137 0 209.5 -80t72.5 -186q0 -195 -217 -367l-59 -49l354 -496q59 119 60 285h80q0 -197 -88 -354l206 -289h-90l-155 215q-164 -242 -430 -242q-199 0 -302.5 120t-103.5 272 zM133 379q0 -145 92 -238.5t236 -93.5q121 0 217 67.5t153 164.5l-380 532l-95 -76q-109 -86 -166 -170t-57 -186zM299 1251q0 -49 31.5 -119.5t72.5 -127.5l66 -86l74 55q86 76 125 139.5t39 153.5t-55.5 143t-143.5 53q-98 0 -153.5 -58.5t-55.5 -152.5z" />
<glyph unicode="'" horiz-adv-x="395" d="M162 1044v492h71v-492h-71z" />
<glyph unicode="(" horiz-adv-x="477" d="M141 570.5q0 529.5 269 965.5h63q-115 -186 -186.5 -441t-71.5 -524.5t71.5 -525.5t186.5 -440h-63q-269 436 -269 965.5z" />
<glyph unicode=")" horiz-adv-x="477" d="M4 -395q115 184 186.5 440t71.5 525.5t-71.5 524.5t-186.5 441h66q266 -436 266 -965.5t-266 -965.5h-66z" />
<glyph unicode="*" horiz-adv-x="634" d="M66 1327l24 64l199 -95v240h63v-240l195 95l24 -60l-186 -90l127 -172l-55 -41l-138 189l-141 -189l-55 41l133 172z" />
<glyph unicode="+" horiz-adv-x="1290" d="M100 508v74h508v505h74v-505h508v-74h-508v-508h-74v508h-508z" />
<glyph unicode="," horiz-adv-x="516" d="M178 -203q61 45 62 203h-27v219h90v-215q0 -123 -27.5 -180t-97.5 -98v71z" />
<glyph unicode="-" horiz-adv-x="675" d="M135 549v72h408v-72h-408z" />
<glyph unicode="." horiz-adv-x="516" d="M213 0v219h90v-219h-90z" />
<glyph unicode="/" horiz-adv-x="595" d="M-18 -27l548 1588h86l-548 -1588h-86z" />
<glyph unicode="0" horiz-adv-x="1032" d="M90 748q0 401 102.5 587.5t323.5 186.5q233 0 329.5 -181.5t96.5 -592.5q0 -412 -103.5 -593.5t-322.5 -181.5q-229 0 -327.5 184.5t-98.5 590.5zM180 748q0 -281 42 -437.5t110.5 -210t183.5 -53.5t183.5 55.5t110.5 212t42 433.5q0 84 -1 131t-8 131t-18.5 136 t-36 116.5t-59.5 99.5t-89 61.5t-124 26.5t-124 -28.5t-89 -67.5t-59.5 -107.5t-35.5 -122t-18.5 -136.5t-8.5 -125.5t-1 -114.5z" />
<glyph unicode="1" horiz-adv-x="1032" d="M162 1188v72q117 14 227.5 88.5t142.5 173.5h74v-1522h-82v1368q-55 -66 -161.5 -119t-200.5 -61z" />
<glyph unicode="2" horiz-adv-x="1032" d="M98 0q0 319 264 530l220 172q119 98 183 191.5t64 222.5q0 150 -80.5 242t-228.5 92q-162 0 -240.5 -113.5t-78.5 -275.5h-90q0 201 109.5 331t307.5 130q66 0 129.5 -19.5t126 -62.5t99.5 -126t37 -200q0 -156 -67 -254t-212 -215l-203 -162q-104 -86 -177 -196.5 t-73 -204.5h746v-82h-836z" />
<glyph unicode="3" horiz-adv-x="1032" d="M90 395h90q0 -147 83 -247.5t239 -100.5q150 0 250 95.5t100 283.5q0 156 -90 245t-266 89h-68v71h68q307 0 307 312q0 143 -77 225t-216 82q-154 0 -224.5 -97.5t-76.5 -240.5h-90q0 182 106.5 296t288.5 114q170 0 274.5 -99.5t104.5 -277.5q0 -131 -66.5 -227.5 t-191.5 -122.5v-4q139 -12 223 -116t84 -247q0 -203 -118.5 -329t-325.5 -126q-193 0 -296.5 114.5t-111.5 307.5z" />
<glyph unicode="4" horiz-adv-x="1032" d="M72 412v80l612 1030h90v-1039h187v-71h-187v-412h-82v412h-620zM154 483h538v899h-4z" />
<glyph unicode="5" horiz-adv-x="1032" d="M94 365v16h90v-27q12 -139 93 -223t215 -84q180 0 268 127t88 324q0 182 -87 298.5t-245 116.5q-209 0 -307 -200h-90l90 784h655v-82h-588l-71 -604h4q45 82 130 129t185 47q203 0 308.5 -135t105.5 -348q0 -227 -109.5 -379t-326.5 -152q-205 0 -306.5 117t-101.5 275z " />
<glyph unicode="6" horiz-adv-x="1032" d="M90 686q0 145 10.5 260t40 226.5t77.5 185.5t131 119t196 45q100 0 175 -38t111.5 -97.5t53 -112.5t16.5 -98h-90q0 106 -69.5 190t-206.5 84q-362 0 -363 -741v-27h4q33 119 120 205t241 86q188 0 296.5 -126t108.5 -358q0 -233 -108.5 -374.5t-319.5 -141.5 q-109 0 -186.5 42t-122.5 106.5t-72 164t-35 191.5t-8 209zM199 467q0 -166 78.5 -293t240.5 -127q158 0 246 112.5t88 329.5q0 182 -82 296t-244 114q-166 0 -246.5 -119.5t-80.5 -312.5z" />
<glyph unicode="7" horiz-adv-x="1032" d="M92 1415v82h848v-82q-182 -207 -321.5 -506t-198 -532.5t-58.5 -376.5h-98q0 252 172 690t422 725h-766z" />
<glyph unicode="8" horiz-adv-x="1032" d="M90 412q0 170 83 275.5t216 125.5v4q-121 25 -186.5 117t-65.5 217q0 170 101.5 270.5t277.5 100.5q178 0 278.5 -100.5t100.5 -270.5q0 -125 -61.5 -214t-184.5 -120v-4q137 -20 215 -124.5t78 -276.5q0 -203 -113.5 -321t-314.5 -118q-199 0 -311.5 118t-112.5 321z M180 412q0 -170 89 -267.5t247 -97.5q152 0 244 98.5t92 266.5q0 186 -88 277t-248 91q-147 0 -241.5 -94t-94.5 -274zM227 1151q0 -139 79 -218t210 -79q135 0 212 77t77 220q0 133 -76 216t-213 83t-213 -83t-76 -216z" />
<glyph unicode="9" horiz-adv-x="1032" d="M90 1006q0 236 108.5 376t319.5 140q109 0 186.5 -42t122.5 -106.5t72 -163t35 -190.5t8 -209q0 -147 -10 -261t-39 -226.5t-78 -185t-132 -119t-196 -46.5q-100 0 -174.5 39t-111.5 98.5t-53.5 111.5t-16.5 97h90q0 -104 69.5 -188t207.5 -84q362 0 362 739v31h-4 q-33 -121 -119 -207t-241 -86q-188 0 -297 126.5t-109 355.5zM180 1006q0 -180 82 -294t244 -114q164 0 246 119t82 313q0 166 -79 293t-241 127q-158 0 -246 -113.5t-88 -330.5z" />
<glyph unicode=":" horiz-adv-x="516" d="M213 0v219h90v-219h-90zM213 850v219h90v-219h-90z" />
<glyph unicode=";" horiz-adv-x="516" d="M178 -203q61 45 62 203h-27v219h90v-215q0 -123 -27.5 -180t-97.5 -98v71zM213 850v219h90v-219h-90z" />
<glyph unicode="&#x3c;" horiz-adv-x="1290" d="M100 508v74l1090 520v-76l-1014 -481l1014 -484v-73z" />
<glyph unicode="=" horiz-adv-x="1290" d="M100 297v74h1090v-74h-1090zM100 719v72h1090v-72h-1090z" />
<glyph unicode="&#x3e;" horiz-adv-x="1290" d="M100 -12v73l1014 484l-1014 481v76l1090 -520v-74z" />
<glyph unicode="?" d="M76 1094v34q0 76 20.5 148t63.5 138.5t121.5 106.5t185.5 40q193 0 284 -106.5t91 -246.5q0 -106 -37 -187t-90 -133l-106 -102q-52 -49 -89 -119.5t-37 -160.5v-113h-90v109q0 100 37 179t89 130l106 102q53 51 89 125t36 166q0 133 -75 209t-206 76 q-111 0 -181.5 -56.5t-96 -135t-25.5 -175.5v-28h-90zM393 0v207h90v-207h-90z" />
<glyph unicode="@" horiz-adv-x="1720" d="M68 774q0 334 241.5 560.5t583.5 226.5q326 0 543 -182.5t217 -473.5q0 -233 -165 -421.5t-351 -188.5q-61 0 -103.5 39t-42.5 110h-4q-117 -150 -299 -149q-127 0 -208 92t-81 225q0 233 153 431t376 198q102 0 167.5 -57.5t78.5 -136.5h4l53 151h90l-205 -629 q-35 -102 -35 -127q0 -31 26 -52t60 -21q152 0 274 168t122 370q0 262 -200 422t-466 160q-305 0 -522 -215t-217 -514q0 -203 108.5 -369t278.5 -255t356 -89q184 0 347 85t268 233h90q-102 -178 -295 -285t-410 -107q-358 0 -595.5 228.5t-237.5 572.5zM489 618 q0 -119 60.5 -184t167.5 -65q158 0 279.5 193.5t121.5 357.5q0 248 -205 247q-180 0 -302 -178t-122 -371z" />
<glyph unicode="A" horiz-adv-x="1034" d="M-8 0l477 1536h115l458 -1536h-90l-145 477h-580l-145 -477h-90zM250 551h538l-264 895h-4z" />
<glyph unicode="B" horiz-adv-x="1075" d="M131 0v1536h414q401 0 401 -383q0 -152 -75.5 -240t-208.5 -104v-4q164 -14 248.5 -117.5t84.5 -269.5q0 -197 -116.5 -307.5t-321.5 -110.5h-426zM221 74h303q195 0 288 78.5t93 267.5q0 190 -102.5 269t-282.5 79h-299v-694zM221 842h295q156 0 248 76.5t92 234.5 q0 309 -301 309h-334v-620z" />
<glyph unicode="C" horiz-adv-x="1075" d="M82 766q0 795 491 795q104 0 183.5 -34t125.5 -86t74.5 -119t38 -121t9.5 -107h-91q0 166 -87 280.5t-248 114.5q-217 0 -311.5 -186.5t-94.5 -532.5q0 -164 18.5 -289t61.5 -225t123 -154.5t190 -54.5q104 0 181 55.5t115 136t55.5 151.5t17.5 126h90 q0 -59 -12.5 -124.5t-45 -142.5t-84 -136.5t-137.5 -99.5t-194 -40q-469 0 -469 793z" />
<glyph unicode="D" horiz-adv-x="1114" d="M131 0v1536h350q131 0 225.5 -33t172 -114.5t116.5 -236.5t39 -384q0 -182 -29.5 -321.5t-80 -222.5t-123 -134t-149.5 -70.5t-171 -19.5h-350zM221 74h260q244 0 353.5 169t109.5 525q0 365 -102.5 529.5t-360.5 164.5h-260v-1388z" />
<glyph unicode="E" d="M131 0v1536h733v-82h-643v-612h600v-82h-600v-678h664v-82h-754z" />
<glyph unicode="F" horiz-adv-x="874" d="M131 0v1536h735v-82h-645v-612h600v-82h-600v-760h-90z" />
<glyph unicode="G" horiz-adv-x="1114" d="M82 766q0 795 491 795q104 0 183.5 -34t125.5 -86t74.5 -119t38 -121t9.5 -107h-91q0 166 -87 280.5t-248 114.5q-217 0 -311.5 -186.5t-94.5 -532.5q0 -164 18.5 -289t61.5 -225t123 -154.5t190 -54.5q137 0 225.5 85t121 204t32.5 264v94h-422v74h512v-768h-73v309h-5 q-39 -158 -141 -247t-262 -89q-471 0 -471 793z" />
<glyph unicode="H" horiz-adv-x="1114" d="M131 0v1536h90v-674h674v674h90v-1536h-90v780h-674v-780h-90z" />
<glyph unicode="I" horiz-adv-x="352" d="M131 0v1536h90v-1536h-90z" />
<glyph unicode="J" horiz-adv-x="874" d="M51 416v33h90v-48q0 -354 250 -354q115 0 188.5 69.5t73.5 233.5v1186h90v-1186q0 -184 -93 -280.5t-253 -96.5q-190 0 -268 116t-78 327z" />
<glyph unicode="K" horiz-adv-x="995" d="M131 0v1536h90v-854h4l635 854h98l-481 -647l529 -889h-103l-483 813l-199 -262v-551h-90z" />
<glyph unicode="L" d="M131 0v1536h90v-1454h643v-82h-733z" />
<glyph unicode="M" horiz-adv-x="1392" d="M117 0v1536h145l436 -1380h4l426 1380h150v-1536h-90v1419h-4l-443 -1419h-90l-440 1419h-4v-1419h-90z" />
<glyph unicode="N" horiz-adv-x="1114" d="M117 0v1536h121l667 -1395h4v1395h90v-1536h-118l-670 1393h-4v-1393h-90z" />
<glyph unicode="O" horiz-adv-x="1153" d="M82 767q0 794 496 794q242 0 368.5 -182.5t126.5 -610.5q0 -240 -45 -405.5t-123 -245.5t-155.5 -112t-171.5 -32q-496 0 -496 794zM172 768q0 -225 34 -376.5t126 -248t246 -96.5q211 0 308 175t97 546q0 340 -92 530.5t-313 190.5q-406 0 -406 -721z" />
<glyph unicode="P" horiz-adv-x="995" d="M131 0v1536h397q127 -2 215 -44t129 -112.5t57.5 -133t16.5 -136.5q0 -199 -114.5 -312.5t-321.5 -113.5h-289v-684h-90zM221 758h297q150 0 244 87t94 265q0 168 -85 260t-241 92h-309v-704z" />
<glyph unicode="Q" horiz-adv-x="1153" d="M82 767q0 794 496 794q242 0 368.5 -182.5t126.5 -610.5q0 -432 -147 -627l161 -168l-53 -53l-162 164q-117 -111 -294 -111q-496 0 -496 794zM172 768q0 -225 34 -376.5t126 -248t246 -96.5q143 0 243 88l-188 193l53 53l182 -182q115 178 115 569q0 340 -92 530.5 t-313 190.5q-406 0 -406 -721z" />
<glyph unicode="R" horiz-adv-x="1075" d="M131 0v1536h451q168 0 273.5 -101.5t105.5 -301.5q0 -156 -80 -259.5t-228 -119.5v-6q174 -12 235.5 -105.5t61.5 -273.5v-162q0 -127 51 -207h-102q-39 74 -39 209v156q0 178 -65.5 263t-241.5 85h-332v-713h-90zM221 784h289q360 0 360 349q0 156 -80.5 242.5 t-222.5 86.5h-346v-678z" />
<glyph unicode="S" horiz-adv-x="1034" d="M76 373v100h90v-80q0 -150 93 -248t255 -98q158 0 256 100.5t98 247.5q0 139 -66.5 208t-211.5 122l-174 59q-162 55 -238 141.5t-76 235.5q0 182 115 291t297 109q207 0 309.5 -110t102.5 -306h-92q0 160 -77 252t-235 92q-143 0 -236 -76t-93 -244q0 -221 227 -297 l227 -79q160 -55 235.5 -142.5t75.5 -249.5q0 -199 -128 -313.5t-316 -114.5q-125 0 -216 40t-136 104.5t-65.5 128.5t-20.5 127z" />
<glyph unicode="T" d="M4 1454v82h907v-82h-407v-1454h-90v1454h-410z" />
<glyph unicode="U" horiz-adv-x="1075" d="M113 424v1112h90v-1130q0 -358 334 -359q164 0 249.5 97.5t85.5 261.5v1130h91v-1112q0 -240 -121 -345.5t-305 -105.5q-424 0 -424 451z" />
<glyph unicode="V" horiz-adv-x="954" d="M2 1536h90l383 -1434h4l383 1434h90l-420 -1536h-110z" />
<glyph unicode="W" horiz-adv-x="1513" d="M25 1536h90l295 -1407h4l286 1407h111l291 -1407h4l295 1407h90l-336 -1536h-113l-282 1407h-4l-291 -1407h-109z" />
<glyph unicode="X" horiz-adv-x="995" d="M16 0l435 780l-398 756h90l359 -666l360 666h90l-403 -756l430 -780h-100l-381 696l-383 -696h-99z" />
<glyph unicode="Y" horiz-adv-x="954" d="M12 1536h101l364 -809l375 809h90l-420 -903v-633h-90v633z" />
<glyph unicode="Z" horiz-adv-x="952" d="M37 0v90l780 1364h-735v82h825v-90l-780 -1364h788v-82h-878z" />
<glyph unicode="[" horiz-adv-x="477" d="M176 -395v1931h289v-66h-215v-1802h215v-63h-289z" />
<glyph unicode="\" horiz-adv-x="595" d="M-18 1561h86l548 -1588h-86z" />
<glyph unicode="]" horiz-adv-x="477" d="M12 -332h215v1802h-215v66h289v-1931h-289v63z" />
<glyph unicode="^" horiz-adv-x="1290" d="M100 522l508 975h74l508 -975h-74l-471 910l-471 -910h-74z" />
<glyph unicode="_" horiz-adv-x="1075" d="M0 -162h1075v-106h-1075v106z" />
<glyph unicode="`" horiz-adv-x="317" d="M-20 1583h102l168 -301h-72z" />
<glyph unicode="a" horiz-adv-x="835" d="M51 289q0 129 54.5 202.5t173.5 106.5l243 66q70 20 90.5 55t20.5 110q0 143 -57.5 195.5t-159.5 52.5q-246 0 -246 -272h-82q0 63 14.5 119.5t46 109.5t98 85t159.5 32q172 0 240.5 -80t68.5 -217v-719q0 -76 49 -76q29 0 51 13v-66q-27 -18 -86 -18q-33 0 -64.5 30.5 t-31.5 92.5v69h-4q-27 -90 -106 -148.5t-189 -58.5q-143 0 -213 87.5t-70 228.5zM141 289q0 -242 207 -242q139 0 212 101.5t73 275.5v231h-4q-20 -33 -47 -45t-97 -28l-166 -47q-96 -27 -137 -85.5t-41 -160.5z" />
<glyph unicode="b" d="M115 0v1536h82v-608h4q74 223 286 223q104 0 174 -43t107 -127t51.5 -183.5t14.5 -232.5q0 -592 -351 -592q-115 0 -188.5 63.5t-93.5 180.5h-4v-217h-82zM197 565q0 -256 64.5 -387t209.5 -131q104 0 167.5 73t84 181.5t20.5 263.5q0 268 -58 390t-200 122 q-152 0 -220 -125t-68 -387z" />
<glyph unicode="c" horiz-adv-x="835" d="M82 567q0 584 379 584q94 0 163.5 -42t102.5 -104.5t46 -112.5t13 -89h-90q0 31 -10 71.5t-33.5 90t-75 81t-118.5 31.5q-152 0 -219.5 -130t-67.5 -384q0 -268 65.5 -392t221.5 -124q72 0 124 37t76.5 93t33.5 104.5t9 87.5h91q0 -51 -14.5 -108.5t-49.5 -126 t-108.5 -115t-176.5 -46.5q-201 0 -281.5 156.5t-80.5 437.5z" />
<glyph unicode="d" d="M82 565q0 283 80 434.5t274 151.5q205 0 281 -223h4v608h82v-1536h-82v217h-4q-23 -117 -95.5 -180.5t-189.5 -63.5q-350 0 -350 592zM172 565q0 -156 20.5 -264t84 -181t167.5 -73q147 0 212 131t65 387q0 512 -281 512q-143 0 -205.5 -124t-62.5 -388z" />
<glyph unicode="e" horiz-adv-x="874" d="M82 594q0 264 94 410.5t283 146.5q190 0 270 -147.5t80 -436.5h-637q0 -55 1 -86.5t5 -93t14.5 -100.5t30 -90.5t46 -80t70.5 -49t97 -20.5q82 0 141.5 37t86 93t38 103.5t11.5 88.5h80q0 -152 -87.5 -274t-261.5 -122q-205 0 -283.5 156t-78.5 465zM172 641h547 q0 88 -10.5 155.5t-36 136t-80.5 106.5t-137 38q-90 0 -149.5 -45t-87.5 -120.5t-37 -139t-9 -131.5z" />
<glyph unicode="f" horiz-adv-x="438" d="M16 1051v73h154v187q0 225 199 225q55 0 82 -6v-74q-29 6 -70 6q-129 0 -129 -145v-193h186v-73h-186v-1051h-82v1051h-154z" />
<glyph unicode="g" d="M82 567q0 102 8 181t30.5 157t61.5 129t103.5 84t150.5 33q211 0 281 -213h4v186h82v-1063q0 -223 -82 -339.5t-281 -116.5q-82 0 -141 24.5t-90 56t-48.5 74.5t-21.5 71t-4 52h82q0 -92 58.5 -149.5t173.5 -57.5q143 0 207.5 83t64.5 261v207h-6q-16 -45 -34.5 -77.5 t-50.5 -70.5t-86.5 -58.5t-123.5 -20.5q-338 0 -338 567zM172 567q0 -236 61.5 -364.5t210.5 -128.5q276 0 277 512q0 492 -264 491q-143 0 -214 -115.5t-71 -394.5z" />
<glyph unicode="h" horiz-adv-x="874" d="M111 0v1536h79v-582h7q33 84 105.5 140.5t178.5 56.5q129 0 207 -76t78 -227v-848h-82v809q0 143 -57.5 205.5t-165.5 62.5q-125 0 -198 -101.5t-73 -254.5v-721h-79z" />
<glyph unicode="i" horiz-adv-x="317" d="M119 0v1124h82v-1124h-82zM119 1317v219h82v-219h-82z" />
<glyph unicode="j" horiz-adv-x="317" d="M-82 -305q39 -4 62 -4q39 0 66.5 8t50 46t22.5 103v1276h82v-1265q0 -242 -205 -242q-27 0 -78 4v74zM119 1317v219h82v-219h-82z" />
<glyph unicode="k" horiz-adv-x="835" d="M111 0v1536h79v-1010h7l485 598h102l-348 -417l412 -707h-105l-364 635l-189 -221v-414h-79z" />
<glyph unicode="l" horiz-adv-x="317" d="M119 0v1536h82v-1536h-82z" />
<glyph unicode="m" horiz-adv-x="1392" d="M123 0v1124h82v-168h4q23 90 95.5 142.5t174.5 52.5q209 0 244 -211h4q16 78 87 144.5t187 66.5q133 0 202 -75t69 -212v-864h-82v846q0 111 -52.5 171t-142.5 60q-125 0 -191.5 -90t-66.5 -242v-745h-82v807q0 270 -196 270q-125 0 -189.5 -93t-64.5 -239v-745h-82z" />
<glyph unicode="n" horiz-adv-x="874" d="M111 0v1124h79v-170h7q33 84 105.5 140.5t178.5 56.5q129 0 207 -76t78 -227v-848h-82v809q0 143 -57.5 205.5t-165.5 62.5q-125 0 -198 -101.5t-73 -254.5v-721h-79z" />
<glyph unicode="o" d="M82 563q0 131 17.5 230.5t58.5 183.5t117.5 129t189.5 45q106 0 182 -45t115 -129t55.5 -184.5t16.5 -229.5q0 -131 -16.5 -231.5t-57.5 -183t-119 -129t-190 -46.5q-106 0 -182 46.5t-114 129t-55.5 183t-17.5 231.5zM172 561q0 -254 65.5 -384t220 -130t220 130 t65.5 384q0 256 -65.5 386t-220 130t-220 -130t-65.5 -386z" />
<glyph unicode="p" d="M115 -379v1503h82v-196h4q74 223 286 223q346 0 347 -586q0 -592 -351 -592q-115 0 -188.5 63.5t-93.5 180.5h-4v-596h-82zM197 565q0 -256 64.5 -387t209.5 -131q104 0 167.5 73t84 181.5t20.5 263.5q0 260 -68.5 386t-189.5 126q-152 0 -220 -125t-68 -387z" />
<glyph unicode="q" d="M82 565q0 131 16.5 231.5t54 183.5t109.5 127t174 44q205 0 281 -223h4v196h82v-1503h-82v596h-4q-23 -117 -95.5 -180.5t-189.5 -63.5q-350 0 -350 592zM172 565q0 -156 20.5 -264t84 -181t167.5 -73q147 0 212 131t65 387q0 512 -281 512q-268 0 -268 -512z" />
<glyph unicode="r" horiz-adv-x="518" d="M111 0v1124h79v-194h7q70 221 280 221h47v-74h-47q-133 0 -210 -107.5t-77 -254.5v-715h-79z" />
<glyph unicode="s" horiz-adv-x="755" d="M49 330v28h82v-34q0 -276 252 -277q119 0 176 66.5t57 169.5q0 86 -36.5 139t-130.5 90l-164 66q-111 45 -161 111.5t-50 170.5q0 137 84 214t223 77q293 0 293 -307v-35h-82v33q0 236 -211 235q-96 0 -156.5 -51t-60.5 -158q0 -88 40 -137t128 -84l172 -63 q203 -78 203 -299q0 -139 -93.5 -225.5t-230.5 -86.5q-334 1 -334 357z" />
<glyph unicode="t" horiz-adv-x="438" d="M16 1051v73h154v334h82v-334h186v-73h-186v-867q0 -125 98 -125q59 0 101 15v-74q-59 -12 -115 -12q-166 0 -166 188v875h-154z" />
<glyph unicode="u" horiz-adv-x="874" d="M111 276v848h79v-809q0 -143 57.5 -205.5t168.5 -62.5q125 0 196.5 101.5t71.5 254.5v721h82v-1124h-82v170h-4q-82 -197 -287 -197q-129 0 -205.5 75.5t-76.5 227.5z" />
<glyph unicode="v" horiz-adv-x="755" d="M18 1124h93l272 -1022h4l260 1022h90l-305 -1124h-96z" />
<glyph unicode="w" horiz-adv-x="1153" d="M12 1124h90l201 -1007h4l221 1007h105l213 -1007h4l201 1007h92l-244 -1124h-104l-211 1008h-6l-222 -1008h-102z" />
<glyph unicode="x" horiz-adv-x="755" d="M29 0l303 578l-289 546h100l238 -477l242 477h92l-287 -546l301 -578h-100l-252 508l-258 -508h-90z" />
<glyph unicode="y" horiz-adv-x="755" d="M18 1124h93l282 -1007h4l250 1007h90l-348 -1292q-33 -115 -90 -163t-160 -48q-27 0 -84 4v74q66 -4 72 -4q82 0 121 33.5t67 142.5l35 119z" />
<glyph unicode="z" horiz-adv-x="716" d="M33 0v74l557 977h-529v73h619v-73l-557 -977h563v-74h-653z" />
<glyph unicode="{" horiz-adv-x="477" d="M61 537v65q154 0 154 318v362q0 139 46 196.5t140 57.5h107v-66h-111q-59 0 -83.5 -45t-24.5 -143v-356q0 -104 -17.5 -178t-45 -109t-48 -49.5t-43.5 -18.5v-4q154 -41 154 -350v-358q0 -100 24.5 -145.5t83.5 -45.5h111v-63h-107q-94 0 -140 56t-46 198v360 q0 318 -154 318z" />
<glyph unicode="|" horiz-adv-x="477" d="M199 -27v1588h80v-1588h-80z" />
<glyph unicode="}" horiz-adv-x="477" d="M-31 -332h111q59 0 83.5 45t24.5 146v356q0 311 154 352v4q-23 4 -43 17.5t-48 48.5t-45.5 108.5t-17.5 176.5v360q0 98 -24.5 143t-83.5 45h-111v66h107q94 0 140 -57.5t46 -196.5v-362q0 -317 154 -318v-65q-154 0 -154 -318v-360q0 -141 -46 -197.5t-140 -56.5h-107 v63z" />
<glyph unicode="~" horiz-adv-x="1290" d="M156 475q37 59 63.5 91t77.5 59.5t121 27.5q86 0 236.5 -72.5t232.5 -72.5q47 0 92 31.5t56.5 49t49.5 70.5l50 -47q-37 -59 -64 -91t-78 -59.5t-121 -27.5q-86 0 -236.5 74t-232.5 74q-18 0 -36.5 -5.5t-33 -11.5t-28.5 -18l-24 -21q-10 -8 -23.5 -25.5t-20 -24.5 t-18.5 -25.5t-14 -22.5z" />
<glyph unicode="&#xa1;" horiz-adv-x="477" d="M193 133l14 641h63l15 -641v-504h-92v504zM193 958v207h92v-207h-92z" />
<glyph unicode="&#xa2;" horiz-adv-x="1032" d="M162 567q0 276 83 421t261 163v168h51v-168q90 -4 155.5 -47t97.5 -103.5t44 -110.5t12 -87h-90q0 45 -16.5 99t-69.5 112.5t-133 62.5v-1030q66 6 114 45t70.5 93.5t30.5 99.5t8 84h90q0 -49 -12 -103.5t-44 -121t-98.5 -113.5t-158.5 -58v-194h-51v194q-131 6 -211 89 t-106.5 205t-26.5 300zM252 563q0 -254 58.5 -378t195.5 -138v1030q-254 -33 -254 -514z" />
<glyph unicode="&#xa3;" horiz-adv-x="1032" d="M51 53q125 119 195.5 228.5t70.5 242.5q0 104 -41 195h-217v72h189q-4 8 -27 44l-31 49q-8 13 -26.5 46t-25.5 53.5t-16 51t-14.5 58t-5.5 56.5q0 160 118 266.5t294 106.5q215 0 322.5 -126t107.5 -319h-90q0 170 -83 271.5t-261 101.5q-129 0 -223 -81t-94 -212 q0 -31 8 -65.5t16 -61t27.5 -65.5l29.5 -58l34 -61q24 -43 30 -55h301v-72h-270q41 -102 41 -195q0 -246 -265 -458l7 -7q98 68 178 68q68 0 162 -39q102 -41 163 -41q119 0 285 127l41 -59q-164 -141 -322 -142q-74 0 -176 41q-94 39 -186 39q-98 0 -197 -71z" />
<glyph unicode="&#xa4;" horiz-adv-x="1032" d="M57 748q0 172 111 299l-107 106l52 49l106 -104q123 109 297 108q176 0 297 -108l107 104l51 -49l-107 -106q111 -127 111 -299q0 -176 -111 -297l107 -107l-51 -49l-107 104q-123 -109 -297 -108.5t-297 108.5l-106 -104l-52 49l107 107q-111 121 -111 297zM139 748.5 q0 -160.5 110.5 -273.5t266.5 -113t266.5 113t110.5 273.5t-110.5 272.5t-266.5 112t-266.5 -112t-110.5 -272.5z" />
<glyph unicode="&#xa5;" horiz-adv-x="1032" d="M51 1497h101l364 -790l375 790h90l-383 -807h270v-74h-307v-176h307v-71h-307v-369h-90v369h-291v71h291v176h-291v74h254z" />
<glyph unicode="&#xa6;" horiz-adv-x="477" d="M199 -27v574h80v-574h-80zM199 989v572h80v-572h-80z" />
<glyph unicode="&#xa7;" horiz-adv-x="1034" d="M82 729q0 203 227 311q-61 53 -93 102.5t-32 123.5q0 139 100.5 217t247.5 78q164 0 249 -92.5t85 -208.5v-13h-90v13q0 92 -62.5 160.5t-181.5 68.5q-127 0 -192.5 -64.5t-65.5 -158.5q0 -68 43 -116t146 -118l328 -221q162 -109 161 -283q0 -182 -221 -299 q139 -113 139 -258q0 -119 -89 -208t-259 -89q-174 0 -264 95.5t-90 226.5v47h90v-33q0 -117 67.5 -189.5t192.5 -72.5q123 0 192.5 60.5t69.5 160.5q0 63 -40 120.5t-75.5 87.5t-115.5 85l-305 205q-162 104 -162 262zM172 731q0 -41 15.5 -77t55.5 -71.5t61.5 -52 t76.5 -55.5l293 -203q188 102 188 252q0 143 -137 236l-356 237q-197 -104 -197 -266z" />
<glyph unicode="&#xa8;" horiz-adv-x="317" d="M-31 1323v219h90v-219h-90zM258 1323v219h90v-219h-90z" />
<glyph unicode="&#xa9;" horiz-adv-x="1720" d="M68 768q0 330 231 561.5t561 231.5t561.5 -231.5t231.5 -561.5t-231.5 -562.5t-561.5 -232.5t-561 232.5t-231 562.5zM147 768q0 -295 209 -504t504 -209t504 209t209 504t-209 503t-504 208t-504 -208t-209 -503zM397 770q0 229 133.5 366.5t329.5 137.5q182 0 296 -84 t138 -250h-90q-25 125 -114 192.5t-230 67.5q-174 0 -273.5 -131t-99.5 -299q0 -184 102.5 -310t270.5 -126q274 0 344 272h90q-23 -158 -139.5 -252t-294.5 -94q-205 0 -334 134t-129 376z" />
<glyph unicode="&#xaa;" horiz-adv-x="591" d="M39 997q0 154 149 199l138 41q49 14 69.5 31.5t20.5 60.5q0 74 -35 101.5t-105 27.5q-143 0 -143 -143h-74q0 86 49.5 146.5t170.5 60.5t164.5 -48.5t43.5 -136.5v-426q0 -53 33 -53q16 0 35 6v-41q-20 -12 -51 -12q-88 0 -88 76v31h-4q-61 -106 -199 -107q-86 0 -130 52 t-44 134zM113 1004q0 -55 30.5 -92.5t87.5 -37.5q86 0 135.5 56.5t49.5 138.5v150h-4q-18 -12 -88 -35l-111 -35q-100 -30 -100 -145z" />
<glyph unicode="&#xab;" horiz-adv-x="714" d="M113 541v80l243 299v-107l-180 -231l180 -226v-106zM358 541v80l246 299v-107l-180 -231l180 -226v-106z" />
<glyph unicode="&#xac;" horiz-adv-x="1290" d="M100 719v72h1090v-560h-74v488h-1016z" />
<glyph unicode="&#xad;" horiz-adv-x="675" d="M135 549v72h408v-72h-408z" />
<glyph unicode="&#xae;" horiz-adv-x="1720" d="M68 768q0 330 231 561.5t561 231.5t561.5 -231.5t231.5 -561.5t-231.5 -562.5t-561.5 -232.5t-561 232.5t-231 562.5zM147 768q0 -295 209 -504t504 -209t504 209t209 504t-209 503t-504 208t-504 -208t-209 -503zM563 299v942h363q311 0 311 -262q0 -209 -244 -254 l281 -426h-98l-279 428h-244v-428h-90zM653 801h240q254 0 254 180q0 186 -234 186h-260v-366z" />
<glyph unicode="&#xaf;" horiz-adv-x="317" d="M-74 1401v63h465v-63h-465z" />
<glyph unicode="&#xb0;" horiz-adv-x="860" d="M123 1214q0 129 89 218.5t218 89.5t218 -89.5t89 -218.5t-89 -218t-218 -89t-218 89t-89 218zM197 1214.5q0 -96.5 68.5 -165t164.5 -68.5t165 68.5t69 165t-69 166t-165 69.5t-164.5 -69.5t-68.5 -166z" />
<glyph unicode="&#xb1;" horiz-adv-x="1290" d="M100 0v74h1090v-74h-1090zM100 602v74h508v411h74v-411h508v-74h-508v-414h-74v414h-508z" />
<glyph unicode="&#xb2;" horiz-adv-x="714" d="M78 854q4 119 58 196.5t167 157.5l107 74q135 92 135 238q0 96 -47 145t-129 49q-96 0 -144.5 -55t-50.5 -150h-80q2 133 76 203t199 70q119 0 186.5 -66.5t67.5 -193.5q0 -180 -166 -293l-113 -78q-164 -115 -176 -225h453v-72h-543z" />
<glyph unicode="&#xb3;" horiz-adv-x="714" d="M72 1090h80q0 -90 53 -138.5t153 -48.5q90 0 148.5 52.5t58.5 150.5q0 94 -58 143t-161 49h-41v70h41q74 0 130 46t56 128q0 86 -48 129t-128 43q-178 0 -184 -178h-80q4 113 75 179.5t193 66.5q111 0 181.5 -61.5t70.5 -170.5q0 -74 -38.5 -129t-108.5 -78v-6 q88 -16 134 -76.5t46 -150.5q0 -131 -81 -203.5t-204 -72.5q-288 0 -288 256z" />
<glyph unicode="&#xb4;" horiz-adv-x="317" d="M74 1282l168 301h102l-201 -301h-69z" />
<glyph unicode="&#xb5;" horiz-adv-x="874" d="M111 -379v1503h79v-809q0 -143 57.5 -205.5t168.5 -62.5q125 0 196.5 101.5t71.5 254.5v721h82v-1124h-82v170h-4q-82 -197 -287 -197q-133 0 -196 95h-7v-447h-79z" />
<glyph unicode="&#xb6;" horiz-adv-x="1290" d="M141 1114q0 203 130 312.5t350 109.5h403v-1835h-82v1761h-278v-1761h-80v991q-195 0 -319 110.5t-124 311.5zM231 1114q0 -164 99.5 -256t253.5 -92v696q-154 0 -253.5 -92t-99.5 -256z" />
<glyph unicode="&#xb7;" horiz-adv-x="516" d="M147 710q0 46 33 77.5t78 31.5t78 -31.5t33 -77.5t-33 -78t-78 -32t-78 32t-33 78z" />
<glyph unicode="&#xb8;" horiz-adv-x="317" d="M-29 -383l21 47q74 -35 166 -35q135 0 135 107q0 92 -117 92q-61 0 -115 -31l-20 27l117 176h63l-90 -127l4 -4q33 10 82 10q59 0 103.5 -40t44.5 -101t-54.5 -110.5t-156.5 -49.5q-111 0 -183 39z" />
<glyph unicode="&#xb9;" horiz-adv-x="714" d="M129 1538v68q76 4 149.5 55t96.5 102h67v-909h-77v793q-33 -41 -100.5 -73t-135.5 -36z" />
<glyph unicode="&#xba;" horiz-adv-x="671" d="M86 1167q0 170 55.5 262.5t196.5 92.5q139 0 194.5 -93.5t55.5 -261.5q0 -170 -55.5 -263t-194.5 -93q-141 0 -196.5 92t-55.5 264zM160 1167q0 -293 176 -293q178 0 178 293q0 291 -178 291q-176 0 -176 -291z" />
<glyph unicode="&#xbb;" horiz-adv-x="714" d="M113 250v106l180 234l-180 223v107l243 -289v-82zM358 250v106l183 234l-183 223v107l246 -289v-82z" />
<glyph unicode="&#xbc;" horiz-adv-x="1550" d="M96 1274v67q76 4 149.5 55.5t96.5 102.5h70v-909h-78v792q-35 -41 -102.5 -72.5t-135.5 -35.5zM215 -70l987 1635h74l-987 -1635h-74zM834 215v78l417 616h76v-622h131v-72h-131v-215h-78v215h-415zM909 287h340v499z" />
<glyph unicode="&#xbd;" horiz-adv-x="1550" d="M76 1274v67q76 4 149.5 55.5t93.5 102.5h70v-909h-78v792q-35 -41 -102 -72.5t-133 -35.5zM158 -70l987 1635h72l-988 -1635h-71zM893 0q4 119 58.5 196.5t166.5 157.5l105 74q137 92 137 240q0 94 -47 143t-129 49q-96 0 -144.5 -55t-50.5 -150h-80q2 133 76 204t199 71 q119 0 186.5 -67.5t67.5 -192.5q0 -182 -166 -295l-113 -78q-164 -115 -176 -225h453v-72h-543z" />
<glyph unicode="&#xbe;" horiz-adv-x="1550" d="M133 825h80q0 -90 53 -138t156 -48q90 0 148.5 52t58.5 151q0 94 -58.5 143t-160.5 49h-41v70h41q72 0 129 46t57 128q0 86 -48 129t-128 43q-178 0 -187 -178h-77q4 113 73.5 179.5t194.5 66.5q109 0 180.5 -62.5t71.5 -169.5q0 -74 -39 -129t-111 -78v-6 q88 -16 134.5 -76.5t46.5 -150.5q0 -131 -80 -204t-203 -73q-291 0 -291 256zM342 -70l987 1635h74l-987 -1635h-74zM856 215v78l418 616h74v-622h131v-72h-131v-215h-76v215h-416zM932 287h340v499z" />
<glyph unicode="&#xbf;" d="M76 -43q0 109 35.5 188.5t89.5 132.5l105 101q52 49 89 118.5t37 161.5v113h90v-108q0 -100 -36.5 -179t-89.5 -131l-104 -102q-52 -51 -89 -125t-37 -166q0 -133 74.5 -209t205.5 -76q111 0 181.5 56.5t96.5 135.5t26 175v29h92v-35q0 -76 -20.5 -147.5t-63.5 -138 t-123 -106.5t-186 -40q-193 0 -283 106.5t-90 245.5zM432 958v207h90v-207h-90z" />
<glyph unicode="&#xc0;" horiz-adv-x="1034" d="M-8 0l477 1536h115l458 -1536h-90l-145 477h-580l-145 -477h-90zM250 551h538l-264 895h-4zM301 1958h102l168 -303h-69z" />
<glyph unicode="&#xc1;" horiz-adv-x="1034" d="M-8 0l477 1536h115l458 -1536h-90l-145 477h-580l-145 -477h-90zM250 551h538l-264 895h-4zM475 1655l168 303h102l-198 -303h-72z" />
<glyph unicode="&#xc2;" horiz-adv-x="1034" d="M-8 0l477 1536h115l458 -1536h-90l-145 477h-580l-145 -477h-90zM250 551h538l-264 895h-4zM274 1655l203 303h90l203 -303h-90l-158 237l-157 -237h-91z" />
<glyph unicode="&#xc3;" horiz-adv-x="1034" d="M-8 0l477 1536h115l458 -1536h-90l-145 477h-580l-145 -477h-90zM250 551h538l-264 895h-4zM258 1710q0 61 36 121.5t109 60.5q59 2 127 -53q74 -57 107 -57q45 0 63.5 39t18.5 82h63q0 -63 -34.5 -124t-110.5 -61q-53 -2 -127 53.5t-107 55.5q-80 0 -79 -117h-66z" />
<glyph unicode="&#xc4;" horiz-adv-x="1034" d="M-8 0l477 1536h115l458 -1536h-90l-145 477h-580l-145 -477h-90zM250 551h538l-264 895h-4zM334 1696v221h90v-221h-90zM621 1696v221h92v-221h-92z" />
<glyph unicode="&#xc5;" horiz-adv-x="1034" d="M-8 0l477 1536h115l458 -1536h-90l-145 477h-580l-145 -477h-90zM250 551h538l-264 895h-4zM336 1789q0 79 54 134t136 55t137.5 -55t55.5 -134t-55.5 -134.5t-137.5 -55.5t-136 55.5t-54 134.5zM399 1789q0 -54 37 -91t91.5 -37t90 37t35.5 91t-35.5 92t-90 38 t-91.5 -38t-37 -92z" />
<glyph unicode="&#xc6;" horiz-adv-x="1513" d="M-8 0l659 1536h805v-82h-643v-612h600v-82h-600v-678h664v-82h-754v477h-434l-201 -477h-96zM317 551h406v903h-16z" />
<glyph unicode="&#xc7;" horiz-adv-x="1075" d="M82 766q0 795 491 795q104 0 183.5 -34t125.5 -86t74.5 -119t38 -121t9.5 -107h-91q0 166 -87 280.5t-248 114.5q-217 0 -311.5 -186.5t-94.5 -532.5q0 -164 18.5 -289t61.5 -225t123 -154.5t190 -54.5q104 0 181 55.5t115 136t55.5 151.5t17.5 126h90 q0 -59 -12.5 -123.5t-43 -139.5t-79.5 -133.5t-131 -98t-189 -46.5l-69 -102l4 -4q31 10 82 10q59 0 103 -40t44 -101t-55 -110.5t-158 -49.5q-109 0 -180 39l18 47q74 -35 166 -35q135 0 135 107q0 92 -114 92q-63 0 -115 -31l-20 27l98 151q-426 33 -426 791z" />
<glyph unicode="&#xc8;" d="M131 0v1536h733v-82h-643v-612h600v-82h-600v-678h664v-82h-754zM295 1958h102l168 -303h-69z" />
<glyph unicode="&#xc9;" d="M131 0v1536h733v-82h-643v-612h600v-82h-600v-678h664v-82h-754zM446 1655l168 303h105l-201 -303h-72z" />
<glyph unicode="&#xca;" d="M131 0v1536h733v-82h-643v-612h600v-82h-600v-678h664v-82h-754zM252 1655l203 303h90l200 -303h-90l-155 237l-158 -237h-90z" />
<glyph unicode="&#xcb;" d="M131 0v1536h733v-82h-643v-612h600v-82h-600v-678h664v-82h-754zM311 1696v221h90v-221h-90zM600 1696v221h90v-221h-90z" />
<glyph unicode="&#xcc;" horiz-adv-x="352" d="M-49 1958h102l168 -303h-69zM131 0v1536h90v-1536h-90z" />
<glyph unicode="&#xcd;" horiz-adv-x="352" d="M131 0v1536h90v-1536h-90zM131 1655l168 303h102l-198 -303h-72z" />
<glyph unicode="&#xce;" horiz-adv-x="352" d="M-74 1655l203 303h90l203 -303h-90l-158 237l-158 -237h-90zM131 0v1536h90v-1536h-90z" />
<glyph unicode="&#xcf;" horiz-adv-x="352" d="M-12 1696v221h90v-221h-90zM131 0v1536h90v-1536h-90zM274 1696v221h91v-221h-91z" />
<glyph unicode="&#xd0;" horiz-adv-x="1114" d="M2 768v74h129v694h350q131 0 225.5 -33t172 -114.5t116.5 -236.5t39 -384q0 -182 -29.5 -321.5t-80 -222.5t-123 -134t-149.5 -70.5t-171 -19.5h-350v768h-129zM221 74h260q244 0 353.5 169t109.5 525q0 365 -102.5 529.5t-360.5 164.5h-260v-620h387v-74h-387v-694z" />
<glyph unicode="&#xd1;" horiz-adv-x="1114" d="M117 0v1536h121l667 -1395h4v1395h90v-1536h-118l-670 1393h-4v-1393h-90zM307 1710q0 61 36 121.5t112 60.5q57 2 127 -53q72 -57 104 -57q45 0 63.5 39t18.5 82h63q0 -63 -34.5 -124t-110.5 -61q-53 -2 -127 53.5t-104 55.5q-82 0 -82 -117h-66z" />
<glyph unicode="&#xd2;" horiz-adv-x="1153" d="M82 767q0 794 496 794q242 0 368.5 -182.5t126.5 -610.5q0 -240 -45 -405.5t-123 -245.5t-155.5 -112t-171.5 -32q-496 0 -496 794zM172 768q0 -225 34 -376.5t126 -248t246 -96.5q211 0 308 175t97 546q0 340 -92 530.5t-313 190.5q-406 0 -406 -721zM377 1958h102 l168 -303h-72z" />
<glyph unicode="&#xd3;" horiz-adv-x="1153" d="M82 767q0 794 496 794q242 0 368.5 -182.5t126.5 -610.5q0 -240 -45 -405.5t-123 -245.5t-155.5 -112t-171.5 -32q-496 0 -496 794zM172 768q0 -225 34 -376.5t126 -248t246 -96.5q211 0 308 175t97 546q0 340 -92 530.5t-313 190.5q-406 0 -406 -721zM535 1655l167 303 h105l-201 -303h-71z" />
<glyph unicode="&#xd4;" horiz-adv-x="1153" d="M82 767q0 794 496 794q242 0 368.5 -182.5t126.5 -610.5q0 -240 -45 -405.5t-123 -245.5t-155.5 -112t-171.5 -32q-496 0 -496 794zM172 768q0 -225 34 -376.5t126 -248t246 -96.5q211 0 308 175t97 546q0 340 -92 530.5t-313 190.5q-406 0 -406 -721zM332 1655l200 303 h91l202 -303h-90l-157 237l-156 -237h-90z" />
<glyph unicode="&#xd5;" horiz-adv-x="1153" d="M82 767q0 794 496 794q242 0 368.5 -182.5t126.5 -610.5q0 -240 -45 -405.5t-123 -245.5t-155.5 -112t-171.5 -32q-496 0 -496 794zM172 768q0 -225 34 -376.5t126 -248t246 -96.5q211 0 308 175t97 546q0 340 -92 530.5t-313 190.5q-406 0 -406 -721zM319 1710 q0 61 36 121.5t112 60.5q57 2 127 -53q74 -57 104 -57q45 0 63.5 39t18.5 82h66q0 -63 -36 -124t-112 -61q-53 -2 -125.5 53.5t-105.5 55.5q-82 0 -82 -117h-66z" />
<glyph unicode="&#xd6;" horiz-adv-x="1153" d="M82 767q0 794 496 794q242 0 368.5 -182.5t126.5 -610.5q0 -240 -45 -405.5t-123 -245.5t-155.5 -112t-171.5 -32q-496 0 -496 794zM172 768q0 -225 34 -376.5t126 -248t246 -96.5q211 0 308 175t97 546q0 340 -92 530.5t-313 190.5q-406 0 -406 -721zM389 1696v221h90 v-221h-90zM678 1696v221h90v-221h-90z" />
<glyph unicode="&#xd7;" horiz-adv-x="1290" d="M180 131l414 414l-414 411l51 52l414 -412l414 412l51 -52l-414 -411l414 -414l-51 -51l-414 412l-414 -412z" />
<glyph unicode="&#xd8;" horiz-adv-x="1153" d="M82 768q0 793 496 793q160 0 251 -66l62 145l70 -24l-68 -170q180 -182 180 -678q0 -240 -45 -405.5t-123 -245.5t-155.5 -112t-171.5 -32q-152 0 -252 72l-66 -160l-72 27l76 184q-182 183 -182 672zM172 768q0 -420 127 -590l500 1237q-86 74 -221 74q-406 0 -406 -721 zM354 121q86 -74 224 -74q211 0 308 175t97 546q0 418 -127 584z" />
<glyph unicode="&#xd9;" horiz-adv-x="1075" d="M113 424v1112h90v-1130q0 -358 334 -359q164 0 249.5 97.5t85.5 261.5v1130h91v-1112q0 -240 -121 -345.5t-305 -105.5q-424 0 -424 451zM340 1958h102l168 -303h-69z" />
<glyph unicode="&#xda;" horiz-adv-x="1075" d="M113 424v1112h90v-1130q0 -358 334 -359q164 0 249.5 97.5t85.5 261.5v1130h91v-1112q0 -240 -121 -345.5t-305 -105.5q-424 0 -424 451zM498 1655l166 303h104l-201 -303h-69z" />
<glyph unicode="&#xdb;" horiz-adv-x="1075" d="M113 424v1112h90v-1130q0 -358 334 -359q164 0 249.5 97.5t85.5 261.5v1130h91v-1112q0 -240 -121 -345.5t-305 -105.5q-424 0 -424 451zM291 1655l201 303h92l200 -303h-90l-157 237l-156 -237h-90z" />
<glyph unicode="&#xdc;" horiz-adv-x="1075" d="M113 424v1112h90v-1130q0 -358 334 -359q164 0 249.5 97.5t85.5 261.5v1130h91v-1112q0 -240 -121 -345.5t-305 -105.5q-424 0 -424 451zM352 1696v221h90v-221h-90zM641 1696v221h90v-221h-90z" />
<glyph unicode="&#xdd;" horiz-adv-x="954" d="M12 1536h101l364 -809l375 809h90l-420 -903v-633h-90v633zM434 1655l168 303h103l-199 -303h-72z" />
<glyph unicode="&#xde;" horiz-adv-x="995" d="M131 0v1536h90v-301h307q127 -2 215 -44t129 -112.5t57.5 -134t16.5 -135.5q0 -199 -114.5 -312.5t-321.5 -113.5h-289v-383h-90zM221 457h297q150 0 244 87t94 265q0 168 -85 260t-241 92h-309v-704z" />
<glyph unicode="&#xdf;" d="M111 0v1161q0 180 91 277.5t257 97.5q152 0 236.5 -94t84.5 -248q0 -248 -217 -307v-6q135 -18 214 -122t79 -288q0 -475 -450 -483h-48v71h48q186 0 273 97.5t87 312.5q0 188 -83 279.5t-259 91.5h-53v71h55q117 0 190.5 66.5t73.5 220.5q0 117 -61.5 190.5t-179.5 73.5 q-258 0 -259 -303v-1159h-79z" />
<glyph unicode="&#xe0;" horiz-adv-x="835" d="M51 289q0 129 54.5 202.5t173.5 106.5l243 66q70 20 90.5 55t20.5 110q0 143 -57.5 195.5t-159.5 52.5q-246 0 -246 -272h-82q0 63 14.5 119.5t46 109.5t98 85t159.5 32q172 0 240.5 -80t68.5 -217v-719q0 -76 49 -76q29 0 51 13v-66q-27 -18 -86 -18q-33 0 -64.5 30.5 t-31.5 92.5v69h-4q-27 -90 -106 -148.5t-189 -58.5q-143 0 -213 87.5t-70 228.5zM141 289q0 -242 207 -242q139 0 212 101.5t73 275.5v231h-4q-20 -33 -47 -45t-97 -28l-166 -47q-96 -27 -137 -85.5t-41 -160.5zM209 1583h102l168 -301h-69z" />
<glyph unicode="&#xe1;" horiz-adv-x="835" d="M51 289q0 129 54.5 202.5t173.5 106.5l243 66q70 20 90.5 55t20.5 110q0 143 -57.5 195.5t-159.5 52.5q-246 0 -246 -272h-82q0 63 14.5 119.5t46 109.5t98 85t159.5 32q172 0 240.5 -80t68.5 -217v-719q0 -76 49 -76q29 0 51 13v-66q-27 -18 -86 -18q-33 0 -64.5 30.5 t-31.5 92.5v69h-4q-27 -90 -106 -148.5t-189 -58.5q-143 0 -213 87.5t-70 228.5zM141 289q0 -242 207 -242q139 0 212 101.5t73 275.5v231h-4q-20 -33 -47 -45t-97 -28l-166 -47q-96 -27 -137 -85.5t-41 -160.5zM371 1282l166 301h104l-201 -301h-69z" />
<glyph unicode="&#xe2;" horiz-adv-x="835" d="M51 289q0 129 54.5 202.5t173.5 106.5l243 66q70 20 90.5 55t20.5 110q0 143 -57.5 195.5t-159.5 52.5q-246 0 -246 -272h-82q0 63 14.5 119.5t46 109.5t98 85t159.5 32q172 0 240.5 -80t68.5 -217v-719q0 -76 49 -76q29 0 51 13v-66q-27 -18 -86 -18q-33 0 -64.5 30.5 t-31.5 92.5v69h-4q-27 -90 -106 -148.5t-189 -58.5q-143 0 -213 87.5t-70 228.5zM141 289q0 -242 207 -242q139 0 212 101.5t73 275.5v231h-4q-20 -33 -47 -45t-97 -28l-166 -47q-96 -27 -137 -85.5t-41 -160.5zM166 1282l203 301h90l200 -301h-90l-155 236l-158 -236h-90z " />
<glyph unicode="&#xe3;" horiz-adv-x="835" d="M51 289q0 129 54.5 202.5t173.5 106.5l243 66q70 20 90.5 55t20.5 110q0 143 -57.5 195.5t-159.5 52.5q-246 0 -246 -272h-82q0 63 14.5 119.5t46 109.5t98 85t159.5 32q172 0 240.5 -80t68.5 -217v-719q0 -76 49 -76q29 0 51 13v-66q-27 -18 -86 -18q-33 0 -64.5 30.5 t-31.5 92.5v69h-4q-27 -90 -106 -148.5t-189 -58.5q-143 0 -213 87.5t-70 228.5zM141 289q0 -242 207 -242q139 0 212 101.5t73 275.5v231h-4q-20 -33 -47 -45t-97 -28l-166 -47q-96 -27 -137 -85.5t-41 -160.5zM154 1335q0 61 34.5 122t110.5 61q57 2 127 -54 q74 -55 104 -55q45 0 63.5 39t18.5 82h66q0 -66 -36 -126.5t-112 -60.5q-53 -2 -125.5 54.5t-105.5 56.5q-82 0 -82 -119h-63z" />
<glyph unicode="&#xe4;" horiz-adv-x="835" d="M51 289q0 129 54.5 202.5t173.5 106.5l243 66q70 20 90.5 55t20.5 110q0 143 -57.5 195.5t-159.5 52.5q-246 0 -246 -272h-82q0 63 14.5 119.5t46 109.5t98 85t159.5 32q172 0 240.5 -80t68.5 -217v-719q0 -76 49 -76q29 0 51 13v-66q-27 -18 -86 -18q-33 0 -64.5 30.5 t-31.5 92.5v69h-4q-27 -90 -106 -148.5t-189 -58.5q-143 0 -213 87.5t-70 228.5zM141 289q0 -242 207 -242q139 0 212 101.5t73 275.5v231h-4q-20 -33 -47 -45t-97 -28l-166 -47q-96 -27 -137 -85.5t-41 -160.5zM227 1323v219h90v-219h-90zM516 1323v219h90v-219h-90z" />
<glyph unicode="&#xe5;" horiz-adv-x="835" d="M51 289q0 129 54.5 202.5t173.5 106.5l243 66q70 20 90.5 55t20.5 110q0 143 -57.5 195.5t-159.5 52.5q-246 0 -246 -272h-82q0 63 14.5 119.5t46 109.5t98 85t159.5 32q172 0 240.5 -80t68.5 -217v-719q0 -76 49 -76q29 0 51 13v-66q-27 -18 -86 -18q-33 0 -64.5 30.5 t-31.5 92.5v69h-4q-27 -90 -106 -148.5t-189 -58.5q-143 0 -213 87.5t-70 228.5zM141 289q0 -242 207 -242q139 0 212 101.5t73 275.5v231h-4q-20 -33 -47 -45t-97 -28l-166 -47q-96 -27 -137 -85.5t-41 -160.5zM225 1466q0 80 55.5 134.5t137.5 54.5t136 -54.5t54 -134.5 t-54 -134t-136 -54t-137.5 54t-55.5 134zM291 1466.5q0 -53.5 35.5 -91.5t90 -38t91.5 38t37 91.5t-37 91t-91.5 37.5t-90 -37.5t-35.5 -91z" />
<glyph unicode="&#xe6;" horiz-adv-x="1314" d="M51 289q0 242 221 305l201 51q78 16 101.5 46t23.5 112v55q0 125 -53 172t-146 47q-74 0 -124 -29.5t-71.5 -78.5t-27.5 -86t-6 -78h-82q0 61 14.5 117.5t46 109.5t96 86t156.5 33q121 0 184.5 -58.5t82.5 -134.5h4q70 193 241 193q193 0 272 -147.5t79 -436.5h-584v-61 q0 -459 242 -459q74 0 126 37t76.5 93t33.5 104.5t9 87.5h82q0 -152 -84 -274t-245 -122q-115 0 -190 80t-93 185h-4q-66 -264 -299 -265q-143 0 -213 87.5t-70 228.5zM141 283q0 -111 51.5 -173.5t155.5 -62.5q117 0 183.5 93t66.5 251v230h-4q-37 -25 -131 -50l-144 -36 q-178 -47 -178 -252zM680 641h494q0 201 -58.5 318.5t-185.5 117.5q-129 0 -189.5 -117.5t-60.5 -318.5z" />
<glyph unicode="&#xe7;" horiz-adv-x="835" d="M82 567q0 584 379 584q94 0 163.5 -42t102.5 -104.5t46 -112.5t13 -89h-90q0 31 -10 71.5t-33.5 90t-75 81t-118.5 31.5q-152 0 -219.5 -130t-67.5 -384q0 -268 65.5 -392t221.5 -124q72 0 124 37t76.5 93t33.5 104.5t9 87.5h91q0 -84 -39 -188.5t-133 -162.5 q-59 -39 -158 -45l-72 -100l4 -4q33 10 82 10q59 0 104.5 -40t45.5 -101t-55.5 -110.5t-157.5 -49.5q-111 0 -183 39l21 47q74 -35 166 -35q135 0 135 107q0 92 -117 92q-61 0 -112 -31l-23 27l98 151q-84 12 -135 43q-182 121 -182 549z" />
<glyph unicode="&#xe8;" horiz-adv-x="874" d="M82 594q0 264 94 410.5t283 146.5q190 0 270 -147.5t80 -436.5h-637q0 -55 1 -86.5t5 -93t14.5 -100.5t30 -90.5t46 -80t70.5 -49t97 -20.5q82 0 141.5 37t86 93t38 103.5t11.5 88.5h80q0 -152 -87.5 -274t-261.5 -122q-205 0 -283.5 156t-78.5 465zM172 641h547 q0 88 -10.5 155.5t-36 136t-80.5 106.5t-137 38q-90 0 -149.5 -45t-87.5 -120.5t-37 -139t-9 -131.5zM240 1583h102l168 -301h-72z" />
<glyph unicode="&#xe9;" horiz-adv-x="874" d="M82 594q0 264 94 410.5t283 146.5q190 0 270 -147.5t80 -436.5h-637q0 -55 1 -86.5t5 -93t14.5 -100.5t30 -90.5t46 -80t70.5 -49t97 -20.5q82 0 141.5 37t86 93t38 103.5t11.5 88.5h80q0 -152 -87.5 -274t-261.5 -122q-205 0 -283.5 156t-78.5 465zM172 641h547 q0 88 -10.5 155.5t-36 136t-80.5 106.5t-137 38q-90 0 -149.5 -45t-87.5 -120.5t-37 -139t-9 -131.5zM418 1282l168 301h102l-201 -301h-69z" />
<glyph unicode="&#xea;" horiz-adv-x="874" d="M82 594q0 264 94 410.5t283 146.5q190 0 270 -147.5t80 -436.5h-637q0 -55 1 -86.5t5 -93t14.5 -100.5t30 -90.5t46 -80t70.5 -49t97 -20.5q82 0 141.5 37t86 93t38 103.5t11.5 88.5h80q0 -152 -87.5 -274t-261.5 -122q-205 0 -283.5 156t-78.5 465zM172 641h547 q0 88 -10.5 155.5t-36 136t-80.5 106.5t-137 38q-90 0 -149.5 -45t-87.5 -120.5t-37 -139t-9 -131.5zM211 1282l203 301h90l201 -301h-91l-155 236l-158 -236h-90z" />
<glyph unicode="&#xeb;" horiz-adv-x="874" d="M82 594q0 264 94 410.5t283 146.5q190 0 270 -147.5t80 -436.5h-637q0 -55 1 -86.5t5 -93t14.5 -100.5t30 -90.5t46 -80t70.5 -49t97 -20.5q82 0 141.5 37t86 93t38 103.5t11.5 88.5h80q0 -152 -87.5 -274t-261.5 -122q-205 0 -283.5 156t-78.5 465zM172 641h547 q0 88 -10.5 155.5t-36 136t-80.5 106.5t-137 38q-90 0 -149.5 -45t-87.5 -120.5t-37 -139t-9 -131.5zM254 1323v219h90v-219h-90zM543 1323v219h90v-219h-90z" />
<glyph unicode="&#xec;" horiz-adv-x="317" d="M-72 1583h105l168 -301h-72zM119 0v1124h82v-1124h-82z" />
<glyph unicode="&#xed;" horiz-adv-x="317" d="M117 1282l168 301h102l-201 -301h-69zM119 0v1124h82v-1124h-82z" />
<glyph unicode="&#xee;" horiz-adv-x="317" d="M-90 1282l203 301h90l200 -301h-90l-155 236l-158 -236h-90zM119 0v1124h82v-1124h-82z" />
<glyph unicode="&#xef;" horiz-adv-x="317" d="M-31 1323v219h90v-219h-90zM119 0v1124h82v-1124h-82zM258 1323v219h90v-219h-90z" />
<glyph unicode="&#xf0;" d="M82 561q0 133 17.5 233.5t57.5 184.5t115.5 128t188.5 44q121 0 207 -72l4 4q-23 82 -85.5 183.5t-121.5 158.5l-170 -100l-55 55l170 101q-68 68 -166 118l75 48q80 -39 166 -119l172 102l58 -55l-174 -105q293 -319 293 -909q0 -133 -16.5 -233.5t-56.5 -184.5 t-116 -127t-184 -43q-90 0 -156.5 31t-108.5 81t-69 127t-36 161t-9 188zM172 563q0 -256 65.5 -386t220 -130t220 130t65.5 386q0 254 -65.5 384t-220 130t-220 -130t-65.5 -384z" />
<glyph unicode="&#xf1;" horiz-adv-x="874" d="M111 0v1124h79v-170h7q33 84 105.5 140.5t178.5 56.5q129 0 207 -76t78 -227v-848h-82v809q0 143 -57.5 205.5t-165.5 62.5q-125 0 -198 -101.5t-73 -254.5v-721h-79zM172 1335q0 61 36 122t109 61q59 2 127 -54q74 -55 107 -55q45 0 63.5 39t18.5 82h63 q0 -66 -34.5 -126.5t-110.5 -60.5q-53 -2 -127 54.5t-107 56.5q-80 0 -79 -119h-66z" />
<glyph unicode="&#xf2;" d="M82 563q0 131 17.5 230.5t58.5 183.5t117.5 129t189.5 45q106 0 182 -45t115 -129t55.5 -184.5t16.5 -229.5q0 -131 -16.5 -231.5t-57.5 -183t-119 -129t-190 -46.5q-106 0 -182 46.5t-114 129t-55.5 183t-17.5 231.5zM172 561q0 -254 65.5 -384t220 -130t220 130 t65.5 384q0 256 -65.5 386t-220 130t-220 -130t-65.5 -386zM256 1583h102l168 -301h-69z" />
<glyph unicode="&#xf3;" d="M82 563q0 131 17.5 230.5t58.5 183.5t117.5 129t189.5 45q106 0 182 -45t115 -129t55.5 -184.5t16.5 -229.5q0 -131 -16.5 -231.5t-57.5 -183t-119 -129t-190 -46.5q-106 0 -182 46.5t-114 129t-55.5 183t-17.5 231.5zM172 561q0 -254 65.5 -384t220 -130t220 130 t65.5 384q0 256 -65.5 386t-220 130t-220 -130t-65.5 -386zM422 1282l168 301h102l-200 -301h-70z" />
<glyph unicode="&#xf4;" d="M82 563q0 131 17.5 230.5t58.5 183.5t117.5 129t189.5 45q106 0 182 -45t115 -129t55.5 -184.5t16.5 -229.5q0 -131 -16.5 -231.5t-57.5 -183t-119 -129t-190 -46.5q-106 0 -182 46.5t-114 129t-55.5 183t-17.5 231.5zM172 561q0 -254 65.5 -384t220 -130t220 130 t65.5 384q0 256 -65.5 386t-220 130t-220 -130t-65.5 -386zM215 1282l203 301h90l201 -301h-91l-155 236l-158 -236h-90z" />
<glyph unicode="&#xf5;" d="M82 563q0 131 17.5 230.5t58.5 183.5t117.5 129t189.5 45q106 0 182 -45t115 -129t55.5 -184.5t16.5 -229.5q0 -131 -16.5 -231.5t-57.5 -183t-119 -129t-190 -46.5q-106 0 -182 46.5t-114 129t-55.5 183t-17.5 231.5zM172 561q0 -254 65.5 -384t220 -130t220 130 t65.5 384q0 256 -65.5 386t-220 130t-220 -130t-65.5 -386zM201 1335q0 61 34.5 122t110.5 61q57 2 127 -54q74 -55 105 -55q45 0 63 39t18 82h66q0 -66 -36 -126.5t-111 -60.5q-53 -2 -126 54.5t-106 56.5q-82 0 -82 -119h-63z" />
<glyph unicode="&#xf6;" d="M82 563q0 131 17.5 230.5t58.5 183.5t117.5 129t189.5 45q106 0 182 -45t115 -129t55.5 -184.5t16.5 -229.5q0 -131 -16.5 -231.5t-57.5 -183t-119 -129t-190 -46.5q-106 0 -182 46.5t-114 129t-55.5 183t-17.5 231.5zM172 561q0 -254 65.5 -384t220 -130t220 130 t65.5 384q0 256 -65.5 386t-220 130t-220 -130t-65.5 -386zM272 1323v219h90v-219h-90zM561 1323v219h90v-219h-90z" />
<glyph unicode="&#xf7;" horiz-adv-x="1290" d="M100 508v74h1090v-74h-1090zM551 160q0 39 27.5 66.5t66.5 27.5t66.5 -27.5t27.5 -66.5t-27.5 -66.5t-66.5 -27.5t-66.5 27.5t-27.5 66.5zM551 929q0 38 27.5 66.5t66.5 28.5t66.5 -28.5t27.5 -66.5t-27.5 -66.5t-66.5 -28.5t-66.5 28.5t-27.5 66.5z" />
<glyph unicode="&#xf8;" d="M82 563q0 131 17.5 230.5t58.5 183.5t117.5 129t188 45t181.5 -47l53 129l62 -23l-62 -147q135 -133 136 -500q0 -131 -16.5 -231.5t-57.5 -183t-119 -129t-190 -46.5q-106 0 -181 47l-55 -135l-59 23l61 153q-135 135 -135 502zM172 561q0 -289 82 -407l358 872 q-61 51 -153 51q-156 0 -221.5 -130t-65.5 -386zM303 98q57 -51 156 -51q154 0 219 130t65 384q0 291 -81 412z" />
<glyph unicode="&#xf9;" horiz-adv-x="874" d="M111 276v848h79v-809q0 -143 57.5 -205.5t168.5 -62.5q125 0 196.5 101.5t71.5 254.5v721h82v-1124h-82v170h-4q-82 -197 -287 -197q-129 0 -205.5 75.5t-76.5 227.5zM238 1583h102l168 -301h-72z" />
<glyph unicode="&#xfa;" horiz-adv-x="874" d="M111 276v848h79v-809q0 -143 57.5 -205.5t168.5 -62.5q125 0 196.5 101.5t71.5 254.5v721h82v-1124h-82v170h-4q-82 -197 -287 -197q-129 0 -205.5 75.5t-76.5 227.5zM397 1282l168 301h105l-201 -301h-72z" />
<glyph unicode="&#xfb;" horiz-adv-x="874" d="M111 276v848h79v-809q0 -143 57.5 -205.5t168.5 -62.5q125 0 196.5 101.5t71.5 254.5v721h82v-1124h-82v170h-4q-82 -197 -287 -197q-129 0 -205.5 75.5t-76.5 227.5zM190 1282l203 301h90l203 -301h-90l-158 236l-155 -236h-93z" />
<glyph unicode="&#xfc;" horiz-adv-x="874" d="M111 276v848h79v-809q0 -143 57.5 -205.5t168.5 -62.5q125 0 196.5 101.5t71.5 254.5v721h82v-1124h-82v170h-4q-82 -197 -287 -197q-129 0 -205.5 75.5t-76.5 227.5zM250 1323v219h90v-219h-90zM537 1323v219h92v-219h-92z" />
<glyph unicode="&#xfd;" horiz-adv-x="755" d="M18 1124h93l282 -1007h4l250 1007h90l-348 -1292q-33 -115 -90 -163t-160 -48q-27 0 -84 4v74q66 -4 72 -4q82 0 121 33.5t67 142.5l35 119zM319 1282l168 301h105l-201 -301h-72z" />
<glyph unicode="&#xfe;" d="M115 -379v1915h82v-608h4q74 223 286 223q346 0 347 -586q0 -592 -351 -592q-115 0 -188.5 63.5t-93.5 180.5h-4v-596h-82zM197 565q0 -256 64.5 -387t209.5 -131q104 0 167.5 73t84 181.5t20.5 263.5q0 260 -68.5 386t-189.5 126q-152 0 -220 -125t-68 -387z" />
<glyph unicode="&#xff;" horiz-adv-x="755" d="M18 1124h93l282 -1007h4l250 1007h90l-348 -1292q-33 -115 -90 -163t-160 -48q-27 0 -84 4v74q66 -4 72 -4q82 0 121 33.5t67 142.5l35 119zM197 1323v219h90v-219h-90zM483 1323v219h90v-219h-90z" />
<glyph unicode="&#x100;" horiz-adv-x="1034" d="M-8 0l477 1536h115l458 -1536h-90l-145 477h-580l-145 -477h-90zM250 551h538l-264 895h-4zM293 1774v65h465v-65h-465z" />
<glyph unicode="&#x101;" horiz-adv-x="835" d="M51 289q0 129 54.5 202.5t173.5 106.5l243 66q70 20 90.5 55t20.5 110q0 143 -57.5 195.5t-159.5 52.5q-246 0 -246 -272h-82q0 63 14.5 119.5t46 109.5t98 85t159.5 32q172 0 240.5 -80t68.5 -217v-719q0 -76 49 -76q29 0 51 13v-66q-27 -18 -86 -18q-33 0 -64.5 30.5 t-31.5 92.5v69h-4q-27 -90 -106 -148.5t-189 -58.5q-143 0 -213 87.5t-70 228.5zM141 289q0 -242 207 -242q139 0 212 101.5t73 275.5v231h-4q-20 -33 -47 -45t-97 -28l-166 -47q-96 -27 -137 -85.5t-41 -160.5zM190 1401v63h465v-63h-465z" />
<glyph unicode="&#x102;" horiz-adv-x="1034" d="M-8 0l477 1536h115l458 -1536h-90l-145 477h-580l-145 -477h-90zM250 551h538l-264 895h-4zM283 1931h63q0 -78 45 -129q51 -55 131 -55q84 0 130 52t46 132h66q0 -92 -47 -159q-68 -90 -195 -90.5t-183 79.5t-56 170z" />
<glyph unicode="&#x103;" horiz-adv-x="835" d="M51 289q0 129 54.5 202.5t173.5 106.5l243 66q70 20 90.5 55t20.5 110q0 143 -57.5 195.5t-159.5 52.5q-246 0 -246 -272h-82q0 63 14.5 119.5t46 109.5t98 85t159.5 32q172 0 240.5 -80t68.5 -217v-719q0 -76 49 -76q29 0 51 13v-66q-27 -18 -86 -18q-33 0 -64.5 30.5 t-31.5 92.5v69h-4q-27 -90 -106 -148.5t-189 -58.5q-143 0 -213 87.5t-70 228.5zM141 289q0 -242 207 -242q139 0 212 101.5t73 275.5v231h-4q-20 -33 -47 -45t-97 -28l-166 -47q-96 -27 -137 -85.5t-41 -160.5zM174 1556h66q0 -78 45 -129q51 -55 131 -55q84 0 130 52.5 t46 131.5h63q0 -92 -47 -159q-66 -90 -192.5 -90t-184 79.5t-57.5 169.5z" />
<glyph unicode="&#x104;" horiz-adv-x="1034" d="M-8 0l477 1536h115l458 -1536h-28q-98 -78 -141.5 -135.5t-43.5 -116.5q0 -55 30 -87t81 -32q57 0 98 35l23 -47q-55 -39 -139 -39q-164 0 -164 158q0 139 194 264l-145 477h-580l-145 -477h-90zM250 551h538l-264 895h-4z" />
<glyph unicode="&#x105;" horiz-adv-x="835" d="M51 289q0 129 54.5 202.5t173.5 106.5l243 66q70 20 90.5 55t20.5 110q0 143 -57.5 195.5t-159.5 52.5q-246 0 -246 -272h-82q0 63 14.5 119.5t46 109.5t98 85t159.5 32q172 0 240.5 -80t68.5 -217v-719q0 -76 49 -76q29 0 51 13v-66q-20 -12 -61 -16q-84 -68 -123 -123 q-43 -59 -43 -119q0 -55 28.5 -87t79.5 -32q59 0 99 35l22 -47q-55 -39 -137 -39q-166 0 -166 158q0 72 53 139q45 63 133 121q-18 4 -32 18q-35 29 -35 97v69h-4q-27 -90 -106 -148.5t-189 -58.5q-143 0 -213 87.5t-70 228.5zM141 289q0 -242 207 -242q139 0 212 101.5 t73 275.5v231h-4q-20 -33 -47 -45t-97 -28l-166 -47q-96 -27 -137 -85.5t-41 -160.5z" />
<glyph unicode="&#x106;" horiz-adv-x="1075" d="M82 766q0 795 491 795q104 0 183.5 -34t125.5 -86t74.5 -119t38 -121t9.5 -107h-91q0 166 -87 280.5t-248 114.5q-217 0 -311.5 -186.5t-94.5 -532.5q0 -164 18.5 -289t61.5 -225t123 -154.5t190 -54.5q104 0 181 55.5t115 136t55.5 151.5t17.5 126h90 q0 -59 -12.5 -124.5t-45 -142.5t-84 -136.5t-137.5 -99.5t-194 -40q-469 0 -469 793zM537 1655l168 303h104l-201 -303h-71z" />
<glyph unicode="&#x107;" horiz-adv-x="835" d="M82 567q0 584 379 584q94 0 163.5 -42t102.5 -104.5t46 -112.5t13 -89h-90q0 31 -10 71.5t-33.5 90t-75 81t-118.5 31.5q-152 0 -219.5 -130t-67.5 -384q0 -268 65.5 -392t221.5 -124q72 0 124 37t76.5 93t33.5 104.5t9 87.5h91q0 -51 -14.5 -108.5t-49.5 -126 t-108.5 -115t-176.5 -46.5q-201 0 -281.5 156.5t-80.5 437.5zM424 1282l168 301h102l-198 -301h-72z" />
<glyph unicode="&#x108;" horiz-adv-x="1075" d="M82 766q0 795 491 795q104 0 183.5 -34t125.5 -86t74.5 -119t38 -121t9.5 -107h-91q0 166 -87 280.5t-248 114.5q-217 0 -311.5 -186.5t-94.5 -532.5q0 -164 18.5 -289t61.5 -225t123 -154.5t190 -54.5q104 0 181 55.5t115 136t55.5 151.5t17.5 126h90 q0 -59 -12.5 -124.5t-45 -142.5t-84 -136.5t-137.5 -99.5t-194 -40q-469 0 -469 793zM328 1655l200 303h90l203 -303h-90l-158 237l-155 -237h-90z" />
<glyph unicode="&#x109;" horiz-adv-x="835" d="M82 567q0 584 379 584q94 0 163.5 -42t102.5 -104.5t46 -112.5t13 -89h-90q0 31 -10 71.5t-33.5 90t-75 81t-118.5 31.5q-152 0 -219.5 -130t-67.5 -384q0 -268 65.5 -392t221.5 -124q72 0 124 37t76.5 93t33.5 104.5t9 87.5h91q0 -51 -14.5 -108.5t-49.5 -126 t-108.5 -115t-176.5 -46.5q-201 0 -281.5 156.5t-80.5 437.5zM213 1282l203 301h90l201 -301h-91l-155 236l-158 -236h-90z" />
<glyph unicode="&#x10a;" horiz-adv-x="1075" d="M82 766q0 795 491 795q104 0 183.5 -34t125.5 -86t74.5 -119t38 -121t9.5 -107h-91q0 166 -87 280.5t-248 114.5q-217 0 -311.5 -186.5t-94.5 -532.5q0 -164 18.5 -289t61.5 -225t123 -154.5t190 -54.5q104 0 181 55.5t115 136t55.5 151.5t17.5 126h90 q0 -59 -12.5 -124.5t-45 -142.5t-84 -136.5t-137.5 -99.5t-194 -40q-469 0 -469 793zM526 1696v221h90v-221h-90z" />
<glyph unicode="&#x10b;" horiz-adv-x="835" d="M82 567q0 584 379 584q94 0 163.5 -42t102.5 -104.5t46 -112.5t13 -89h-90q0 31 -10 71.5t-33.5 90t-75 81t-118.5 31.5q-152 0 -219.5 -130t-67.5 -384q0 -268 65.5 -392t221.5 -124q72 0 124 37t76.5 93t33.5 104.5t9 87.5h91q0 -51 -14.5 -108.5t-49.5 -126 t-108.5 -115t-176.5 -46.5q-201 0 -281.5 156.5t-80.5 437.5zM412 1323v219h90v-219h-90z" />
<glyph unicode="&#x10c;" horiz-adv-x="1075" d="M82 766q0 795 491 795q104 0 183.5 -34t125.5 -86t74.5 -119t38 -121t9.5 -107h-91q0 166 -87 280.5t-248 114.5q-217 0 -311.5 -186.5t-94.5 -532.5q0 -164 18.5 -289t61.5 -225t123 -154.5t190 -54.5q104 0 181 55.5t115 136t55.5 151.5t17.5 126h90 q0 -59 -12.5 -124.5t-45 -142.5t-84 -136.5t-137.5 -99.5t-194 -40q-469 0 -469 793zM324 1958h90l155 -238l158 238h90l-203 -303h-90z" />
<glyph unicode="&#x10d;" horiz-adv-x="835" d="M82 567q0 584 379 584q94 0 163.5 -42t102.5 -104.5t46 -112.5t13 -89h-90q0 31 -10 71.5t-33.5 90t-75 81t-118.5 31.5q-152 0 -219.5 -130t-67.5 -384q0 -268 65.5 -392t221.5 -124q72 0 124 37t76.5 93t33.5 104.5t9 87.5h91q0 -51 -14.5 -108.5t-49.5 -126 t-108.5 -115t-176.5 -46.5q-201 0 -281.5 156.5t-80.5 437.5zM211 1583h90l158 -237l155 237h91l-201 -301h-90z" />
<glyph unicode="&#x10e;" horiz-adv-x="1114" d="M131 0v1536h350q131 0 225.5 -33t172 -114.5t116.5 -236.5t39 -384q0 -182 -29.5 -321.5t-80 -222.5t-123 -134t-149.5 -70.5t-171 -19.5h-350zM221 74h260q244 0 353.5 169t109.5 525q0 365 -102.5 529.5t-360.5 164.5h-260v-1388zM246 1958h90l156 -238l157 238h90 l-202 -303h-91z" />
<glyph unicode="&#x10f;" d="M82 565q0 283 80 434.5t274 151.5q205 0 281 -223h4v608h82v-1536h-82v217h-4q-23 -117 -95.5 -180.5t-189.5 -63.5q-350 0 -350 592zM172 565q0 -156 20.5 -264t84 -181t167.5 -73q147 0 212 131t65 387q0 512 -281 512q-143 0 -205.5 -124t-62.5 -388zM899 1235l59 301 h103l-103 -301h-59z" />
<glyph unicode="&#x110;" horiz-adv-x="1114" d="M2 768v74h129v694h350q131 0 225.5 -33t172 -114.5t116.5 -236.5t39 -384q0 -182 -29.5 -321.5t-80 -222.5t-123 -134t-149.5 -70.5t-171 -19.5h-350v768h-129zM221 74h260q244 0 353.5 169t109.5 525q0 365 -102.5 529.5t-360.5 164.5h-260v-620h387v-74h-387v-694z" />
<glyph unicode="&#x111;" d="M82 565q0 283 80 434.5t274 151.5q205 0 281 -223h4v362h-293v70h293v176h82v-176h155v-70h-155v-1290h-82v217h-4q-23 -117 -95.5 -180.5t-189.5 -63.5q-350 0 -350 592zM172 565q0 -156 20.5 -264t84 -181t167.5 -73q147 0 212 131t65 387q0 512 -281 512 q-143 0 -205.5 -124t-62.5 -388z" />
<glyph unicode="&#x112;" d="M131 0v1536h733v-82h-643v-612h600v-82h-600v-678h664v-82h-754zM264 1774v65h465v-65h-465z" />
<glyph unicode="&#x113;" horiz-adv-x="874" d="M82 594q0 264 94 410.5t283 146.5q190 0 270 -147.5t80 -436.5h-637q0 -55 1 -86.5t5 -93t14.5 -100.5t30 -90.5t46 -80t70.5 -49t97 -20.5q82 0 141.5 37t86 93t38 103.5t11.5 88.5h80q0 -152 -87.5 -274t-261.5 -122q-205 0 -283.5 156t-78.5 465zM172 641h547 q0 88 -10.5 155.5t-36 136t-80.5 106.5t-137 38q-90 0 -149.5 -45t-87.5 -120.5t-37 -139t-9 -131.5zM227 1401v63h465v-63h-465z" />
<glyph unicode="&#x114;" d="M131 0v1536h733v-82h-643v-612h600v-82h-600v-678h664v-82h-754zM254 1931h63q0 -78 45 -129q53 -55 134 -55q82 0 129 52t47 132h63q0 -92 -47 -159q-68 -90 -193.5 -90.5t-183 79.5t-57.5 170z" />
<glyph unicode="&#x115;" horiz-adv-x="874" d="M82 594q0 264 94 410.5t283 146.5q190 0 270 -147.5t80 -436.5h-637q0 -55 1 -86.5t5 -93t14.5 -100.5t30 -90.5t46 -80t70.5 -49t97 -20.5q82 0 141.5 37t86 93t38 103.5t11.5 88.5h80q0 -152 -87.5 -274t-261.5 -122q-205 0 -283.5 156t-78.5 465zM172 641h547 q0 88 -10.5 155.5t-36 136t-80.5 106.5t-137 38q-90 0 -149.5 -45t-87.5 -120.5t-37 -139t-9 -131.5zM221 1556h66q0 -78 45 -129q51 -55 131 -55q84 0 130 52.5t46 131.5h63q0 -92 -47 -159q-66 -90 -192.5 -90t-184 79.5t-57.5 169.5z" />
<glyph unicode="&#x116;" d="M131 0v1536h733v-82h-643v-612h600v-82h-600v-678h664v-82h-754zM457 1696v221h90v-221h-90z" />
<glyph unicode="&#x117;" horiz-adv-x="874" d="M82 594q0 264 94 410.5t283 146.5q190 0 270 -147.5t80 -436.5h-637q0 -55 1 -86.5t5 -93t14.5 -100.5t30 -90.5t46 -80t70.5 -49t97 -20.5q82 0 141.5 37t86 93t38 103.5t11.5 88.5h80q0 -152 -87.5 -274t-261.5 -122q-205 0 -283.5 156t-78.5 465zM172 641h547 q0 88 -10.5 155.5t-36 136t-80.5 106.5t-137 38q-90 0 -149.5 -45t-87.5 -120.5t-37 -139t-9 -131.5zM406 1323v219h92v-219h-92z" />
<glyph unicode="&#x118;" d="M131 0v1536h733v-82h-643v-612h600v-82h-600v-678h664v-82h-45q-98 -78 -141.5 -135.5t-43.5 -116.5q0 -55 30 -87t81 -32q57 0 98 35l23 -47q-57 -39 -139 -39q-164 0 -164 158q0 139 194 264h-647z" />
<glyph unicode="&#x119;" horiz-adv-x="874" d="M82 594q0 264 94 410.5t283 146.5q190 0 270 -147.5t80 -436.5h-637q0 -55 1 -86.5t5 -93t14.5 -100.5t30 -90.5t46 -80t70.5 -49t97 -20.5q82 0 141.5 37t86 93t38 103.5t11.5 88.5h80q0 -248 -187 -359q-45 -20 -100 -30q-76 -63 -113 -113q-43 -59 -43 -119 q0 -55 30 -87t81 -32q57 0 98 35l23 -47q-57 -39 -140 -39q-166 0 -166 158q0 72 56 139q41 51 102 98q-104 6 -170 43q-100 63 -141 205t-41 373zM172 641h547q0 88 -10.5 155.5t-36 136t-80.5 106.5t-137 38q-90 0 -149.5 -45t-87.5 -120.5t-37 -139t-9 -131.5z" />
<glyph unicode="&#x11a;" d="M131 0v1536h733v-82h-643v-612h600v-82h-600v-678h664v-82h-754zM252 1958h90l158 -238l155 238h90l-200 -303h-90z" />
<glyph unicode="&#x11b;" horiz-adv-x="874" d="M82 594q0 264 94 410.5t283 146.5q190 0 270 -147.5t80 -436.5h-637q0 -55 1 -86.5t5 -93t14.5 -100.5t30 -90.5t46 -80t70.5 -49t97 -20.5q82 0 141.5 37t86 93t38 103.5t11.5 88.5h80q0 -152 -87.5 -274t-261.5 -122q-205 0 -283.5 156t-78.5 465zM172 641h547 q0 88 -10.5 155.5t-36 136t-80.5 106.5t-137 38q-90 0 -149.5 -45t-87.5 -120.5t-37 -139t-9 -131.5zM205 1583h90l156 -237l157 237h90l-200 -301h-92z" />
<glyph unicode="&#x11c;" horiz-adv-x="1114" d="M82 766q0 795 491 795q104 0 183.5 -34t125.5 -86t74.5 -119t38 -121t9.5 -107h-91q0 166 -87 280.5t-248 114.5q-217 0 -311.5 -186.5t-94.5 -532.5q0 -164 18.5 -289t61.5 -225t123 -154.5t190 -54.5q137 0 225.5 85t121 204t32.5 264v94h-422v74h512v-768h-73v309h-5 q-39 -158 -141 -247t-262 -89q-471 0 -471 793zM330 1655l200 303h91l202 -303h-90l-158 237l-155 -237h-90z" />
<glyph unicode="&#x11d;" d="M82 567q0 102 8 181t30.5 157t61.5 129t103.5 84t150.5 33q211 0 281 -213h4v186h82v-1063q0 -223 -82 -339.5t-281 -116.5q-82 0 -141 24.5t-90 56t-48.5 74.5t-21.5 71t-4 52h82q0 -92 58.5 -149.5t173.5 -57.5q143 0 207.5 83t64.5 261v207h-6q-16 -45 -34.5 -77.5 t-50.5 -70.5t-86.5 -58.5t-123.5 -20.5q-338 0 -338 567zM172 567q0 -236 61.5 -364.5t210.5 -128.5q276 0 277 512q0 492 -264 491q-143 0 -214 -115.5t-71 -394.5zM233 1282l203 301h90l203 -301h-90l-158 236l-155 -236h-93z" />
<glyph unicode="&#x11e;" horiz-adv-x="1114" d="M82 766q0 795 491 795q104 0 183.5 -34t125.5 -86t74.5 -119t38 -121t9.5 -107h-91q0 166 -87 280.5t-248 114.5q-217 0 -311.5 -186.5t-94.5 -532.5q0 -164 18.5 -289t61.5 -225t123 -154.5t190 -54.5q137 0 225.5 85t121 204t32.5 264v94h-422v74h512v-768h-73v309h-5 q-39 -158 -141 -247t-262 -89q-471 0 -471 793zM338 1931h63q0 -78 45 -129q53 -55 132 -55q84 0 131 52t47 132h63q0 -92 -47 -159q-68 -90 -194.5 -90.5t-183 79.5t-56.5 170z" />
<glyph unicode="&#x11f;" d="M82 567q0 102 8 181t30.5 157t61.5 129t103.5 84t150.5 33q211 0 281 -213h4v186h82v-1063q0 -223 -82 -339.5t-281 -116.5q-82 0 -141 24.5t-90 56t-48.5 74.5t-21.5 71t-4 52h82q0 -92 58.5 -149.5t173.5 -57.5q143 0 207.5 83t64.5 261v207h-6q-16 -45 -34.5 -77.5 t-50.5 -70.5t-86.5 -58.5t-123.5 -20.5q-338 0 -338 567zM172 567q0 -236 61.5 -364.5t210.5 -128.5q276 0 277 512q0 492 -264 491q-143 0 -214 -115.5t-71 -394.5zM240 1556h63q0 -78 45 -129q51 -55 131 -55q84 0 130 52.5t46 131.5h66q0 -92 -47 -159q-68 -90 -195 -90 t-183 79.5t-56 169.5z" />
<glyph unicode="&#x120;" horiz-adv-x="1114" d="M82 766q0 795 491 795q104 0 183.5 -34t125.5 -86t74.5 -119t38 -121t9.5 -107h-91q0 166 -87 280.5t-248 114.5q-217 0 -311.5 -186.5t-94.5 -532.5q0 -164 18.5 -289t61.5 -225t123 -154.5t190 -54.5q137 0 225.5 85t121 204t32.5 264v94h-422v74h512v-768h-73v309h-5 q-39 -158 -141 -247t-262 -89q-471 0 -471 793zM526 1696v221h90v-221h-90z" />
<glyph unicode="&#x121;" d="M82 567q0 102 8 181t30.5 157t61.5 129t103.5 84t150.5 33q211 0 281 -213h4v186h82v-1063q0 -223 -82 -339.5t-281 -116.5q-82 0 -141 24.5t-90 56t-48.5 74.5t-21.5 71t-4 52h82q0 -92 58.5 -149.5t173.5 -57.5q143 0 207.5 83t64.5 261v207h-6q-16 -45 -34.5 -77.5 t-50.5 -70.5t-86.5 -58.5t-123.5 -20.5q-338 0 -338 567zM172 567q0 -236 61.5 -364.5t210.5 -128.5q276 0 277 512q0 492 -264 491q-143 0 -214 -115.5t-71 -394.5zM422 1323v219h90v-219h-90z" />
<glyph unicode="&#x122;" horiz-adv-x="1114" d="M82 766q0 795 491 795q104 0 183.5 -34t125.5 -86t74.5 -119t38 -121t9.5 -107h-91q0 166 -87 280.5t-248 114.5q-217 0 -311.5 -186.5t-94.5 -532.5q0 -164 18.5 -289t61.5 -225t123 -154.5t190 -54.5q137 0 225.5 85t121 204t32.5 264v94h-422v74h512v-768h-73v309h-5 q-39 -158 -141 -247t-262 -89q-471 0 -471 793zM510 -395q55 23 55 100h-45v189h101v-185q0 -121 -111 -147v43z" />
<glyph unicode="&#x123;" d="M82 567q0 102 8 181t30.5 157t61.5 129t103.5 84t150.5 33q211 0 281 -213h4v186h82v-1063q0 -223 -82 -339.5t-281 -116.5q-82 0 -141 24.5t-90 56t-48.5 74.5t-21.5 71t-4 52h82q0 -92 58.5 -149.5t173.5 -57.5q143 0 207.5 83t64.5 261v207h-6q-16 -45 -34.5 -77.5 t-50.5 -70.5t-86.5 -58.5t-123.5 -20.5q-338 0 -338 567zM172 567q0 -236 61.5 -364.5t210.5 -128.5q276 0 277 512q0 492 -264 491q-143 0 -214 -115.5t-71 -394.5zM410 1348v184q0 119 110 147v-43q-55 -23 -55 -100h45v-188h-100z" />
<glyph unicode="&#x124;" horiz-adv-x="1114" d="M131 0v1536h90v-674h674v674h90v-1536h-90v780h-674v-780h-90zM307 1655l203 303h90l203 -303h-90l-158 237l-158 -237h-90z" />
<glyph unicode="&#x125;" horiz-adv-x="874" d="M111 0v1536h79v-582h7q33 84 105.5 140.5t178.5 56.5q129 0 207 -76t78 -227v-848h-82v809q0 143 -57.5 205.5t-165.5 62.5q-125 0 -198 -101.5t-73 -254.5v-721h-79zM170 1655l203 303h90l201 -303h-91l-155 237l-158 -237h-90z" />
<glyph unicode="&#x126;" horiz-adv-x="1114" d="M131 0v1536h90v-328h674v328h90v-1536h-90v737h-674v-737h-90zM221 819h674v318h-674v-318z" />
<glyph unicode="&#x127;" horiz-adv-x="874" d="M-47 1290v70h158v176h79v-176h293v-70h-293v-336h7q33 84 105.5 140.5t178.5 56.5q129 0 207 -76t78 -227v-848h-82v809q0 143 -57.5 205.5t-165.5 62.5q-125 0 -198 -101.5t-73 -254.5v-721h-79v1290h-158z" />
<glyph unicode="&#x128;" horiz-adv-x="352" d="M-86 1710q0 61 36 121.5t109 60.5q59 2 127 -53q74 -57 107 -57q45 0 63.5 39t18.5 82h63q0 -63 -34.5 -124t-110.5 -61q-53 -2 -127 53.5t-107 55.5q-80 0 -79 -117h-66zM131 0v1536h90v-1536h-90z" />
<glyph unicode="&#x129;" horiz-adv-x="317" d="M-104 1335q0 61 34.5 122t110.5 61q57 2 127 -54q74 -55 104 -55q45 0 63.5 39t18.5 82h66q0 -66 -36 -126.5t-112 -60.5q-53 -2 -125.5 54.5t-105.5 56.5q-82 0 -82 -119h-63zM119 0v1124h82v-1124h-82z" />
<glyph unicode="&#x12a;" horiz-adv-x="352" d="M-55 1774v65h465v-65h-465zM131 0v1536h90v-1536h-90z" />
<glyph unicode="&#x12b;" horiz-adv-x="317" d="M-74 1401v63h465v-63h-465zM119 0v1124h82v-1124h-82z" />
<glyph unicode="&#x12c;" horiz-adv-x="352" d="M-61 1931h63q0 -78 45 -129q51 -55 131 -55q84 0 130 52t46 132h66q0 -92 -47 -159q-68 -90 -195 -90.5t-183 79.5t-56 170zM131 0v1536h90v-1536h-90z" />
<glyph unicode="&#x12d;" horiz-adv-x="317" d="M-82 1556h66q0 -78 45 -129q51 -55 131 -55q84 0 130 52.5t46 131.5h63q0 -92 -47 -159q-66 -90 -192.5 -90t-184 79.5t-57.5 169.5zM119 0v1124h82v-1124h-82z" />
<glyph unicode="&#x12e;" horiz-adv-x="352" d="M-10 -264q0 137 176 264h-35v1536h90v-1536q-166 -141 -166 -252q0 -119 101 -119q51 0 88 35l18 -47q-47 -39 -123 -39q-149 0 -149 158z" />
<glyph unicode="&#x12f;" horiz-adv-x="317" d="M-33 -264q0 137 176 264h-24v1124h82v-1124q-166 -141 -166 -252q0 -119 98 -119q51 0 88 35l21 -47q-49 -39 -123 -39q-152 0 -152 158zM119 1317v219h82v-219h-82z" />
<glyph unicode="&#x130;" horiz-adv-x="352" d="M131 0v1536h90v-1536h-90zM131 1696v221h90v-221h-90z" />
<glyph unicode="&#x131;" horiz-adv-x="317" d="M119 0v1124h82v-1124h-82z" />
<glyph unicode="&#x134;" horiz-adv-x="874" d="M51 416v33h90v-48q0 -354 250 -354q115 0 188.5 69.5t73.5 233.5v1186h90v-1186q0 -184 -93 -280.5t-253 -96.5q-190 0 -268 116t-78 327zM446 1655l203 303h90l203 -303h-90l-158 237l-157 -237h-91z" />
<glyph unicode="&#x135;" horiz-adv-x="317" d="M-94 1282l200 301h93l200 -301h-90l-155 236l-158 -236h-90zM-82 -305q39 -4 62 -4q39 0 66.5 8t50 46t22.5 103v1276h82v-1265q0 -242 -205 -242q-27 0 -78 4v74z" />
<glyph unicode="&#x136;" horiz-adv-x="995" d="M131 0v1536h90v-854h4l635 854h98l-481 -647l529 -889h-103l-483 813l-199 -262v-551h-90zM455 -395q55 23 55 100h-45v189h100v-185q0 -121 -110 -147v43z" />
<glyph unicode="&#x137;" horiz-adv-x="835" d="M111 0v1536h79v-1010h7l485 598h102l-348 -417l412 -707h-105l-364 635l-189 -221v-414h-79zM375 -395q55 23 55 100h-45v189h100v-185q0 -121 -110 -147v43z" />
<glyph unicode="&#x138;" horiz-adv-x="835" d="M111 0v1124h79v-641l492 641h102l-342 -434l406 -690h-105l-358 616l-195 -243v-373h-79z" />
<glyph unicode="&#x139;" d="M131 0v1536h90v-1454h643v-82h-733zM139 1655l168 303h105l-201 -303h-72z" />
<glyph unicode="&#x13a;" horiz-adv-x="317" d="M119 0v1536h82v-1536h-82zM119 1655l168 303h102l-201 -303h-69z" />
<glyph unicode="&#x13b;" d="M131 0v1536h90v-1454h643v-82h-733zM410 -395q55 23 55 100h-45v189h100v-185q0 -121 -110 -147v43z" />
<glyph unicode="&#x13c;" horiz-adv-x="317" d="M96 -395q57 23 58 100h-48v189h103v-185q0 -121 -113 -147v43zM119 0v1536h82v-1536h-82z" />
<glyph unicode="&#x13d;" d="M131 0v1536h90v-1454h643v-82h-733zM397 1235l62 301h100l-100 -301h-62z" />
<glyph unicode="&#x13e;" horiz-adv-x="317" d="M119 0v1536h82v-1536h-82zM297 1235l59 301h103l-103 -301h-59z" />
<glyph unicode="&#x13f;" d="M131 0v1536h90v-1454h643v-82h-733zM508 719v219h90v-219h-90z" />
<glyph unicode="&#x140;" horiz-adv-x="483" d="M119 0v1536h82v-1536h-82zM336 719v219h90v-219h-90z" />
<glyph unicode="&#x141;" d="M-20 528v101l151 116v791h90v-721l402 309v-98l-402 -309v-635h643v-82h-733v647z" />
<glyph unicode="&#x142;" horiz-adv-x="317" d="M0 555v113l119 141v727h82v-641h4l112 141v-110l-116 -144v-782h-82v696h-4z" />
<glyph unicode="&#x143;" horiz-adv-x="1114" d="M117 0v1536h121l667 -1395h4v1395h90v-1536h-118l-670 1393h-4v-1393h-90zM510 1655l168 303h102l-198 -303h-72z" />
<glyph unicode="&#x144;" horiz-adv-x="874" d="M111 0v1124h79v-170h7q33 84 105.5 140.5t178.5 56.5q129 0 207 -76t78 -227v-848h-82v809q0 143 -57.5 205.5t-165.5 62.5q-125 0 -198 -101.5t-73 -254.5v-721h-79zM389 1282l168 301h102l-198 -301h-72z" />
<glyph unicode="&#x145;" horiz-adv-x="1114" d="M117 0v1536h121l667 -1395h4v1395h90v-1536h-118l-670 1393h-4v-1393h-90zM483 -395q57 23 58 100h-45v189h100v-185q0 -121 -113 -147v43z" />
<glyph unicode="&#x146;" horiz-adv-x="874" d="M111 0v1124h79v-170h7q33 84 105.5 140.5t178.5 56.5q129 0 207 -76t78 -227v-848h-82v809q0 143 -57.5 205.5t-165.5 62.5q-125 0 -198 -101.5t-73 -254.5v-721h-79zM377 -395q55 23 55 100h-45v189h100v-185q0 -121 -110 -147v43z" />
<glyph unicode="&#x147;" horiz-adv-x="1114" d="M117 0v1536h121l667 -1395h4v1395h90v-1536h-118l-670 1393h-4v-1393h-90zM309 1958h90l158 -238l158 238h90l-203 -303h-90z" />
<glyph unicode="&#x148;" horiz-adv-x="874" d="M111 0v1124h79v-170h7q33 84 105.5 140.5t178.5 56.5q129 0 207 -76t78 -227v-848h-82v809q0 143 -57.5 205.5t-165.5 62.5q-125 0 -198 -101.5t-73 -254.5v-721h-79zM184 1583h90l158 -237l158 237h90l-203 -301h-90z" />
<glyph unicode="&#x14a;" horiz-adv-x="1114" d="M117 0v1536h121l667 -1372h4v1372h90v-1638q0 -281 -243 -281q-63 0 -107 4v80q43 -4 88 -4q88 0 130 43t42 154v67l-698 1432h-4v-1393h-90z" />
<glyph unicode="&#x14b;" horiz-adv-x="874" d="M111 0v1124h79v-170h7q33 84 105.5 140.5t178.5 56.5q129 0 207 -76t78 -227v-975q0 -256 -221 -256q-31 0 -90 4v74q51 -4 71 -4q84 0 121 39t37 139v940q0 143 -57.5 205.5t-165.5 62.5q-125 0 -198 -101.5t-73 -254.5v-721h-79z" />
<glyph unicode="&#x14c;" horiz-adv-x="1153" d="M82 767q0 794 496 794q242 0 368.5 -182.5t126.5 -610.5q0 -240 -45 -405.5t-123 -245.5t-155.5 -112t-171.5 -32q-496 0 -496 794zM172 768q0 -225 34 -376.5t126 -248t246 -96.5q211 0 308 175t97 546q0 340 -92 530.5t-313 190.5q-406 0 -406 -721zM346 1774v65h465 v-65h-465z" />
<glyph unicode="&#x14d;" d="M82 563q0 131 17.5 230.5t58.5 183.5t117.5 129t189.5 45q106 0 182 -45t115 -129t55.5 -184.5t16.5 -229.5q0 -131 -16.5 -231.5t-57.5 -183t-119 -129t-190 -46.5q-106 0 -182 46.5t-114 129t-55.5 183t-17.5 231.5zM172 561q0 -254 65.5 -384t220 -130t220 130 t65.5 384q0 256 -65.5 386t-220 130t-220 -130t-65.5 -386zM227 1401v63h465v-63h-465z" />
<glyph unicode="&#x14e;" horiz-adv-x="1153" d="M82 767q0 794 496 794q242 0 368.5 -182.5t126.5 -610.5q0 -240 -45 -405.5t-123 -245.5t-155.5 -112t-171.5 -32q-496 0 -496 794zM172 768q0 -225 34 -376.5t126 -248t246 -96.5q211 0 308 175t97 546q0 340 -92 530.5t-313 190.5q-406 0 -406 -721zM336 1931h63 q0 -78 45 -129q53 -55 131 -55q84 0 131.5 52t47.5 132h63q0 -92 -47 -159q-68 -90 -194.5 -90.5t-183 79.5t-56.5 170z" />
<glyph unicode="&#x14f;" d="M82 563q0 131 17.5 230.5t58.5 183.5t117.5 129t189.5 45q106 0 182 -45t115 -129t55.5 -184.5t16.5 -229.5q0 -131 -16.5 -231.5t-57.5 -183t-119 -129t-190 -46.5q-106 0 -182 46.5t-114 129t-55.5 183t-17.5 231.5zM172 561q0 -254 65.5 -384t220 -130t220 130 t65.5 384q0 256 -65.5 386t-220 130t-220 -130t-65.5 -386zM217 1556h66q0 -78 45 -129q51 -55 131 -55q84 0 130 52.5t46 131.5h63q0 -92 -47 -159q-66 -90 -192.5 -90t-184 79.5t-57.5 169.5z" />
<glyph unicode="&#x150;" horiz-adv-x="1153" d="M82 767q0 794 496 794q242 0 368.5 -182.5t126.5 -610.5q0 -240 -45 -405.5t-123 -245.5t-155.5 -112t-171.5 -32q-496 0 -496 794zM172 768q0 -225 34 -376.5t126 -248t246 -96.5q211 0 308 175t97 546q0 340 -92 530.5t-313 190.5q-406 0 -406 -721zM410 1655l165 303 h105l-201 -303h-69zM696 1655l168 303h103l-199 -303h-72z" />
<glyph unicode="&#x151;" d="M82 563q0 131 17.5 230.5t58.5 183.5t117.5 129t189.5 45q106 0 182 -45t115 -129t55.5 -184.5t16.5 -229.5q0 -131 -16.5 -231.5t-57.5 -183t-119 -129t-190 -46.5q-106 0 -182 46.5t-114 129t-55.5 183t-17.5 231.5zM172 561q0 -254 65.5 -384t220 -130t220 130 t65.5 384q0 256 -65.5 386t-220 130t-220 -130t-65.5 -386zM291 1282l168 301h102l-201 -301h-69zM578 1282l167 301h105l-201 -301h-71z" />
<glyph unicode="&#x152;" horiz-adv-x="1671" d="M106 768q0 387 113 590t365 203q76 0 138 -16.5t98 -45.5t51.5 -47t23.5 -33h4v117h703v-82h-613v-612h567v-82h-567v-678h641v-82h-731v129h-4q-80 -156 -311 -156q-252 0 -365 204t-113 591zM199 768q0 -354 92 -537.5t307 -183.5q158 0 229.5 80t71.5 250v782 q0 170 -71.5 250t-229.5 80q-215 0 -307 -183.5t-92 -537.5z" />
<glyph unicode="&#x153;" horiz-adv-x="1472" d="M82 561q0 174 36 302t122 208t219 80q131 0 207.5 -81t93.5 -202h4q18 119 94 201t199 82q334 0 334 -584h-584v-61q0 -459 242 -459q74 0 125 37t76.5 93t34.5 104.5t9 87.5h82q0 -152 -84 -274t-245 -122q-119 0 -195 82t-88 203h-4q-10 -121 -88 -203t-213 -82 q-209 0 -293 156t-84 432zM172 563q0 -256 65.5 -386t221.5 -130q152 0 209 127t57 389q0 260 -57.5 387t-208.5 127q-287 0 -287 -514zM807 641h493q0 201 -58 318.5t-185 117.5q-129 0 -189.5 -117.5t-60.5 -318.5z" />
<glyph unicode="&#x154;" horiz-adv-x="1075" d="M131 0v1536h451q168 0 273.5 -101.5t105.5 -301.5q0 -156 -80 -259.5t-228 -119.5v-6q174 -12 235.5 -105.5t61.5 -273.5v-162q0 -127 51 -207h-102q-39 74 -39 209v156q0 178 -65.5 263t-241.5 85h-332v-713h-90zM221 784h289q360 0 360 349q0 156 -80.5 242.5 t-222.5 86.5h-346v-678zM438 1655l168 303h103l-199 -303h-72z" />
<glyph unicode="&#x155;" horiz-adv-x="518" d="M111 0v1124h79v-194h7q70 221 280 221h47v-74h-47q-133 0 -210 -107.5t-77 -254.5v-715h-79zM127 1282l168 301h102l-198 -301h-72z" />
<glyph unicode="&#x156;" horiz-adv-x="1075" d="M131 0v1536h451q168 0 273.5 -101.5t105.5 -301.5q0 -156 -80 -259.5t-228 -119.5v-6q174 -12 235.5 -105.5t61.5 -273.5v-162q0 -127 51 -207h-102q-39 74 -39 209v156q0 178 -65.5 263t-241.5 85h-332v-713h-90zM221 784h289q360 0 360 349q0 156 -80.5 242.5 t-222.5 86.5h-346v-678zM469 -395q55 23 55 100h-45v189h103v-185q0 -121 -113 -147v43z" />
<glyph unicode="&#x157;" horiz-adv-x="518" d="M92 -395q55 23 55 100h-45v189h103v-185q0 -121 -113 -147v43zM111 0v1124h79v-194h7q70 221 280 221h47v-74h-47q-133 0 -210 -107.5t-77 -254.5v-715h-79z" />
<glyph unicode="&#x158;" horiz-adv-x="1075" d="M131 0v1536h451q168 0 273.5 -101.5t105.5 -301.5q0 -156 -80 -259.5t-228 -119.5v-6q174 -12 235.5 -105.5t61.5 -273.5v-162q0 -127 51 -207h-102q-39 74 -39 209v156q0 178 -65.5 263t-241.5 85h-332v-713h-90zM221 784h289q360 0 360 349q0 156 -80.5 242.5 t-222.5 86.5h-346v-678zM240 1958h90l155 -238l158 238h90l-203 -303h-90z" />
<glyph unicode="&#x159;" horiz-adv-x="518" d="M66 1583h90l155 -237l158 237h90l-203 -301h-90zM111 0v1124h79v-194h7q70 221 280 221h47v-74h-47q-133 0 -210 -107.5t-77 -254.5v-715h-79z" />
<glyph unicode="&#x15a;" horiz-adv-x="1034" d="M76 373v100h90v-80q0 -150 93 -248t255 -98q158 0 256 100.5t98 247.5q0 139 -66.5 208t-211.5 122l-174 59q-162 55 -238 141.5t-76 235.5q0 182 115 291t297 109q207 0 309.5 -110t102.5 -306h-92q0 160 -77 252t-235 92q-143 0 -236 -76t-93 -244q0 -221 227 -297 l227 -79q160 -55 235.5 -142.5t75.5 -249.5q0 -199 -128 -313.5t-316 -114.5q-125 0 -216 40t-136 104.5t-65.5 128.5t-20.5 127zM471 1655l168 303h102l-198 -303h-72z" />
<glyph unicode="&#x15b;" horiz-adv-x="755" d="M49 330v28h82v-34q0 -276 252 -277q119 0 176 66.5t57 169.5q0 86 -36.5 139t-130.5 90l-164 66q-111 45 -161 111.5t-50 170.5q0 137 84 214t223 77q293 0 293 -307v-35h-82v33q0 236 -211 235q-96 0 -156.5 -51t-60.5 -158q0 -88 40 -137t128 -84l172 -63 q203 -78 203 -299q0 -139 -93.5 -225.5t-230.5 -86.5q-334 1 -334 357zM342 1282l168 301h102l-198 -301h-72z" />
<glyph unicode="&#x15c;" horiz-adv-x="1034" d="M76 373v100h90v-80q0 -150 93 -248t255 -98q158 0 256 100.5t98 247.5q0 139 -66.5 208t-211.5 122l-174 59q-162 55 -238 141.5t-76 235.5q0 182 115 291t297 109q207 0 309.5 -110t102.5 -306h-92q0 160 -77 252t-235 92q-143 0 -236 -76t-93 -244q0 -221 227 -297 l227 -79q160 -55 235.5 -142.5t75.5 -249.5q0 -199 -128 -313.5t-316 -114.5q-125 0 -216 40t-136 104.5t-65.5 128.5t-20.5 127zM279 1655l202 303h90l203 -303h-90l-158 237l-155 -237h-92z" />
<glyph unicode="&#x15d;" horiz-adv-x="755" d="M49 330v28h82v-34q0 -276 252 -277q119 0 176 66.5t57 169.5q0 86 -36.5 139t-130.5 90l-164 66q-111 45 -161 111.5t-50 170.5q0 137 84 214t223 77q293 0 293 -307v-35h-82v33q0 236 -211 235q-96 0 -156.5 -51t-60.5 -158q0 -88 40 -137t128 -84l172 -63 q203 -78 203 -299q0 -139 -93.5 -225.5t-230.5 -86.5q-334 1 -334 357zM137 1282l203 301h90l203 -301h-90l-158 236l-158 -236h-90z" />
<glyph unicode="&#x15e;" horiz-adv-x="1034" d="M76 373v100h90v-80q0 -150 93 -248t255 -98q158 0 256 100.5t98 247.5q0 139 -66.5 208t-211.5 122l-174 59q-162 55 -238 141.5t-76 235.5q0 182 115 291t297 109q207 0 309.5 -110t102.5 -306h-92q0 160 -77 252t-235 92q-143 0 -236 -76t-93 -244q0 -221 227 -297 l227 -79q160 -55 235.5 -142.5t75.5 -249.5q0 -195 -121.5 -308t-308.5 -120l-69 -100l4 -4q33 10 82 10q59 0 103 -40t44 -101t-54 -110.5t-159 -49.5q-109 0 -180 39l18 47q74 -35 166 -35q135 0 135 107q0 92 -114 92q-63 0 -115 -31l-20 27l98 151q-113 10 -195 52.5 t-120.5 102.5t-57 121t-18.5 122z" />
<glyph unicode="&#x15f;" horiz-adv-x="755" d="M49 330v28h82v-34q0 -276 252 -277q119 0 176 66.5t57 169.5q0 86 -36.5 139t-130.5 90l-164 66q-111 45 -161 111.5t-50 170.5q0 137 84 214t223 77q293 0 293 -307v-35h-82v33q0 236 -211 235q-96 0 -156.5 -51t-60.5 -158q0 -88 40 -137t128 -84l172 -63 q203 -78 203 -299q0 -133 -87.5 -217t-218.5 -93l-69 -102l4 -4q33 10 82 10q59 0 103 -40t44 -101t-54 -110.5t-159 -49.5q-109 0 -180 39l18 47q74 -35 166 -35q135 0 136 107q0 92 -115 92q-63 0 -115 -31l-20 27l98 151q-291 23 -291 355z" />
<glyph unicode="&#x160;" horiz-adv-x="1034" d="M76 373v100h90v-80q0 -150 93 -248t255 -98q158 0 256 100.5t98 247.5q0 139 -66.5 208t-211.5 122l-174 59q-162 55 -238 141.5t-76 235.5q0 182 115 291t297 109q207 0 309.5 -110t102.5 -306h-92q0 160 -77 252t-235 92q-143 0 -236 -76t-93 -244q0 -221 227 -297 l227 -79q160 -55 235.5 -142.5t75.5 -249.5q0 -199 -128 -313.5t-316 -114.5q-125 0 -216 40t-136 104.5t-65.5 128.5t-20.5 127zM276 1958h93l155 -238l158 238h90l-203 -303h-90z" />
<glyph unicode="&#x161;" horiz-adv-x="755" d="M49 330v28h82v-34q0 -276 252 -277q119 0 176 66.5t57 169.5q0 86 -36.5 139t-130.5 90l-164 66q-111 45 -161 111.5t-50 170.5q0 137 84 214t223 77q293 0 293 -307v-35h-82v33q0 236 -211 235q-96 0 -156.5 -51t-60.5 -158q0 -88 40 -137t128 -84l172 -63 q203 -78 203 -299q0 -139 -93.5 -225.5t-230.5 -86.5q-334 1 -334 357zM137 1583h90l158 -237l158 237h90l-203 -301h-90z" />
<glyph unicode="&#x162;" d="M4 1454v82h907v-82h-407v-1454h-90v1454h-410zM397 -395q57 23 58 100h-45v189h100v-185q0 -121 -113 -147v43z" />
<glyph unicode="&#x163;" horiz-adv-x="438" d="M16 1051v73h154v334h82v-334h186v-73h-186v-867q0 -125 98 -125q59 0 101 15v-74q-59 -12 -115 -12q-166 0 -166 188v875h-154zM240 -395q55 23 55 100h-45v189h100v-185q0 -121 -110 -147v43z" />
<glyph unicode="&#x164;" d="M4 1454v82h907v-82h-407v-1454h-90v1454h-410zM213 1958h90l158 -238l155 238h91l-201 -303h-90z" />
<glyph unicode="&#x165;" horiz-adv-x="438" d="M16 1051v73h154v334h82v-334h186v-73h-186v-867q0 -125 98 -125q59 0 101 15v-74q-59 -12 -115 -12q-166 0 -166 188v875h-154zM399 1235l62 301h100l-100 -301h-62z" />
<glyph unicode="&#x166;" d="M4 1454v82h907v-82h-407v-403h272v-72h-272v-979h-90v979h-275v72h275v403h-410z" />
<glyph unicode="&#x167;" horiz-adv-x="438" d="M16 1051v73h154v334h82v-334h186v-73h-186v-283h168v-70h-168v-514q0 -125 98 -125q59 0 101 15v-74q-59 -12 -115 -12q-166 0 -166 188v522h-145v70h145v283h-154z" />
<glyph unicode="&#x168;" horiz-adv-x="1075" d="M113 424v1112h90v-1130q0 -358 334 -359q164 0 249.5 97.5t85.5 261.5v1130h91v-1112q0 -240 -121 -345.5t-305 -105.5q-424 0 -424 451zM279 1710q0 61 35.5 121.5t111.5 60.5q57 2 127 -53q74 -57 104 -57q45 0 63.5 39t18.5 82h66q0 -63 -36 -124t-112 -61 q-53 -2 -125.5 53.5t-105.5 55.5q-82 0 -82 -117h-65z" />
<glyph unicode="&#x169;" horiz-adv-x="874" d="M111 276v848h79v-809q0 -143 57.5 -205.5t168.5 -62.5q125 0 196.5 101.5t71.5 254.5v721h82v-1124h-82v170h-4q-82 -197 -287 -197q-129 0 -205.5 75.5t-76.5 227.5zM180 1335q0 61 36 122t112 61q57 2 127 -54q72 -55 104 -55q45 0 63.5 39t18.5 82h64 q0 -66 -35 -126.5t-111 -60.5q-53 -2 -127 54.5t-104 56.5q-82 0 -82 -119h-66z" />
<glyph unicode="&#x16a;" horiz-adv-x="1075" d="M113 424v1112h90v-1130q0 -358 334 -359q164 0 249.5 97.5t85.5 261.5v1130h91v-1112q0 -240 -121 -345.5t-305 -105.5q-424 0 -424 451zM307 1774v65h465v-65h-465z" />
<glyph unicode="&#x16b;" horiz-adv-x="874" d="M111 276v848h79v-809q0 -143 57.5 -205.5t168.5 -62.5q125 0 196.5 101.5t71.5 254.5v721h82v-1124h-82v170h-4q-82 -197 -287 -197q-129 0 -205.5 75.5t-76.5 227.5zM211 1401v63h465v-63h-465z" />
<glyph unicode="&#x16c;" horiz-adv-x="1075" d="M113 424v1112h90v-1130q0 -358 334 -359q164 0 249.5 97.5t85.5 261.5v1130h91v-1112q0 -240 -121 -345.5t-305 -105.5q-424 0 -424 451zM295 1931h63q0 -78 45 -129q53 -55 132 -55q84 0 131 52t47 132h63q0 -92 -47 -159q-68 -90 -193.5 -90.5t-183 79.5t-57.5 170z " />
<glyph unicode="&#x16d;" horiz-adv-x="874" d="M111 276v848h79v-809q0 -143 57.5 -205.5t168.5 -62.5q125 0 196.5 101.5t71.5 254.5v721h82v-1124h-82v170h-4q-82 -197 -287 -197q-129 0 -205.5 75.5t-76.5 227.5zM197 1556h63q0 -78 45 -129q51 -55 131 -55q84 0 130 52.5t46 131.5h66q0 -92 -47 -159 q-68 -90 -195 -90t-183 79.5t-56 169.5z" />
<glyph unicode="&#x16e;" horiz-adv-x="1075" d="M113 424v1112h90v-1130q0 -358 334 -359q164 0 249.5 97.5t85.5 261.5v1130h91v-1112q0 -240 -121 -345.5t-305 -105.5q-424 0 -424 451zM344 1789q0 79 55.5 134t136 55t136 -55t55.5 -134t-55.5 -134.5t-136 -55.5t-136 55.5t-55.5 134.5zM410 1789q0 -54 35.5 -91 t90 -37t90.5 37t36 91t-36 92t-90.5 38t-90 -38t-35.5 -92z" />
<glyph unicode="&#x16f;" horiz-adv-x="874" d="M111 276v848h79v-809q0 -143 57.5 -205.5t168.5 -62.5q125 0 196.5 101.5t71.5 254.5v721h82v-1124h-82v170h-4q-82 -197 -287 -197q-129 0 -205.5 75.5t-76.5 227.5zM246 1466q0 80 54 134.5t136 54.5t137.5 -54.5t55.5 -134.5t-55.5 -134t-137.5 -54t-136 54t-54 134z M309 1466.5q0 -53.5 37 -91.5t90 -38t90 38t37 91.5t-37 91t-90 37.5t-90 -37.5t-37 -91z" />
<glyph unicode="&#x170;" horiz-adv-x="1075" d="M113 424v1112h90v-1130q0 -358 334 -359q164 0 249.5 97.5t85.5 261.5v1130h91v-1112q0 -240 -121 -345.5t-305 -105.5q-424 0 -424 451zM360 1655l168 303h105l-201 -303h-72zM649 1655l168 303h103l-199 -303h-72z" />
<glyph unicode="&#x171;" horiz-adv-x="874" d="M111 276v848h79v-809q0 -143 57.5 -205.5t168.5 -62.5q125 0 196.5 101.5t71.5 254.5v721h82v-1124h-82v170h-4q-82 -197 -287 -197q-129 0 -205.5 75.5t-76.5 227.5zM260 1282l168 301h102l-198 -301h-72zM549 1282l168 301h102l-201 -301h-69z" />
<glyph unicode="&#x172;" horiz-adv-x="1075" d="M113 424v1112h90v-1130q0 -358 334 -359q164 0 249.5 97.5t85.5 261.5v1130h91v-1112q0 -211 -96.5 -317.5t-250.5 -124.5q-156 -127 -155 -234q0 -55 28.5 -87t79.5 -32q59 0 101 35l20 -47q-53 -39 -137 -39q-166 0 -166 158q0 123 158 237q-90 0 -163 19.5 t-136.5 66.5t-98 139.5t-34.5 225.5z" />
<glyph unicode="&#x173;" horiz-adv-x="874" d="M111 276v848h79v-809q0 -143 57.5 -205.5t168.5 -62.5q125 0 196.5 101.5t71.5 254.5v721h82v-1124h-23q-96 -78 -139 -135.5t-43 -116.5q0 -55 28.5 -87t82.5 -32q57 0 98 35l21 -47q-55 -39 -138 -39q-166 0 -166 158q0 139 197 264v170h-4q-82 -197 -287 -197 q-129 0 -205.5 75.5t-76.5 227.5z" />
<glyph unicode="&#x174;" horiz-adv-x="1513" d="M25 1536h90l295 -1407h4l286 1407h111l291 -1407h4l295 1407h90l-336 -1536h-113l-282 1407h-4l-291 -1407h-109zM510 1655l203 303h90l201 -303h-91l-155 237l-158 -237h-90z" />
<glyph unicode="&#x175;" horiz-adv-x="1153" d="M12 1124h90l201 -1007h4l221 1007h105l213 -1007h4l201 1007h92l-244 -1124h-104l-211 1008h-6l-222 -1008h-102zM334 1282l201 301h92l200 -301h-90l-155 236l-158 -236h-90z" />
<glyph unicode="&#x176;" horiz-adv-x="954" d="M12 1536h101l364 -809l375 809h90l-420 -903v-633h-90v633zM229 1655l203 303h90l203 -303h-90l-158 237l-158 -237h-90z" />
<glyph unicode="&#x177;" horiz-adv-x="755" d="M18 1124h93l282 -1007h4l250 1007h90l-348 -1292q-33 -115 -90 -163t-160 -48q-27 0 -84 4v74q66 -4 72 -4q82 0 121 33.5t67 142.5l35 119zM135 1282l203 301h90l203 -301h-90l-158 236l-158 -236h-90z" />
<glyph unicode="&#x178;" horiz-adv-x="954" d="M12 1536h101l364 -809l375 809h90l-420 -903v-633h-90v633zM291 1696v221h90v-221h-90zM578 1696v221h92v-221h-92z" />
<glyph unicode="&#x179;" horiz-adv-x="952" d="M37 0v90l780 1364h-735v82h825v-90l-780 -1364h788v-82h-878zM444 1655l168 303h105l-201 -303h-72z" />
<glyph unicode="&#x17a;" horiz-adv-x="716" d="M33 0v74l557 977h-529v73h619v-73l-557 -977h563v-74h-653zM326 1282l166 301h104l-201 -301h-69z" />
<glyph unicode="&#x17b;" horiz-adv-x="952" d="M37 0v90l780 1364h-735v82h825v-90l-780 -1364h788v-82h-878zM442 1696v221h90v-221h-90z" />
<glyph unicode="&#x17c;" horiz-adv-x="716" d="M33 0v74l557 977h-529v73h619v-73l-557 -977h563v-74h-653zM319 1323v219h93v-219h-93z" />
<glyph unicode="&#x17d;" horiz-adv-x="952" d="M37 0v90l780 1364h-735v82h825v-90l-780 -1364h788v-82h-878zM244 1958h90l155 -238l158 238h90l-202 -303h-91z" />
<glyph unicode="&#x17e;" horiz-adv-x="716" d="M33 0v74l557 977h-529v73h619v-73l-557 -977h563v-74h-653zM123 1583h90l158 -237l155 237h90l-200 -301h-90z" />
<glyph unicode="&#x192;" horiz-adv-x="1032" d="M-16 -362l14 73q41 -16 78 -16q104 0 156.5 60.5t76.5 195.5l183 921h-222l15 74h221l51 240q16 80 35.5 133t54.5 107.5t93.5 82t136.5 27.5q70 0 108 -14l-18 -72q-37 12 -93 12q-172 0 -221 -241l-57 -275h244l-17 -74h-239l-193 -968q-29 -141 -109.5 -212 t-203.5 -71q-39 1 -94 17z" />
<glyph unicode="&#x1fa;" horiz-adv-x="1034" d="M-8 0l454 1427q-88 43 -88 148q0 68 48.5 115t115.5 47q72 0 118 -47.5t46 -114.5q0 -100 -84 -145l440 -1430h-90l-145 477h-580l-145 -477h-90zM250 551h538l-264 862h-4zM420 1575q0 -45 28.5 -76t73.5 -31t76 31t31 76t-31 75.5t-76 30.5t-73.5 -30.5t-28.5 -75.5z M465 1772l117 206h98l-148 -206h-67z" />
<glyph unicode="&#x1fb;" horiz-adv-x="835" d="M51 289q0 129 54.5 202.5t173.5 106.5l243 66q70 20 90.5 55t20.5 110q0 143 -57.5 195.5t-159.5 52.5q-246 0 -246 -272h-82q0 63 14.5 119.5t46 109.5t98 85t159.5 32q172 0 240.5 -80t68.5 -217v-719q0 -76 49 -76q29 0 51 13v-66q-27 -18 -86 -18q-33 0 -64.5 30.5 t-31.5 92.5v69h-4q-27 -90 -106 -148.5t-189 -58.5q-143 0 -213 87.5t-70 228.5zM141 289q0 -242 207 -242q139 0 212 101.5t73 275.5v231h-4q-20 -33 -47 -45t-97 -28l-166 -47q-96 -27 -137 -85.5t-41 -160.5zM225 1415q0 80 55.5 134.5t137.5 54.5t136 -54.5t54 -134.5 t-54 -135t-136 -55t-137.5 55t-55.5 135zM291 1415q0 -53 35.5 -91t90 -38t91.5 38t37 91t-37 91t-91.5 38t-90 -38t-35.5 -91zM350 1655l168 303h103l-199 -303h-72z" />
<glyph unicode="&#x1fc;" horiz-adv-x="1513" d="M-8 0l659 1536h805v-82h-643v-612h600v-82h-600v-678h664v-82h-754v477h-434l-201 -477h-96zM317 551h406v903h-16zM922 1655l168 303h104l-201 -303h-71z" />
<glyph unicode="&#x1fd;" horiz-adv-x="1314" d="M51 289q0 242 221 305l201 51q78 16 101.5 46t23.5 112v55q0 125 -53 172t-146 47q-74 0 -124 -29.5t-71.5 -78.5t-27.5 -86t-6 -78h-82q0 61 14.5 117.5t46 109.5t96 86t156.5 33q121 0 184.5 -58.5t82.5 -134.5h4q70 193 241 193q193 0 272 -147.5t79 -436.5h-584v-61 q0 -459 242 -459q74 0 126 37t76.5 93t33.5 104.5t9 87.5h82q0 -152 -84 -274t-245 -122q-115 0 -190 80t-93 185h-4q-66 -264 -299 -265q-143 0 -213 87.5t-70 228.5zM141 283q0 -111 51.5 -173.5t155.5 -62.5q117 0 183.5 93t66.5 251v230h-4q-37 -25 -131 -50l-144 -36 q-178 -47 -178 -252zM629 1282l166 301h104l-201 -301h-69zM680 641h494q0 201 -58.5 318.5t-185.5 117.5q-129 0 -189.5 -117.5t-60.5 -318.5z" />
<glyph unicode="&#x1fe;" horiz-adv-x="1153" d="M82 768q0 793 496 793q160 0 251 -66l62 145l70 -24l-68 -170q180 -182 180 -678q0 -240 -45 -405.5t-123 -245.5t-155.5 -112t-171.5 -32q-152 0 -252 72l-66 -160l-72 27l76 184q-182 183 -182 672zM172 768q0 -420 127 -590l500 1237q-86 74 -221 74q-406 0 -406 -721 zM354 121q86 -74 224 -74q211 0 308 175t97 546q0 418 -127 584zM535 1655l167 303h105l-201 -303h-71z" />
<glyph unicode="&#x1ff;" d="M82 563q0 131 17.5 230.5t58.5 183.5t117.5 129t188 45t181.5 -47l53 129l62 -23l-62 -147q135 -133 136 -500q0 -131 -16.5 -231.5t-57.5 -183t-119 -129t-190 -46.5q-106 0 -181 47l-55 -135l-59 23l61 153q-135 135 -135 502zM172 561q0 -289 82 -407l358 872 q-61 51 -153 51q-156 0 -221.5 -130t-65.5 -386zM303 98q57 -51 156 -51q154 0 219 130t65 384q0 291 -81 412zM422 1282l168 301h102l-200 -301h-70z" />
<glyph unicode="&#x218;" horiz-adv-x="1034" d="M76 373v100h90v-80q0 -150 93 -248t255 -98q158 0 256 100.5t98 247.5q0 139 -66.5 208t-211.5 122l-174 59q-162 55 -238 141.5t-76 235.5q0 182 115 291t297 109q207 0 309.5 -110t102.5 -306h-92q0 160 -77 252t-235 92q-143 0 -236 -76t-93 -244q0 -221 227 -297 l227 -79q160 -55 235.5 -142.5t75.5 -249.5q0 -199 -128 -313.5t-316 -114.5q-125 0 -216 40t-136 104.5t-65.5 128.5t-20.5 127zM446 -395q57 23 58 100h-45v189h100v-185q0 -121 -113 -147v43z" />
<glyph unicode="&#x219;" horiz-adv-x="755" d="M49 330v28h82v-34q0 -276 252 -277q119 0 176 66.5t57 169.5q0 86 -36.5 139t-130.5 90l-164 66q-111 45 -161 111.5t-50 170.5q0 137 84 214t223 77q293 0 293 -307v-35h-82v33q0 236 -211 235q-96 0 -156.5 -51t-60.5 -158q0 -88 40 -137t128 -84l172 -63 q203 -78 203 -299q0 -139 -93.5 -225.5t-230.5 -86.5q-334 1 -334 357zM319 -395q57 23 58 100h-45v189h100v-185q0 -121 -113 -147v43z" />
<glyph unicode="&#x21a;" d="M4 1454v82h907v-82h-407v-1454h-90v1454h-410zM397 -395q57 23 58 100h-45v189h100v-185q0 -121 -113 -147v43z" />
<glyph unicode="&#x21b;" horiz-adv-x="438" d="M16 1051v73h154v334h82v-334h186v-73h-186v-867q0 -125 98 -125q59 0 101 15v-74q-59 -12 -115 -12q-166 0 -166 188v875h-154zM240 -395q55 23 55 100h-45v189h100v-185q0 -121 -110 -147v43z" />
<glyph unicode="&#x237;" horiz-adv-x="317" d="M-82 -305q39 -4 62 -4q39 0 66.5 8t50 46t22.5 103v1276h82v-1265q0 -242 -205 -242q-27 0 -78 4v74z" />
<glyph unicode="&#x2c6;" horiz-adv-x="317" d="M-88 1282l203 301h90l201 -301h-91l-155 236l-158 -236h-90z" />
<glyph unicode="&#x2c7;" horiz-adv-x="317" d="M-88 1583h90l158 -237l155 237h91l-201 -301h-90z" />
<glyph unicode="&#x2c9;" horiz-adv-x="317" d="M-74 1401v63h465v-63h-465z" />
<glyph unicode="&#x2d8;" horiz-adv-x="317" d="M-82 1556h66q0 -78 45 -129q51 -55 131 -55q84 0 130 52.5t46 131.5h63q0 -92 -47 -159q-66 -90 -192.5 -90t-184 79.5t-57.5 169.5z" />
<glyph unicode="&#x2d9;" horiz-adv-x="317" d="M115 1323v219h90v-219h-90z" />
<glyph unicode="&#x2da;" horiz-adv-x="317" d="M-33 1466q0 80 55.5 134.5t137.5 54.5t136 -54.5t54 -134.5t-54 -134t-136 -54t-137.5 54t-55.5 134zM33 1466.5q0 -53.5 35.5 -91.5t90 -38t91.5 38t37 91.5t-37 91t-91.5 37.5t-90 -37.5t-35.5 -91z" />
<glyph unicode="&#x2db;" horiz-adv-x="317" d="M53 -264q0 139 197 264h59q-96 -78 -139 -135.5t-43 -116.5q0 -55 28.5 -87t82.5 -32q57 0 98 35l20 -47q-55 -39 -137 -39q-166 0 -166 158z" />
<glyph unicode="&#x2dc;" horiz-adv-x="317" d="M-102 1335q0 61 34.5 122t110.5 61q57 2 127 -54q74 -55 104 -55q45 0 63.5 39t18.5 82h66q0 -66 -36 -126.5t-112 -60.5q-53 -2 -125.5 54.5t-105.5 56.5q-82 0 -82 -119h-63z" />
<glyph unicode="&#x2dd;" horiz-adv-x="317" d="M-78 1282l168 301h103l-199 -301h-72zM211 1282l168 301h102l-198 -301h-72z" />
<glyph unicode="&#x374;" horiz-adv-x="473" d="M115 1202l176 367h104l-211 -367h-69z" />
<glyph unicode="&#x375;" horiz-adv-x="473" d="M51 -436l211 366h72l-176 -366h-107z" />
<glyph unicode="&#x37e;" horiz-adv-x="516" d="M178 -203q61 45 62 203h-27v219h90v-215q0 -123 -27.5 -180t-97.5 -98v71zM213 850v219h90v-219h-90z" />
<glyph unicode="&#x384;" horiz-adv-x="235" d="M74 1282l92 301h96l-119 -301h-69z" />
<glyph unicode="&#x385;" horiz-adv-x="415" d="M-31 1323v219h90v-219h-90zM121 1282l92 301h96l-119 -301h-69zM356 1323v219h90v-219h-90z" />
<glyph unicode="&#x386;" horiz-adv-x="1042" d="M0 0l477 1536h115l459 -1536h-90l-146 477h-577l-148 -477h-90zM25 1235l92 301h96l-119 -301h-69zM258 551h541l-267 895h-4z" />
<glyph unicode="&#x387;" horiz-adv-x="516" d="M215 819v242h78v-242h-78z" />
<glyph unicode="&#x388;" horiz-adv-x="1114" d="M0 1235l92 301h96l-116 -301h-72zM332 0v1536h733v-82h-643v-612h600v-82h-600v-678h661v-82h-751z" />
<glyph unicode="&#x389;" horiz-adv-x="1314" d="M0 1235l92 301h96l-116 -301h-72zM332 0v1536h90v-674h672v674h92v-1536h-92v780h-672v-780h-90z" />
<glyph unicode="&#x38a;" horiz-adv-x="550" d="M0 1235l92 301h96l-116 -301h-72zM332 0v1536h90v-1536h-90z" />
<glyph unicode="&#x38c;" horiz-adv-x="1275" d="M0 1235l92 301h96l-116 -301h-72zM205 767q0 794 495 794q242 0 369 -182.5t127 -610.5q0 -240 -45 -405.5t-123 -245.5t-156.5 -112t-171.5 -32q-495 0 -495 794zM295 768q0 -225 32.5 -376.5t126 -248t246.5 -96.5q211 0 308.5 175t97.5 546q0 340 -93 530.5 t-313 190.5q-405 0 -405 -721z" />
<glyph unicode="&#x38e;" horiz-adv-x="1218" d="M0 1235l92 301h96l-116 -301h-72zM276 1536h101l364 -809l375 809h90l-420 -903v-633h-90v633z" />
<glyph unicode="&#x38f;" horiz-adv-x="1277" d="M0 1235l92 301h96l-116 -301h-72zM207 788q0 385 119.5 579t375.5 194q258 0 377 -191.5t119 -581.5q0 -463 -280 -706h266v-82h-379v76q172 147 237.5 312t65.5 400q0 700 -406 701q-406 0 -405 -701q0 -236 65.5 -400.5t237.5 -311.5v-76h-379v82h264 q-278 243 -278 706z" />
<glyph unicode="&#x390;" horiz-adv-x="327" d="M-39 1323v219h90v-219h-90zM113 1282l92 301h96l-119 -301h-69zM115 184v940h82v-956q0 -68 10 -93.5t45 -25.5q27 0 63 27l2 -82q-29 -20 -67.5 -20.5t-65 14t-40 33t-20.5 50t-8 54t-1 59.5zM348 1323v219h90v-219h-90z" />
<glyph unicode="&#x391;" horiz-adv-x="1034" d="M-8 0l477 1536h115l458 -1536h-90l-145 477h-580l-145 -477h-90zM250 551h538l-264 895h-4z" />
<glyph unicode="&#x392;" horiz-adv-x="1075" d="M131 0v1536h414q401 0 401 -383q0 -152 -75.5 -240t-208.5 -104v-4q164 -14 248.5 -117.5t84.5 -269.5q0 -197 -116.5 -307.5t-321.5 -110.5h-426zM221 74h303q195 0 288 78.5t93 267.5q0 190 -102.5 269t-282.5 79h-299v-694zM221 842h295q156 0 248 76.5t92 234.5 q0 309 -301 309h-334v-620z" />
<glyph unicode="&#x393;" horiz-adv-x="724" d="M106 0v1536h617v-82h-524v-1454h-93z" />
<glyph unicode="&#x394;" horiz-adv-x="1034" d="M-8 0l477 1536h115l458 -1536h-1050zM104 82h824l-404 1364h-4z" />
<glyph unicode="&#x395;" d="M131 0v1536h733v-82h-643v-612h600v-82h-600v-678h664v-82h-754z" />
<glyph unicode="&#x396;" horiz-adv-x="952" d="M37 0v90l780 1364h-735v82h825v-90l-780 -1364h788v-82h-878z" />
<glyph unicode="&#x397;" horiz-adv-x="1114" d="M131 0v1536h90v-674h674v674h90v-1536h-90v780h-674v-780h-90z" />
<glyph unicode="&#x398;" horiz-adv-x="1153" d="M82 787.5q0 793.5 496 793.5q242 0 368.5 -183.5t126.5 -611.5q0 -238 -45 -404.5t-123 -246.5t-155.5 -110.5t-171.5 -30.5q-496 0 -496 793.5zM172 786q0 -225 34 -376.5t126 -246.5t246 -95q211 0 308 175t97 543q0 340 -92 530.5t-313 190.5q-406 0 -406 -721z M279 776v76h595v-76h-595z" />
<glyph unicode="&#x399;" horiz-adv-x="352" d="M131 0v1536h90v-1536h-90z" />
<glyph unicode="&#x39a;" horiz-adv-x="995" d="M131 0v1536h90v-854h4l635 854h98l-481 -647l529 -889h-103l-483 813l-199 -262v-551h-90z" />
<glyph unicode="&#x39b;" horiz-adv-x="1034" d="M-8 0l477 1536h115l458 -1536h-90l-428 1446h-4l-438 -1446h-90z" />
<glyph unicode="&#x39c;" horiz-adv-x="1392" d="M117 0v1536h145l436 -1380h4l426 1380h150v-1536h-90v1419h-4l-443 -1419h-90l-440 1419h-4v-1419h-90z" />
<glyph unicode="&#x39d;" horiz-adv-x="1114" d="M117 0v1536h121l667 -1395h4v1395h90v-1536h-118l-670 1393h-4v-1393h-90z" />
<glyph unicode="&#x39e;" horiz-adv-x="931" d="M29 0v82h864v-82h-864zM43 1454v82h834v-82h-834zM94 807v82h731v-82h-731z" />
<glyph unicode="&#x39f;" horiz-adv-x="1153" d="M82 767q0 794 496 794q242 0 368.5 -182.5t126.5 -610.5q0 -240 -45 -405.5t-123 -245.5t-155.5 -112t-171.5 -32q-496 0 -496 794zM172 768q0 -225 34 -376.5t126 -248t246 -96.5q211 0 308 175t97 546q0 340 -92 530.5t-313 190.5q-406 0 -406 -721z" />
<glyph unicode="&#x3a0;" horiz-adv-x="1075" d="M111 0v1536h852v-1536h-91v1454h-671v-1454h-90z" />
<glyph unicode="&#x3a1;" horiz-adv-x="995" d="M131 0v1536h397q127 -2 215 -44t129 -112.5t57.5 -133t16.5 -136.5q0 -199 -114.5 -312.5t-321.5 -113.5h-289v-684h-90zM221 758h297q150 0 244 87t94 265q0 168 -85 260t-241 92h-309v-704z" />
<glyph unicode="&#x3a3;" horiz-adv-x="872" d="M29 0v68l426 747l-408 653v68h760v-82h-655l397 -633l-422 -739h707v-82h-805z" />
<glyph unicode="&#x3a4;" d="M4 1454v82h907v-82h-407v-1454h-90v1454h-410z" />
<glyph unicode="&#x3a5;" horiz-adv-x="954" d="M12 1536h101l364 -809l375 809h90l-420 -903v-633h-90v633z" />
<glyph unicode="&#x3a6;" horiz-adv-x="1200" d="M57 854q0 -373 107.5 -545t351.5 -176v-133h90v133q246 8 353.5 190.5t107.5 538.5q0 668 -461 674v127h-90v-127q-209 -4 -334 -168t-125 -514zM152 854q0 584 364 608v-1255q-129 2 -207 59.5t-117.5 199.5t-39.5 388zM606 207v1255q193 -2 282 -151.5t89 -448.5 q0 -129 -9.5 -221t-33 -177t-64.5 -138.5t-106.5 -85t-157.5 -33.5z" />
<glyph unicode="&#x3a7;" horiz-adv-x="995" d="M16 0l435 780l-398 756h90l359 -666l360 666h90l-403 -756l430 -780h-100l-381 696l-383 -696h-99z" />
<glyph unicode="&#x3a8;" horiz-adv-x="1114" d="M102 850v686h91v-692q0 -199 72.5 -291t242.5 -109v1092h86v-1092q156 16 234.5 109.5t78.5 286.5v696h90v-696q0 -203 -99 -326t-302 -139v-375h-88v375q-217 10 -311.5 124.5t-94.5 350.5z" />
<glyph unicode="&#x3a9;" horiz-adv-x="1153" d="M82 788q0 385 121 579t375 194q258 0 376.5 -191.5t118.5 -581.5q0 -463 -280 -706h266v-82h-379v76q172 147 237.5 312t65.5 400q0 700 -405 701q-406 0 -406 -701q0 -236 65.5 -400.5t237.5 -311.5v-76h-379v82h264q-278 243 -278 706z" />
<glyph unicode="&#x3aa;" horiz-adv-x="352" d="M-12 1696v221h90v-221h-90zM131 0v1536h90v-1536h-90zM274 1696v221h91v-221h-91z" />
<glyph unicode="&#x3ab;" horiz-adv-x="954" d="M12 1536h101l364 -809l375 809h90l-420 -903v-633h-90v633zM291 1696v221h90v-221h-90zM578 1696v221h92v-221h-92z" />
<glyph unicode="&#x3ac;" horiz-adv-x="884" d="M76 565q0 289 86 437.5t250 148.5q76 0 147.5 -56.5t108.5 -166.5h4v196h82v-948q0 -45 2 -66.5t14 -41t39 -19.5q31 0 63 29l2 -84q-25 -20 -65 -21q-72 0 -104.5 43t-32.5 160v41h-4q-16 -100 -86 -172t-185 -72q-321 0 -321 592zM166 573q0 -526 246 -526 q260 0 260 508q0 248 -65.5 385t-194.5 137t-187.5 -143.5t-58.5 -360.5zM373 1282l92 301h96l-119 -301h-69z" />
<glyph unicode="&#x3ad;" horiz-adv-x="765" d="M76 334q0 -162 85 -261.5t228 -99.5t238.5 97.5t113.5 287.5h-86q-39 -309 -264 -309q-102 0 -163.5 75t-61.5 210q0 131 52 201.5t142 70.5h117v76h-131q-137 0 -137 180q0 113 54 164t138 51q176 0 232 -200h84q-23 129 -104 201.5t-212 72.5q-127 0 -204.5 -73.5 t-77.5 -219.5q0 -152 106 -211v-4q-149 -78 -149 -309zM358 1282l93 301h98l-119 -301h-72z" />
<glyph unicode="&#x3ae;" horiz-adv-x="874" d="M111 0v1124h79v-170h7q33 84 105.5 140.5t178.5 56.5q129 0 207 -76t78 -227v-1227h-82v1188q0 143 -57.5 205.5t-165.5 62.5q-125 0 -198 -101.5t-73 -254.5v-721h-79zM385 1282l92 301h96l-116 -301h-72z" />
<glyph unicode="&#x3af;" horiz-adv-x="327" d="M115 184v940h82v-956q0 -68 10 -93.5t45 -25.5q27 0 63 27l2 -82q-29 -20 -67.5 -20.5t-65 14t-40 33t-20.5 50t-8 54t-1 59.5zM115 1282l92 301h96l-119 -301h-69z" />
<glyph unicode="&#x3b0;" horiz-adv-x="802" d="M115 317v807h82v-780q0 -297 200 -297q76 0 126 39t78 114.5t37 167t9 220.5q0 303 -96 536h88q90 -250 90 -532q0 -332 -81 -475.5t-255 -143.5q-278 0 -278 344zM141 1323v219h90v-219h-90zM293 1282l92 301h96l-119 -301h-69zM528 1323v219h90v-219h-90z" />
<glyph unicode="&#x3b1;" horiz-adv-x="884" d="M76 565q0 289 86 437.5t250 148.5q76 0 147.5 -56.5t108.5 -166.5h4v196h82v-948q0 -45 2 -66.5t14 -41t39 -19.5q31 0 63 29l2 -84q-25 -20 -65 -21q-72 0 -104.5 43t-32.5 160v41h-4q-16 -100 -86 -172t-185 -72q-321 0 -321 592zM166 573q0 -526 246 -526 q260 0 260 508q0 248 -65.5 385t-194.5 137t-187.5 -143.5t-58.5 -360.5z" />
<glyph unicode="&#x3b2;" horiz-adv-x="905" d="M115 -379v1444q0 485 327 485q150 0 235 -89t85 -267q0 -229 -133 -317v-5q195 -66 194 -391q0 -240 -92 -374t-262 -134q-109 0 -180.5 66.5t-87.5 177.5h-4v-596h-82zM197 555q0 -508 268 -508q131 0 199.5 116t68.5 318q0 176 -49 257t-174 81h-111v74h99 q68 0 121 72.5t53 226.5q0 147 -62.5 216t-167.5 69q-246 0 -245 -412v-510z" />
<glyph unicode="&#x3b3;" horiz-adv-x="651" d="M8 1124h78q57 -162 131 -467t111 -514h4q61 180 127.5 454.5t97.5 526.5h78q-84 -633 -291 -1130v-373h-80v361q0 143 -87 529t-169 613z" />
<glyph unicode="&#x3b4;" horiz-adv-x="880" d="M76 535q0 406 307 528q-145 123 -145 258q0 98 65.5 163.5t192.5 65.5q135 0 237 -57v-82q-123 59 -237 59q-168 0 -168 -149q0 -63 33.5 -112.5t121.5 -121.5q80 -61 122 -100t97.5 -107.5t80 -152.5t24.5 -190q0 -563 -365 -564q-366 1 -366 562zM166 535 q0 -487 276 -488q274 0 275 485q0 154 -62.5 262.5t-205.5 219.5q-283 -98 -283 -479z" />
<glyph unicode="&#x3b5;" horiz-adv-x="765" d="M76 334q0 -162 85 -261.5t228 -99.5t238.5 97.5t113.5 287.5h-86q-39 -309 -264 -309q-102 0 -163.5 75t-61.5 210q0 131 52 201.5t142 70.5h117v76h-131q-137 0 -137 180q0 113 54 164t138 51q176 0 232 -200h84q-23 129 -104 201.5t-212 72.5q-127 0 -204.5 -73.5 t-77.5 -219.5q0 -152 106 -211v-4q-149 -78 -149 -309z" />
<glyph unicode="&#x3b6;" horiz-adv-x="649" d="M82 563q0 276 104.5 483t368.5 416h-399v74h518v-74q-305 -266 -403.5 -449.5t-98.5 -453.5q0 -492 266 -491q172 0 172 -158q0 -55 -18 -160h-82q10 33 10 39q16 90 17 119q0 49 -20.5 66.5t-96.5 17.5q-162 0 -250 149.5t-88 421.5z" />
<glyph unicode="&#x3b7;" horiz-adv-x="874" d="M111 0v1124h79v-170h7q33 84 105.5 140.5t178.5 56.5q129 0 207 -76t78 -227v-1227h-82v1188q0 143 -57.5 205.5t-165.5 62.5q-125 0 -198 -101.5t-73 -254.5v-721h-79z" />
<glyph unicode="&#x3b8;" horiz-adv-x="872" d="M66 741q0 143 6 248t28.5 217.5t60.5 183t105.5 115.5t161.5 45t162.5 -44t107.5 -112.5t60.5 -180t28 -218t6.5 -254.5q0 -152 -8.5 -264t-33 -210.5t-65.5 -160t-105.5 -97.5t-152.5 -36q-90 0 -154.5 36t-104.5 97.5t-63.5 160t-31.5 210.5t-8 264zM156 741 q0 -96 1 -158.5t7 -143.5t16 -131t29.5 -105.5t49.5 -85t72 -49t97 -19.5q63 0 110.5 23.5t77 74t48 104.5t26.5 143t10 163t2 184h-546zM156 817h546q-2 162 -13 269.5t-39.5 202.5t-83 141.5t-138.5 46.5q-82 0 -136 -47.5t-83 -142.5t-40 -202.5t-13 -267.5z" />
<glyph unicode="&#x3b9;" horiz-adv-x="327" d="M115 184v940h82v-956q0 -68 10 -93.5t45 -25.5q27 0 63 27l2 -82q-29 -20 -67.5 -20.5t-65 14t-40 33t-20.5 50t-8 54t-1 59.5z" />
<glyph unicode="&#x3ba;" horiz-adv-x="835" d="M111 0v1124h79v-641l492 641h102l-342 -434l406 -690h-105l-358 616l-195 -243v-373h-79z" />
<glyph unicode="&#x3bb;" horiz-adv-x="763" d="M0 0h90l256 932l191 -776q27 -111 54 -147t95 -36q39 0 70 23l-2 84q-35 -31 -70 -31q-25 0 -35 20.5t-33 106.5l-251 1018q-55 217 -101.5 286.5t-138.5 69.5q-51 0 -100 -18v-76q45 18 98 19q57 0 89 -58.5t71 -204.5l30 -133z" />
<glyph unicode="&#x3bc;" horiz-adv-x="874" d="M111 -379v1503h79v-809q0 -143 57.5 -205.5t168.5 -62.5q125 0 196.5 101.5t71.5 254.5v721h82v-1124h-82v170h-4q-82 -197 -287 -197q-133 0 -196 95h-7v-447h-79z" />
<glyph unicode="&#x3bd;" horiz-adv-x="727" d="M18 1124h93l276 -1007h4q80 225 144.5 511.5t87.5 495.5h90q-37 -252 -118 -574.5t-169 -549.5h-88z" />
<glyph unicode="&#x3be;" horiz-adv-x="651" d="M82 434q0 -442 346 -442q61 0 81.5 -17.5t20.5 -66.5q0 -41 -18 -158h74q18 111 18 160q0 158 -176 158q-139 0 -197.5 94t-58.5 272q0 162 67.5 270.5t198.5 108.5h146v74h-140q-119 0 -186.5 74.5t-67.5 199.5q0 166 62.5 237.5t189.5 71.5q100 0 199 -40v79 q-80 41 -201 41q-152 0 -246 -96t-94 -291q0 -236 193 -305v-4q-100 -45 -155.5 -157.5t-55.5 -262.5z" />
<glyph unicode="&#x3bf;" horiz-adv-x="903" d="M82 563q0 131 17.5 230.5t58.5 183.5t117.5 129t189.5 45q106 0 182 -45t115 -129t55.5 -184.5t16.5 -229.5q0 -131 -16.5 -231.5t-57.5 -183t-119 -129t-190 -46.5q-106 0 -182 46.5t-114 129t-55.5 183t-17.5 231.5zM172 561q0 -254 65.5 -384t220 -130t220 130 t65.5 384q0 256 -65.5 386t-220 130t-220 -130t-65.5 -386z" />
<glyph unicode="&#x3c0;" horiz-adv-x="946" d="M16 1051v73h895v-73h-184v-908q0 -98 86 -98q43 0 90 25v-76q-47 -20 -98 -21q-160 0 -160 170v908h-375v-1051h-82v1051h-172z" />
<glyph unicode="&#x3c1;" horiz-adv-x="884" d="M106 -379v948q0 276 81 429t280 153q176 0 260 -160t84 -416q0 -283 -79 -442.5t-267 -159.5q-43 0 -90 13.5t-105.5 73t-76.5 157.5h-5v-596h-82zM188 549q0 -502 275 -502q137 0 197.5 128t60.5 400q0 233 -62.5 367.5t-191.5 134.5q-86 0 -143.5 -39t-85 -115.5 t-39 -163.5t-11.5 -210z" />
<glyph unicode="&#x3c2;" horiz-adv-x="813" d="M76 563q0 588 370 588q272 0 330 -307h-88q-49 233 -244 233q-279 0 -278 -520q0 -260 75.5 -374.5t231.5 -114.5q102 0 140 -42t38 -118q0 -61 -18 -158h-78q20 98 20 158q0 47 -20 65.5t-84 18.5q-182 0 -288.5 124.5t-106.5 446.5z" />
<glyph unicode="&#x3c3;" horiz-adv-x="886" d="M76 555q0 266 93 417.5t294 151.5h403v-73h-186q135 -135 135 -502q0 -575 -371 -576q-186 0 -277 141.5t-91 440.5zM166 551q0 -504 278 -504q150 0 215.5 127t65.5 377q0 190 -28.5 309t-110.5 191h-119q-301 0 -301 -500z" />
<glyph unicode="&#x3c4;" horiz-adv-x="663" d="M8 1051v73h647v-73h-305v-858q0 -143 92 -144q43 0 113 29v-78q-63 -27 -115 -27q-172 0 -172 220v858h-260z" />
<glyph unicode="&#x3c5;" horiz-adv-x="802" d="M115 317v807h82v-780q0 -297 200 -297q76 0 126 39t78 114.5t37 167t9 220.5q0 303 -96 536h88q90 -250 90 -532q0 -332 -81 -475.5t-255 -143.5q-278 0 -278 344z" />
<glyph unicode="&#x3c6;" horiz-adv-x="991" d="M76 549q0 -287 108.5 -428t272.5 -146v-354h80v354q168 16 273 156.5t105 429.5q0 270 -95 428t-283 162v246h-78v-246q-193 -16 -288 -173t-95 -429zM166 549q0 227 69.5 371.5t221.5 152.5v-1024q-141 2 -216 138.5t-75 361.5zM537 49v1022q152 -6 220 -145.5 t68 -366.5q0 -223 -72.5 -360.5t-215.5 -149.5z" />
<glyph unicode="&#x3c7;" horiz-adv-x="708" d="M-10 1124h92l250 -643l217 643h96l-266 -741l342 -758h-105l-282 654l-248 -654h-90l287 758z" />
<glyph unicode="&#x3c8;" horiz-adv-x="931" d="M115 502v622h82v-624q0 -256 39.5 -347.5t195.5 -103.5v1327h82v-1327q141 20 201.5 152.5t60.5 365.5q0 309 -98 557h90q90 -252 90 -553q0 -565 -344 -591v-349h-82v349q-195 16 -256 123.5t-61 398.5z" />
<glyph unicode="&#x3c9;" horiz-adv-x="1075" d="M76 553q0 328 90 573h90q-98 -236 -98 -573q0 -227 52 -364.5t146 -139.5q154 0 154 301v500h80v-500q0 -301 135 -301q90 0 141.5 138.5t51.5 363.5q0 338 -99 573h90q90 -246 90 -573q0 -256 -69.5 -417t-206.5 -161q-129 0 -176 148q-51 -147 -195 -148 q-137 0 -206.5 162t-69.5 418z" />
<glyph unicode="&#x3ca;" horiz-adv-x="327" d="M-33 1323v219h90v-219h-90zM115 184v940h82v-956q0 -68 10 -93.5t45 -25.5q27 0 63 27l2 -82q-29 -20 -67.5 -20.5t-65 14t-40 33t-20.5 50t-8 54t-1 59.5zM256 1323v219h90v-219h-90z" />
<glyph unicode="&#x3cb;" horiz-adv-x="802" d="M115 317v807h82v-780q0 -297 200 -297q76 0 126 39t78 114.5t37 167t9 220.5q0 303 -96 536h88q90 -250 90 -532q0 -332 -81 -475.5t-255 -143.5q-278 0 -278 344zM176 1323v219h90v-219h-90zM465 1323v219h90v-219h-90z" />
<glyph unicode="&#x3cc;" horiz-adv-x="903" d="M82 563q0 131 17.5 230.5t58.5 183.5t117.5 129t189.5 45q106 0 182 -45t115 -129t55.5 -184.5t16.5 -229.5q0 -131 -16.5 -231.5t-57.5 -183t-119 -129t-190 -46.5q-106 0 -182 46.5t-114 129t-55.5 183t-17.5 231.5zM172 561q0 -254 65.5 -384t220 -130t220 130 t65.5 384q0 256 -65.5 386t-220 130t-220 -130t-65.5 -386zM397 1282l92 301h99l-119 -301h-72z" />
<glyph unicode="&#x3cd;" horiz-adv-x="802" d="M115 317v807h82v-780q0 -297 200 -297q76 0 126 39t78 114.5t37 167t9 220.5q0 303 -96 536h88q90 -250 90 -532q0 -332 -81 -475.5t-255 -143.5q-278 0 -278 344zM332 1282l92 301h96l-119 -301h-69z" />
<glyph unicode="&#x3ce;" horiz-adv-x="1075" d="M76 553q0 328 90 573h90q-98 -236 -98 -573q0 -227 52 -364.5t146 -139.5q154 0 154 301v500h80v-500q0 -301 135 -301q90 0 141.5 138.5t51.5 363.5q0 338 -99 573h90q90 -246 90 -573q0 -256 -69.5 -417t-206.5 -161q-129 0 -176 148q-51 -147 -195 -148 q-137 0 -206.5 162t-69.5 418zM512 1282l92 301h96l-116 -301h-72z" />
<glyph unicode="&#x400;" d="M131 0v1536h733v-82h-643v-612h600v-82h-600v-678h664v-82h-754zM295 1958h102l168 -303h-69z" />
<glyph unicode="&#x401;" d="M131 0v1536h733v-82h-643v-612h600v-82h-600v-678h664v-82h-754zM311 1696v221h90v-221h-90zM600 1696v221h90v-221h-90z" />
<glyph unicode="&#x402;" horiz-adv-x="1290" d="M4 1454v82h930v-82h-469v-760h6q45 115 133 173.5t203 58.5q188 0 294.5 -125t106.5 -426q0 -305 -127 -482.5t-362 -183.5v78q201 2 301 158.5t100 429.5q0 272 -89 374.5t-243 102.5q-137 0 -230 -115.5t-93 -294.5v-442h-90v1454h-371z" />
<glyph unicode="&#x403;" horiz-adv-x="847" d="M131 0v1536h715v-82h-625v-1454h-90zM403 1655l168 303h105l-201 -303h-72z" />
<glyph unicode="&#x404;" horiz-adv-x="1069" d="M82 764q0 797 493 797q201 0 310.5 -119t118.5 -316h-89q-8 162 -94 262.5t-248 100.5q-387 0 -401 -649h608v-82h-610q0 -711 393 -711q170 0 264.5 124t106.5 300h88q-14 -219 -127 -358.5t-330 -139.5q-246 0 -364.5 190.5t-118.5 600.5z" />
<glyph unicode="&#x405;" horiz-adv-x="1034" d="M76 373v100h90v-80q0 -150 93 -248t255 -98q158 0 256 100.5t98 247.5q0 139 -66.5 208t-211.5 122l-174 59q-162 55 -238 141.5t-76 235.5q0 182 115 291t297 109q207 0 309.5 -110t102.5 -306h-92q0 160 -77 252t-235 92q-143 0 -236 -76t-93 -244q0 -221 227 -297 l227 -79q160 -55 235.5 -142.5t75.5 -249.5q0 -199 -128 -313.5t-316 -114.5q-125 0 -216 40t-136 104.5t-65.5 128.5t-20.5 127z" />
<glyph unicode="&#x406;" horiz-adv-x="352" d="M131 0v1536h90v-1536h-90z" />
<glyph unicode="&#x407;" horiz-adv-x="352" d="M-12 1696v221h90v-221h-90zM131 0v1536h90v-1536h-90zM274 1696v221h91v-221h-91z" />
<glyph unicode="&#x408;" horiz-adv-x="874" d="M51 416v33h90v-48q0 -354 250 -354q115 0 188.5 69.5t73.5 233.5v1186h90v-1186q0 -184 -93 -280.5t-253 -96.5q-190 0 -268 116t-78 327z" />
<glyph unicode="&#x409;" horiz-adv-x="1794" d="M4 -10v71q31 -6 55 -6q117 0 158 97.5t49 388.5l29 995h690v-674h295q215 0 330.5 -110.5t115.5 -321.5t-115.5 -320.5t-330.5 -109.5h-385v1456h-512l-33 -967q-8 -291 -68.5 -399t-199.5 -108q-35 0 -78 8zM985 80h289q188 0 276 84t88 266t-88 267t-276 85h-289v-702z " />
<glyph unicode="&#x40a;" horiz-adv-x="1794" d="M131 0v1536h90v-674h674v674h90v-674h295q215 0 330.5 -110.5t115.5 -321.5t-115.5 -320.5t-330.5 -109.5h-385v782h-674v-782h-90zM985 80h289q188 0 276 84t88 266t-88 267t-276 85h-289v-702z" />
<glyph unicode="&#x40b;" horiz-adv-x="1298" d="M4 1454v82h930v-82h-469v-598q215 66 369 66q367 0 366 -375v-547h-90v537q0 309 -289 309q-143 0 -356 -68v-778h-90v1454h-371z" />
<glyph unicode="&#x40c;" horiz-adv-x="995" d="M131 0v1536h90v-854h4l635 854h98l-481 -647l529 -889h-103l-483 813l-199 -262v-551h-90zM420 1655l168 303h102l-201 -303h-69z" />
<glyph unicode="&#x40d;" horiz-adv-x="1138" d="M131 0v1536h90v-1397h4l656 1397h127v-1536h-90v1403h-5l-659 -1403h-123zM362 1958h105l168 -303h-72z" />
<glyph unicode="&#x40e;" horiz-adv-x="956" d="M12 1536h99l393 -1008l358 1008h90l-465 -1272q-57 -160 -115.5 -217t-158.5 -57q-49 0 -102 12v78q57 -12 96 -12q68 0 108.5 47t94.5 180l49 131zM233 1931h66q0 -78 45 -129q51 -55 131 -55q84 0 130 52t46 132h66q0 -92 -47 -159q-68 -90 -195 -90.5t-184.5 79.5 t-57.5 170z" />
<glyph unicode="&#x40f;" horiz-adv-x="1114" d="M131 0v1536h90v-1454h674v1454h90v-1536h-383v-383h-88v383h-383z" />
<glyph unicode="&#x410;" horiz-adv-x="1034" d="M-8 0l477 1536h115l458 -1536h-90l-145 477h-580l-145 -477h-90zM250 551h538l-264 895h-4z" />
<glyph unicode="&#x411;" horiz-adv-x="1050" d="M131 0v1536h754v-82h-664v-592h303q215 0 332 -110.5t117 -321.5t-117 -320.5t-332 -109.5h-393zM221 80h297q188 0 277.5 84t89.5 266t-89 267t-278 85h-297v-702z" />
<glyph unicode="&#x412;" horiz-adv-x="1075" d="M131 0v1536h414q401 0 401 -383q0 -152 -75.5 -240t-208.5 -104v-4q164 -14 248.5 -117.5t84.5 -269.5q0 -197 -116.5 -307.5t-321.5 -110.5h-426zM221 74h303q195 0 288 78.5t93 267.5q0 190 -102.5 269t-282.5 79h-299v-694zM221 842h295q156 0 248 76.5t92 234.5 q0 309 -301 309h-334v-620z" />
<glyph unicode="&#x413;" horiz-adv-x="847" d="M131 0v1536h715v-82h-625v-1454h-90z" />
<glyph unicode="&#x414;" horiz-adv-x="1150" d="M8 82h107q119 236 170 456t51 521v477h661v-1454h131v-465h-88v383h-944v-383h-88v465zM219 82h688v1372h-481v-405q0 -317 -45 -528.5t-162 -438.5z" />
<glyph unicode="&#x415;" d="M131 0v1536h733v-82h-643v-612h600v-82h-600v-678h664v-82h-754z" />
<glyph unicode="&#x416;" horiz-adv-x="1552" d="M-4 0l485 895l-442 641h100l592 -856v856h90v-860l594 860h98l-442 -637l485 -899h-100l-440 815l-195 -272v-543h-90v541l-196 278l-443 -819h-96z" />
<glyph unicode="&#x417;" horiz-adv-x="1032" d="M70 430q0 20 2 39h86v-35q0 -180 88 -283.5t266 -103.5q160 0 253 100.5t93 272.5q0 180 -97 261t-282 81h-96v80h94q160 0 251 79.5t91 243.5q0 145 -77.5 234.5t-215.5 89.5q-166 0 -247.5 -89t-88.5 -253h-88q2 201 114 307.5t308 106.5q178 0 280.5 -107.5 t102.5 -284.5q0 -141 -74.5 -240.5t-199.5 -119.5v-6q147 -20 231 -119.5t84 -257.5q0 -203 -115.5 -328t-320.5 -125q-213 0 -327.5 118t-114.5 339z" />
<glyph unicode="&#x418;" horiz-adv-x="1138" d="M131 0v1536h90v-1397h4l656 1397h127v-1536h-90v1403h-5l-659 -1403h-123z" />
<glyph unicode="&#x419;" horiz-adv-x="1138" d="M131 0v1536h90v-1397h4l656 1397h127v-1536h-90v1403h-5l-659 -1403h-123zM324 1931h63q0 -78 45 -129q51 -55 131 -55q84 0 130 52t46 132h66q0 -92 -47 -159q-68 -90 -195 -90.5t-183 79.5t-56 170z" />
<glyph unicode="&#x41a;" horiz-adv-x="995" d="M131 0v1536h90v-854h4l635 854h98l-481 -647l529 -889h-103l-483 813l-199 -262v-551h-90z" />
<glyph unicode="&#x41b;" horiz-adv-x="1114" d="M4 -10v71q31 -6 55 -6q117 0 158 97.5t49 388.5l29 995h690v-1536h-90v1456h-512l-33 -967q-8 -291 -68.5 -399t-199.5 -108q-35 0 -78 8z" />
<glyph unicode="&#x41c;" horiz-adv-x="1392" d="M117 0v1536h145l436 -1380h4l426 1380h150v-1536h-90v1419h-4l-443 -1419h-90l-440 1419h-4v-1419h-90z" />
<glyph unicode="&#x41d;" horiz-adv-x="1114" d="M131 0v1536h90v-674h674v674h90v-1536h-90v780h-674v-780h-90z" />
<glyph unicode="&#x41e;" horiz-adv-x="1153" d="M82 767q0 794 496 794q242 0 368.5 -182.5t126.5 -610.5q0 -240 -45 -405.5t-123 -245.5t-155.5 -112t-171.5 -32q-496 0 -496 794zM172 768q0 -225 34 -376.5t126 -248t246 -96.5q211 0 308 175t97 546q0 340 -92 530.5t-313 190.5q-406 0 -406 -721z" />
<glyph unicode="&#x41f;" horiz-adv-x="1114" d="M131 0v1536h854v-1536h-90v1454h-674v-1454h-90z" />
<glyph unicode="&#x420;" horiz-adv-x="995" d="M131 0v1536h397q127 -2 215 -44t129 -112.5t57.5 -133t16.5 -136.5q0 -199 -114.5 -312.5t-321.5 -113.5h-289v-684h-90zM221 758h297q150 0 244 87t94 265q0 168 -85 260t-241 92h-309v-704z" />
<glyph unicode="&#x421;" horiz-adv-x="1075" d="M82 766q0 795 491 795q104 0 183.5 -34t125.5 -86t74.5 -119t38 -121t9.5 -107h-91q0 166 -87 280.5t-248 114.5q-217 0 -311.5 -186.5t-94.5 -532.5q0 -164 18.5 -289t61.5 -225t123 -154.5t190 -54.5q104 0 181 55.5t115 136t55.5 151.5t17.5 126h90 q0 -59 -12.5 -124.5t-45 -142.5t-84 -136.5t-137.5 -99.5t-194 -40q-469 0 -469 793z" />
<glyph unicode="&#x422;" d="M4 1454v82h907v-82h-407v-1454h-90v1454h-410z" />
<glyph unicode="&#x423;" horiz-adv-x="956" d="M12 1536h99l393 -1008l358 1008h90l-465 -1272q-57 -160 -115.5 -217t-158.5 -57q-49 0 -102 12v78q57 -12 96 -12q68 0 108.5 47t94.5 180l49 131z" />
<glyph unicode="&#x424;" horiz-adv-x="1409" d="M78 770q0 291 166 444.5t415 159.5v162h91v-162q254 -6 418.5 -159.5t164.5 -444.5t-166 -444.5t-417 -159.5v-166h-91v166q-254 6 -417.5 159.5t-163.5 444.5zM168 770q0 -262 137 -392t354 -134v1052q-217 -4 -354 -134t-137 -392zM750 244q217 4 355 134t138 392 t-138 392t-355 134v-1052z" />
<glyph unicode="&#x425;" horiz-adv-x="995" d="M16 0l435 780l-398 756h90l359 -666l360 666h90l-403 -756l430 -780h-100l-381 696l-383 -696h-99z" />
<glyph unicode="&#x426;" horiz-adv-x="1138" d="M131 0v1536h90v-1454h674v1454h90v-1454h131v-465h-88v383h-897z" />
<glyph unicode="&#x427;" horiz-adv-x="1067" d="M113 1030v506h90v-498q0 -307 286 -307q145 0 359 68v737h90v-1536h-90v721q-215 -68 -371 -68q-364 0 -364 377z" />
<glyph unicode="&#x428;" horiz-adv-x="1705" d="M131 0v1536h90v-1454h588v1454h90v-1454h588v1454h90v-1536h-1446z" />
<glyph unicode="&#x429;" horiz-adv-x="1730" d="M131 0v1536h90v-1454h588v1454h90v-1454h588v1454h90v-1454h131v-465h-88v383h-1489z" />
<glyph unicode="&#x42a;" horiz-adv-x="1290" d="M4 1454v82h475v-643h287q221 0 338 -114.5t117 -334t-117 -332t-338 -112.5h-377v1454h-385zM479 80h281q193 0 283 87t90 278.5t-90.5 279.5t-282.5 88h-281v-733z" />
<glyph unicode="&#x42b;" horiz-adv-x="1351" d="M131 0v1536h90v-643h287q221 0 338 -114.5t117 -334t-117 -332t-338 -112.5h-377zM221 80h281q193 0 282.5 87t89.5 278.5t-90 279.5t-282 88h-281v-733zM1130 0v1536h91v-1536h-91z" />
<glyph unicode="&#x42c;" horiz-adv-x="1032" d="M131 0v1536h90v-643h287q221 0 338 -114.5t117 -334t-117 -332t-338 -112.5h-377zM221 80h281q193 0 282.5 87t89.5 278.5t-90 279.5t-282 88h-281v-733z" />
<glyph unicode="&#x42d;" horiz-adv-x="1069" d="M49 471h88q10 -188 99.5 -306t259.5 -118q406 0 405 711h-610v82h608q-2 121 -17.5 218t-53 203.5t-117.5 167t-201 60.5q-309 0 -354 -363h-88q14 193 127.5 314t312.5 121q115 0 204 -44t140 -116t83 -178.5t43 -215t11 -243.5q0 -791 -497 -791q-217 0 -326 138.5 t-117 359.5z" />
<glyph unicode="&#x42e;" horiz-adv-x="1552" d="M131 0v1536h90v-694h258q25 719 498 719q240 0 366.5 -182.5t126.5 -610.5q0 -240 -45 -405.5t-122.5 -245.5t-155.5 -112t-170 -32q-498 0 -498 789h-258v-762h-90zM569 768q0 -225 34 -376.5t126 -248t248 -96.5q211 0 307 175t96 546q0 340 -92 530.5t-311 190.5 q-408 0 -408 -721z" />
<glyph unicode="&#x42f;" horiz-adv-x="1054" d="M82 0l381 692q-172 14 -267.5 124t-95.5 288q0 203 114 317.5t300 114.5h412v-1536h-90v690h-281l-377 -690h-96zM190 1104q0 -182 93.5 -261t232.5 -79h318v698h-308q-162 0 -249 -95t-87 -263z" />
<glyph unicode="&#x430;" horiz-adv-x="835" d="M51 289q0 129 54.5 202.5t173.5 106.5l243 66q70 20 90.5 55t20.5 110q0 143 -57.5 195.5t-159.5 52.5q-246 0 -246 -272h-82q0 63 14.5 119.5t46 109.5t98 85t159.5 32q172 0 240.5 -80t68.5 -217v-719q0 -76 49 -76q29 0 51 13v-66q-27 -18 -86 -18q-33 0 -64.5 30.5 t-31.5 92.5v69h-4q-27 -90 -106 -148.5t-189 -58.5q-143 0 -213 87.5t-70 228.5zM141 289q0 -242 207 -242q139 0 212 101.5t73 275.5v231h-4q-20 -33 -47 -45t-97 -28l-166 -47q-96 -27 -137 -85.5t-41 -160.5z" />
<glyph unicode="&#x431;" d="M94 563q0 479 86 671.5t318 221.5l100 12q96 10 102 68h82q-10 -121 -168 -143l-110 -15q-164 -20 -229.5 -131.5t-102.5 -386.5h6q39 137 115 201.5t196 64.5q164 0 254.5 -139t90.5 -424q0 -131 -16.5 -231.5t-56.5 -183t-118 -129t-186 -46.5q-201 0 -282 159t-81 431 zM180 561q0 -252 66.5 -383t216.5 -131q152 0 216 130t64 384q0 496 -270 496q-135 0 -214 -131.5t-79 -364.5z" />
<glyph unicode="&#x432;" horiz-adv-x="845" d="M111 0v1122h333q137 0 213 -72.5t76 -201.5q0 -207 -192 -254v-6q106 -18 167.5 -88t61.5 -191q0 -145 -84 -227t-242 -82h-333zM197 72h237q123 0 186.5 63.5t63.5 179.5q0 236 -281 236h-206v-479zM197 621h198q252 0 252 221q0 102 -58.5 155.5t-160.5 53.5h-231v-430 z" />
<glyph unicode="&#x433;" horiz-adv-x="692" d="M111 0v1124h577v-73h-498v-1051h-79z" />
<glyph unicode="&#x434;" horiz-adv-x="913" d="M6 74h94q158 276 158 708v342h520v-1050h117v-418h-82v344h-725v-344h-82v418zM190 74h506v977h-356v-275q0 -438 -150 -702z" />
<glyph unicode="&#x435;" horiz-adv-x="874" d="M82 594q0 264 94 410.5t283 146.5q190 0 270 -147.5t80 -436.5h-637q0 -55 1 -86.5t5 -93t14.5 -100.5t30 -90.5t46 -80t70.5 -49t97 -20.5q82 0 141.5 37t86 93t38 103.5t11.5 88.5h80q0 -152 -87.5 -274t-261.5 -122q-205 0 -283.5 156t-78.5 465zM172 641h547 q0 88 -10.5 155.5t-36 136t-80.5 106.5t-137 38q-90 0 -149.5 -45t-87.5 -120.5t-37 -139t-9 -131.5z" />
<glyph unicode="&#x436;" horiz-adv-x="1220" d="M-8 0l373 662l-320 462h107l417 -626v626h82v-628l422 628h103l-320 -454l375 -670h-105l-323 596l-152 -213v-383h-82v381l-149 213l-328 -594h-100z" />
<glyph unicode="&#x437;" horiz-adv-x="811" d="M66 303q0 16 2 37h79v-35q0 -121 63.5 -190.5t190.5 -69.5q113 0 178.5 67.5t65.5 190.5q0 242 -254 242h-94v71h78q113 0 177 59.5t64 176.5q0 104 -54 165.5t-150 61.5q-233 0 -238 -250h-84q2 158 88 240t234 82q133 0 213 -81t80 -212q0 -109 -57.5 -182.5 t-149.5 -87.5q111 -16 174 -91t63 -192q0 -145 -91 -238.5t-247 -93.5t-243.5 85t-87.5 245z" />
<glyph unicode="&#x438;" horiz-adv-x="903" d="M111 0v1124h79v-1005l500 1005h103v-1124h-80v1012l-498 -1012h-104z" />
<glyph unicode="&#x439;" horiz-adv-x="903" d="M111 0v1124h79v-1005l500 1005h103v-1124h-80v1012l-498 -1012h-104zM215 1556h64q0 -78 47 -129q51 -55 131 -55q84 0 130 52.5t46 131.5h63q0 -92 -47 -159q-66 -90 -192.5 -90t-184 79.5t-57.5 169.5z" />
<glyph unicode="&#x43a;" horiz-adv-x="835" d="M111 0v1124h79v-641l492 641h102l-342 -434l406 -690h-105l-358 616l-195 -243v-373h-79z" />
<glyph unicode="&#x43b;" horiz-adv-x="874" d="M4 -6v74q33 -8 51 -9q55 0 83 28t44.5 110t20.5 243l16 684h547v-1124h-82v1051h-385l-20 -691q-6 -219 -53.5 -296.5t-155.5 -77.5q-31 0 -66 8z" />
<glyph unicode="&#x43c;" horiz-adv-x="1118" d="M111 0v1122h145l301 -1024h4l301 1024h146v-1122h-80v1057l-316 -1057h-106l-316 1057v-1057h-79z" />
<glyph unicode="&#x43d;" horiz-adv-x="874" d="M111 0v1124h79v-487h494v487h82v-1124h-82v563h-494v-563h-79z" />
<glyph unicode="&#x43e;" d="M82 563q0 131 17.5 230.5t58.5 183.5t117.5 129t189.5 45q106 0 182 -45t115 -129t55.5 -184.5t16.5 -229.5q0 -131 -16.5 -231.5t-57.5 -183t-119 -129t-190 -46.5q-106 0 -182 46.5t-114 129t-55.5 183t-17.5 231.5zM172 561q0 -254 65.5 -384t220 -130t220 130 t65.5 384q0 256 -65.5 386t-220 130t-220 -130t-65.5 -386z" />
<glyph unicode="&#x43f;" horiz-adv-x="874" d="M111 0v1124h655v-1124h-82v1051h-494v-1051h-79z" />
<glyph unicode="&#x440;" d="M115 -379v1503h82v-196h4q74 223 286 223q346 0 347 -586q0 -592 -351 -592q-115 0 -188.5 63.5t-93.5 180.5h-4v-596h-82zM197 565q0 -256 64.5 -387t209.5 -131q104 0 167.5 73t84 181.5t20.5 263.5q0 260 -68.5 386t-189.5 126q-152 0 -220 -125t-68 -387z" />
<glyph unicode="&#x441;" horiz-adv-x="835" d="M82 567q0 584 379 584q94 0 163.5 -42t102.5 -104.5t46 -112.5t13 -89h-90q0 31 -10 71.5t-33.5 90t-75 81t-118.5 31.5q-152 0 -219.5 -130t-67.5 -384q0 -268 65.5 -392t221.5 -124q72 0 124 37t76.5 93t33.5 104.5t9 87.5h91q0 -51 -14.5 -108.5t-49.5 -126 t-108.5 -115t-176.5 -46.5q-201 0 -281.5 156.5t-80.5 437.5z" />
<glyph unicode="&#x442;" horiz-adv-x="776" d="M4 1051v73h768v-73h-342v-1051h-82v1051h-344z" />
<glyph unicode="&#x443;" horiz-adv-x="755" d="M18 1124h93l282 -1007h4l250 1007h90l-348 -1292q-33 -115 -90 -163t-160 -48q-27 0 -84 4v74q66 -4 72 -4q82 0 121 33.5t67 142.5l35 119z" />
<glyph unicode="&#x444;" horiz-adv-x="1376" d="M84 582q0 272 87 420.5t249 148.5q156 0 227 -133v518h82v-520q78 135 227 135q168 0 252 -146.5t84 -422.5q0 -608 -338 -609q-160 0 -225 138v-494h-82v496q-66 -139 -225 -140q-338 1 -338 609zM174 582q0 -535 256 -535q166 0 217 184v662q-12 74 -72.5 129 t-142.5 55q-127 0 -192.5 -131t-65.5 -364zM729 231q20 -88 79.5 -136t137.5 -48q256 0 256 535q0 231 -65.5 363t-192.5 132q-166 0 -215 -182v-664z" />
<glyph unicode="&#x445;" horiz-adv-x="755" d="M29 0l303 578l-289 546h100l238 -477l242 477h92l-287 -546l301 -578h-100l-252 508l-258 -508h-90z" />
<glyph unicode="&#x446;" horiz-adv-x="905" d="M111 0v1124h79v-1050h494v1050h82v-1050h121v-418h-82v344h-694z" />
<glyph unicode="&#x447;" horiz-adv-x="835" d="M84 756v368h82v-362q0 -217 196 -217q119 0 283 43v536h82v-1124h-82v514q-180 -43 -289 -43q-272 0 -272 285z" />
<glyph unicode="&#x448;" horiz-adv-x="1314" d="M111 0v1124h79v-1050h426v1050h82v-1050h426v1050h82v-1124h-1095z" />
<glyph unicode="&#x449;" horiz-adv-x="1345" d="M111 0v1124h79v-1050h426v1050h82v-1050h426v1050h82v-1050h121v-418h-82v344h-1134z" />
<glyph unicode="&#x44a;" horiz-adv-x="978" d="M0 1051v73h356v-462h217q166 0 253 -83t87 -249q0 -160 -88 -245t-252 -85h-299v1051h-274zM356 72h205q266 0 266 258q0 262 -266 262h-205v-520z" />
<glyph unicode="&#x44b;" horiz-adv-x="1083" d="M111 0v1124h79v-462h220q164 0 251 -83t87 -249q0 -160 -88.5 -245t-249.5 -85h-299zM190 72h205q266 0 267 258q0 262 -267 262h-205v-520zM893 0v1124h82v-1124h-82z" />
<glyph unicode="&#x44c;" horiz-adv-x="813" d="M111 0v1124h79v-462h220q164 0 251 -83t87 -249q0 -160 -88.5 -245t-249.5 -85h-299zM190 72h205q266 0 267 258q0 262 -267 262h-205v-520z" />
<glyph unicode="&#x44d;" horiz-adv-x="835" d="M45 354h84q16 -307 258 -307q80 0 135.5 37t86 108.5t43 154.5t16.5 198h-414v71h414q-10 229 -71.5 345t-205.5 116q-102 0 -167.5 -67.5t-82.5 -194.5h-88q18 164 108.5 250t231.5 86q199 0 281 -152.5t82 -437.5q0 -588 -375 -588q-164 0 -248 105.5t-88 275.5z" />
<glyph unicode="&#x44e;" horiz-adv-x="1224" d="M111 0v1124h79v-487h201q8 240 95 377t288 137q106 0 182 -45t115 -129t56.5 -184.5t17.5 -229.5q0 -131 -17.5 -231.5t-58.5 -183t-119 -129t-188 -46.5q-109 0 -183.5 46.5t-113.5 129t-56.5 183t-17.5 231.5h-201v-563h-79zM481 561q0 -254 65.5 -384t220.5 -130 t220.5 130t65.5 384q0 256 -65.5 386t-220.5 130t-220.5 -130t-65.5 -386z" />
<glyph unicode="&#x44f;" horiz-adv-x="831" d="M59 0l273 500q-248 43 -248 307q0 156 89 236.5t241 80.5h309v-1124h-82v492h-223l-264 -492h-95zM172 807q0 -244 256 -244h213v490h-223q-246 0 -246 -246z" />
<glyph unicode="&#x450;" horiz-adv-x="874" d="M82 594q0 264 94 410.5t283 146.5q190 0 270 -147.5t80 -436.5h-637q0 -55 1 -86.5t5 -93t14.5 -100.5t30 -90.5t46 -80t70.5 -49t97 -20.5q82 0 141.5 37t86 93t38 103.5t11.5 88.5h80q0 -152 -87.5 -274t-261.5 -122q-205 0 -283.5 156t-78.5 465zM172 641h547 q0 88 -10.5 155.5t-36 136t-80.5 106.5t-137 38q-90 0 -149.5 -45t-87.5 -120.5t-37 -139t-9 -131.5zM240 1583h102l168 -301h-72z" />
<glyph unicode="&#x451;" horiz-adv-x="874" d="M82 594q0 264 94 410.5t283 146.5q190 0 270 -147.5t80 -436.5h-637q0 -55 1 -86.5t5 -93t14.5 -100.5t30 -90.5t46 -80t70.5 -49t97 -20.5q82 0 141.5 37t86 93t38 103.5t11.5 88.5h80q0 -152 -87.5 -274t-261.5 -122q-205 0 -283.5 156t-78.5 465zM172 641h547 q0 88 -10.5 155.5t-36 136t-80.5 106.5t-137 38q-90 0 -149.5 -45t-87.5 -120.5t-37 -139t-9 -131.5zM266 1323v219h90v-219h-90zM555 1323v219h90v-219h-90z" />
<glyph unicode="&#x452;" horiz-adv-x="874" d="M-47 1298v74h158v164h79v-164h316v-74h-316v-376h7q33 84 105.5 140t178.5 56q129 0 207 -75.5t78 -227.5v-764q0 -223 -102.5 -325.5t-307.5 -120.5v71q168 18 248 100.5t80 272.5v727q0 143 -57.5 205.5t-165.5 62.5q-125 0 -198 -100t-73 -256v-688h-79v1298h-158z " />
<glyph unicode="&#x453;" horiz-adv-x="692" d="M111 0v1124h577v-73h-498v-1051h-79zM319 1282l168 301h105l-201 -301h-72z" />
<glyph unicode="&#x454;" horiz-adv-x="835" d="M82 561q0 590 369 590q145 0 233 -86t102 -250h-88q-10 127 -74.5 194.5t-168.5 67.5q-147 0 -211 -115.5t-74 -345.5h414v-71h-414q2 -119 14.5 -198t41 -152.5t87 -110.5t146.5 -37q119 0 180 88t70 219h84q-6 -164 -93.5 -272.5t-244.5 -108.5q-205 0 -289 149.5 t-84 438.5z" />
<glyph unicode="&#x455;" horiz-adv-x="755" d="M49 330v28h82v-34q0 -276 252 -277q119 0 176 66.5t57 169.5q0 86 -36.5 139t-130.5 90l-164 66q-111 45 -161 111.5t-50 170.5q0 137 84 214t223 77q293 0 293 -307v-35h-82v33q0 236 -211 235q-96 0 -156.5 -51t-60.5 -158q0 -88 40 -137t128 -84l172 -63 q203 -78 203 -299q0 -139 -93.5 -225.5t-230.5 -86.5q-334 1 -334 357z" />
<glyph unicode="&#x456;" horiz-adv-x="317" d="M119 0v1124h82v-1124h-82zM119 1317v219h82v-219h-82z" />
<glyph unicode="&#x457;" horiz-adv-x="317" d="M-31 1323v219h90v-219h-90zM119 0v1124h82v-1124h-82zM258 1323v219h90v-219h-90z" />
<glyph unicode="&#x458;" horiz-adv-x="317" d="M-82 -305q39 -4 62 -4q39 0 66.5 8t50 46t22.5 103v1276h82v-1265q0 -242 -205 -242q-27 0 -78 4v74zM119 1317v219h82v-219h-82z" />
<glyph unicode="&#x459;" horiz-adv-x="1388" d="M4 -6v74q33 -8 51 -9q55 0 83 28t44.5 110t20.5 243l16 684h547v-483h217q166 0 253 -82t87 -242q0 -152 -88 -234.5t-252 -82.5h-299v1051h-385l-20 -691q-6 -219 -53.5 -296.5t-155.5 -77.5q-31 0 -66 8zM766 72h205q266 0 266 245q0 252 -266 252h-205v-497z" />
<glyph unicode="&#x45a;" horiz-adv-x="1388" d="M111 0v1124h79v-483h494v483h82v-483h217q166 0 253 -82t87 -242q0 -152 -88 -234.5t-252 -82.5h-299v569h-494v-569h-79zM766 72h205q266 0 266 245q0 252 -266 252h-205v-497z" />
<glyph unicode="&#x45b;" horiz-adv-x="874" d="M-47 1298v74h158v164h79v-164h316v-74h-316v-376h7q33 84 105.5 140t178.5 56q129 0 207 -75.5t78 -227.5v-815h-82v776q0 143 -57.5 205.5t-165.5 62.5q-125 0 -198 -100t-73 -256v-688h-79v1298h-158z" />
<glyph unicode="&#x45c;" horiz-adv-x="835" d="M111 0v1124h79v-641l492 641h102l-342 -434l406 -690h-105l-358 616l-195 -243v-373h-79zM342 1282l168 301h102l-198 -301h-72z" />
<glyph unicode="&#x45d;" horiz-adv-x="903" d="M111 0v1124h79v-1005l500 1005h103v-1124h-80v1012l-498 -1012h-104zM254 1583h102l168 -301h-69z" />
<glyph unicode="&#x45e;" horiz-adv-x="755" d="M18 1124h93l282 -1007h4l250 1007h90l-348 -1292q-33 -115 -90 -163t-160 -48q-27 0 -84 4v74q66 -4 72 -4q82 0 121 33.5t67 142.5l35 119zM139 1556h66q0 -78 45 -129q51 -55 131 -55q84 0 130 52.5t46 131.5h64q0 -92 -48 -159q-66 -90 -192.5 -90t-184 79.5 t-57.5 169.5z" />
<glyph unicode="&#x45f;" horiz-adv-x="874" d="M111 0v1124h79v-1050h494v1050h82v-1124h-285v-344h-86v344h-284z" />
<glyph unicode="&#x462;" horiz-adv-x="1138" d="M4 1210v82h236v244h90v-244h352v-82h-352v-348h293q217 0 332.5 -110.5t115.5 -321.5t-115.5 -320.5t-332.5 -109.5h-383v1210h-236zM330 80h286q190 0 278.5 84t88.5 266t-88 267t-279 85h-286v-702z" />
<glyph unicode="&#x463;" horiz-adv-x="950" d="M16 1051v73h230v412h82v-412h288v-73h-288v-389h217q164 0 252 -83t88 -249q0 -160 -89 -245t-251 -85h-299v1051h-230zM328 72h202q268 0 269 258q0 262 -269 262h-202v-520z" />
<glyph unicode="&#x472;" horiz-adv-x="1153" d="M82 767q0 794 496 794q242 0 368.5 -182.5t126.5 -610.5q0 -240 -45 -405.5t-123 -245.5t-155.5 -112t-171.5 -32q-496 0 -496 794zM170 762q0 -166 19.5 -291t64.5 -222t127 -149.5t197 -52.5q211 0 308 173t99 542h-815zM170 844h813q-20 645 -405 645 q-388 0 -408 -645z" />
<glyph unicode="&#x473;" d="M82 563q0 131 17.5 230.5t58.5 183.5t117.5 129t189.5 45q106 0 182 -45t115 -129t55.5 -184.5t16.5 -229.5q0 -131 -16.5 -231.5t-57.5 -183t-119 -129t-190 -46.5q-106 0 -182 46.5t-114 129t-55.5 183t-17.5 231.5zM170 545q2 -246 68.5 -372t219 -126t219 126 t68.5 372h-575zM170 616h573q-6 231 -72.5 346t-213 115t-214 -116t-73.5 -345z" />
<glyph unicode="&#x474;" horiz-adv-x="1087" d="M2 1536h90l383 -1434h4l303 1237q31 123 89.5 172.5t156.5 49.5q35 0 78 -9v-73q-43 8 -68 8q-74 0 -111.5 -36t-60.5 -126l-334 -1325h-110z" />
<glyph unicode="&#x475;" horiz-adv-x="854" d="M18 1124h93l272 -1022h4l197 842q47 207 211 207q47 0 73 -6v-72q-29 4 -59 4q-55 0 -89 -30.5t-52 -114.5l-236 -932h-96z" />
<glyph unicode="&#x490;" horiz-adv-x="847" d="M131 0v1536h627v338h88v-420h-625v-1454h-90z" />
<glyph unicode="&#x491;" horiz-adv-x="692" d="M111 0v1124h491v310h86v-383h-498v-1051h-79z" />
<glyph unicode="&#x1e80;" horiz-adv-x="1513" d="M25 1536h90l295 -1407h4l286 1407h111l291 -1407h4l295 1407h90l-336 -1536h-113l-282 1407h-4l-291 -1407h-109zM555 1958h102l168 -303h-69z" />
<glyph unicode="&#x1e81;" horiz-adv-x="1153" d="M12 1124h90l201 -1007h4l221 1007h105l213 -1007h4l201 1007h92l-244 -1124h-104l-211 1008h-6l-222 -1008h-102zM375 1583h102l168 -301h-72z" />
<glyph unicode="&#x1e82;" horiz-adv-x="1513" d="M25 1536h90l295 -1407h4l286 1407h111l291 -1407h4l295 1407h90l-336 -1536h-113l-282 1407h-4l-291 -1407h-109zM692 1655l168 303h103l-199 -303h-72z" />
<glyph unicode="&#x1e83;" horiz-adv-x="1153" d="M12 1124h90l201 -1007h4l221 1007h105l213 -1007h4l201 1007h92l-244 -1124h-104l-211 1008h-6l-222 -1008h-102zM518 1282l168 301h102l-198 -301h-72z" />
<glyph unicode="&#x1e84;" horiz-adv-x="1513" d="M25 1536h90l295 -1407h4l286 1407h111l291 -1407h4l295 1407h90l-336 -1536h-113l-282 1407h-4l-291 -1407h-109zM569 1696v221h90v-221h-90zM858 1696v221h90v-221h-90z" />
<glyph unicode="&#x1e85;" horiz-adv-x="1153" d="M12 1124h90l201 -1007h4l221 1007h105l213 -1007h4l201 1007h92l-244 -1124h-104l-211 1008h-6l-222 -1008h-102zM393 1323v219h90v-219h-90zM682 1323v219h90v-219h-90z" />
<glyph unicode="&#x1ef2;" horiz-adv-x="954" d="M12 1536h101l364 -809l375 809h90l-420 -903v-633h-90v633zM254 1958h102l168 -303h-69z" />
<glyph unicode="&#x1ef3;" horiz-adv-x="755" d="M18 1124h93l282 -1007h4l250 1007h90l-348 -1292q-33 -115 -90 -163t-160 -48q-27 0 -84 4v74q66 -4 72 -4q82 0 121 33.5t67 142.5l35 119zM176 1583h103l167 -301h-69z" />
<glyph unicode="&#x2000;" horiz-adv-x="989" />
<glyph unicode="&#x2001;" horiz-adv-x="1978" />
<glyph unicode="&#x2002;" horiz-adv-x="989" />
<glyph unicode="&#x2003;" horiz-adv-x="1978" />
<glyph unicode="&#x2004;" horiz-adv-x="659" />
<glyph unicode="&#x2005;" horiz-adv-x="493" />
<glyph unicode="&#x2006;" horiz-adv-x="329" />
<glyph unicode="&#x2007;" horiz-adv-x="329" />
<glyph unicode="&#x2008;" horiz-adv-x="245" />
<glyph unicode="&#x2009;" horiz-adv-x="395" />
<glyph unicode="&#x200a;" horiz-adv-x="108" />
<glyph unicode="&#x2010;" horiz-adv-x="675" d="M135 549v72h408v-72h-408z" />
<glyph unicode="&#x2011;" horiz-adv-x="675" d="M135 549v72h408v-72h-408z" />
<glyph unicode="&#x2012;" horiz-adv-x="675" d="M135 549v72h408v-72h-408z" />
<glyph unicode="&#x2013;" horiz-adv-x="1075" d="M0 549v72h1075v-72h-1075z" />
<glyph unicode="&#x2014;" horiz-adv-x="2150" d="M0 549v72h2150v-72h-2150z" />
<glyph unicode="&#x2015;" horiz-adv-x="2150" d="M0 549v72h2150v-72h-2150z" />
<glyph unicode="&#x2018;" horiz-adv-x="395" d="M143 1040v215q0 121 29 181.5t96 99.5v-74q-59 -45 -59 -202h24v-220h-90z" />
<glyph unicode="&#x2019;" horiz-adv-x="395" d="M127 1040v74q59 45 59 203h-24v219h90v-215q0 -123 -27.5 -181.5t-97.5 -99.5z" />
<glyph unicode="&#x201a;" horiz-adv-x="395" d="M127 -203q59 45 59 203h-24v219h90v-215q0 -123 -27.5 -180t-97.5 -98v71z" />
<glyph unicode="&#x201c;" horiz-adv-x="634" d="M143 1040v215q0 121 29 181.5t96 99.5v-74q-59 -45 -59 -202h24v-220h-90zM385 1040v215q0 121 27.5 181.5t97.5 99.5v-74q-61 -45 -61 -202h26v-220h-90z" />
<glyph unicode="&#x201d;" horiz-adv-x="634" d="M127 1040v74q59 45 59 203h-24v219h90v-215q0 -123 -27.5 -181.5t-97.5 -99.5zM369 1040v74q59 45 59 203h-27v219h91v-215q0 -123 -27.5 -181.5t-95.5 -99.5z" />
<glyph unicode="&#x201e;" horiz-adv-x="634" d="M127 -203q59 45 59 203h-24v219h90v-215q0 -123 -27.5 -180t-97.5 -98v71zM369 -203q59 45 59 203h-27v219h91v-215q0 -123 -28 -180t-95 -98v71z" />
<glyph unicode="&#x2020;" horiz-adv-x="1032" d="M88 965v73h387v498h82v-498h387v-73h-387v-1291h-82v1291h-387z" />
<glyph unicode="&#x2021;" horiz-adv-x="1032" d="M88 141v74h387v793h-387v73h387v455h82v-455h387v-73h-387v-793h387v-74h-387v-467h-82v467h-387z" />
<glyph unicode="&#x2022;" horiz-adv-x="1075" d="M156 768q0 160 111.5 271.5t270 111.5t270.5 -111.5t112 -271.5t-112 -271.5t-270.5 -111.5t-270 111.5t-111.5 271.5z" />
<glyph unicode="&#x2026;" horiz-adv-x="2150" d="M313 0v219h90v-219h-90zM1030 0v219h90v-219h-90zM1747 0v219h90v-219h-90z" />
<glyph unicode="&#x202f;" horiz-adv-x="395" />
<glyph unicode="&#x2030;" horiz-adv-x="2070" d="M102 1143q0 379 263 379q150 0 207 -92.5t57 -286.5q0 -381 -264 -381q-147 0 -205 91t-58 290zM176 1143q0 -180 47 -249t142 -69q92 0 139 69t51 249q0 178 -47 246.5t-143 68.5q-189 0 -189 -315zM342 -27l651 1549h74l-651 -1549h-74zM788 354q0 381 263 381 q150 0 207 -92t57 -289q0 -381 -264 -381q-147 0 -205 92t-58 289zM862 354q0 -178 47 -246.5t142 -68.5q92 0 139 68.5t51 246.5q0 178 -47 248t-143 70q-189 -1 -189 -318zM1444 354q0 381 262 381q147 0 204.5 -92t57.5 -289q0 -381 -262 -381q-150 0 -206 92t-56 289z M1516 354q0 -178 47 -246.5t143 -68.5q90 0 137 68.5t51 246.5q0 178 -47 248t-141 70q-190 -1 -190 -318z" />
<glyph unicode="&#x2039;" horiz-adv-x="477" d="M117 541v80l243 299v-107l-180 -231l180 -226v-106z" />
<glyph unicode="&#x203a;" horiz-adv-x="477" d="M117 250v106l180 234l-180 223v107l243 -289v-82z" />
<glyph unicode="&#x203d;" d="M76 1030q4 137 80.5 241.5t236.5 125.5v139h90v-133q180 -6 269.5 -99.5t89.5 -232.5q0 -123 -48.5 -195.5t-146.5 -152.5q-55 -45 -82.5 -72.5t-54.5 -78t-27 -109.5v-70h-80l-10 647v283q-219 -39 -227 -293h-90zM397 0v207h90v-207h-90zM475 653q29 47 127 127 q78 66 115 126.5t37 160.5q0 111 -63.5 184.5t-207.5 77.5v-289z" />
<glyph unicode="&#x2044;" horiz-adv-x="358" d="M-350 -70l987 1635h72l-985 -1635h-74z" />
<glyph unicode="&#x205f;" horiz-adv-x="493" />
<glyph unicode="&#x2070;" horiz-adv-x="714" d="M51 1307q0 475 307 475q305 0 306 -475q0 -473 -306 -473q-307 0 -307 473zM131 1307q0 -403 227 -404q227 0 228 404q0 408 -228 407q-227 1 -227 -407z" />
<glyph unicode="&#x2074;" horiz-adv-x="714" d="M39 1069v78l418 616h73v-624h132v-70h-132v-215h-75v215h-416zM115 1139h340v501z" />
<glyph unicode="&#x2075;" horiz-adv-x="714" d="M66 1098h77q4 -92 60.5 -144.5t146.5 -52.5q96 0 154.5 64.5t58.5 179.5q0 111 -50 178.5t-151 67.5q-123 0 -198 -101h-72l80 473h430v-71h-364l-54 -306q78 74 185 74q133 0 203.5 -86t70.5 -227q0 -145 -81 -229t-212 -84q-129 0 -202.5 68.5t-81.5 195.5z" />
<glyph unicode="&#x2076;" horiz-adv-x="714" d="M72 1266q0 145 27.5 255.5t100 185.5t189.5 75q109 0 170.5 -52.5t75.5 -142.5h-78q-29 127 -170 127q-219 0 -240 -399h9q78 123 233 123q123 0 194.5 -81t71.5 -220q0 -133 -75.5 -218t-204.5 -85q-303 0 -303 432zM166 1139.5q0 -103.5 52 -170t157 -66.5 q94 0 150.5 61.5t56.5 168.5q0 106 -53.5 172.5t-149.5 66.5q-102 0 -157.5 -64.5t-55.5 -168z" />
<glyph unicode="&#x2077;" horiz-adv-x="714" d="M78 1688v75h561v-77q-322 -358 -346 -832h-88q16 258 100 448.5t248 385.5h-475z" />
<glyph unicode="&#x2078;" horiz-adv-x="714" d="M70 1108q0 186 163 238v6q-61 23 -95 75t-34 123q0 109 71 170.5t183 61.5q123 0 186.5 -63.5t63.5 -168.5q0 -143 -129 -192v-8q168 -53 168 -242q0 -131 -81 -202.5t-208 -71.5q-133 0 -210.5 69.5t-77.5 204.5zM147 1108q0 -100 56.5 -153.5t156 -53.5t153.5 52.5 t54 154.5q0 96 -56 151.5t-153 55.5q-96 0 -153.5 -55.5t-57.5 -151.5zM184 1550q0 -86 49.5 -128t124.5 -42q76 0 123 43t47 127q0 78 -43 123t-127 45q-82 0 -128 -43t-46 -125z" />
<glyph unicode="&#x2079;" horiz-adv-x="714" d="M59 1479q0 135 77 219t206 84q303 0 303 -432q0 -143 -27.5 -254t-101.5 -186.5t-188 -75.5q-109 0 -171.5 53t-74.5 143h78q27 -127 170 -127q219 0 237 400h-6q-80 -125 -233 -125q-123 0 -196 82t-73 219zM135 1483q0 -104 53.5 -171t149.5 -67q100 0 156.5 64.5 t56.5 168t-53.5 170t-155.5 66.5q-94 0 -150.5 -61t-56.5 -170z" />
<glyph unicode="&#x207a;" horiz-adv-x="774" d="M68 1147v67h280v295h78v-295h281v-67h-281v-293h-78v293h-280z" />
<glyph unicode="&#x207b;" horiz-adv-x="483" d="M70 1176v69h346v-69h-346z" />
<glyph unicode="&#x207c;" horiz-adv-x="774" d="M68 1024v68h639v-68h-639zM68 1274v67h639v-67h-639z" />
<glyph unicode="&#x207d;" horiz-adv-x="364" d="M90 1284q0 303 176 600h66q-88 -174 -123 -308t-35 -292t35 -292t123 -308h-66q-176 297 -176 600z" />
<glyph unicode="&#x207e;" horiz-adv-x="364" d="M35 684q88 174 121.5 308t33.5 292t-33.5 292t-121.5 308h63q176 -297 176 -600t-176 -600h-63z" />
<glyph unicode="&#x207f;" horiz-adv-x="714" d="M106 854v674h76v-103h6q68 121 209 121q111 0 162 -65.5t51 -173.5v-453h-78v422q0 205 -153 205q-92 0 -144.5 -66.5t-52.5 -163.5v-397h-76z" />
<glyph unicode="&#x2080;" horiz-adv-x="714" d="M51 90q0 475 307 475q305 0 306 -475q0 -473 -306 -473q-307 0 -307 473zM131 90q0 -403 227 -403t228 403q0 408 -228 408q-227 0 -227 -408z" />
<glyph unicode="&#x2081;" horiz-adv-x="714" d="M129 319v70q76 4 149.5 55.5t96.5 102.5h67v-909h-77v792q-33 -41 -100.5 -73t-135.5 -38z" />
<glyph unicode="&#x2082;" horiz-adv-x="714" d="M78 -362q4 117 58 195.5t167 158.5l107 74q135 92 135 237q0 94 -47 144.5t-129 50.5q-96 0 -144.5 -55.5t-50.5 -149.5h-80q2 133 76 202.5t199 69.5q119 0 186.5 -66.5t67.5 -193.5q0 -180 -166 -295l-113 -78q-164 -113 -176 -225h453v-69h-543z" />
<glyph unicode="&#x2083;" horiz-adv-x="714" d="M72 -127h80q0 -90 53 -138t153 -48q90 0 148.5 52t58.5 148t-58 145.5t-161 49.5h-41v70h41q74 0 130 46t56 128q0 86 -48 129t-128 43q-178 0 -184 -181h-80q4 115 75 181.5t193 66.5q111 0 181.5 -62.5t70.5 -168.5q0 -74 -38.5 -130.5t-108.5 -76.5v-6 q88 -18 134 -77.5t46 -149.5q0 -133 -81 -205t-204 -72q-288 0 -288 256z" />
<glyph unicode="&#x2084;" horiz-adv-x="714" d="M39 -72l418 619h73v-625h132v-69h-132v-215h-75v215h-416v75zM115 -78h340v502z" />
<glyph unicode="&#x2085;" horiz-adv-x="714" d="M66 -121h77q4 -90 60.5 -142t146.5 -52q96 0 154.5 64.5t58.5 176.5q0 113 -50 180.5t-151 67.5q-123 0 -198 -100h-72l80 473h430v-72h-364l-54 -305q78 74 185 74q133 0 203.5 -86t70.5 -230q0 -143 -81 -227t-212 -84q-129 0 -202.5 67.5t-81.5 194.5z" />
<glyph unicode="&#x2086;" horiz-adv-x="714" d="M72 49q0 143 27.5 255t100 186.5t189.5 74.5q109 0 170.5 -52t75.5 -142h-78q-29 127 -170 127q-219 0 -240 -402h9q78 125 233 125q123 0 194.5 -82t71.5 -219q0 -133 -75.5 -218t-204.5 -85q-303 0 -303 432zM166 -76.5q0 -103.5 52 -170t157 -66.5q94 0 150.5 61.5 t56.5 167.5q0 104 -53.5 172t-149.5 68q-102 0 -157.5 -64.5t-55.5 -168z" />
<glyph unicode="&#x2087;" horiz-adv-x="714" d="M78 471v76h561v-78q-322 -358 -346 -831h-88q16 258 100 447t248 386h-475z" />
<glyph unicode="&#x2088;" horiz-adv-x="714" d="M70 -111q0 188 163 240v6q-61 23 -95 75t-34 124q0 106 71 168.5t183 62.5q123 0 186.5 -63.5t63.5 -167.5q0 -145 -129 -195v-6q168 -53 168 -244q0 -131 -81 -201.5t-208 -70.5q-133 0 -210.5 68.5t-77.5 203.5zM147 -111q0 -98 56.5 -151t156 -53t153.5 52t54 152 q0 98 -56 152.5t-153 54.5q-96 0 -153.5 -54.5t-57.5 -152.5zM184 334q0 -86 49.5 -128t124.5 -42q76 0 123 43t47 127q0 78 -43 123t-127 45q-82 0 -128 -43t-46 -125z" />
<glyph unicode="&#x2089;" horiz-adv-x="714" d="M59 262q0 133 77 218t206 85q303 0 303 -432q0 -143 -27.5 -253.5t-101.5 -186.5t-188 -76q-109 0 -171.5 53.5t-74.5 143.5h78q27 -127 170 -127q219 0 237 399h-6q-80 -125 -233 -125q-123 0 -196 82t-73 219zM135 266q0 -104 53.5 -170.5t149.5 -66.5 q100 0 156.5 64.5t56.5 166.5t-53.5 170t-155.5 68q-94 0 -150.5 -61.5t-56.5 -170.5z" />
<glyph unicode="&#x208a;" horiz-adv-x="774" d="M68 -2h280v295h78v-295h281v-70h-281v-290h-78v290h-280v70z" />
<glyph unicode="&#x208b;" horiz-adv-x="483" d="M70 29h346v-70h-346v70z" />
<glyph unicode="&#x208c;" horiz-adv-x="774" d="M68 55v70h639v-70h-639zM68 -125h639v-68h-639v68z" />
<glyph unicode="&#x208d;" horiz-adv-x="364" d="M90 66.5q0 304.5 176 601.5h66q-88 -176 -123 -310.5t-35 -291t35 -290.5t123 -308h-66q-176 294 -176 598.5z" />
<glyph unicode="&#x208e;" horiz-adv-x="364" d="M35 -532q88 174 121.5 308t33.5 290.5t-33.5 291t-121.5 310.5h63q176 -297 176 -601.5t-176 -598.5h-63z" />
<glyph unicode="&#x20ac;" horiz-adv-x="1032" d="M8 590l31 72h131q-2 84 0 178h-162l31 71h135q18 342 166 498q111 113 309 113q172 0 264 -64q76 -49 119 -129l-43 -94q-43 98 -125 156q-88 59 -211 59q-158 0 -252 -92q-123 -127 -137 -447h600l-30 -71h-574q-4 -90 0 -178h506l-31 -72h-473q12 -326 158 -457 q92 -86 239 -86q115 0 203 53q94 57 150 150v-129q-61 -68 -138 -101q-98 -47 -225 -47q-186 0 -297 103q-174 154 -180 514h-164z" />
<glyph unicode="&#x2105;" horiz-adv-x="1611" d="M72 1049q0 473 303 473q117 0 185.5 -68t78.5 -180h-80q-16 180 -184 180q-223 0 -223 -405q0 -406 223 -406q172 0 188 199h80q-10 -121 -80.5 -195t-187.5 -74q-303 1 -303 476zM266 -70l987 1635h74l-987 -1635h-74zM934 455q0 475 307 475q305 0 305 -475 q0 -473 -305 -473q-307 0 -307 473zM1014 455q0 -406 227 -406q225 0 225 406t-225 405q-227 1 -227 -405z" />
<glyph unicode="&#x2113;" horiz-adv-x="1075" d="M213 438l166 178v580q0 170 65.5 262t161.5 92q86 0 140.5 -66.5t54.5 -187.5q0 -303 -346 -696v-360q0 -115 51 -161t123 -46q104 0 188 84h4l31 -41q-106 -106 -238 -107q-102 0 -168.5 62.5t-66.5 193.5v320l-129 -148h-4zM455 676q281 338 280 612q0 92 -38 148.5 t-91 56.5q-63 0 -107 -72.5t-44 -216.5v-528z" />
<glyph unicode="&#x2116;" horiz-adv-x="1751" d="M121 0v1497h121l657 -1356h4v1356h90v-1497h-119l-659 1356h-4v-1356h-90zM1122 621.5q0 357.5 256 357.5t256 -357.5t-256 -357.5t-256 357.5zM1126 0v72h508v-72h-508zM1204 621.5q0 -287.5 174 -287.5t174 287.5t-174 287.5t-174 -287.5z" />
<glyph unicode="&#x2117;" horiz-adv-x="1720" d="M68 768q0 330 231 561.5t561 231.5t561.5 -231.5t231.5 -561.5t-231.5 -562.5t-561.5 -232.5t-561 232.5t-231 562.5zM147 768q0 -295 209 -504t504 -209t504 209t209 504t-209 503t-504 208t-504 -208t-209 -503zM575 299v942h371q154 0 232.5 -69.5t78.5 -200.5 t-81.5 -202t-229.5 -71h-278v-399h-93zM668 778h268q231 0 231 191.5t-231 191.5h-268v-383z" />
<glyph unicode="&#x2122;" horiz-adv-x="2150" d="M133 1462v74h684v-74h-305v-813h-74v813h-305zM993 649v887h125l328 -750l330 750h120v-887h-73v813h-4l-355 -813h-39l-354 813h-4v-813h-74z" />
<glyph unicode="&#x2126;" horiz-adv-x="1153" d="M82 788q0 385 121 579t375 194q258 0 376.5 -191.5t118.5 -581.5q0 -463 -280 -706h266v-82h-379v76q172 147 237.5 312t65.5 400q0 700 -405 701q-406 0 -406 -701q0 -236 65.5 -400.5t237.5 -311.5v-76h-379v82h264q-278 243 -278 706z" />
<glyph unicode="&#x212e;" horiz-adv-x="1634" d="M94 741q0 334 201 555.5t524 221.5q324 0 524.5 -216.5t202.5 -560.5h-1132v-508q164 -164 405 -163q176 0 307 79.5t236 256.5l98 -60q-131 -203 -277.5 -291t-363.5 -88q-324 0 -524.5 222t-200.5 552zM414 846h817v405q-178 168 -414 168t-403 -168v-405z" />
<glyph unicode="&#x2153;" horiz-adv-x="1550" d="M76 1274v67q76 4 149.5 55.5t93.5 102.5h70v-909h-78v792q-35 -41 -102 -72.5t-133 -35.5zM158 -70l987 1635h72l-988 -1635h-71zM893 238h80q0 -92 53 -140.5t154 -48.5q92 0 149 53.5t57 149.5q0 94 -57 143t-162 49h-41v70h41q74 0 131.5 46t57.5 128q0 86 -49.5 129 t-128.5 43q-178 0 -185 -178h-80q4 113 75 180.5t196 67.5q109 0 179.5 -62.5t70.5 -171.5q0 -74 -38 -129t-110 -78v-6q88 -16 134 -76.5t46 -150.5q0 -131 -80.5 -202.5t-201.5 -71.5q-291 0 -291 256z" />
<glyph unicode="&#x2154;" horiz-adv-x="1550" d="M72 590q4 117 58 195.5t167 158.5l104 74q135 92 136 237q0 94 -46.5 144.5t-130.5 50.5q-94 0 -142 -55.5t-50 -149.5h-80q2 133 76 203t196 70q121 0 188.5 -67t67.5 -194q0 -180 -167 -294l-111 -76q-164 -115 -176 -228h452v-69h-542zM266 -70l987 1635h74 l-987 -1635h-74zM920 238h79q0 -92 54.5 -140.5t154.5 -48.5q90 0 148.5 53.5t58.5 149.5q0 94 -58.5 143t-160.5 49h-41v70h41q74 0 130 46t56 128q0 86 -48 129t-128 43q-178 0 -184 -178h-80q4 113 73.5 180.5t194.5 67.5q111 0 181.5 -62.5t70.5 -171.5q0 -74 -39 -129 t-108 -78v-6q88 -16 134 -76.5t46 -150.5q0 -131 -81 -202.5t-204 -71.5q-290 0 -290 256z" />
<glyph unicode="&#x215b;" horiz-adv-x="1550" d="M76 1274v67q76 4 149.5 55.5t93.5 102.5h70v-909h-78v792q-35 -41 -102 -72.5t-133 -35.5zM158 -70l987 1635h72l-988 -1635h-71zM866 254q0 186 166 238v8q-61 20 -95 73.5t-34 122.5q0 109 69.5 171.5t184.5 62.5q123 0 186.5 -63.5t63.5 -170.5q0 -143 -129 -192v-6 q168 -55 168 -244q0 -131 -81 -201.5t-208 -70.5q-133 0 -212 68.5t-79 203.5zM946 254q0 -98 56.5 -152.5t154.5 -54.5t153.5 53.5t55.5 153.5q0 96 -57.5 151.5t-151.5 55.5q-96 0 -153.5 -55.5t-57.5 -151.5zM983 696q0 -86 48 -128t126 -42q76 0 123 43t47 127 q0 78 -43 123t-127 45q-82 0 -128 -43t-46 -125z" />
<glyph unicode="&#x215c;" horiz-adv-x="1550" d="M59 825h80q0 -90 54.5 -138t154.5 -48q90 0 148.5 52t58.5 151q0 94 -58.5 143t-160.5 49h-41v70h41q74 0 130 46t56 128q0 86 -48 129t-128 43q-178 0 -184 -178h-80q4 113 73.5 179.5t194.5 66.5q111 0 181.5 -62.5t70.5 -169.5q0 -74 -39 -129t-108 -78v-6 q88 -16 134 -76.5t46 -150.5q0 -131 -81 -204t-204 -73q-291 0 -291 256zM254 -70l987 1635h74l-987 -1635h-74zM913 254q0 186 166 238v8q-61 20 -95 73.5t-34 122.5q0 109 70 171.5t184 62.5q123 0 186.5 -63.5t63.5 -170.5q0 -143 -129 -192v-6q168 -55 168 -244 q0 -131 -81 -201.5t-208 -70.5q-133 0 -212 68.5t-79 203.5zM993 254q0 -98 56.5 -152.5t155 -54.5t153.5 53.5t55 153.5q0 96 -57.5 151.5t-151.5 55.5q-96 0 -153.5 -55.5t-57.5 -151.5zM1030 696q0 -86 48 -128t126 -42q76 0 123 43t47 127q0 78 -43 123t-127 45 q-82 0 -128 -43t-46 -125z" />
<glyph unicode="&#x215d;" horiz-adv-x="1550" d="M57 831h80q4 -90 60.5 -142t146.5 -52q96 0 154.5 64.5t58.5 177.5t-50 180t-151 67q-125 0 -198 -100h-72l80 473h430v-72h-367l-51 -305q78 74 182 74q135 0 206 -86t71 -229t-81 -227.5t-212 -84.5q-129 0 -203 67.5t-84 194.5zM250 -70l987 1635h72l-985 -1635h-74z M913 254q0 186 166 238v8q-61 20 -95 73.5t-34 122.5q0 109 70 171.5t184 62.5q123 0 186.5 -63.5t63.5 -170.5q0 -143 -129 -192v-6q168 -55 168 -244q0 -131 -81 -201.5t-208 -70.5q-133 0 -212 68.5t-79 203.5zM993 254q0 -98 56.5 -152.5t155 -54.5t153.5 53.5t55 153.5 q0 96 -57.5 151.5t-151.5 55.5q-96 0 -153.5 -55.5t-57.5 -151.5zM1030 696q0 -86 48 -128t126 -42q76 0 123 43t47 127q0 78 -43 123t-127 45q-82 0 -128 -43t-46 -125z" />
<glyph unicode="&#x215e;" horiz-adv-x="1550" d="M184 -70l987 1635h74l-987 -1635h-74zM186 1423v76h562v-78q-319 -358 -347 -831h-88q18 258 102.5 448.5t246.5 384.5h-476zM893 254q0 186 166 238v8q-63 20 -96 73.5t-33 122.5q0 109 69.5 171.5t184.5 62.5q121 0 184.5 -63.5t63.5 -170.5q0 -143 -129 -192v-6 q168 -55 167 -244q0 -131 -80.5 -201.5t-205.5 -70.5q-135 0 -213 68.5t-78 203.5zM973 254q0 -98 55 -152.5t154.5 -54.5t154 53.5t54.5 153.5q0 96 -56.5 151.5t-150.5 55.5q-98 0 -154.5 -55.5t-56.5 -151.5zM1008 696q0 -86 49 -128t127 -42q74 0 121 43t47 127 q0 78 -43 123t-125 45t-129 -43t-47 -125z" />
<glyph unicode="&#x2202;" horiz-adv-x="995" d="M57 451q0 190 106.5 322t293.5 132q221 0 377 -209q0 23 1 67t1 64q0 106 -18.5 212t-61.5 208.5t-127 167t-199 64.5q-119 0 -248 -97l-43 56q139 113 289 112q113 0 200 -50t139 -128t86 -182.5t46 -200.5t12 -196t-9 -197.5t-40 -215.5t-78 -204t-133 -144.5 t-200 -58.5q-178 0 -286 147t-108 331zM135 449q0 -152 86 -280t234 -128q96 0 168.5 57.5t113.5 150.5t60.5 181t27.5 180q-166 225 -366 226q-154 0 -239 -114.5t-85 -272.5z" />
<glyph unicode="&#x2206;" horiz-adv-x="1034" d="M-8 0l477 1536h115l458 -1536h-1050zM104 82h824l-404 1364h-4z" />
<glyph unicode="&#x220f;" horiz-adv-x="1513" d="M178 -461v2151h1157v-2151h-78v2077h-1001v-2077h-78z" />
<glyph unicode="&#x2211;" horiz-adv-x="1273" d="M76 -391l727 1012l-699 999v70h1070v-74h-969l692 -995l-727 -1006h1030v-76h-1124v70z" />
<glyph unicode="&#x2212;" horiz-adv-x="1290" d="M100 508v74h1090v-74h-1090z" />
<glyph unicode="&#x2215;" horiz-adv-x="358" d="M-350 -70l987 1635h72l-985 -1635h-74z" />
<glyph unicode="&#x2219;" horiz-adv-x="516" d="M147 710q0 46 33 77.5t78 31.5t78 -31.5t33 -77.5t-33 -78t-78 -32t-78 32t-33 78z" />
<glyph unicode="&#x221a;" horiz-adv-x="995" d="M-33 334l158 78l373 -772l436 2041h70l-461 -2148h-70l-383 786l-94 -45z" />
<glyph unicode="&#x221e;" horiz-adv-x="1552" d="M100 524q0 119 75 202t190 83q47 0 91 -12.5t96 -46.5l74 -51q22 -15 84 -70.5t66 -59.5q6 6 47 43l56 50q14 12 53 41.5t61.5 43t57 31t66.5 24.5t63 7q121 0 196.5 -79t75.5 -202q0 -125 -73.5 -204.5t-198.5 -79.5q-29 0 -61 6t-55.5 14t-53.5 27l-49 30 q-18 11 -51 37.5l-45 36.5l-46 42q-35 32 -43 40q-12 -10 -68.5 -61t-79.5 -68l-72 -48q-48 -32 -91 -43t-92 -11q-121 0 -197 77.5t-76 200.5zM172 526q0 -94 52 -152.5t149 -58.5q63 0 136 38t113 73l105 96l-60 50l-75 62q-25 19 -69 49t-84 42t-79 12q-86 0 -137 -61.5 t-51 -149.5zM823 522q4 -4 37 -33l42 -36l40 -34t45 -34t44 -26.5t50.5 -24.5l47 -13.5t51.5 -7.5q96 0 148 58.5t52 154.5q0 92 -52 151.5t-142 59.5q-25 0 -50.5 -6t-47 -15t-49 -25.5t-46 -29t-49.5 -36.5l-42 -34q-11 -9 -42 -37t-37 -32z" />
<glyph unicode="&#x222b;" horiz-adv-x="1146" d="M256 -385q0 23 17.5 38t37.5 15t46 -27.5t40 -27.5q88 0 88 389v49v1057q0 12 -2 79.5t0 106.5t7.5 106.5t18.5 110.5t35.5 88.5t62.5 68t91 22.5q106 0 107 -76q0 -27 -16.5 -42.5t-43.5 -15.5q-37 0 -57 34t-35 34q-92 0 -92 -412v-51l2 -1024q0 -14 1 -61t1 -79 t-2 -84t-8 -90t-15.5 -85t-25.5 -79t-39.5 -60.5t-56.5 -43t-74 -14.5q-37 0 -62.5 19.5t-25.5 54.5z" />
<glyph unicode="&#x2248;" horiz-adv-x="1290" d="M92 207q23 111 84.5 179.5t163.5 68.5t311 -80t295 -80q76 0 117 42t65 132h70q-23 -113 -84 -180.5t-163.5 -67.5t-314.5 80t-292 80q-76 0 -117 -42t-65 -132h-70zM92 629q23 111 84.5 178t163.5 67t311 -78.5t295 -78.5q76 0 117 42t65 132h70q-23 -113 -84 -180.5 t-163.5 -67.5t-314.5 80t-292 80q-76 0 -117 -42t-65 -132h-70z" />
<glyph unicode="&#x2260;" horiz-adv-x="1290" d="M100 297v74h383l238 348h-621v72h670l209 303l61 -31l-184 -272h334v-72h-383l-240 -348h623v-74h-672l-207 -303l-61 33l184 270h-334z" />
<glyph unicode="&#x2264;" horiz-adv-x="1290" d="M100 0v74h1090v-74h-1090zM100 561v74l1090 432v-76l-1010 -393l1010 -391v-76z" />
<glyph unicode="&#x2265;" horiz-adv-x="1290" d="M100 0v74h1090v-74h-1090zM100 131v76l1010 391l-1010 393v76l1090 -432v-74z" />
<glyph unicode="&#x25ca;" horiz-adv-x="1273" d="M242 766l362 840h66l364 -840l-364 -842h-66zM317 766l320 -746l317 746l-317 743z" />
<glyph unicode="&#xe000;" horiz-adv-x="1125" d="M0 1125h1125v-1125h-1125v1125z" />
<glyph unicode="&#xe002;" horiz-adv-x="317" d="M74 1655l168 303h102l-201 -303h-69z" />
<glyph unicode="&#xe004;" horiz-adv-x="317" d="M-88 1655l203 303h90l201 -303h-91l-155 237l-158 -237h-90z" />
<glyph unicode="&#xe006;" horiz-adv-x="317" d="M-88 1958h90l158 -238l155 238h91l-201 -303h-90z" />
<glyph unicode="&#xe008;" horiz-adv-x="317" d="M129 1235l59 301h103l-103 -301h-59z" />
<glyph unicode="&#xe009;" horiz-adv-x="317" d="M-102 1710q0 61 34.5 121.5t110.5 60.5q57 2 127 -53q74 -57 104 -57q45 0 63.5 39t18.5 82h66q0 -63 -36 -124t-112 -61q-53 -2 -125.5 53.5t-105.5 55.5q-82 0 -82 -117h-63z" />
<glyph unicode="&#xe00b;" horiz-adv-x="317" d="M-31 1696v221h90v-221h-90zM258 1696v221h90v-221h-90z" />
<glyph unicode="&#xe00d;" horiz-adv-x="317" d="M-74 1774v65h465v-65h-465z" />
<glyph unicode="&#xe00f;" horiz-adv-x="317" d="M-82 1931h66q0 -78 45 -129q51 -55 131 -55q84 0 130 52t46 132h63q0 -92 -47 -159q-66 -90 -192.5 -90.5t-184 79.5t-57.5 170z" />
<glyph unicode="&#xe011;" horiz-adv-x="317" d="M-33 1789q0 79 55.5 134t137.5 55t136 -55t54 -134t-54 -134.5t-136 -55.5t-137.5 55.5t-55.5 134.5zM33 1789q0 -54 35.5 -91t90 -37t91.5 37t37 91t-37 92t-91.5 38t-90 -38t-35.5 -92z" />
<glyph unicode="&#xe013;" horiz-adv-x="317" d="M-78 1655l168 303h103l-199 -303h-72zM211 1655l168 303h102l-198 -303h-72z" />
<glyph unicode="&#xe015;" horiz-adv-x="317" d="M115 1696v221h90v-221h-90z" />
<glyph unicode="&#xe017;" horiz-adv-x="516" d="M190 -395q57 23 58 100h-45v189h100v-185q0 -121 -113 -147v43z" />
<glyph unicode="&#xe01a;" horiz-adv-x="516" d="M197 1348v184q0 119 110 147v-43q-55 -23 -55 -100h45v-188h-100z" />
<glyph unicode="&#xe01b;" horiz-adv-x="235" d="M74 1235l92 301h96l-119 -301h-69z" />
<glyph unicode="&#xf001;" horiz-adv-x="794" d="M16 1051v73h154v187q0 225 199 225q55 0 82 -6v-74q-29 6 -70 6q-129 0 -129 -145v-193h186v-73h-186v-1051h-82v1051h-154zM596 0v1124h82v-1124h-82zM596 1317v219h82v-219h-82z" />
<glyph unicode="&#xf002;" horiz-adv-x="794" d="M16 1051v73h154v187q0 225 199 225q55 0 82 -6v-74q-29 6 -70 6q-129 0 -129 -145v-193h186v-73h-186v-1051h-82v1051h-154zM596 0v1536h82v-1536h-82z" />
<glyph unicode="&#xf8ff;" horiz-adv-x="1099" d="M0 0h1102v1544h-1102v-1544zM106 106v1328h887v-1328h-887zM266 1016l109 -19q23 205 176 205q66 0 115 -52t49 -130q0 -43 -20.5 -80t-88.5 -98q-66 -68 -98 -127q-29 -55 -29 -174l4 -37h101q0 111 12 153q12 41 92 113q80 74 107.5 129t27.5 129q0 127 -74.5 204 t-191.5 77q-121 0 -198 -73t-93 -220zM477 252h121v143h-121v-143z" />
</font>
</defs>
</svg>
