<?xml version="1.0" standalone="no"?>
<!DOCTYPE svg PUBLIC "-//W3C//DTD SVG 1.1//EN" "http://www.w3.org/Graphics/SVG/1.1/DTD/svg11.dtd" >
<svg xmlns="http://www.w3.org/2000/svg">
<metadata>
This is a custom SVG webfont generated by Font Squirrel.
Copyright   : Part of the digitally encoded machine readable outline data for producing the Typefaces provided is copyrighted  2008  2009 Linotype GmbH wwwlinotypecom All rights reserved This software is the property of Linotype GmbH and may not be reproduced used displayed modified disclosed or transferred without the express written approval of Linotype GmbH  The digitally encoded machine readable software for producing the Typefaces licensed to you is copyrighted c 1990 Adobe Systems All Rights Reserved This software is the property of Adobe Systems Incorporated and its licensors and may not be reproduced used displayed modified disclosed or transferred without the express written approval of Adobe Helvetica is a trademark of Linotype Corp registered in the US Patent and Trademark Office and may be registered in certain other jurisdictions in the name of Linotype Corp or its licensee Linotype GmbH This typeface is original artwork of Linotype Design Studio The design may be protected in certain jurisdictions
Designer    : Linotype Design Studio
Foundry     : Linotype GmbH
Foundry URL : httpwwwlinotypecom
</metadata>
<defs>
<font id="HelveticaNeueLTW1G67MdCn" horiz-adv-x="458" >
<font-face units-per-em="2048" ascent="1462" descent="-586" />
<missing-glyph horiz-adv-x="495" />
<glyph unicode="IJ" horiz-adv-x="1368" d="M113 0v1477h235v-1477h-235zM483 360v84h224v-71q0 -106 33.5 -164.5t123.5 -58.5q45 0 77 17t47.5 39.5t23.5 70t9 77t1 88.5v1035h235v-1069q0 -436 -397 -437q-377 0 -377 389z" />
<glyph unicode="ij" horiz-adv-x="907" d="M119 0v1112h223v-1112h-223zM119 1270v223h223v-223h-223zM399 -203h52q63 0 89.5 32t26.5 120v1163h224v-1184q0 -170 -71 -239.5t-224 -69.5q-47 0 -97 6v172zM567 1270v223h224v-223h-224z" />
<glyph unicode="&#x22;n" horiz-adv-x="1196" d="M4 885v121q104 27 105 168v30h-105v273h236v-273q0 -133 -52.5 -213.5t-183.5 -105.5zM311 0v1112h211v-129h6q41 74 116 117t169 43q135 0 206 -71t71 -232v-840h-224v764q0 111 -33.5 156t-121.5 45q-74 0 -125 -56.5t-51 -160.5v-748h-224z" />
<glyph unicode="&#xfb00;" horiz-adv-x="1097" d="M20 948v164h156v105q0 152 70.5 214t212.5 62q74 0 123 -6v-172h-62q-121 0 -121 -105v-98h299v105q0 152 71 214t214 62q72 0 121 -6v-172h-62q-121 0 -120 -105v-98h182v-164h-182v-948h-224v948h-299v-948h-223v948h-156z" />
<glyph unicode="&#xfb01;" horiz-adv-x="1034" d="M20 948v164h156v105q0 152 70.5 214t212.5 62q74 0 123 -6v-172h-62q-121 0 -121 -105v-98h183v-164h-183v-948h-223v948h-156zM692 0v1112h223v-1112h-223zM692 1270v223h223v-223h-223z" />
<glyph unicode="&#xfb02;" horiz-adv-x="1034" d="M20 948v164h156v105q0 152 70.5 214t212.5 62q74 0 123 -6v-172h-62q-121 0 -121 -105v-98h183v-164h-183v-948h-223v948h-156zM692 0v1477h223v-1477h-223z" />
<glyph unicode="&#xfb03;" horiz-adv-x="1556" d="M20 948v164h156v105q0 152 70.5 214t212.5 62q74 0 123 -6v-172h-62q-121 0 -121 -105v-98h299v105q0 152 71 214t214 62q72 0 121 -6v-172h-62q-121 0 -120 -105v-98h182v-164h-182v-948h-224v948h-299v-948h-223v948h-156zM1217 0v1112h223v-1112h-223zM1217 1270v223 h223v-223h-223z" />
<glyph unicode="&#xfb04;" horiz-adv-x="1556" d="M20 948v164h156v105q0 152 70.5 214t212.5 62q74 0 123 -6v-172h-62q-121 0 -121 -105v-98h299v105q0 152 71 214t214 62q72 0 121 -6v-172h-62q-121 0 -120 -105v-98h182v-164h-182v-948h-224v948h-299v-948h-223v948h-156zM1217 0v1477h223v-1477h-223z" />
<glyph unicode="&#xd;" horiz-adv-x="0" />
<glyph unicode=" "  horiz-adv-x="495" />
<glyph unicode="&#x09;" horiz-adv-x="495" />
<glyph unicode="&#xa0;" horiz-adv-x="495" />
<glyph unicode="!" horiz-adv-x="573" d="M170 0v236h236v-236h-236zM170 1010v467h236v-467l-35 -613h-166z" />
<glyph unicode="&#x22;" horiz-adv-x="880" d="M158 885v592h178v-592h-178zM547 885v592h178v-592h-178z" />
<glyph unicode="#" horiz-adv-x="991" d="M-6 414v153h201l41 301h-183v154h203l59 414h170l-57 -414h219l58 414h172l-58 -414h180v-154h-200l-41 -301h182v-153h-203l-59 -414h-172l59 414h-219l-59 -414h-170l57 414h-180zM367 567h219l41 301h-219z" />
<glyph unicode="$" horiz-adv-x="991" d="M33 410v32h235v-32q0 -121 41 -182.5t137 -77.5v479l-84 30q-164 57 -236.5 150.5t-72.5 249.5q0 178 111.5 291.5t281.5 113.5v146h93v-146q90 0 160.5 -25.5t112.5 -65.5t69.5 -92t38 -101.5t10.5 -96.5v-28h-236v28q0 184 -155 203v-457l129 -45q154 -55 223.5 -144 t69.5 -237q0 -406 -422 -432v-178h-93v178q-413 19 -413 439zM289 1079q0 -145 157 -215v422q-70 -6 -113.5 -58.5t-43.5 -148.5zM539 150q88 12 137 71.5t49 134.5q0 100 -45 153.5t-141 84.5v-444z" />
<glyph unicode="%" horiz-adv-x="1568" d="M74 1067q0 217 74.5 307t209 90t209 -90t74.5 -307t-74.5 -307t-209 -90t-209 90t-74.5 307zM252 1067.5q0 -149.5 21.5 -209t84 -59.5t84 59.5t21.5 209t-21.5 208.5t-84 59t-84 -59t-21.5 -208.5zM373 -29l655 1493h160l-660 -1493h-155zM928 369q0 217 74.5 307 t210 90t209 -90t73.5 -307t-73.5 -307.5t-209 -90.5t-210 90.5t-74.5 307.5zM1106 367.5q0 -148.5 22.5 -209t84 -60.5t83 60.5t21.5 209t-21.5 209t-83 60.5t-84 -60.5t-22.5 -209z" />
<glyph unicode="&#x26;" horiz-adv-x="1185" d="M43 379q0 227 207 387l94 70l-57 82q-94 150 -94 243q0 152 98 234t254 82q47 0 97 -13.5t104.5 -43t88 -93t33.5 -149.5q0 -172 -180 -312l-76 -55l258 -365q57 96 58 226v28h186v-18q0 -78 -29.5 -190.5t-95.5 -210.5l201 -281h-250l-90 127q-170 -156 -373 -156 q-119 0 -209 40t-137 105.5t-67.5 131t-20.5 131.5zM266 395q0 -100 74 -167.5t176 -67.5q125 0 232 112l-302 422l-43 -37q-137 -108 -137 -262zM391 1196q0 -88 86 -205l33 -43l53 47q106 102 107 191q0 66 -37 101.5t-103 35.5q-55 0 -97 -30.5t-42 -96.5z" />
<glyph unicode="'" horiz-adv-x="495" d="M160 885v592h178v-592h-178z" />
<glyph unicode="(" horiz-adv-x="534" d="M76 548q0 269 85 512t220 417h156q-238 -397 -238 -928q0 -250 59.5 -498t178.5 -432h-160q-133 172 -217 416t-84 513z" />
<glyph unicode=")" horiz-adv-x="534" d="M0 -381q236 397 236 930q0 248 -58.5 495.5t-177.5 432.5h160q131 -172 215 -416t84 -513t-85 -512t-218 -417h-156z" />
<glyph unicode="*" horiz-adv-x="763" d="M33 1174l47 135l235 -90v258h140v-256l229 88l49 -135l-237 -70l161 -213l-114 -88l-158 217l-154 -217l-114 88l155 213z" />
<glyph unicode="+" horiz-adv-x="1241" d="M96 434v178h436v435h177v-435h436v-178h-436v-434h-177v434h-436z" />
<glyph unicode="," horiz-adv-x="495" d="M131 0v272h236v-272q0 -133 -53.5 -213t-182.5 -106v120q102 27 102 168v31h-102z" />
<glyph unicode="-" horiz-adv-x="727" d="M92 492v210h543v-210h-543z" />
<glyph unicode="." horiz-adv-x="495" d="M131 0v272h236v-272h-236z" />
<glyph unicode="/" horiz-adv-x="610" d="M-20 -29l469 1534h184l-469 -1534h-184z" />
<glyph unicode="0" horiz-adv-x="991" d="M57 716.5q0 411.5 108.5 579.5t330 168t331 -168t109.5 -579.5t-109.5 -578.5t-331 -167t-330 167t-108.5 578.5zM293 717.5q0 -324.5 43 -452.5t160.5 -128t159.5 128t42 452.5t-42 452.5t-159.5 128t-160.5 -128t-43 -452.5z" />
<glyph unicode="1" horiz-adv-x="991" d="M125 1063v154h22q293 0 345 219v28h172v-1464h-236v1063h-303z" />
<glyph unicode="2" horiz-adv-x="991" d="M68 0q0 131 34.5 237.5t88 177t120 133t131 117t118.5 110.5t88 134t34 168q0 100 -44 160.5t-138 60.5q-205 0 -205 -305h-223q0 471 432 471q211 0 312.5 -108.5t101.5 -282.5q0 -133 -49.5 -238.5t-126 -176t-156.5 -134t-153 -146.5t-101 -179h592v-199h-856z" />
<glyph unicode="3" horiz-adv-x="991" d="M63 408h224q0 -115 47 -193t153 -78q104 0 154.5 72t50.5 190q0 141 -53 207t-184 66h-90v166h84q211 0 210 249q0 90 -42 150.5t-128 60.5q-186 0 -186 -256h-223q0 422 422 422q74 0 137 -18.5t123.5 -58t96.5 -116.5t36 -181q0 -117 -64.5 -210.5t-168.5 -109.5v-6 q119 -10 192.5 -99.5t73.5 -240.5q0 -453 -447 -453q-418 1 -418 437z" />
<glyph unicode="4" horiz-adv-x="991" d="M43 330v202l508 932h240v-948h159v-186h-159v-330h-224v330h-524zM233 516h334v604h-4z" />
<glyph unicode="5" horiz-adv-x="991" d="M66 365v30h223v-39q0 -90 50 -148t142 -58q209 0 209 331q0 313 -196 314q-72 0 -123.5 -37t-69.5 -99l-209 9l74 768h704v-189h-528l-49 -385l4 -4q102 115 248 115q109 0 187.5 -43t118.5 -116t57.5 -152.5t17.5 -174.5q0 -233 -112 -374.5t-339 -141.5 q-199 0 -304 100.5t-105 293.5z" />
<glyph unicode="6" horiz-adv-x="991" d="M51 672q0 178 19.5 310t68.5 246.5t144.5 175t236.5 60.5q393 0 393 -356h-235q0 76 -39 133t-117 57q-66 0 -110.5 -32.5t-68.5 -79.5t-37 -122t-16 -132.5t-3 -136.5l6 -4q86 156 287 155q158 0 260 -113.5t102 -324.5q0 -258 -112.5 -397.5t-337.5 -139.5 q-133 0 -223.5 48.5t-136.5 146.5t-63.5 216t-17.5 290zM307 440q0 -135 52.5 -219t150.5 -84q102 0 148.5 87t46.5 227q0 317 -195 317q-82 0 -128 -48t-60.5 -114t-14.5 -166z" />
<glyph unicode="7" horiz-adv-x="991" d="M61 1225v211h869v-187q-174 -227 -305 -575t-156 -674h-248q25 313 163 652t318 573h-641z" />
<glyph unicode="8" horiz-adv-x="991" d="M53 410q0 158 67.5 250t182.5 116v4q-203 70 -203 316q0 172 106.5 270t290 98t289 -98t105.5 -270q0 -246 -203 -316v-4q117 -25 184.5 -117t67.5 -249q0 -438 -443.5 -438t-443.5 438zM289 414q0 -131 46 -204t161.5 -73t160.5 73t45 204t-45 203.5t-160.5 72.5 t-161.5 -72.5t-46 -203.5zM313 1079q0 -223 183.5 -223t183.5 223q0 219 -183.5 219t-183.5 -219z" />
<glyph unicode="9" horiz-adv-x="991" d="M51 926q0 539 449 538q135 0 225 -48t135 -146.5t63.5 -216t18.5 -289.5q0 -178 -20.5 -310t-68.5 -248t-143.5 -175.5t-236.5 -59.5q-395 0 -395 357h237q0 -76 39 -133.5t117 -57.5q66 0 111 33t68.5 80t35.5 121.5t15.5 132t3.5 137.5l-7 4q-84 -156 -284 -156 q-158 0 -260.5 113t-102.5 324zM287 985q0 -317 194 -317q84 0 130 48t59.5 113.5t13.5 165.5q0 133 -51 218t-152 85q-100 0 -147 -87t-47 -226z" />
<glyph unicode=":" horiz-adv-x="495" d="M131 0v272h236v-272h-236zM131 786v273h236v-273h-236z" />
<glyph unicode=";" horiz-adv-x="495" d="M131 0v272h236v-272q0 -133 -53.5 -213t-182.5 -106v120q102 27 102 168v31h-102zM131 786v273h236v-273h-236z" />
<glyph unicode="&#x3c;" horiz-adv-x="1241" d="M96 446v154l1049 467v-178l-838 -365l838 -366v-178z" />
<glyph unicode="=" horiz-adv-x="1241" d="M96 219v178h1049v-178h-1049zM96 649v178h1049v-178h-1049z" />
<glyph unicode="&#x3e;" horiz-adv-x="1241" d="M96 -20v178l838 366l-838 365v178l1049 -467v-154z" />
<glyph unicode="?" horiz-adv-x="956" d="M72 1036q0 211 98 340t309 129q195 0 300.5 -102.5t105.5 -294.5q0 -96 -33 -177t-80 -134.5t-96 -100.5t-82 -100t-33 -113v-86h-211v125q0 82 31 145.5t74 105.5l88 84q45 42 75.5 105.5t30.5 145.5q0 219 -168 219q-186 0 -186 -291h-223zM336 0v236h235v-236h-235z " />
<glyph unicode="@" horiz-adv-x="1654" d="M59 741q0 326 223.5 545t577.5 219q319 0 527 -175t208 -456q0 -117 -35.5 -218t-92 -168.5t-127 -114.5t-140.5 -68.5t-131 -21.5q-76 0 -111.5 32.5t-33.5 90.5h-4q-109 -123 -256 -123q-121 0 -204 92t-83 243q0 217 140 386.5t321 169.5q158 0 237 -160l39 121h148 l-156 -557q-23 -92 -23 -103q0 -25 14.5 -35t55.5 -10q90 0 172 126t82 292q0 215 -162 353t-385 138q-262 0 -437 -179t-175 -427q0 -266 175 -431t421 -165q326 0 512 182h172q-88 -158 -264.5 -253t-419.5 -95q-340 0 -562.5 207t-222.5 563zM555 645q0 -96 47 -152.5 t146 -56.5q100 0 183 131t83 254q0 199 -168 199q-121 0 -206 -120t-85 -255z" />
<glyph unicode="A" horiz-adv-x="1073" d="M-18 0l419 1477h301l390 -1477h-246l-90 362h-432l-97 -362h-245zM367 551h348l-168 727h-4z" />
<glyph unicode="B" horiz-adv-x="1110" d="M123 0v1477h477q178 0 287.5 -87t109.5 -272q0 -266 -217 -334v-4q127 -23 195.5 -110.5t68.5 -266.5q0 -186 -122.5 -294.5t-331.5 -108.5h-467zM358 178h234q217 0 217 260q0 119 -63.5 184.5t-167.5 65.5h-220v-510zM358 854h187q104 0 160.5 63.5t56.5 169.5 q0 123 -62.5 167t-175.5 44h-166v-444z" />
<glyph unicode="C" horiz-adv-x="1073" d="M86 739.5q0 407.5 108.5 586.5t383.5 179q444 0 444 -463v-26h-236v24q0 287 -208 287q-94 0 -146.5 -46t-80 -173t-27.5 -363.5t27.5 -366.5t78.5 -179t145 -49q219 0 220 354v26h235v-32q0 -104 -23.5 -194.5t-73.5 -168.5t-142.5 -121t-215.5 -43q-274 0 -381.5 180.5 t-107.5 588z" />
<glyph unicode="D" horiz-adv-x="1148" d="M123 0v1477h420q135 0 231 -36t152.5 -96.5t87 -160t40 -200.5t9.5 -245.5t-9.5 -246t-40 -200.5t-87 -159.5t-152.5 -96.5t-231 -36h-420zM358 178h195q147 0 210.5 122t63.5 439q0 311 -61 435t-213 124h-195v-1120z" />
<glyph unicode="E" horiz-adv-x="993" d="M123 0v1477h797v-199h-562v-410h529v-198h-529v-471h580v-199h-815z" />
<glyph unicode="F" horiz-adv-x="956" d="M123 0v1477h786v-199h-551v-410h519v-198h-519v-670h-235z" />
<glyph unicode="G" horiz-adv-x="1110" d="M86 739q0 395 119 580.5t373 185.5q104 0 185 -31.5t127 -77.5t73.5 -107.5t37 -112t9.5 -97.5v-26h-224v34q0 98 -49 169t-157 71q-135 0 -195.5 -123t-60.5 -459q0 -344 55 -469.5t182 -125.5q133 0 189.5 103t56.5 347h-248v178h471v-778h-178v172h-4 q-49 -109 -122 -155t-200 -46q-240 0 -340 182.5t-100 585.5z" />
<glyph unicode="H" horiz-adv-x="1148" d="M123 0v1477h235v-592h435v592h235v-1477h-235v686h-435v-686h-235z" />
<glyph unicode="I" d="M113 0v1477h235v-1477h-235z" />
<glyph unicode="J" horiz-adv-x="917" d="M33 360v84h223v-71q0 -106 34 -164.5t124 -58.5q45 0 76.5 17t47 39.5t23.5 70t9 77t1 88.5v1035h236v-1069q0 -436 -397 -437q-377 0 -377 389z" />
<glyph unicode="K" horiz-adv-x="1073" d="M123 0v1477h235v-643h4l447 643h258l-426 -623l471 -854h-266l-359 664l-129 -187v-477h-235z" />
<glyph unicode="L" horiz-adv-x="917" d="M94 0v1477h238v-1278h569v-199h-807z" />
<glyph unicode="M" horiz-adv-x="1492" d="M123 0v1477h366l263 -1094h4l256 1094h360v-1477h-223v1229h-4l-299 -1229h-199l-297 1229h-4v-1229h-223z" />
<glyph unicode="N" horiz-adv-x="1185" d="M123 0v1477h287l428 -1100h4v1100h223v-1477h-287l-428 1128h-4v-1128h-223z" />
<glyph unicode="O" horiz-adv-x="1148" d="M86 738.5q0 396.5 118 581.5t371.5 185t370.5 -185t117 -581.5t-117 -582t-370.5 -185.5t-371.5 185.5t-118 582zM324 745q0 -184 18 -306t55 -183t78 -83.5t99.5 -22.5t99.5 22.5t79 83.5t56 183t18 306q0 178 -18 299t-56 179.5t-79 81t-99.5 22.5t-99.5 -22.5t-78 -81 t-55 -179.5t-18 -299z" />
<glyph unicode="P" horiz-adv-x="1034" d="M123 0v1477h467q205 0 306 -116t101 -314q0 -201 -113.5 -319t-318.5 -118h-207v-610h-235zM358 788h168q102 0 169 60.5t67 193.5q0 127 -59.5 191.5t-194.5 64.5h-150v-510z" />
<glyph unicode="Q" horiz-adv-x="1148" d="M86 738.5q0 396.5 118 581.5t371.5 185t370.5 -185t117 -581.5t-115 -584.5l150 -160l-140 -127l-151 153q-86 -49 -232 -49q-254 0 -371.5 185.5t-117.5 582zM324 745q0 -184 18 -306t55 -183t78 -83.5t99.5 -22.5t84.5 14l-110 108l133 136l98 -97q47 147 47 434 q0 178 -18 299t-56 179.5t-79 81t-99.5 22.5t-99.5 -22.5t-78 -81t-55 -179.5t-18 -299z" />
<glyph unicode="R" horiz-adv-x="1110" d="M123 0v1477h520q168 0 271.5 -93.5t103.5 -287.5q0 -145 -63.5 -243.5t-182.5 -117.5v-4q117 -12 173 -85t59 -230l4 -203q2 -96 15 -137t58 -76h-266q-41 53 -45 242l-2 129q-2 143 -46 206.5t-171 63.5h-193v-641h-235zM358 819h189q111 0 173 64.5t62 175.5 q0 240 -223 239h-201v-479z" />
<glyph unicode="S" horiz-adv-x="1073" d="M68 422v35h235v-37q0 -270 244 -270q102 0 162.5 63t60.5 152q0 109 -49 167t-154 93l-161 55q-164 57 -241 153.5t-77 253.5q0 199 125 308.5t336 109.5q106 0 187 -26.5t123 -64.5t68.5 -95t33 -102.5t6.5 -100.5v-33h-236v31q0 213 -207 213q-86 0 -142 -51t-56 -162 q0 -92 50 -149.5t171 -100.5l158 -57q158 -55 229.5 -146.5t71.5 -244.5q0 -444 -490 -445q-129 0 -222 40t-139 109.5t-66.5 143.5t-20.5 158z" />
<glyph unicode="T" horiz-adv-x="956" d="M12 1278v199h934v-199h-346v-1278h-235v1278h-353z" />
<glyph unicode="U" horiz-adv-x="1110" d="M102 436v1041h238v-1059q0 -268 217 -268q215 0 215 268v1059h236v-1041q0 -246 -115 -355.5t-336 -109.5t-338 109.5t-117 355.5z" />
<glyph unicode="V" horiz-adv-x="993" d="M-12 1477h250l249 -1180h5l266 1180h250l-373 -1477h-299z" />
<glyph unicode="W" horiz-adv-x="1531" d="M12 1477h238l194 -1147h5l194 1147h248l199 -1153h4l192 1153h234l-293 -1477h-273l-190 1112h-4l-189 -1112h-274z" />
<glyph unicode="X" horiz-adv-x="1034" d="M0 0l389 752l-356 725h260l237 -490l232 490h254l-359 -725l377 -752h-260l-258 535l-262 -535h-254z" />
<glyph unicode="Y" horiz-adv-x="993" d="M-8 1477h262l248 -637l256 637h246l-396 -899v-578h-235v578z" />
<glyph unicode="Z" horiz-adv-x="956" d="M37 0v186l618 1092h-581v199h839v-199l-618 -1079h625v-199h-883z" />
<glyph unicode="[" horiz-adv-x="573" d="M160 -381v1858h420v-166h-209v-1526h209v-166h-420z" />
<glyph unicode="\" horiz-adv-x="610" d="M-20 1505h184l469 -1534h-184z" />
<glyph unicode="]" horiz-adv-x="573" d="M-4 -215h209v1526h-209v166h420v-1858h-420v166z" />
<glyph unicode="^" horiz-adv-x="1241" d="M119 580l422 856h155l426 -856h-176l-325 677l-326 -677h-176z" />
<glyph unicode="_" horiz-adv-x="1034" d="M0 -156h1034v-102h-1034v102z" />
<glyph unicode="`" d="M-29 1556h248l125 -299h-154z" />
<glyph unicode="a" horiz-adv-x="956" d="M63 283q0 172 70 244.5t221 113.5l142 39q72 18 101.5 48t29.5 95q0 80 -34 123t-120 43q-100 0 -135 -57.5t-35 -155.5h-211q0 186 89 276.5t302 90.5q160 0 257.5 -66.5t97.5 -208.5v-637q0 -31 16 -54t41 -23t39 6v-146q-51 -27 -111 -26q-180 0 -188 147h-4 q-88 -164 -277 -164q-291 1 -291 312zM287 303q0 -74 36.5 -120t102.5 -46q100 0 150.5 68.5t50.5 195.5v187q-47 -31 -144 -64l-71 -26q-125 -43 -125 -195z" />
<glyph unicode="b" horiz-adv-x="993" d="M109 0v1477h223v-494h4q66 160 252 160q72 0 127 -21.5t107 -78t80 -175t28 -297.5q0 -600 -363 -600q-182 0 -243 166h-5v-137h-210zM319 545q0 -197 40 -296t147 -99q111 0 149.5 101t38.5 310q0 223 -39 313.5t-133 90.5q-123 0 -163 -99.5t-40 -320.5z" />
<glyph unicode="c" horiz-adv-x="917" d="M63 556q0 284 93.5 435.5t324.5 151.5q109 0 188 -37t117.5 -98.5t56 -127t17.5 -137.5h-223q0 233 -156 234q-111 0 -152.5 -102.5t-41.5 -317.5q0 -209 41 -314.5t151 -105.5q168 0 168 269h211q-12 -215 -98 -325t-283 -110q-227 0 -320.5 150.5t-93.5 434.5z" />
<glyph unicode="d" horiz-adv-x="993" d="M63 571q0 178 29 297t81 175.5t107.5 78t127.5 21.5q186 0 251 -160h5v494h223v-1477h-211v137h-4q-61 -166 -244 -166q-365 0 -365 600zM299 561q0 -209 40 -310t148 -101q109 0 149 99t40 296q0 221 -40 320.5t-163 99.5q-94 0 -134 -90.5t-40 -313.5z" />
<glyph unicode="e" horiz-adv-x="956" d="M76 541q0 602 411 602q221 0 307.5 -125t86.5 -373v-117h-582v-65q0 -66 7 -118t24.5 -106.5t56.5 -84t98 -29.5q57 0 95 27.5t54.5 71.5t23 80t6.5 69h210q0 -188 -104 -295t-287 -107q-63 0 -112 9.5t-107.5 43t-96.5 93t-64.5 167t-26.5 257.5zM299 680h358v61 q0 248 -172 248q-96 0 -141 -82t-45 -205v-22z" />
<glyph unicode="f" horiz-adv-x="573" d="M20 948v164h156v105q0 152 70.5 214t212.5 62q74 0 123 -6v-172h-62q-121 0 -121 -105v-98h183v-164h-183v-948h-223v948h-156z" />
<glyph unicode="g" horiz-adv-x="993" d="M90 569q0 109 12.5 195t46 179t109.5 146.5t186 53.5q94 0 161 -50.5t83 -115.5h4v135h211v-1059q0 -434 -416 -434q-115 0 -194.5 29.5t-113.5 80t-46 91.5t-12 86h211q0 -55 44 -94t116 -39q88 0 138 55t50 154v180h-4q-31 -72 -100.5 -113t-151.5 -41q-334 0 -334 561 zM315 592q0 -70 2 -117t11.5 -107.5t27 -95t51 -60.5t80.5 -26q63 0 104.5 35t59 99.5t23.5 123t6 138.5q0 383 -178 383q-57 0 -96 -29t-57.5 -83t-26 -114.5t-7.5 -146.5z" />
<glyph unicode="h" horiz-adv-x="993" d="M109 0v1477h223v-484l6 -4q100 154 272 154q135 0 206 -71t71 -232v-840h-223v764q0 109 -35 155t-121 46q-74 0 -125 -57.5t-51 -159.5v-748h-223z" />
<glyph unicode="i" d="M119 0v1112h223v-1112h-223zM119 1270v223h223v-223h-223z" />
<glyph unicode="j" d="M-49 -203h51q63 0 90 32t27 120v1163h223v-1184q0 -170 -70.5 -239.5t-224.5 -69.5q-47 0 -96 6v172zM119 1270v223h223v-223h-223z" />
<glyph unicode="k" horiz-adv-x="956" d="M109 0v1477h223v-830h4l336 465h258l-334 -428l379 -684h-244l-274 506l-125 -152v-354h-223z" />
<glyph unicode="l" d="M119 0v1477h223v-1477h-223z" />
<glyph unicode="m" horiz-adv-x="1529" d="M119 0v1112h211v-129h6q41 74 113.5 117t152.5 43q199 0 258 -170q102 170 283 170q270 0 270 -297v-846h-223v764q0 106 -33 153.5t-102 47.5q-74 0 -126 -57.5t-52 -159.5v-748h-224v764q0 106 -32.5 153.5t-104.5 47.5t-123 -57.5t-51 -159.5v-748h-223z" />
<glyph unicode="n" horiz-adv-x="993" d="M109 0v1112h210v-129h7q41 74 115.5 117t168.5 43q135 0 206 -71t71 -232v-840h-223v764q0 111 -34 156t-122 45q-74 0 -125 -56.5t-51 -160.5v-748h-223z" />
<glyph unicode="o" horiz-adv-x="956" d="M63 557q0 283 93.5 434.5t321 151.5t321.5 -151.5t94 -434.5q0 -586 -416 -586q-414 0 -414 586zM287 557q0 -227 39 -323.5t151 -96.5q117 0 155 96.5t38 323.5q0 209 -39 314.5t-154 105.5q-76 0 -119 -57.5t-57 -142.5t-14 -220z" />
<glyph unicode="p" horiz-adv-x="993" d="M109 -365v1477h210v-135h5q78 166 249 166q356 0 357 -600q0 -168 -31 -286t-83 -177.5t-108.5 -84t-119.5 -24.5q-186 0 -252 160h-4v-496h-223zM319 569q0 -217 39 -318t150 -101q98 0 142 89t44 314q0 209 -39 310.5t-149 101.5q-106 0 -146.5 -99.5t-40.5 -296.5z " />
<glyph unicode="q" horiz-adv-x="993" d="M63 543q0 600 365 600q182 0 244 -166h4v135h211v-1477h-223v496h-5q-66 -160 -253 -160q-152 0 -247.5 129.5t-95.5 442.5zM299 553q0 -219 43 -311t131 -92q123 0 163 99t40 320q0 197 -40 296.5t-149 99.5t-148.5 -101.5t-39.5 -310.5z" />
<glyph unicode="r" horiz-adv-x="651" d="M109 0v1112h223v-172h4q80 203 258 203q37 0 53 -10v-228q-33 12 -92 13q-94 0 -158.5 -55.5t-64.5 -196.5v-666h-223z" />
<glyph unicode="s" horiz-adv-x="880" d="M57 317v41h199v-34q0 -102 40 -150.5t134 -48.5q182 0 182 162q0 121 -123 164l-194 69q-117 41 -171 113t-54 203q0 154 100 230.5t281 76.5q193 0 270.5 -89t77.5 -216v-50h-211v29q0 172 -148 172q-160 0 -159 -145q0 -66 33.5 -99.5t123.5 -64.5l144 -49 q125 -43 183 -117t58 -203q0 -170 -110.5 -255t-288.5 -85q-201 0 -284 87t-83 259z" />
<glyph unicode="t" horiz-adv-x="573" d="M8 948v164h154v318h223v-318h182v-164h-182v-665q0 -66 21.5 -91.5t78.5 -25.5q51 0 82 6v-166q-72 -18 -180 -18q-121 0 -173 54t-52 214v692h-154z" />
<glyph unicode="u" horiz-adv-x="993" d="M109 336v776h223v-797q0 -90 37 -127.5t113.5 -37.5t129 48t52.5 138v776h223v-1112h-211v131h-6q-41 -76 -117 -118t-168 -42q-135 0 -205.5 81t-70.5 284z" />
<glyph unicode="v" horiz-adv-x="880" d="M14 1112h240l195 -876h4l176 876h237l-293 -1112h-260z" />
<glyph unicode="w" horiz-adv-x="1415" d="M31 1112h231l156 -876h4l166 876h252l166 -876h4l153 876h223l-256 -1112h-249l-174 864h-5l-157 -864h-262z" />
<glyph unicode="x" horiz-adv-x="880" d="M6 0l305 578l-288 534h243l174 -367l183 367h239l-289 -534l301 -578h-241l-195 412l-194 -412h-238z" />
<glyph unicode="y" horiz-adv-x="880" d="M16 1112h240l193 -836h4l178 836h233l-286 -1081q-70 -260 -139.5 -336t-231.5 -76q-84 0 -127 8v178q45 -8 86 -8q111 0 145 107l23 71z" />
<glyph unicode="z" horiz-adv-x="841" d="M51 0v174l488 750h-459v188h711v-184l-467 -740h467v-188h-740z" />
<glyph unicode="{" horiz-adv-x="573" d="M14 479v137q68 4 118 66.5t50 144.5v379q0 125 68.5 198t161.5 73h149v-127h-69q-55 0 -77 -37t-22 -107v-379q0 -127 -65.5 -195.5t-124.5 -80.5v-4q59 -12 124.5 -82t65.5 -197v-379q0 -70 21.5 -105.5t77.5 -35.5h69v-129h-149q-92 0 -161 72.5t-69 197.5v379 q0 84 -50 145.5t-118 65.5z" />
<glyph unicode="|" d="M141 -29v1534h178v-1534h-178z" />
<glyph unicode="}" horiz-adv-x="573" d="M14 -252h68q57 0 78.5 36t21.5 105v379q0 127 65.5 197t125.5 82v4q-59 12 -125 80.5t-66 195.5v379q0 70 -21.5 107t-78.5 37h-68v127h150q92 0 160.5 -73t68.5 -198v-379q0 -82 49.5 -144t118.5 -67v-137q-70 -4 -119 -65.5t-49 -145.5v-379q0 -125 -68.5 -197.5 t-160.5 -72.5h-150v129z" />
<glyph unicode="~" horiz-adv-x="1241" d="M143 506q43 88 113 134t145 46q90 0 240 -76q150 -72 201 -71q92 0 182 157l74 -155q-104 -180 -258 -181q-90 0 -240 76q-150 72 -201 72q-92 0 -182 -158z" />
<glyph unicode="&#xa1;" horiz-adv-x="573" d="M170 102l35 613h166l35 -613v-467h-236v467zM170 877v235h236v-235h-236z" />
<glyph unicode="&#xa2;" horiz-adv-x="991" d="M98 556q0 265 82 416.5t283 170.5v153h92v-153q102 -8 175 -51t105.5 -110t45 -123t12.5 -116h-223q0 205 -115 234v-840q127 35 127 269h211q-14 -203 -89 -312.5t-249 -122.5v-182h-92v182q-201 16 -283 168t-82 417zM324 557q0 -182 28.5 -287.5t110.5 -132.5v840 q-82 -23 -110.5 -129.5t-28.5 -290.5z" />
<glyph unicode="&#xa3;" horiz-adv-x="991" d="M25 147l36 27q215 166 215 340q0 59 -36 137h-203v142h143l-35 71q-70 129 -69 230q0 150 111.5 260t316.5 110q229 0 334.5 -114.5t105.5 -286.5v-25h-225v23q0 39 -8.5 76t-28.5 75.5t-63.5 62t-104.5 23.5q-92 0 -146.5 -48t-54.5 -130q0 -104 66 -233l47 -94h344 v-142h-291q20 -49 21 -121q0 -78 -39 -147.5t-81 -110.5t-122 -100l4 -8q74 47 152 47q43 0 132 -30.5t126 -30.5q61 0 155 53l62 33l80 -164l-43 -25q-131 -78 -262 -76q-72 0 -188 40t-173 40q-72 0 -194 -63z" />
<glyph unicode="&#xa4;" horiz-adv-x="991" d="M12 326l107 104q-98 131 -99 287q0 164 99 289l-107 104l94 94l105 -106q133 96 285.5 96t285.5 -96l105 106l94 -94l-107 -106q98 -131 98.5 -286t-98.5 -286l107 -106l-94 -95l-107 109q-123 -98 -284 -98q-154 0 -285 98l-105 -109zM186 718q0 -136 90.5 -229.5 t220.5 -93.5t220 93.5t90 229.5t-90 229t-220 93t-220.5 -93t-90.5 -229z" />
<glyph unicode="&#xa5;" horiz-adv-x="991" d="M4 1436h256l236 -588l247 588h246l-305 -674h207v-141h-268l-23 -48v-98h291v-139h-291v-336h-223v336h-293v139h293v98l-21 48h-272v141h209z" />
<glyph unicode="&#xa6;" d="M141 -29v574h178v-574h-178zM141 934v571h178v-571h-178z" />
<glyph unicode="&#xa7;" horiz-adv-x="993" d="M49 651q0 184 193 295q-131 74 -131 238q0 152 109.5 236.5t277.5 84.5q205 0 292 -97t87 -226h-224q0 158 -161 157q-70 0 -114 -36.5t-44 -96.5q0 -47 36 -87t119 -89l281 -156q176 -96 176 -307q0 -180 -166 -288q117 -100 117 -240q0 -174 -109.5 -268.5 t-283.5 -94.5q-199 0 -298.5 102.5t-99.5 276.5h224q0 -201 174 -200q70 0 114 42t44 113q0 49 -25 89t-50.5 58.5t-78.5 47.5l-236 129q-223 122 -223 317zM248 678q0 -51 34.5 -85t123.5 -85l235 -137l33 24q74 66 74 148q0 100 -123 172l-246 143l-27 -22 q-104 -72 -104 -158z" />
<glyph unicode="&#xa8;" d="M-41 1294v224h199v-224h-199zM301 1294v224h199v-224h-199z" />
<glyph unicode="&#xa9;" horiz-adv-x="1654" d="M59 738.5q0 318.5 224.5 542.5t543.5 224q322 0 545 -224t223 -542.5t-224 -543t-544 -224.5q-322 0 -545 224.5t-223 543zM231 739q0 -258 173.5 -438t422.5 -180q252 0 424 179t172 439q0 256 -173 437.5t-423 181.5q-252 0 -424 -180.5t-172 -438.5zM418 741 q0 211 116.5 336t315.5 125q147 0 247.5 -83t123.5 -234h-166q-18 78 -72.5 123t-136.5 41q-115 0 -182.5 -88.5t-67.5 -219.5q0 -137 68.5 -224t189.5 -87q82 0 136 47t65 127h172q-27 -154 -131.5 -241t-259.5 -87q-188 0 -303 127t-115 338z" />
<glyph unicode="&#xaa;" horiz-adv-x="653" d="M16 946q0 106 42 145t149 70l108 27q49 12 71 28.5t22 57.5q0 76 -95 76q-68 0 -89 -30t-21 -75h-154q0 113 63.5 166t219.5 53q242 0 241 -164v-364q0 -49 35 -49q12 0 29 4v-117q-43 -14 -84 -14q-121 0 -129 96h-6q-63 -96 -199 -96q-203 0 -203 186zM195 963 q0 -33 23.5 -54.5t62.5 -21.5q57 0 92 35.5t35 91.5v116q-18 -14 -82 -33.5t-80 -29.5q-51 -24 -51 -104z" />
<glyph unicode="&#xab;" horiz-adv-x="841" d="M102 479v236l299 280v-227l-182 -170l182 -170v-227zM440 479v236l299 280v-227l-182 -170l182 -170v-227z" />
<glyph unicode="&#xac;" horiz-adv-x="1241" d="M96 649v178h1049v-608h-178v430h-871z" />
<glyph unicode="&#xad;" horiz-adv-x="727" d="M92 492v210h543v-210h-543z" />
<glyph unicode="&#xae;" horiz-adv-x="1654" d="M59 738.5q0 318.5 224.5 542.5t543.5 224q322 0 545 -224t223 -542.5t-224 -543t-544 -224.5q-322 0 -545 224.5t-223 543zM231 739q0 -258 173.5 -438t422.5 -180q252 0 424 179t172 439q0 256 -173 437.5t-423 181.5q-252 0 -424 -180.5t-172 -438.5zM516 299v879h342 q166 0 248 -60.5t82 -193.5q0 -207 -225 -248l233 -377h-176l-219 371h-131v-371h-154zM670 799h157q100 0 153.5 23.5t53.5 107.5q0 119 -194 119h-170v-250z" />
<glyph unicode="&#xaf;" d="M-61 1341v129h583v-129h-583z" />
<glyph unicode="&#xb0;" horiz-adv-x="827" d="M106 1156q0 128 89.5 218t218.5 90t218 -91t89 -216q0 -129 -89 -219t-218 -90t-218.5 90t-89.5 218zM246 1156q0 -71 49 -119t118.5 -48t119 48t49.5 119t-49.5 119t-119 48t-118.5 -48t-49 -119z" />
<glyph unicode="&#xb1;" horiz-adv-x="1241" d="M96 0v178h1049v-178h-1049zM96 557v178h436v312h177v-312h436v-178h-436v-313h-177v313h-436z" />
<glyph unicode="&#xb2;" horiz-adv-x="669" d="M53 821q0 143 40 226t134 157l125 92q88 66 88 166q0 123 -96 123q-55 0 -79.5 -34.5t-24.5 -116.5h-174q0 281 284 280q131 0 198.5 -65.5t67.5 -182.5q0 -90 -36.5 -153.5t-126.5 -128.5l-117 -88q-80 -55 -88 -129h362v-146h-557z" />
<glyph unicode="&#xb3;" horiz-adv-x="669" d="M35 1061h170q10 -133 125 -133q57 0 89 41t32 108q0 145 -150 146h-51v125h49q57 0 91 31.5t34 90.5q0 119 -102 119q-57 0 -82 -32.5t-25 -104.5h-166q0 127 73 194.5t208 67.5q131 0 199.5 -63.5t68.5 -169.5q0 -61 -38 -112.5t-109 -70.5q176 -39 176 -219 q0 -129 -85 -202.5t-214 -73.5q-293 0 -293 258z" />
<glyph unicode="&#xb4;" d="M117 1257l123 299h247l-219 -299h-151z" />
<glyph unicode="&#xb5;" horiz-adv-x="993" d="M109 -365v1477h223v-797q0 -166 141 -165q80 0 135.5 52t55.5 144v766h223v-1112h-211v131h-6q-98 -160 -236 -160q-63 0 -102 33v-369h-223z" />
<glyph unicode="&#xb6;" horiz-adv-x="1241" d="M111 1087q0 201 127 295.5t354 94.5h512v-1770h-189v1628h-229v-1628h-188v1004q-160 0 -273.5 107t-113.5 269z" />
<glyph unicode="&#xb7;" horiz-adv-x="495" d="M98 636.5q0 61.5 44 105.5t106.5 44t105.5 -44t43 -105.5t-43 -105.5t-105.5 -44t-106.5 44t-44 105.5z" />
<glyph unicode="&#xb8;" d="M8 -424l33 82q70 -29 143 -29q49 0 79 21.5t30 62.5q0 37 -26.5 59.5t-67.5 22.5q-39 0 -78 -16l-39 35l117 186h102l-86 -125q35 8 74 8q76 0 123 -43t47 -112q0 -86 -72 -137.5t-190 -51.5q-101 0 -189 37z" />
<glyph unicode="&#xb9;" horiz-adv-x="669" d="M94 1442v117q117 0 176.5 30.5t71.5 106.5h123v-875h-178v621h-193z" />
<glyph unicode="&#xba;" horiz-adv-x="653" d="M29 1108q0 174 66.5 265t232.5 91q162 0 229.5 -92t67.5 -264q0 -166 -68 -257t-229 -91q-166 0 -232.5 90t-66.5 258zM207 1108q0 -221 119.5 -221t119.5 221q0 109 -24.5 168t-95 59t-95 -59t-24.5 -168z" />
<glyph unicode="&#xbb;" horiz-adv-x="841" d="M102 201v227l183 170l-183 170v227l299 -280v-236zM440 201v227l183 170l-183 170v227l299 -280v-236z" />
<glyph unicode="&#xbc;" horiz-adv-x="1490" d="M33 1204v115q117 0 175 31.5t71 107.5h124v-874h-178v620h-192zM211 -63l793 1562h149l-793 -1562h-149zM788 180v154l345 540h159v-557h109v-137h-109v-180h-172v180h-332zM918 317h202v332z" />
<glyph unicode="&#xbd;" horiz-adv-x="1490" d="M33 1204v115q117 0 175 31.5t71 107.5h124v-874h-178v620h-192zM186 -63l793 1562h147l-790 -1562h-150zM858 0q0 143 40 227t134 156l125 92q88 66 88 166q0 123 -96 123q-55 0 -80 -35t-25 -117h-174q0 281 285 281q131 0 198.5 -65.5t67.5 -182.5q0 -90 -36.5 -153.5 t-127.5 -129.5l-116 -88q-80 -55 -88 -129h362v-145h-557z" />
<glyph unicode="&#xbe;" horiz-adv-x="1490" d="M61 823h170q10 -133 125 -133q57 0 89 41t32 109q0 145 -147 145h-54v123h52q55 0 89 33t34 92q0 119 -103 119q-57 0 -81.5 -33t-24.5 -105h-166q0 125 72.5 194t207.5 69q131 0 200 -63.5t69 -170.5q0 -61 -38 -112.5t-110 -69.5q176 -39 176 -219q0 -131 -85 -204 t-214 -73q-293 0 -293 258zM330 -63l790 1562h150l-793 -1562h-147zM809 180v154l346 540h158v-557h108v-137h-108v-180h-170v180h-334zM940 317h203v332z" />
<glyph unicode="&#xbf;" horiz-adv-x="956" d="M72 4q0 96 33.5 177t80.5 135.5t96.5 100.5t82 100t32.5 112v86h211v-123q0 -84 -30.5 -146.5t-75.5 -105.5l-88 -85q-43 -42 -75 -105.5t-32 -145.5q0 -219 168 -219q186 0 187 291h223q0 -211 -98.5 -340t-309.5 -129q-195 0 -300 102t-105 295zM387 877v235h236v-235 h-236z" />
<glyph unicode="&#xc0;" horiz-adv-x="1073" d="M-18 0l419 1477h301l390 -1477h-246l-90 362h-432l-97 -362h-245zM285 1894h250l122 -297h-153zM367 551h348l-168 727h-4z" />
<glyph unicode="&#xc1;" horiz-adv-x="1073" d="M-18 0l419 1477h301l390 -1477h-246l-90 362h-432l-97 -362h-245zM367 551h348l-168 727h-4zM436 1597l125 297h248l-219 -297h-154z" />
<glyph unicode="&#xc2;" horiz-adv-x="1073" d="M-18 0l419 1477h301l390 -1477h-246l-90 362h-432l-97 -362h-245zM250 1597l188 297h224l184 -297h-189l-110 183l-119 -183h-178zM367 551h348l-168 727h-4z" />
<glyph unicode="&#xc3;" horiz-adv-x="1073" d="M-18 0l419 1477h301l390 -1477h-246l-90 362h-432l-97 -362h-245zM236 1620q0 86 53 167t149 81q41 0 119 -36t111 -36q66 0 65 78h127q0 -82 -48 -163t-130 -81q-49 0 -134 36t-114 36q-33 0 -51 -24.5t-18 -57.5h-129zM367 551h348l-168 727h-4z" />
<glyph unicode="&#xc4;" horiz-adv-x="1073" d="M-18 0l419 1477h301l390 -1477h-246l-90 362h-432l-97 -362h-245zM276 1634v224h199v-224h-199zM367 551h348l-168 727h-4zM621 1634v224h198v-224h-198z" />
<glyph unicode="&#xc5;" horiz-adv-x="1073" d="M-18 0l419 1477h301l390 -1477h-246l-90 362h-432l-97 -362h-245zM328 1766.5q0 93.5 62.5 154.5t155.5 61t156.5 -61t63.5 -154.5t-63.5 -154t-156.5 -60.5t-155.5 60.5t-62.5 154zM367 551h348l-168 727h-4zM430 1766.5q0 -48.5 34 -82t82 -33.5t82 33.5t34 82t-34 82 t-82 33.5t-82 -33.5t-34 -82z" />
<glyph unicode="&#xc6;" horiz-adv-x="1531" d="M-25 0l566 1477h903v-199h-524v-410h495v-198h-495v-471h542v-199h-766v362h-344l-131 -362h-246zM414 551h282v737h-18z" />
<glyph unicode="&#xc7;" horiz-adv-x="1073" d="M86 739q0 408 108.5 587t383.5 179q444 0 444 -463v-26h-236v24q0 287 -208 287q-94 0 -146.5 -46t-80 -173t-27.5 -363.5t27.5 -366.5t78.5 -179t145 -49q219 0 220 354v26h235v-32q0 -217 -99.5 -364.5t-320.5 -160.5l-65 -98q35 8 73 8q74 0 122 -43t48 -112 q0 -86 -72.5 -137.5t-189.5 -51.5q-100 0 -188 37l33 82q68 -29 141 -29q51 0 81 21.5t30 62.5q0 37 -27 59.5t-68 22.5t-79 -16l-37 35l98 161q-236 18 -330 198.5t-94 565.5z" />
<glyph unicode="&#xc8;" horiz-adv-x="993" d="M123 0v1477h797v-199h-562v-410h529v-198h-529v-471h580v-199h-815zM233 1894h248l125 -297h-153z" />
<glyph unicode="&#xc9;" horiz-adv-x="993" d="M123 0v1477h797v-199h-562v-410h529v-198h-529v-471h580v-199h-815zM426 1597l125 297h248l-219 -297h-154z" />
<glyph unicode="&#xca;" horiz-adv-x="993" d="M123 0v1477h797v-199h-562v-410h529v-198h-529v-471h580v-199h-815zM219 1597l189 297h223l184 -297h-188l-113 183l-117 -183h-178z" />
<glyph unicode="&#xcb;" horiz-adv-x="993" d="M123 0v1477h797v-199h-562v-410h529v-198h-529v-471h580v-199h-815zM246 1634v224h198v-224h-198zM590 1634v224h198v-224h-198z" />
<glyph unicode="&#xcc;" d="M-41 1894h248l125 -297h-154zM113 0v1477h235v-1477h-235z" />
<glyph unicode="&#xcd;" d="M113 0v1477h235v-1477h-235zM127 1597l123 297h248l-219 -297h-152z" />
<glyph unicode="&#xce;" d="M-68 1597l189 297h223l184 -297h-188l-113 183l-116 -183h-179zM113 0v1477h235v-1477h-235z" />
<glyph unicode="&#xcf;" d="M-41 1634v224h199v-224h-199zM113 0v1477h235v-1477h-235zM301 1634v224h199v-224h-199z" />
<glyph unicode="&#xd0;" horiz-adv-x="1148" d="M0 696v144h123v637h420q135 0 231 -36t152.5 -96.5t87 -160t40 -200.5t9.5 -245.5t-9.5 -246t-40 -200.5t-87 -159.5t-152.5 -96.5t-231 -36h-420v696h-123zM358 178h195q147 0 210.5 122t63.5 439q0 311 -61 435t-213 124h-195v-458h246v-144h-246v-518z" />
<glyph unicode="&#xd1;" horiz-adv-x="1185" d="M123 0v1477h287l428 -1100h4v1100h223v-1477h-287l-428 1128h-4v-1128h-223zM283 1620q0 86 53 167t149 81q43 0 120 -36t110 -36q66 0 65 78h127q0 -82 -48 -163t-128 -81q-51 0 -136 36t-114 36q-33 0 -51 -24.5t-18 -57.5h-129z" />
<glyph unicode="&#xd2;" horiz-adv-x="1148" d="M86 738.5q0 396.5 118 581.5t371.5 185t370.5 -185t117 -581.5t-117 -582t-370.5 -185.5t-371.5 185.5t-118 582zM293 1894h250l123 -297h-154zM324 745q0 -184 18 -306t55 -183t78 -83.5t99.5 -22.5t99.5 22.5t79 83.5t56 183t18 306q0 178 -18 299t-56 179.5t-79 81 t-99.5 22.5t-99.5 -22.5t-78 -81t-55 -179.5t-18 -299z" />
<glyph unicode="&#xd3;" horiz-adv-x="1148" d="M86 738.5q0 396.5 118 581.5t371.5 185t370.5 -185t117 -581.5t-117 -582t-370.5 -185.5t-371.5 185.5t-118 582zM324 745q0 -184 18 -306t55 -183t78 -83.5t99.5 -22.5t99.5 22.5t79 83.5t56 183t18 306q0 178 -18 299t-56 179.5t-79 81t-99.5 22.5t-99.5 -22.5t-78 -81 t-55 -179.5t-18 -299zM485 1597l125 297h248l-219 -297h-154z" />
<glyph unicode="&#xd4;" horiz-adv-x="1148" d="M86 738.5q0 396.5 118 581.5t371.5 185t370.5 -185t117 -581.5t-117 -582t-370.5 -185.5t-371.5 185.5t-118 582zM279 1597l188 297h223l184 -297h-188l-111 183l-118 -183h-178zM324 745q0 -184 18 -306t55 -183t78 -83.5t99.5 -22.5t99.5 22.5t79 83.5t56 183t18 306 q0 178 -18 299t-56 179.5t-79 81t-99.5 22.5t-99.5 -22.5t-78 -81t-55 -179.5t-18 -299z" />
<glyph unicode="&#xd5;" horiz-adv-x="1148" d="M86 738.5q0 396.5 118 581.5t371.5 185t370.5 -185t117 -581.5t-117 -582t-370.5 -185.5t-371.5 185.5t-118 582zM264 1620q0 86 53.5 167t149.5 81q41 0 119 -36t110 -36q66 0 66 78h127q0 -82 -48 -163t-130 -81q-49 0 -134 36t-114 36q-33 0 -51.5 -24.5t-18.5 -57.5 h-129zM324 745q0 -184 18 -306t55 -183t78 -83.5t99.5 -22.5t99.5 22.5t79 83.5t56 183t18 306q0 178 -18 299t-56 179.5t-79 81t-99.5 22.5t-99.5 -22.5t-78 -81t-55 -179.5t-18 -299z" />
<glyph unicode="&#xd6;" horiz-adv-x="1148" d="M86 738.5q0 396.5 118 581.5t371.5 185t370.5 -185t117 -581.5t-117 -582t-370.5 -185.5t-371.5 185.5t-118 582zM305 1634v224h199v-224h-199zM324 745q0 -184 18 -306t55 -183t78 -83.5t99.5 -22.5t99.5 22.5t79 83.5t56 183t18 306q0 178 -18 299t-56 179.5t-79 81 t-99.5 22.5t-99.5 -22.5t-78 -81t-55 -179.5t-18 -299zM649 1634v224h199v-224h-199z" />
<glyph unicode="&#xd7;" horiz-adv-x="1241" d="M145 164l359 360l-359 359l115 116l358 -360l363 360l115 -116l-361 -359l361 -360l-115 -117l-363 363l-358 -363z" />
<glyph unicode="&#xd8;" horiz-adv-x="1148" d="M86 739q0 395 118 580.5t371 185.5q141 0 238 -57l55 135l107 -51l-70 -158q158 -182 158 -635q0 -397 -117 -582.5t-371 -185.5q-141 0 -235 58l-59 -138l-105 52l68 159q-158 182 -158 637zM324 745q0 -246 32 -374h4l373 884q-55 72 -158 72q-59 0 -100 -22.5t-78 -81 t-55 -179.5t-18 -299zM420 221q51 -72 155 -71q57 0 98.5 22.5t79.5 83.5t56 183t18 306q0 227 -30 361h-4z" />
<glyph unicode="&#xd9;" horiz-adv-x="1110" d="M102 436v1041h238v-1059q0 -268 217 -268q215 0 215 268v1059h236v-1041q0 -246 -115 -355.5t-336 -109.5t-338 109.5t-117 355.5zM272 1894h250l123 -297h-153z" />
<glyph unicode="&#xda;" horiz-adv-x="1110" d="M102 436v1041h238v-1059q0 -268 217 -268q215 0 215 268v1059h236v-1041q0 -246 -115 -355.5t-336 -109.5t-338 109.5t-117 355.5zM465 1597l125 297h248l-220 -297h-153z" />
<glyph unicode="&#xdb;" horiz-adv-x="1110" d="M102 436v1041h238v-1059q0 -268 217 -268q215 0 215 268v1059h236v-1041q0 -246 -115 -355.5t-336 -109.5t-338 109.5t-117 355.5zM258 1597l188 297h224l184 -297h-188l-111 183l-119 -183h-178z" />
<glyph unicode="&#xdc;" horiz-adv-x="1110" d="M102 436v1041h238v-1059q0 -268 217 -268q215 0 215 268v1059h236v-1041q0 -246 -115 -355.5t-336 -109.5t-338 109.5t-117 355.5zM285 1634v224h198v-224h-198zM629 1634v224h198v-224h-198z" />
<glyph unicode="&#xdd;" horiz-adv-x="993" d="M-8 1477h262l248 -637l256 637h246l-396 -899v-578h-235v578zM416 1597l125 297h247l-219 -297h-153z" />
<glyph unicode="&#xde;" horiz-adv-x="1034" d="M123 0v1477h235v-281h232q205 0 306 -115.5t101 -314.5q0 -201 -113.5 -318.5t-318.5 -117.5h-207v-330h-235zM358 506h168q102 0 169 61.5t67 194.5q0 125 -59.5 190.5t-194.5 65.5h-150v-512z" />
<glyph unicode="&#xdf;" horiz-adv-x="993" d="M90 0v1102q0 391 389 391q104 0 186.5 -26.5t141.5 -106.5t59 -205q0 -254 -207 -307v-4q147 -16 209 -124t62 -261q0 -215 -96.5 -343t-294.5 -128h-107v178h55q207 0 207 289q0 297 -205 297h-53v163h39q57 0 112.5 49.5t55.5 153.5q0 209 -166 209q-162 0 -162 -209 v-1118h-225z" />
<glyph unicode="&#xe0;" horiz-adv-x="956" d="M63 283q0 172 70 244.5t221 113.5l142 39q72 18 101.5 48t29.5 95q0 80 -34 123t-120 43q-100 0 -135 -57.5t-35 -155.5h-211q0 186 89 276.5t302 90.5q160 0 257.5 -66.5t97.5 -208.5v-637q0 -31 16 -54t41 -23t39 6v-146q-51 -27 -111 -26q-180 0 -188 147h-4 q-88 -164 -277 -164q-291 1 -291 312zM197 1556h247l125 -299h-153zM287 303q0 -74 36.5 -120t102.5 -46q100 0 150.5 68.5t50.5 195.5v187q-47 -31 -144 -64l-71 -26q-125 -43 -125 -195z" />
<glyph unicode="&#xe1;" horiz-adv-x="956" d="M63 283q0 172 70 244.5t221 113.5l142 39q72 18 101.5 48t29.5 95q0 80 -34 123t-120 43q-100 0 -135 -57.5t-35 -155.5h-211q0 186 89 276.5t302 90.5q160 0 257.5 -66.5t97.5 -208.5v-637q0 -31 16 -54t41 -23t39 6v-146q-51 -27 -111 -26q-180 0 -188 147h-4 q-88 -164 -277 -164q-291 1 -291 312zM287 303q0 -74 36.5 -120t102.5 -46q100 0 150.5 68.5t50.5 195.5v187q-47 -31 -144 -64l-71 -26q-125 -43 -125 -195zM381 1257l123 299h250l-219 -299h-154z" />
<glyph unicode="&#xe2;" horiz-adv-x="956" d="M63 283q0 172 70 244.5t221 113.5l142 39q72 18 101.5 48t29.5 95q0 80 -34 123t-120 43q-100 0 -135 -57.5t-35 -155.5h-211q0 186 89 276.5t302 90.5q160 0 257.5 -66.5t97.5 -208.5v-637q0 -31 16 -54t41 -23t39 6v-146q-51 -27 -111 -26q-180 0 -188 147h-4 q-88 -164 -277 -164q-291 1 -291 312zM178 1257l189 299h223l184 -299h-188l-113 183l-117 -183h-178zM287 303q0 -74 36.5 -120t102.5 -46q100 0 150.5 68.5t50.5 195.5v187q-47 -31 -144 -64l-71 -26q-125 -43 -125 -195z" />
<glyph unicode="&#xe3;" horiz-adv-x="956" d="M63 283q0 172 70 244.5t221 113.5l142 39q72 18 101.5 48t29.5 95q0 80 -34 123t-120 43q-100 0 -135 -57.5t-35 -155.5h-211q0 186 89 276.5t302 90.5q160 0 257.5 -66.5t97.5 -208.5v-637q0 -31 16 -54t41 -23t39 6v-146q-51 -27 -111 -26q-180 0 -188 147h-4 q-88 -164 -277 -164q-291 1 -291 312zM164 1280q0 88 52 168t151 80q41 0 118.5 -36t110.5 -36q63 0 63 78h129q0 -82 -49 -163t-129 -81q-49 0 -134 37t-114 37q-33 0 -52 -25.5t-19 -58.5h-127zM287 303q0 -74 36.5 -120t102.5 -46q100 0 150.5 68.5t50.5 195.5v187 q-47 -31 -144 -64l-71 -26q-125 -43 -125 -195z" />
<glyph unicode="&#xe4;" horiz-adv-x="956" d="M63 283q0 172 70 244.5t221 113.5l142 39q72 18 101.5 48t29.5 95q0 80 -34 123t-120 43q-100 0 -135 -57.5t-35 -155.5h-211q0 186 89 276.5t302 90.5q160 0 257.5 -66.5t97.5 -208.5v-637q0 -31 16 -54t41 -23t39 6v-146q-51 -27 -111 -26q-180 0 -188 147h-4 q-88 -164 -277 -164q-291 1 -291 312zM205 1294v224h198v-224h-198zM287 303q0 -74 36.5 -120t102.5 -46q100 0 150.5 68.5t50.5 195.5v187q-47 -31 -144 -64l-71 -26q-125 -43 -125 -195zM549 1294v224h199v-224h-199z" />
<glyph unicode="&#xe5;" horiz-adv-x="956" d="M63 283q0 172 70 244.5t221 113.5l142 39q72 18 101.5 48t29.5 95q0 80 -34 123t-120 43q-100 0 -135 -57.5t-35 -155.5h-211q0 186 89 276.5t302 90.5q160 0 257.5 -66.5t97.5 -208.5v-637q0 -31 16 -54t41 -23t39 6v-146q-51 -27 -111 -26q-180 0 -188 147h-4 q-88 -164 -277 -164q-291 1 -291 312zM254 1440q0 92 63.5 153.5t156.5 61.5t155.5 -61.5t62.5 -153.5t-62.5 -153.5t-155.5 -61.5t-156.5 61.5t-63.5 153.5zM287 303q0 -74 36.5 -120t102.5 -46q100 0 150.5 68.5t50.5 195.5v187q-47 -31 -144 -64l-71 -26 q-125 -43 -125 -195zM358 1440q0 -47 34 -82t82 -35t82 35t34 82t-34 81.5t-82 34.5t-82 -34.5t-34 -81.5z" />
<glyph unicode="&#xe6;" horiz-adv-x="1456" d="M63 283q0 162 70 233.5t207 108.5l174 45q57 14 76.5 44.5t19.5 108.5q0 166 -137 166q-100 0 -135 -57.5t-35 -155.5h-211q0 186 89 276.5t302 90.5q203 0 262 -144q84 139 273 144q199 0 280.5 -126t81.5 -372v-117h-557v-79q0 -315 164 -324q55 0 93 27.5t55.5 71.5 t23.5 80t6 69h211q0 -186 -104.5 -294t-286.5 -108q-78 2 -135 22.5t-90 57.5t-49.5 62.5t-30.5 60.5q-41 -98 -120 -150.5t-179 -52.5q-137 0 -227.5 78t-90.5 234zM287 291q0 -63 35.5 -108.5t95.5 -45.5q195 0 194 258v176q-20 -25 -161 -67q-102 -31 -133 -78t-31 -135z M825 680h332v61q0 248 -162 248q-90 0 -130 -84t-40 -176v-49z" />
<glyph unicode="&#xe7;" horiz-adv-x="917" d="M63 557q0 283 93.5 434.5t324.5 151.5q109 0 188 -37t117.5 -98.5t56 -127t17.5 -137.5h-223q0 233 -156 234q-111 0 -152.5 -102.5t-41.5 -317.5q0 -209 41 -314.5t151 -105.5q168 0 168 269h211q-12 -207 -91 -315.5t-257 -117.5l-66 -98q35 8 76 8q74 0 121 -43 t47 -112q0 -86 -71.5 -137.5t-190.5 -51.5q-98 0 -188 37l32 82q70 -29 144 -29q49 0 79.5 21.5t30.5 62.5q0 37 -27.5 59.5t-68.5 22.5q-39 0 -78 -16l-37 35l99 161q-190 23 -269.5 171.5t-79.5 410.5z" />
<glyph unicode="&#xe8;" horiz-adv-x="956" d="M76 541q0 602 411 602q221 0 307.5 -125t86.5 -373v-117h-582v-65q0 -66 7 -118t24.5 -106.5t56.5 -84t98 -29.5q57 0 95 27.5t54.5 71.5t23 80t6.5 69h210q0 -188 -104 -295t-287 -107q-63 0 -112 9.5t-107.5 43t-96.5 93t-64.5 167t-26.5 257.5zM211 1556h248l125 -299 h-154zM299 680h358v61q0 248 -172 248q-96 0 -141 -82t-45 -205v-22z" />
<glyph unicode="&#xe9;" horiz-adv-x="956" d="M76 541q0 602 411 602q221 0 307.5 -125t86.5 -373v-117h-582v-65q0 -66 7 -118t24.5 -106.5t56.5 -84t98 -29.5q57 0 95 27.5t54.5 71.5t23 80t6.5 69h210q0 -188 -104 -295t-287 -107q-63 0 -112 9.5t-107.5 43t-96.5 93t-64.5 167t-26.5 257.5zM299 680h358v61 q0 248 -172 248q-96 0 -141 -82t-45 -205v-22zM395 1257l125 299h248l-219 -299h-154z" />
<glyph unicode="&#xea;" horiz-adv-x="956" d="M76 541q0 602 411 602q221 0 307.5 -125t86.5 -373v-117h-582v-65q0 -66 7 -118t24.5 -106.5t56.5 -84t98 -29.5q57 0 95 27.5t54.5 71.5t23 80t6.5 69h210q0 -188 -104 -295t-287 -107q-63 0 -112 9.5t-107.5 43t-96.5 93t-64.5 167t-26.5 257.5zM193 1257l188 299h223 l184 -299h-188l-113 183l-116 -183h-178zM299 680h358v61q0 248 -172 248q-96 0 -141 -82t-45 -205v-22z" />
<glyph unicode="&#xeb;" horiz-adv-x="956" d="M76 541q0 602 411 602q221 0 307.5 -125t86.5 -373v-117h-582v-65q0 -66 7 -118t24.5 -106.5t56.5 -84t98 -29.5q57 0 95 27.5t54.5 71.5t23 80t6.5 69h210q0 -188 -104 -295t-287 -107q-63 0 -112 9.5t-107.5 43t-96.5 93t-64.5 167t-26.5 257.5zM219 1294v224h199v-224 h-199zM299 680h358v61q0 248 -172 248q-96 0 -141 -82t-45 -205v-22zM563 1294v224h199v-224h-199z" />
<glyph unicode="&#xec;" d="M-37 1556h248l125 -299h-154zM119 0v1112h223v-1112h-223z" />
<glyph unicode="&#xed;" d="M119 0v1112h223v-1112h-223zM123 1257l123 299h248l-220 -299h-151z" />
<glyph unicode="&#xee;" d="M-68 1257l189 299h223l184 -299h-188l-113 183l-116 -183h-179zM119 0v1112h223v-1112h-223z" />
<glyph unicode="&#xef;" d="M-41 1294v224h199v-224h-199zM119 0v1112h223v-1112h-223zM301 1294v224h199v-224h-199z" />
<glyph unicode="&#xf0;" horiz-adv-x="956" d="M63 557q0 555 381 555q106 0 177 -76l4 4q-59 111 -168 217l-170 -92l-74 74l162 86q-39 37 -121 90l158 88q86 -49 131 -86l153 86l68 -73l-146 -80q160 -160 217.5 -344.5t57.5 -448.5q0 -586 -416 -586q-414 0 -414 586zM287 557q0 -227 39 -323.5t151 -96.5 q117 0 155 96.5t38 323.5q0 186 -40 288.5t-153 102.5q-109 0 -149.5 -102.5t-40.5 -288.5z" />
<glyph unicode="&#xf1;" horiz-adv-x="993" d="M109 0v1112h210v-129h7q41 74 115.5 117t168.5 43q135 0 206 -71t71 -232v-840h-223v764q0 111 -34 156t-122 45q-74 0 -125 -56.5t-51 -160.5v-748h-223zM184 1280q0 88 52.5 168t150.5 80q41 0 119 -36t110 -36q63 0 64 78h129q0 -82 -49 -163t-129 -81q-49 0 -134 37 t-114 37q-33 0 -51.5 -25.5t-18.5 -58.5h-129z" />
<glyph unicode="&#xf2;" horiz-adv-x="956" d="M63 557q0 283 93.5 434.5t321 151.5t321.5 -151.5t94 -434.5q0 -586 -416 -586q-414 0 -414 586zM201 1556h248l124 -299h-153zM287 557q0 -227 39 -323.5t151 -96.5q117 0 155 96.5t38 323.5q0 209 -39 314.5t-154 105.5q-76 0 -119 -57.5t-57 -142.5t-14 -220z" />
<glyph unicode="&#xf3;" horiz-adv-x="956" d="M63 557q0 283 93.5 434.5t321 151.5t321.5 -151.5t94 -434.5q0 -586 -416 -586q-414 0 -414 586zM287 557q0 -227 39 -323.5t151 -96.5q117 0 155 96.5t38 323.5q0 209 -39 314.5t-154 105.5q-76 0 -119 -57.5t-57 -142.5t-14 -220zM385 1257l123 299h250l-219 -299h-154 z" />
<glyph unicode="&#xf4;" horiz-adv-x="956" d="M63 557q0 283 93.5 434.5t321 151.5t321.5 -151.5t94 -434.5q0 -586 -416 -586q-414 0 -414 586zM182 1257l189 299h223l184 -299h-188l-113 183l-117 -183h-178zM287 557q0 -227 39 -323.5t151 -96.5q117 0 155 96.5t38 323.5q0 209 -39 314.5t-154 105.5 q-76 0 -119 -57.5t-57 -142.5t-14 -220z" />
<glyph unicode="&#xf5;" horiz-adv-x="956" d="M63 557q0 283 93.5 434.5t321 151.5t321.5 -151.5t94 -434.5q0 -586 -416 -586q-414 0 -414 586zM168 1280q0 88 52 168t151 80q41 0 118.5 -36t110.5 -36q63 0 64 78h129q0 -82 -49.5 -163t-129.5 -81q-49 0 -134 37t-113 37q-33 0 -52.5 -25.5t-19.5 -58.5h-127z M287 557q0 -227 39 -323.5t151 -96.5q117 0 155 96.5t38 323.5q0 209 -39 314.5t-154 105.5q-76 0 -119 -57.5t-57 -142.5t-14 -220z" />
<glyph unicode="&#xf6;" horiz-adv-x="956" d="M63 557q0 283 93.5 434.5t321 151.5t321.5 -151.5t94 -434.5q0 -586 -416 -586q-414 0 -414 586zM209 1294v224h199v-224h-199zM287 557q0 -227 39 -323.5t151 -96.5q117 0 155 96.5t38 323.5q0 209 -39 314.5t-154 105.5q-76 0 -119 -57.5t-57 -142.5t-14 -220z M553 1294v224h199v-224h-199z" />
<glyph unicode="&#xf7;" horiz-adv-x="1241" d="M96 434v178h1049v-178h-1049zM471 99.5q0 62.5 44 105.5t105.5 43t105.5 -43t44 -105.5t-44 -105.5t-105.5 -43t-105.5 43t-44 105.5zM471 947.5q0 62.5 44 105.5t105.5 43t105.5 -43t44 -105.5t-44 -105.5t-105.5 -43t-105.5 43t-44 105.5z" />
<glyph unicode="&#xf8;" horiz-adv-x="956" d="M63 557q0 283 93.5 434.5t320.5 151.5q115 0 193 -43l63 135l98 -53l-67 -146q129 -131 129 -479q0 -285 -94 -435.5t-322 -150.5q-115 0 -192 39l-64 -139l-98 55l72 152q-132 131 -132 479zM287 557q0 -145 14 -240h4l287 613q-45 47 -115 47q-76 0 -119 -57.5 t-57 -142.5t-14 -220zM367 182q39 -45 110 -45q115 0 154 105.5t39 314.5q0 162 -17 242h-4z" />
<glyph unicode="&#xf9;" horiz-adv-x="993" d="M109 336v776h223v-797q0 -90 37 -127.5t113.5 -37.5t129 48t52.5 138v776h223v-1112h-211v131h-6q-41 -76 -117 -118t-168 -42q-135 0 -205.5 81t-70.5 284zM221 1556h248l125 -299h-154z" />
<glyph unicode="&#xfa;" horiz-adv-x="993" d="M109 336v776h223v-797q0 -90 37 -127.5t113.5 -37.5t129 48t52.5 138v776h223v-1112h-211v131h-6q-41 -76 -117 -118t-168 -42q-135 0 -205.5 81t-70.5 284zM406 1257l124 299h248l-219 -299h-153z" />
<glyph unicode="&#xfb;" horiz-adv-x="993" d="M109 336v776h223v-797q0 -90 37 -127.5t113.5 -37.5t129 48t52.5 138v776h223v-1112h-211v131h-6q-41 -76 -117 -118t-168 -42q-135 0 -205.5 81t-70.5 284zM203 1257l188 299h223l185 -299h-189l-112 183l-117 -183h-178z" />
<glyph unicode="&#xfc;" horiz-adv-x="993" d="M109 336v776h223v-797q0 -90 37 -127.5t113.5 -37.5t129 48t52.5 138v776h223v-1112h-211v131h-6q-41 -76 -117 -118t-168 -42q-135 0 -205.5 81t-70.5 284zM229 1294v224h199v-224h-199zM573 1294v224h199v-224h-199z" />
<glyph unicode="&#xfd;" horiz-adv-x="880" d="M16 1112h240l193 -836h4l178 836h233l-286 -1081q-70 -260 -139.5 -336t-231.5 -76q-84 0 -127 8v178q45 -8 86 -8q111 0 145 107l23 71zM354 1257l123 299h250l-221 -299h-152z" />
<glyph unicode="&#xfe;" horiz-adv-x="993" d="M109 -365v1842h223v-494h4q66 160 252 160q342 0 342 -600q0 -168 -31 -286t-83 -177.5t-108.5 -84t-119.5 -24.5q-186 0 -252 160h-4v-496h-223zM319 569q0 -217 39 -318t150 -101q98 0 142 89t44 314q0 209 -39 310.5t-149 101.5q-106 0 -146.5 -99.5t-40.5 -296.5z " />
<glyph unicode="&#xff;" horiz-adv-x="880" d="M16 1112h240l193 -836h4l178 836h233l-286 -1081q-70 -260 -139.5 -336t-231.5 -76q-84 0 -127 8v178q45 -8 86 -8q111 0 145 107l23 71zM178 1294v224h199v-224h-199zM522 1294v224h197v-224h-197z" />
<glyph unicode="&#x100;" horiz-adv-x="1073" d="M-18 0l419 1477h301l390 -1477h-246l-90 362h-432l-97 -362h-245zM256 1681v129h584v-129h-584zM367 551h348l-168 727h-4z" />
<glyph unicode="&#x101;" horiz-adv-x="956" d="M63 283q0 172 70 244.5t221 113.5l142 39q72 18 101.5 48t29.5 95q0 80 -34 123t-120 43q-100 0 -135 -57.5t-35 -155.5h-211q0 186 89 276.5t302 90.5q160 0 257.5 -66.5t97.5 -208.5v-637q0 -31 16 -54t41 -23t39 6v-146q-51 -27 -111 -26q-180 0 -188 147h-4 q-88 -164 -277 -164q-291 1 -291 312zM184 1341v129h584v-129h-584zM287 303q0 -74 36.5 -120t102.5 -46q100 0 150.5 68.5t50.5 195.5v187q-47 -31 -144 -64l-71 -26q-125 -43 -125 -195z" />
<glyph unicode="&#x102;" horiz-adv-x="1073" d="M-18 0l419 1477h301l390 -1477h-246l-90 362h-432l-97 -362h-245zM272 1886h129q0 -45 40 -92t106.5 -47t106.5 47t40 92h129q0 -119 -74.5 -198.5t-200.5 -79.5t-201 79.5t-75 198.5zM367 551h348l-168 727h-4z" />
<glyph unicode="&#x103;" horiz-adv-x="956" d="M63 283q0 172 70 244.5t221 113.5l142 39q72 18 101.5 48t29.5 95q0 80 -34 123t-120 43q-100 0 -135 -57.5t-35 -155.5h-211q0 186 89 276.5t302 90.5q160 0 257.5 -66.5t97.5 -208.5v-637q0 -31 16 -54t41 -23t39 6v-146q-51 -27 -111 -26q-180 0 -188 147h-4 q-88 -164 -277 -164q-291 1 -291 312zM201 1546h129q0 -45 40 -91t106.5 -46t106.5 46t40 91h129q0 -119 -75 -198.5t-201 -79.5t-200.5 79.5t-74.5 198.5zM287 303q0 -74 36.5 -120t102.5 -46q100 0 150.5 68.5t50.5 195.5v187q-47 -31 -144 -64l-71 -26 q-125 -43 -125 -195z" />
<glyph unicode="&#x104;" horiz-adv-x="1073" d="M-18 0l419 1477h301l390 -1477h-117q-145 -145 -146 -254q0 -51 29 -79.5t72 -28.5q47 0 102 24l21 -84q-72 -39 -164 -39q-98 0 -159.5 46t-61.5 136q0 70 53 145t149 134h-24l-90 362h-432l-97 -362h-245zM367 551h348l-168 727h-4z" />
<glyph unicode="&#x105;" horiz-adv-x="956" d="M63 283q0 172 70 244.5t221 113.5l142 39q72 18 101.5 48t29.5 95q0 80 -34 123t-120 43q-100 0 -135 -57.5t-35 -155.5h-211q0 186 89 276.5t302 90.5q160 0 257.5 -66.5t97.5 -208.5v-637q0 -31 16 -54t41 -23t39 6v-146q-43 -20 -94 -26q-133 -133 -133 -242 q0 -51 29.5 -79.5t72.5 -28.5q45 0 100 24l21 -84q-72 -39 -162 -39q-100 0 -160.5 46t-60.5 136q0 70 51 144t147 133q-104 27 -110 137h-4q-88 -164 -277 -164q-291 1 -291 312zM287 303q0 -74 36.5 -120t102.5 -46q100 0 150.5 68.5t50.5 195.5v187q-47 -31 -144 -64 l-71 -26q-125 -43 -125 -195z" />
<glyph unicode="&#x106;" horiz-adv-x="1073" d="M86 739.5q0 407.5 108.5 586.5t383.5 179q444 0 444 -463v-26h-236v24q0 287 -208 287q-94 0 -146.5 -46t-80 -173t-27.5 -363.5t27.5 -366.5t78.5 -179t145 -49q219 0 220 354v26h235v-32q0 -104 -23.5 -194.5t-73.5 -168.5t-142.5 -121t-215.5 -43q-274 0 -381.5 180.5 t-107.5 588zM487 1597l125 297h248l-219 -297h-154z" />
<glyph unicode="&#x107;" horiz-adv-x="917" d="M63 556q0 284 93.5 435.5t324.5 151.5q109 0 188 -37t117.5 -98.5t56 -127t17.5 -137.5h-223q0 233 -156 234q-111 0 -152.5 -102.5t-41.5 -317.5q0 -209 41 -314.5t151 -105.5q168 0 168 269h211q-12 -215 -98 -325t-283 -110q-227 0 -320.5 150.5t-93.5 434.5z M379 1257l123 299h250l-220 -299h-153z" />
<glyph unicode="&#x108;" horiz-adv-x="1073" d="M86 739.5q0 407.5 108.5 586.5t383.5 179q444 0 444 -463v-26h-236v24q0 287 -208 287q-94 0 -146.5 -46t-80 -173t-27.5 -363.5t27.5 -366.5t78.5 -179t145 -49q219 0 220 354v26h235v-32q0 -104 -23.5 -194.5t-73.5 -168.5t-142.5 -121t-215.5 -43q-274 0 -381.5 180.5 t-107.5 588zM281 1597l188 297h223l185 -297h-189l-110 183l-119 -183h-178z" />
<glyph unicode="&#x109;" horiz-adv-x="917" d="M63 556q0 284 93.5 435.5t324.5 151.5q109 0 188 -37t117.5 -98.5t56 -127t17.5 -137.5h-223q0 233 -156 234q-111 0 -152.5 -102.5t-41.5 -317.5q0 -209 41 -314.5t151 -105.5q168 0 168 269h211q-12 -215 -98 -325t-283 -110q-227 0 -320.5 150.5t-93.5 434.5z M176 1257l189 299h223l184 -299h-188l-113 183l-117 -183h-178z" />
<glyph unicode="&#x10a;" horiz-adv-x="1073" d="M86 739.5q0 407.5 108.5 586.5t383.5 179q444 0 444 -463v-26h-236v24q0 287 -208 287q-94 0 -146.5 -46t-80 -173t-27.5 -363.5t27.5 -366.5t78.5 -179t145 -49q219 0 220 354v26h235v-32q0 -104 -23.5 -194.5t-73.5 -168.5t-142.5 -121t-215.5 -43q-274 0 -381.5 180.5 t-107.5 588zM479 1634v224h199v-224h-199z" />
<glyph unicode="&#x10b;" horiz-adv-x="917" d="M63 556q0 284 93.5 435.5t324.5 151.5q109 0 188 -37t117.5 -98.5t56 -127t17.5 -137.5h-223q0 233 -156 234q-111 0 -152.5 -102.5t-41.5 -317.5q0 -209 41 -314.5t151 -105.5q168 0 168 269h211q-12 -215 -98 -325t-283 -110q-227 0 -320.5 150.5t-93.5 434.5z M375 1294v224h198v-224h-198z" />
<glyph unicode="&#x10c;" horiz-adv-x="1073" d="M86 739.5q0 407.5 108.5 586.5t383.5 179q444 0 444 -463v-26h-236v24q0 287 -208 287q-94 0 -146.5 -46t-80 -173t-27.5 -363.5t27.5 -366.5t78.5 -179t145 -49q219 0 220 354v26h235v-32q0 -104 -23.5 -194.5t-73.5 -168.5t-142.5 -121t-215.5 -43q-274 0 -381.5 180.5 t-107.5 588zM281 1894h188l113 -182l116 182h179l-189 -297h-223z" />
<glyph unicode="&#x10d;" horiz-adv-x="917" d="M63 556q0 284 93.5 435.5t324.5 151.5q109 0 188 -37t117.5 -98.5t56 -127t17.5 -137.5h-223q0 233 -156 234q-111 0 -152.5 -102.5t-41.5 -317.5q0 -209 41 -314.5t151 -105.5q168 0 168 269h211q-12 -215 -98 -325t-283 -110q-227 0 -320.5 150.5t-93.5 434.5z M176 1556h189l110 -182l119 182h178l-188 -299h-224z" />
<glyph unicode="&#x10e;" horiz-adv-x="1148" d="M123 0v1477h420q135 0 231 -36t152.5 -96.5t87 -160t40 -200.5t9.5 -245.5t-9.5 -246t-40 -200.5t-87 -159.5t-152.5 -96.5t-231 -36h-420zM217 1894h189l110 -182l119 182h178l-188 -297h-224zM358 178h195q147 0 210.5 122t63.5 439q0 311 -61 435t-213 124h-195v-1120 z" />
<glyph unicode="&#x10f;" horiz-adv-x="993" d="M63 571q0 178 29 297t81 175.5t107.5 78t127.5 21.5q186 0 251 -160h5v494h223v-1477h-211v137h-4q-61 -166 -244 -166q-365 0 -365 600zM299 561q0 -209 40 -310t148 -101q109 0 149 99t40 296q0 221 -40 320.5t-163 99.5q-94 0 -134 -90.5t-40 -313.5zM977 1180l57 297 h217l-131 -297h-143z" />
<glyph unicode="&#x110;" horiz-adv-x="1148" d="M0 696v144h123v637h420q135 0 231 -36t152.5 -96.5t87 -160t40 -200.5t9.5 -245.5t-9.5 -246t-40 -200.5t-87 -159.5t-152.5 -96.5t-231 -36h-420v696h-123zM358 178h195q147 0 210.5 122t63.5 439q0 311 -61 435t-213 124h-195v-458h246v-144h-246v-518z" />
<glyph unicode="&#x111;" horiz-adv-x="1003" d="M63 571q0 178 29 297t81 175.5t107.5 78t127.5 21.5q186 0 251 -160h5v234h-228v110h228v150h223v-150h160v-110h-160v-1217h-211v137h-4q-61 -166 -244 -166q-365 0 -365 600zM299 561q0 -209 40 -310t148 -101q109 0 149 99t40 296q0 221 -40 320.5t-163 99.5 q-94 0 -134 -90.5t-40 -313.5z" />
<glyph unicode="&#x112;" horiz-adv-x="993" d="M123 0v1477h797v-199h-562v-410h529v-198h-529v-471h580v-199h-815zM225 1681v129h584v-129h-584z" />
<glyph unicode="&#x113;" horiz-adv-x="956" d="M76 541q0 602 411 602q221 0 307.5 -125t86.5 -373v-117h-582v-65q0 -66 7 -118t24.5 -106.5t56.5 -84t98 -29.5q57 0 95 27.5t54.5 71.5t23 80t6.5 69h210q0 -188 -104 -295t-287 -107q-63 0 -112 9.5t-107.5 43t-96.5 93t-64.5 167t-26.5 257.5zM199 1341v129h583v-129 h-583zM299 680h358v61q0 248 -172 248q-96 0 -141 -82t-45 -205v-22z" />
<glyph unicode="&#x114;" horiz-adv-x="993" d="M123 0v1477h797v-199h-562v-410h529v-198h-529v-471h580v-199h-815zM242 1886h129q0 -45 40 -92t106.5 -47t106.5 47t40 92h129q0 -119 -75 -198.5t-201 -79.5t-200.5 79.5t-74.5 198.5z" />
<glyph unicode="&#x115;" horiz-adv-x="956" d="M76 541q0 602 411 602q221 0 307.5 -125t86.5 -373v-117h-582v-65q0 -66 7 -118t24.5 -106.5t56.5 -84t98 -29.5q57 0 95 27.5t54.5 71.5t23 80t6.5 69h210q0 -188 -104 -295t-287 -107q-63 0 -112 9.5t-107.5 43t-96.5 93t-64.5 167t-26.5 257.5zM215 1546h129 q0 -45 40 -91t106.5 -46t106.5 46t40 91h129q0 -119 -75 -198.5t-200.5 -79.5t-200.5 79.5t-75 198.5zM299 680h358v61q0 248 -172 248q-96 0 -141 -82t-45 -205v-22z" />
<glyph unicode="&#x116;" horiz-adv-x="993" d="M123 0v1477h797v-199h-562v-410h529v-198h-529v-471h580v-199h-815zM418 1634v224h198v-224h-198z" />
<glyph unicode="&#x117;" horiz-adv-x="956" d="M76 541q0 602 411 602q221 0 307.5 -125t86.5 -373v-117h-582v-65q0 -66 7 -118t24.5 -106.5t56.5 -84t98 -29.5q57 0 95 27.5t54.5 71.5t23 80t6.5 69h210q0 -188 -104 -295t-287 -107q-63 0 -112 9.5t-107.5 43t-96.5 93t-64.5 167t-26.5 257.5zM299 680h358v61 q0 248 -172 248q-96 0 -141 -82t-45 -205v-22zM391 1294v224h199v-224h-199z" />
<glyph unicode="&#x118;" horiz-adv-x="993" d="M123 0v1477h797v-199h-562v-410h529v-198h-529v-471h580v-199h-76q-145 -145 -145 -254q0 -51 29.5 -79.5t72.5 -28.5q45 0 101 24l22 -84q-74 -39 -164 -39q-100 0 -160.5 46t-60.5 136q0 70 52.5 145t150.5 134h-637z" />
<glyph unicode="&#x119;" horiz-adv-x="956" d="M76 541q0 602 411 602q221 0 307.5 -125t86.5 -373v-117h-582v-65q0 -66 7 -118t24.5 -106.5t56.5 -84t98 -29.5q57 0 95 27.5t54.5 71.5t23 80t6.5 69h210q0 -160 -74.5 -261.5t-211.5 -129.5q-127 -133 -127 -236q0 -51 29.5 -79.5t72.5 -28.5q45 0 101 24l20 -84 q-72 -39 -162 -39q-100 0 -161.5 46t-61.5 136q0 135 160 250q-78 2 -137.5 23.5t-119 77t-93 174.5t-33.5 295zM299 680h358v61q0 248 -172 248q-96 0 -141 -82t-45 -205v-22z" />
<glyph unicode="&#x11a;" horiz-adv-x="993" d="M123 0v1477h797v-199h-562v-410h529v-198h-529v-471h580v-199h-815zM219 1894h189l112 -182l117 182h178l-188 -297h-224z" />
<glyph unicode="&#x11b;" horiz-adv-x="956" d="M76 541q0 602 411 602q221 0 307.5 -125t86.5 -373v-117h-582v-65q0 -66 7 -118t24.5 -106.5t56.5 -84t98 -29.5q57 0 95 27.5t54.5 71.5t23 80t6.5 69h210q0 -188 -104 -295t-287 -107q-63 0 -112 9.5t-107.5 43t-96.5 93t-64.5 167t-26.5 257.5zM193 1556h188l111 -182 l118 182h178l-188 -299h-223zM299 680h358v61q0 248 -172 248q-96 0 -141 -82t-45 -205v-22z" />
<glyph unicode="&#x11c;" horiz-adv-x="1110" d="M86 739q0 395 119 580.5t373 185.5q104 0 185 -31.5t127 -77.5t73.5 -107.5t37 -112t9.5 -97.5v-26h-224v34q0 98 -49 169t-157 71q-135 0 -195.5 -123t-60.5 -459q0 -344 55 -469.5t182 -125.5q133 0 189.5 103t56.5 347h-248v178h471v-778h-178v172h-4 q-49 -109 -122 -155t-200 -46q-240 0 -340 182.5t-100 585.5zM281 1597l188 297h223l185 -297h-189l-110 183l-119 -183h-178z" />
<glyph unicode="&#x11d;" horiz-adv-x="993" d="M90 569q0 109 12.5 195t46 179t109.5 146.5t186 53.5q94 0 161 -50.5t83 -115.5h4v135h211v-1059q0 -434 -416 -434q-115 0 -194.5 29.5t-113.5 80t-46 91.5t-12 86h211q0 -55 44 -94t116 -39q88 0 138 55t50 154v180h-4q-31 -72 -100.5 -113t-151.5 -41q-334 0 -334 561 zM238 1257l188 299h223l185 -299h-189l-110 183l-119 -183h-178zM315 592q0 -70 2 -117t11.5 -107.5t27 -95t51 -60.5t80.5 -26q63 0 104.5 35t59 99.5t23.5 123t6 138.5q0 383 -178 383q-57 0 -96 -29t-57.5 -83t-26 -114.5t-7.5 -146.5z" />
<glyph unicode="&#x11e;" horiz-adv-x="1110" d="M86 739q0 395 119 580.5t373 185.5q104 0 185 -31.5t127 -77.5t73.5 -107.5t37 -112t9.5 -97.5v-26h-224v34q0 98 -49 169t-157 71q-135 0 -195.5 -123t-60.5 -459q0 -344 55 -469.5t182 -125.5q133 0 189.5 103t56.5 347h-248v178h471v-778h-178v172h-4 q-49 -109 -122 -155t-200 -46q-240 0 -340 182.5t-100 585.5zM303 1886h129q0 -45 40 -92t106.5 -47t107.5 47t41 92h127q0 -119 -74.5 -198.5t-200.5 -79.5t-201 79.5t-75 198.5z" />
<glyph unicode="&#x11f;" horiz-adv-x="993" d="M90 569q0 109 12.5 195t46 179t109.5 146.5t186 53.5q94 0 161 -50.5t83 -115.5h4v135h211v-1059q0 -434 -416 -434q-115 0 -194.5 29.5t-113.5 80t-46 91.5t-12 86h211q0 -55 44 -94t116 -39q88 0 138 55t50 154v180h-4q-31 -72 -100.5 -113t-151.5 -41q-334 0 -334 561 zM260 1546h129q0 -45 40 -91t106.5 -46t106.5 46t40 91h129q0 -119 -74.5 -198.5t-200.5 -79.5t-201 79.5t-75 198.5zM315 592q0 -70 2 -117t11.5 -107.5t27 -95t51 -60.5t80.5 -26q63 0 104.5 35t59 99.5t23.5 123t6 138.5q0 383 -178 383q-57 0 -96 -29t-57.5 -83 t-26 -114.5t-7.5 -146.5z" />
<glyph unicode="&#x120;" horiz-adv-x="1110" d="M86 739q0 395 119 580.5t373 185.5q104 0 185 -31.5t127 -77.5t73.5 -107.5t37 -112t9.5 -97.5v-26h-224v34q0 98 -49 169t-157 71q-135 0 -195.5 -123t-60.5 -459q0 -344 55 -469.5t182 -125.5q133 0 189.5 103t56.5 347h-248v178h471v-778h-178v172h-4 q-49 -109 -122 -155t-200 -46q-240 0 -340 182.5t-100 585.5zM477 1634v224h199v-224h-199z" />
<glyph unicode="&#x121;" horiz-adv-x="993" d="M90 569q0 109 12.5 195t46 179t109.5 146.5t186 53.5q94 0 161 -50.5t83 -115.5h4v135h211v-1059q0 -434 -416 -434q-115 0 -194.5 29.5t-113.5 80t-46 91.5t-12 86h211q0 -55 44 -94t116 -39q88 0 138 55t50 154v180h-4q-31 -72 -100.5 -113t-151.5 -41q-334 0 -334 561 zM315 592q0 -70 2 -117t11.5 -107.5t27 -95t51 -60.5t80.5 -26q63 0 104.5 35t59 99.5t23.5 123t6 138.5q0 383 -178 383q-57 0 -96 -29t-57.5 -83t-26 -114.5t-7.5 -146.5zM436 1294v224h199v-224h-199z" />
<glyph unicode="&#x122;" horiz-adv-x="1110" d="M86 739q0 395 119 580.5t373 185.5q104 0 185 -31.5t127 -77.5t73.5 -107.5t37 -112t9.5 -97.5v-26h-224v34q0 98 -49 169t-157 71q-135 0 -195.5 -123t-60.5 -459q0 -344 55 -469.5t182 -125.5q133 0 189.5 103t56.5 347h-248v178h471v-778h-178v172h-4 q-49 -109 -122 -155t-200 -46q-240 0 -340 182.5t-100 585.5zM479 -102h199v-179q0 -88 -45 -129t-133 -51v68q35 8 52 26.5t21 59.5h-94v205z" />
<glyph unicode="&#x123;" horiz-adv-x="993" d="M90 569q0 109 12.5 195t46 179t109.5 146.5t186 53.5q94 0 161 -50.5t83 -115.5h4v135h211v-1059q0 -434 -416 -434q-115 0 -194.5 29.5t-113.5 80t-46 91.5t-12 86h211q0 -55 44 -94t116 -39q88 0 138 55t50 154v180h-4q-31 -72 -100.5 -113t-151.5 -41q-334 0 -334 561 zM315 592q0 -70 2 -117t11.5 -107.5t27 -95t51 -60.5t80.5 -26q63 0 104.5 35t59 99.5t23.5 123t6 138.5q0 383 -178 383q-57 0 -96 -29t-57.5 -83t-26 -114.5t-7.5 -146.5zM436 1272v178q0 86 46 128t132 52v-67q-33 -8 -50 -27.5t-21 -58.5h92v-205h-199z" />
<glyph unicode="&#x124;" horiz-adv-x="1148" d="M123 0v1477h235v-592h435v592h235v-1477h-235v686h-435v-686h-235zM279 1597l188 297h223l184 -297h-188l-111 183l-118 -183h-178z" />
<glyph unicode="&#x125;" horiz-adv-x="993" d="M109 0v1477h223v-484l6 -4q100 154 272 154q135 0 206 -71t71 -232v-840h-223v764q0 109 -35 155t-121 46q-74 0 -125 -57.5t-51 -159.5v-748h-223zM184 1597l189 297h223l184 -297h-188l-113 183l-117 -183h-178z" />
<glyph unicode="&#x126;" horiz-adv-x="1148" d="M123 0v1477h235v-285h435v285h235v-1477h-235v618h-435v-618h-235zM358 805h435v262h-435v-262z" />
<glyph unicode="&#x127;" horiz-adv-x="1003" d="M-41 1217v110h160v150h223v-150h227v-110h-227v-224l6 -4q100 154 273 154q135 0 205.5 -71t70.5 -232v-840h-223v764q0 109 -35 155t-119 46q-76 0 -127 -57.5t-51 -159.5v-748h-223v1217h-160z" />
<glyph unicode="&#x128;" d="M-82 1620q0 86 52.5 167t150.5 81q41 0 118.5 -36t110.5 -36q63 0 64 78h129q0 -82 -49.5 -163t-128.5 -81q-49 0 -134.5 36t-113.5 36q-35 0 -53.5 -24.5t-18.5 -57.5h-127zM113 0v1477h235v-1477h-235z" />
<glyph unicode="&#x129;" d="M-82 1280q0 88 52.5 168t150.5 80q41 0 118.5 -36t110.5 -36q63 0 64 78h129q0 -82 -49.5 -163t-128.5 -81q-49 0 -134.5 37t-113.5 37q-35 0 -53.5 -25.5t-18.5 -58.5h-127zM119 0v1112h223v-1112h-223z" />
<glyph unicode="&#x12a;" d="M-61 1681v129h583v-129h-583zM113 0v1477h235v-1477h-235z" />
<glyph unicode="&#x12b;" d="M-61 1341v129h583v-129h-583zM119 0v1112h223v-1112h-223z" />
<glyph unicode="&#x12c;" d="M-45 1886h127q0 -45 41 -92t106.5 -47t106.5 47t41 92h127q0 -119 -74 -198.5t-201 -79.5t-200.5 79.5t-73.5 198.5zM113 0v1477h235v-1477h-235z" />
<glyph unicode="&#x12d;" d="M-45 1546h127q0 -45 41 -91t106.5 -46t106.5 46t41 91h127q0 -119 -74 -198.5t-201 -79.5t-200.5 79.5t-73.5 198.5zM119 0v1112h223v-1112h-223z" />
<glyph unicode="&#x12e;" d="M41 -279q0 70 53 145t150 134h-131v1477h235v-1477q-145 -145 -145 -254q0 -51 28.5 -79.5t71.5 -28.5q47 0 103 24l20 -84q-72 -39 -164 -39q-98 0 -159.5 46t-61.5 136z" />
<glyph unicode="&#x12f;" d="M39 -279q0 70 53 145t146 134h-119v1112h223v-1112q-78 -80 -109.5 -137.5t-31.5 -116.5q0 -51 28.5 -79.5t71.5 -28.5q47 0 102 24l21 -84q-72 -39 -164 -39q-98 0 -159.5 46t-61.5 136zM119 1270v223h223v-223h-223z" />
<glyph unicode="&#x130;" d="M113 0v1477h235v-1477h-235zM131 1634v224h199v-224h-199z" />
<glyph unicode="&#x131;" d="M119 0v1112h223v-1112h-223z" />
<glyph unicode="&#x134;" horiz-adv-x="917" d="M33 360v84h223v-71q0 -106 34 -164.5t124 -58.5q45 0 76.5 17t47 39.5t23.5 70t9 77t1 88.5v1035h236v-1069q0 -436 -397 -437q-377 0 -377 389zM389 1597l189 297h223l184 -297h-188l-113 183l-117 -183h-178z" />
<glyph unicode="&#x135;" d="M-70 1257l189 299h223l184 -299h-188l-113 183l-116 -183h-179zM-49 -203h51q63 0 90 32t27 120v1163h223v-1184q0 -170 -70.5 -239.5t-224.5 -69.5q-47 0 -96 6v172z" />
<glyph unicode="&#x136;" horiz-adv-x="1073" d="M123 0v1477h235v-643h4l447 643h258l-426 -623l471 -854h-266l-359 664l-129 -187v-477h-235zM483 -102h199v-179q0 -88 -45 -129t-133 -51v68q35 8 52 26.5t22 59.5h-95v205z" />
<glyph unicode="&#x137;" horiz-adv-x="956" d="M109 0v1477h223v-830h4l336 465h258l-334 -428l379 -684h-244l-274 506l-125 -152v-354h-223zM414 -102h198v-179q0 -88 -45 -129t-133 -51v68q33 8 50.5 26.5t21.5 59.5h-92v205z" />
<glyph unicode="&#x138;" horiz-adv-x="956" d="M109 0v1112h223v-465h4l336 465h258l-334 -428l379 -684h-244l-274 506l-125 -152v-354h-223z" />
<glyph unicode="&#x139;" horiz-adv-x="917" d="M94 0v1477h238v-1278h569v-199h-807zM135 1597l123 297h248l-219 -297h-152z" />
<glyph unicode="&#x13a;" d="M119 0v1477h223v-1477h-223zM129 1597l123 297h248l-219 -297h-152z" />
<glyph unicode="&#x13b;" horiz-adv-x="917" d="M94 0v1477h238v-1278h569v-199h-807zM403 -102h199v-179q0 -88 -46 -129t-132 -51v68q33 8 50.5 26.5t21.5 59.5h-93v205z" />
<glyph unicode="&#x13c;" d="M119 0v1477h223v-1477h-223zM131 -102h199v-179q0 -88 -46 -129t-132 -51v68q33 8 50 26.5t21 59.5h-92v205z" />
<glyph unicode="&#x13d;" horiz-adv-x="917" d="M94 0v1477h238v-1278h569v-199h-807zM438 1180l58 297h217l-129 -297h-146z" />
<glyph unicode="&#x13e;" d="M119 0v1477h223v-1477h-223zM430 1180l57 297h218l-130 -297h-145z" />
<glyph unicode="&#x13f;" horiz-adv-x="917" d="M94 0v1477h238v-1278h569v-199h-807zM526 688v223h199v-223h-199z" />
<glyph unicode="&#x140;" horiz-adv-x="716" d="M119 0v1477h223v-1477h-223zM457 688v223h198v-223h-198z" />
<glyph unicode="&#x141;" horiz-adv-x="917" d="M-20 473v178l114 82v744h238v-584l301 209v-178l-301 -209v-516h569v-199h-807v555z" />
<glyph unicode="&#x142;" d="M0 543v164l119 84v686h223v-533l117 82v-166l-117 -82v-778h-223v625z" />
<glyph unicode="&#x143;" horiz-adv-x="1185" d="M123 0v1477h287l428 -1100h4v1100h223v-1477h-287l-428 1128h-4v-1128h-223zM504 1597l125 297h248l-220 -297h-153z" />
<glyph unicode="&#x144;" horiz-adv-x="993" d="M109 0v1112h210v-129h7q41 74 115.5 117t168.5 43q135 0 206 -71t71 -232v-840h-223v764q0 111 -34 156t-122 45q-74 0 -125 -56.5t-51 -160.5v-748h-223zM401 1257l125 299h248l-219 -299h-154z" />
<glyph unicode="&#x145;" horiz-adv-x="1185" d="M123 0v1477h287l428 -1100h4v1100h223v-1477h-287l-428 1128h-4v-1128h-223zM498 -102h198v-179q0 -88 -45 -129t-131 -51v68q33 8 50.5 26.5t21.5 59.5h-94v205z" />
<glyph unicode="&#x146;" horiz-adv-x="993" d="M109 0v1112h210v-129h7q41 74 115.5 117t168.5 43q135 0 206 -71t71 -232v-840h-223v764q0 111 -34 156t-122 45q-74 0 -125 -56.5t-51 -160.5v-748h-223zM393 -102h199v-179q0 -88 -46 -129t-132 -51v68q33 8 50 26.5t21 59.5h-92v205z" />
<glyph unicode="&#x147;" horiz-adv-x="1185" d="M123 0v1477h287l428 -1100h4v1100h223v-1477h-287l-428 1128h-4v-1128h-223zM297 1894h188l113 -182l117 182h178l-188 -297h-224z" />
<glyph unicode="&#x148;" horiz-adv-x="993" d="M109 0v1112h210v-129h7q41 74 115.5 117t168.5 43q135 0 206 -71t71 -232v-840h-223v764q0 111 -34 156t-122 45q-74 0 -125 -56.5t-51 -160.5v-748h-223zM199 1556h188l111 -182l118 182h179l-189 -299h-223z" />
<glyph unicode="&#x14a;" horiz-adv-x="1185" d="M123 0v1477h287l428 -1033h4v1033h223v-1520q0 -338 -330 -338q-84 0 -141 8v172q45 -2 98 -2q68 0 109 38t41 118l-492 1175h-4v-1128h-223z" />
<glyph unicode="&#x14b;" horiz-adv-x="993" d="M109 0v1112h210v-129h7q41 74 115.5 117t168.5 43q135 0 206 -71t71 -232v-889q0 -182 -77 -257t-237 -75q-70 0 -120 8v172q41 -2 79 -2q66 0 99 32t33 124v811q0 111 -34 156t-122 45q-74 0 -125 -56.5t-51 -160.5v-748h-223z" />
<glyph unicode="&#x14c;" horiz-adv-x="1148" d="M86 738.5q0 396.5 118 581.5t371.5 185t370.5 -185t117 -581.5t-117 -582t-370.5 -185.5t-371.5 185.5t-118 582zM285 1681v129h583v-129h-583zM324 745q0 -184 18 -306t55 -183t78 -83.5t99.5 -22.5t99.5 22.5t79 83.5t56 183t18 306q0 178 -18 299t-56 179.5t-79 81 t-99.5 22.5t-99.5 -22.5t-78 -81t-55 -179.5t-18 -299z" />
<glyph unicode="&#x14d;" horiz-adv-x="956" d="M63 557q0 283 93.5 434.5t321 151.5t321.5 -151.5t94 -434.5q0 -586 -416 -586q-414 0 -414 586zM188 1341v129h584v-129h-584zM287 557q0 -227 39 -323.5t151 -96.5q117 0 155 96.5t38 323.5q0 209 -39 314.5t-154 105.5q-76 0 -119 -57.5t-57 -142.5t-14 -220z" />
<glyph unicode="&#x14e;" horiz-adv-x="1148" d="M86 738.5q0 396.5 118 581.5t371.5 185t370.5 -185t117 -581.5t-117 -582t-370.5 -185.5t-371.5 185.5t-118 582zM301 1886h129q0 -45 40 -92t106.5 -47t107.5 47t41 92h127q0 -119 -75 -198.5t-200.5 -79.5t-200.5 79.5t-75 198.5zM324 745q0 -184 18 -306t55 -183 t78 -83.5t99.5 -22.5t99.5 22.5t79 83.5t56 183t18 306q0 178 -18 299t-56 179.5t-79 81t-99.5 22.5t-99.5 -22.5t-78 -81t-55 -179.5t-18 -299z" />
<glyph unicode="&#x14f;" horiz-adv-x="956" d="M63 557q0 283 93.5 434.5t321 151.5t321.5 -151.5t94 -434.5q0 -586 -416 -586q-414 0 -414 586zM205 1546h129q0 -45 40 -91t106.5 -46t106.5 46t40 91h129q0 -119 -75 -198.5t-201 -79.5t-200.5 79.5t-74.5 198.5zM287 557q0 -227 39 -323.5t151 -96.5q117 0 155 96.5 t38 323.5q0 209 -39 314.5t-154 105.5q-76 0 -119 -57.5t-57 -142.5t-14 -220z" />
<glyph unicode="&#x150;" horiz-adv-x="1148" d="M86 738.5q0 396.5 118 581.5t371.5 185t370.5 -185t117 -581.5t-117 -582t-370.5 -185.5t-371.5 185.5t-118 582zM301 1597l125 297h248l-219 -297h-154zM324 745q0 -184 18 -306t55 -183t78 -83.5t99.5 -22.5t99.5 22.5t79 83.5t56 183t18 306q0 178 -18 299t-56 179.5 t-79 81t-99.5 22.5t-99.5 -22.5t-78 -81t-55 -179.5t-18 -299zM694 1597l125 297h248l-219 -297h-154z" />
<glyph unicode="&#x151;" horiz-adv-x="956" d="M63 557q0 283 93.5 434.5t321 151.5t321.5 -151.5t94 -434.5q0 -586 -416 -586q-414 0 -414 586zM205 1257l125 299h248l-220 -299h-153zM287 557q0 -227 39 -323.5t151 -96.5q117 0 155 96.5t38 323.5q0 209 -39 314.5t-154 105.5q-76 0 -119 -57.5t-57 -142.5t-14 -220 zM598 1257l123 299h250l-219 -299h-154z" />
<glyph unicode="&#x152;" horiz-adv-x="1644" d="M86 739q0 393 112.5 579.5t348.5 186.5q201 0 276 -119h4v91h734v-199h-527v-410h492v-198h-492v-471h543v-199h-750v106h-4q-82 -135 -284 -135q-233 0 -343 184.5t-110 583.5zM324 745q0 -184 18 -306t55 -183t78 -83.5t100 -22.5q115 0 175.5 70.5t60.5 266.5v502 q0 195 -58.5 266.5t-160.5 71.5q-51 0 -89 -12t-74 -49t-57.5 -101.5t-34.5 -170.5t-13 -249z" />
<glyph unicode="&#x153;" horiz-adv-x="1492" d="M63 557q0 283 91.5 434.5t314.5 151.5q74 0 128 -16.5t89 -46t52.5 -51t37.5 -56.5q51 88 120 129t171 41q199 0 281 -126t82 -372v-117h-558v-79q0 -315 164 -324q55 0 94 27.5t55.5 71.5t22.5 80t6 69h211q0 -186 -104 -294t-287 -108q-70 0 -126 21.5t-84.5 55.5 t-42 57.5t-19.5 44.5q-92 -178 -307 -179q-213 0 -302.5 151.5t-89.5 434.5zM287 556q0 -101 7 -171t26.5 -129t56.5 -89t92 -30q115 0 154 105.5t39 314.5t-39 314.5t-154 105.5q-55 0 -92 -31t-56.5 -89t-26.5 -129t-7 -172zM874 680h332v61q0 248 -162 248 q-88 0 -129 -84t-41 -176v-49z" />
<glyph unicode="&#x154;" horiz-adv-x="1110" d="M123 0v1477h520q168 0 271.5 -93.5t103.5 -287.5q0 -145 -63.5 -243.5t-182.5 -117.5v-4q117 -12 173 -85t59 -230l4 -203q2 -96 15 -137t58 -76h-266q-41 53 -45 242l-2 129q-2 143 -46 206.5t-171 63.5h-193v-641h-235zM358 819h189q111 0 173 64.5t62 175.5 q0 240 -223 239h-201v-479zM442 1597l125 297h248l-219 -297h-154z" />
<glyph unicode="&#x155;" horiz-adv-x="651" d="M109 0v1112h223v-172h4q80 203 258 203q37 0 53 -10v-228q-33 12 -92 13q-94 0 -158.5 -55.5t-64.5 -196.5v-666h-223zM287 1257l125 299h247l-219 -299h-153z" />
<glyph unicode="&#x156;" horiz-adv-x="1110" d="M123 0v1477h520q168 0 271.5 -93.5t103.5 -287.5q0 -145 -63.5 -243.5t-182.5 -117.5v-4q117 -12 173 -85t59 -230l4 -203q2 -96 15 -137t58 -76h-266q-41 53 -45 242l-2 129q-2 143 -46 206.5t-171 63.5h-193v-641h-235zM358 819h189q111 0 173 64.5t62 175.5 q0 240 -223 239h-201v-479zM477 -102h199v-179q0 -88 -45 -129t-133 -51v68q35 8 52 26.5t21 59.5h-94v205z" />
<glyph unicode="&#x157;" horiz-adv-x="651" d="M109 0v1112h223v-172h4q80 203 258 203q37 0 53 -10v-228q-33 12 -92 13q-94 0 -158.5 -55.5t-64.5 -196.5v-666h-223zM121 -102h198v-179q0 -88 -46 -129t-132 -51v68q33 8 50.5 26.5t21.5 59.5h-92v205z" />
<glyph unicode="&#x158;" horiz-adv-x="1110" d="M123 0v1477h520q168 0 271.5 -93.5t103.5 -287.5q0 -145 -63.5 -243.5t-182.5 -117.5v-4q117 -12 173 -85t59 -230l4 -203q2 -96 15 -137t58 -76h-266q-41 53 -45 242l-2 129q-2 143 -46 206.5t-171 63.5h-193v-641h-235zM236 1894h188l113 -182l116 182h178l-188 -297 h-223zM358 819h189q111 0 173 64.5t62 175.5q0 240 -223 239h-201v-479z" />
<glyph unicode="&#x159;" horiz-adv-x="651" d="M84 1556h188l113 -182l117 182h178l-188 -299h-224zM109 0v1112h223v-172h4q80 203 258 203q37 0 53 -10v-228q-33 12 -92 13q-94 0 -158.5 -55.5t-64.5 -196.5v-666h-223z" />
<glyph unicode="&#x15a;" horiz-adv-x="1073" d="M68 422v35h235v-37q0 -270 244 -270q102 0 162.5 63t60.5 152q0 109 -49 167t-154 93l-161 55q-164 57 -241 153.5t-77 253.5q0 199 125 308.5t336 109.5q106 0 187 -26.5t123 -64.5t68.5 -95t33 -102.5t6.5 -100.5v-33h-236v31q0 213 -207 213q-86 0 -142 -51t-56 -162 q0 -92 50 -149.5t171 -100.5l158 -57q158 -55 229.5 -146.5t71.5 -244.5q0 -444 -490 -445q-129 0 -222 40t-139 109.5t-66.5 143.5t-20.5 158zM449 1597l124 297h248l-219 -297h-153z" />
<glyph unicode="&#x15b;" horiz-adv-x="880" d="M57 317v41h199v-34q0 -102 40 -150.5t134 -48.5q182 0 182 162q0 121 -123 164l-194 69q-117 41 -171 113t-54 203q0 154 100 230.5t281 76.5q193 0 270.5 -89t77.5 -216v-50h-211v29q0 172 -148 172q-160 0 -159 -145q0 -66 33.5 -99.5t123.5 -64.5l144 -49 q125 -43 183 -117t58 -203q0 -170 -110.5 -255t-288.5 -85q-201 0 -284 87t-83 259zM342 1257l123 299h248l-219 -299h-152z" />
<glyph unicode="&#x15c;" horiz-adv-x="1073" d="M68 422v35h235v-37q0 -270 244 -270q102 0 162.5 63t60.5 152q0 109 -49 167t-154 93l-161 55q-164 57 -241 153.5t-77 253.5q0 199 125 308.5t336 109.5q106 0 187 -26.5t123 -64.5t68.5 -95t33 -102.5t6.5 -100.5v-33h-236v31q0 213 -207 213q-86 0 -142 -51t-56 -162 q0 -92 50 -149.5t171 -100.5l158 -57q158 -55 229.5 -146.5t71.5 -244.5q0 -444 -490 -445q-129 0 -222 40t-139 109.5t-66.5 143.5t-20.5 158zM242 1597l188 297h223l185 -297h-189l-110 183l-119 -183h-178z" />
<glyph unicode="&#x15d;" horiz-adv-x="880" d="M57 317v41h199v-34q0 -102 40 -150.5t134 -48.5q182 0 182 162q0 121 -123 164l-194 69q-117 41 -171 113t-54 203q0 154 100 230.5t281 76.5q193 0 270.5 -89t77.5 -216v-50h-211v29q0 172 -148 172q-160 0 -159 -145q0 -66 33.5 -99.5t123.5 -64.5l144 -49 q125 -43 183 -117t58 -203q0 -170 -110.5 -255t-288.5 -85q-201 0 -284 87t-83 259zM139 1257l189 299h223l184 -299h-188l-113 183l-117 -183h-178z" />
<glyph unicode="&#x15e;" horiz-adv-x="1073" d="M68 422v35h235v-37q0 -270 244 -270q102 0 162.5 63t60.5 152q0 109 -49 167t-154 93l-161 55q-164 57 -241 153.5t-77 253.5q0 199 125 308.5t336 109.5q106 0 187 -26.5t123 -64.5t68.5 -95t33 -102.5t6.5 -100.5v-33h-236v31q0 213 -207 213q-86 0 -142 -51t-56 -162 q0 -92 50 -149.5t171 -100.5l158 -57q158 -55 229.5 -146.5t71.5 -244.5q0 -215 -114 -323.5t-323 -119.5l-67 -98q37 8 76 8q74 0 122 -43t48 -112q0 -86 -73 -137.5t-192 -51.5q-98 0 -188 37l35 82q68 -29 141 -29q51 0 81 21.5t30 62.5q0 37 -27 59.5t-70 22.5 q-39 0 -77 -16l-37 35l98 159q-94 6 -167 36t-116 74t-70.5 102.5t-37.5 116t-10 120.5z" />
<glyph unicode="&#x15f;" horiz-adv-x="880" d="M57 317v41h199v-34q0 -102 40 -150.5t134 -48.5q182 0 182 162q0 121 -123 164l-194 69q-117 41 -171 113t-54 203q0 154 100 230.5t281 76.5q193 0 270.5 -89t77.5 -216v-50h-211v29q0 172 -148 172q-160 0 -159 -145q0 -66 33.5 -99.5t123.5 -64.5l144 -49 q125 -43 183 -117t58 -203q0 -160 -95 -242.5t-255 -95.5l-67 -98q35 8 73 8q76 0 123 -43t47 -112q0 -86 -72.5 -137.5t-189.5 -51.5q-100 0 -188 37l32 82q68 -29 144 -29q49 0 78.5 21.5t29.5 62.5q0 37 -26.5 59.5t-67.5 22.5q-39 0 -78 -16l-39 35l101 159 q-172 12 -244 97t-72 247z" />
<glyph unicode="&#x160;" horiz-adv-x="1073" d="M68 422v35h235v-37q0 -270 244 -270q102 0 162.5 63t60.5 152q0 109 -49 167t-154 93l-161 55q-164 57 -241 153.5t-77 253.5q0 199 125 308.5t336 109.5q106 0 187 -26.5t123 -64.5t68.5 -95t33 -102.5t6.5 -100.5v-33h-236v31q0 213 -207 213q-86 0 -142 -51t-56 -162 q0 -92 50 -149.5t171 -100.5l158 -57q158 -55 229.5 -146.5t71.5 -244.5q0 -444 -490 -445q-129 0 -222 40t-139 109.5t-66.5 143.5t-20.5 158zM242 1894h188l113 -182l116 182h179l-189 -297h-223z" />
<glyph unicode="&#x161;" horiz-adv-x="880" d="M57 317v41h199v-34q0 -102 40 -150.5t134 -48.5q182 0 182 162q0 121 -123 164l-194 69q-117 41 -171 113t-54 203q0 154 100 230.5t281 76.5q193 0 270.5 -89t77.5 -216v-50h-211v29q0 172 -148 172q-160 0 -159 -145q0 -66 33.5 -99.5t123.5 -64.5l144 -49 q125 -43 183 -117t58 -203q0 -170 -110.5 -255t-288.5 -85q-201 0 -284 87t-83 259zM139 1556h189l110 -182l119 182h178l-188 -299h-223z" />
<glyph unicode="&#x162;" horiz-adv-x="956" d="M12 1278v199h934v-199h-346v-1278h-235v1278h-353zM383 -102h199v-179q0 -88 -46.5 -129t-132.5 -51v68q33 8 50.5 26.5t21.5 59.5h-92v205z" />
<glyph unicode="&#x163;" horiz-adv-x="573" d="M8 948v164h154v318h223v-318h182v-164h-182v-665q0 -66 21.5 -91.5t78.5 -25.5q51 0 82 6v-166q-72 -18 -180 -18q-121 0 -173 54t-52 214v692h-154zM264 -102h199v-179q0 -88 -45 -129t-133 -51v68q35 8 52 26.5t21 59.5h-94v205z" />
<glyph unicode="&#x164;" horiz-adv-x="956" d="M12 1278v199h934v-199h-346v-1278h-235v1278h-353zM184 1894h189l110 -182l119 182h178l-188 -297h-223z" />
<glyph unicode="&#x165;" horiz-adv-x="573" d="M8 948v164h154v318h223v-318h182v-164h-182v-665q0 -66 21.5 -91.5t78.5 -25.5q51 0 82 6v-166q-72 -18 -180 -18q-121 0 -173 54t-52 214v692h-154zM483 1180l60 297h217l-131 -297h-146z" />
<glyph unicode="&#x166;" horiz-adv-x="956" d="M12 1278v199h934v-199h-346v-291h238v-133h-238v-854h-235v854h-238v133h238v291h-353z" />
<glyph unicode="&#x167;" horiz-adv-x="573" d="M8 948v164h154v318h223v-318h182v-164h-182v-217h170v-121h-170v-327q0 -66 21.5 -91.5t78.5 -25.5q51 0 82 6v-166q-72 -18 -180 -18q-121 0 -173 54t-52 214v354h-144v121h144v217h-154z" />
<glyph unicode="&#x168;" horiz-adv-x="1110" d="M102 436v1041h238v-1059q0 -268 217 -268q215 0 215 268v1059h236v-1041q0 -246 -115 -355.5t-336 -109.5t-338 109.5t-117 355.5zM244 1620q0 86 53 167t149 81q41 0 119 -36t111 -36q66 0 65 78h127q0 -82 -48 -163t-130 -81q-49 0 -134 36t-114 36q-33 0 -51 -24.5 t-18 -57.5h-129z" />
<glyph unicode="&#x169;" horiz-adv-x="993" d="M109 336v776h223v-797q0 -90 37 -127.5t113.5 -37.5t129 48t52.5 138v776h223v-1112h-211v131h-6q-41 -76 -117 -118t-168 -42q-135 0 -205.5 81t-70.5 284zM188 1280q0 88 52.5 168t150.5 80q41 0 119 -36t111 -36q63 0 63 78h129q0 -82 -49 -163t-129 -81 q-49 0 -134 37t-114 37q-33 0 -51.5 -25.5t-18.5 -58.5h-129z" />
<glyph unicode="&#x16a;" horiz-adv-x="1110" d="M102 436v1041h238v-1059q0 -268 217 -268q215 0 215 268v1059h236v-1041q0 -246 -115 -355.5t-336 -109.5t-338 109.5t-117 355.5zM264 1681v129h584v-129h-584z" />
<glyph unicode="&#x16b;" horiz-adv-x="993" d="M109 336v776h223v-797q0 -90 37 -127.5t113.5 -37.5t129 48t52.5 138v776h223v-1112h-211v131h-6q-41 -76 -117 -118t-168 -42q-135 0 -205.5 81t-70.5 284zM209 1341v129h584v-129h-584z" />
<glyph unicode="&#x16c;" horiz-adv-x="1110" d="M102 436v1041h238v-1059q0 -268 217 -268q215 0 215 268v1059h236v-1041q0 -246 -115 -355.5t-336 -109.5t-338 109.5t-117 355.5zM281 1886h129q0 -45 39.5 -92t106.5 -47t106.5 47t39.5 92h129q0 -119 -74.5 -198.5t-200.5 -79.5t-200.5 79.5t-74.5 198.5z" />
<glyph unicode="&#x16d;" horiz-adv-x="993" d="M109 336v776h223v-797q0 -90 37 -127.5t113.5 -37.5t129 48t52.5 138v776h223v-1112h-211v131h-6q-41 -76 -117 -118t-168 -42q-135 0 -205.5 81t-70.5 284zM225 1546h129q0 -45 40 -91t106.5 -46t106.5 46t40 91h129q0 -119 -74.5 -198.5t-200.5 -79.5t-201 79.5 t-75 198.5z" />
<glyph unicode="&#x16e;" horiz-adv-x="1110" d="M102 436v1041h238v-1059q0 -268 217 -268q215 0 215 268v1059h236v-1041q0 -246 -115 -355.5t-336 -109.5t-338 109.5t-117 355.5zM342 1766.5q0 93.5 62.5 154.5t155.5 61t156.5 -61t63.5 -154.5t-63.5 -154t-156.5 -60.5t-155.5 60.5t-62.5 154zM444 1766.5 q0 -48.5 34 -82t82 -33.5t82 33.5t34 82t-34 82t-82 33.5t-82 -33.5t-34 -82z" />
<glyph unicode="&#x16f;" horiz-adv-x="993" d="M109 336v776h223v-797q0 -90 37 -127.5t113.5 -37.5t129 48t52.5 138v776h223v-1112h-211v131h-6q-41 -76 -117 -118t-168 -42q-135 0 -205.5 81t-70.5 284zM281 1440q0 92 63.5 153.5t156.5 61.5t155.5 -61.5t62.5 -153.5t-62.5 -153.5t-155.5 -61.5t-156.5 61.5 t-63.5 153.5zM385 1440q0 -47 34 -82t82 -35t81.5 35t33.5 82t-33.5 81.5t-81.5 34.5t-82 -34.5t-34 -81.5z" />
<glyph unicode="&#x170;" horiz-adv-x="1110" d="M102 436v1041h238v-1059q0 -268 217 -268q215 0 215 268v1059h236v-1041q0 -246 -115 -355.5t-336 -109.5t-338 109.5t-117 355.5zM281 1597l125 297h247l-219 -297h-153zM674 1597l125 297h248l-220 -297h-153z" />
<glyph unicode="&#x171;" horiz-adv-x="993" d="M109 336v776h223v-797q0 -90 37 -127.5t113.5 -37.5t129 48t52.5 138v776h223v-1112h-211v131h-6q-41 -76 -117 -118t-168 -42q-135 0 -205.5 81t-70.5 284zM225 1257l125 299h248l-219 -299h-154zM618 1257l125 299h248l-219 -299h-154z" />
<glyph unicode="&#x172;" horiz-adv-x="1110" d="M102 436v1041h238v-1059q0 -268 217 -268q215 0 215 268v1059h236v-1041q0 -420 -363 -459q-119 -129 -119 -231q0 -51 29 -79.5t72 -28.5q45 0 102 24l21 -84q-74 -39 -164 -39q-100 0 -160.5 46t-60.5 136q0 133 159 252q-205 6 -313.5 115.5t-108.5 347.5z" />
<glyph unicode="&#x173;" horiz-adv-x="993" d="M109 336v776h223v-797q0 -90 37 -127.5t113.5 -37.5t129 48t52.5 138v776h223v-1112h-107q-76 -80 -105.5 -137.5t-29.5 -116.5q0 -51 28.5 -79.5t74.5 -28.5q45 0 100 24l20 -84q-72 -39 -163 -39q-98 0 -160 46t-62 136q0 70 51.5 145t141.5 134v131h-6 q-41 -76 -117 -118t-168 -42q-135 0 -205.5 81t-70.5 284z" />
<glyph unicode="&#x174;" horiz-adv-x="1531" d="M12 1477h238l194 -1147h5l194 1147h248l199 -1153h4l192 1153h234l-293 -1477h-273l-190 1112h-4l-189 -1112h-274zM467 1597l188 297h224l184 -297h-189l-110 183l-119 -183h-178z" />
<glyph unicode="&#x175;" horiz-adv-x="1415" d="M31 1112h231l156 -876h4l166 876h252l166 -876h4l153 876h223l-256 -1112h-249l-174 864h-5l-157 -864h-262zM414 1257l188 299h223l185 -299h-189l-112 183l-117 -183h-178z" />
<glyph unicode="&#x176;" horiz-adv-x="993" d="M-8 1477h262l248 -637l256 637h246l-396 -899v-578h-235v578zM209 1597l188 297h224l184 -297h-189l-112 183l-117 -183h-178z" />
<glyph unicode="&#x177;" horiz-adv-x="880" d="M16 1112h240l193 -836h4l178 836h233l-286 -1081q-70 -260 -139.5 -336t-231.5 -76q-84 0 -127 8v178q45 -8 86 -8q111 0 145 107l23 71zM152 1257l188 299h223l185 -299h-189l-113 183l-116 -183h-178z" />
<glyph unicode="&#x178;" horiz-adv-x="993" d="M-8 1477h262l248 -637l256 637h246l-396 -899v-578h-235v578zM236 1634v224h198v-224h-198zM580 1634v224h198v-224h-198z" />
<glyph unicode="&#x179;" horiz-adv-x="956" d="M37 0v186l618 1092h-581v199h839v-199l-618 -1079h625v-199h-883zM397 1597l125 297h248l-219 -297h-154z" />
<glyph unicode="&#x17a;" horiz-adv-x="841" d="M51 0v174l488 750h-459v188h711v-184l-467 -740h467v-188h-740zM338 1257l123 299h248l-220 -299h-151z" />
<glyph unicode="&#x17b;" horiz-adv-x="956" d="M37 0v186l618 1092h-581v199h839v-199l-618 -1079h625v-199h-883zM387 1634v224h199v-224h-199z" />
<glyph unicode="&#x17c;" horiz-adv-x="841" d="M51 0v174l488 750h-459v188h711v-184l-467 -740h467v-188h-740zM334 1294v224h198v-224h-198z" />
<glyph unicode="&#x17d;" horiz-adv-x="956" d="M37 0v186l618 1092h-581v199h839v-199l-618 -1079h625v-199h-883zM190 1894h189l110 -182l119 182h178l-188 -297h-223z" />
<glyph unicode="&#x17e;" horiz-adv-x="841" d="M51 0v174l488 750h-459v188h711v-184l-467 -740h467v-188h-740zM135 1556h189l110 -182l119 182h178l-188 -299h-224z" />
<glyph unicode="&#x192;" horiz-adv-x="991" d="M-53 -352l35 162q31 -8 86 -9q78 0 109.5 38t51.5 134l160 785h-215l23 139h219l57 268q33 154 106.5 233t229.5 79q104 0 160 -17l-31 -157q-4 0 -32.5 4t-47.5 4q-72 0 -116 -42t-66 -151l-49 -221h231l-22 -139h-236l-158 -768q-39 -186 -116.5 -270.5t-243.5 -84.5 q-90 1 -135 13z" />
<glyph unicode="&#x1fa;" horiz-adv-x="1073" d="M-18 0l407 1421q-39 51 -39 119q0 84 55.5 138.5t140.5 54.5t142 -54.5t57 -138.5q0 -59 -34 -108l381 -1432h-246l-90 362h-432l-97 -362h-245zM367 551h348l-168 731h-4zM444 1541q0 -44 29 -74.5t73 -30.5t72.5 30.5t28.5 74.5t-28.5 74t-72.5 30t-73 -30t-29 -74z M457 1772l102 210h227l-176 -210h-153z" />
<glyph unicode="&#x1fb;" horiz-adv-x="956" d="M63 283q0 90 17.5 151.5t58.5 99t79 57t106 42.5l172 47q72 18 101.5 48t29.5 95q0 80 -34 123t-120 43q-100 0 -135 -57.5t-35 -155.5h-211q0 186 89 276.5t302 90.5q160 0 257.5 -66.5t97.5 -208.5v-637q0 -31 16 -54t41 -23t39 6v-146q-51 -27 -111 -26 q-180 0 -188 147h-4q-88 -164 -277 -164q-291 1 -291 312zM276 1393q0 82 56.5 137t141.5 55t141.5 -54t56.5 -138t-55.5 -138.5t-140.5 -54.5t-142.5 53.5t-57.5 139.5zM287 303q0 -74 36.5 -120t102.5 -46q100 0 150.5 68.5t50.5 195.5v187q-35 -27 -131.5 -60.5 t-116.5 -44.5q-92 -43 -92 -180zM373 1393q0 -43 28.5 -74t71.5 -31q47 0 76 30t29 75q0 43 -29 72.5t-74 29.5t-73.5 -28.5t-28.5 -73.5zM397 1638l111 256h242l-199 -256h-154z" />
<glyph unicode="&#x1fc;" horiz-adv-x="1531" d="M-25 0l566 1477h903v-199h-524v-410h495v-198h-495v-471h542v-199h-766v362h-344l-131 -362h-246zM414 551h282v737h-18zM864 1597l125 297h248l-219 -297h-154z" />
<glyph unicode="&#x1fd;" horiz-adv-x="1456" d="M63 283q0 162 70 233.5t207 108.5l174 45q57 14 76.5 44.5t19.5 108.5q0 166 -137 166q-100 0 -135 -57.5t-35 -155.5h-211q0 186 89 276.5t302 90.5q203 0 262 -144q84 139 273 144q199 0 280.5 -126t81.5 -372v-117h-557v-79q0 -315 164 -324q55 0 93 27.5t55.5 71.5 t23.5 80t6 69h211q0 -186 -104.5 -294t-286.5 -108q-78 2 -135 22.5t-90 57.5t-49.5 62.5t-30.5 60.5q-41 -98 -120 -150.5t-179 -52.5q-137 0 -227.5 78t-90.5 234zM287 291q0 -63 35.5 -108.5t95.5 -45.5q195 0 194 258v176q-20 -25 -161 -67q-102 -31 -133 -78t-31 -135z M664 1257l124 299h248l-219 -299h-153zM825 680h332v61q0 248 -162 248q-90 0 -130 -84t-40 -176v-49z" />
<glyph unicode="&#x1fe;" horiz-adv-x="1148" d="M86 739q0 395 118 580.5t371 185.5q141 0 238 -57l55 135l107 -51l-70 -158q158 -182 158 -635q0 -397 -117 -582.5t-371 -185.5q-141 0 -235 58l-59 -138l-105 52l68 159q-158 182 -158 637zM324 745q0 -246 32 -374h4l373 884q-55 72 -158 72q-59 0 -100 -22.5t-78 -81 t-55 -179.5t-18 -299zM420 221q51 -72 155 -71q57 0 98.5 22.5t79.5 83.5t56 183t18 306q0 227 -30 361h-4zM485 1597l125 297h248l-219 -297h-154z" />
<glyph unicode="&#x1ff;" horiz-adv-x="956" d="M63 557q0 283 93.5 434.5t320.5 151.5q115 0 193 -43l63 135l98 -53l-67 -146q129 -131 129 -479q0 -285 -94 -435.5t-322 -150.5q-115 0 -192 39l-64 -139l-98 55l72 152q-132 131 -132 479zM287 557q0 -145 14 -240h4l287 613q-45 47 -115 47q-76 0 -119 -57.5 t-57 -142.5t-14 -220zM367 182q39 -45 110 -45q115 0 154 105.5t39 314.5q0 162 -17 242h-4zM383 1257l123 299h250l-219 -299h-154z" />
<glyph unicode="&#x218;" horiz-adv-x="1073" d="M68 422v35h235v-37q0 -270 244 -270q102 0 162.5 63t60.5 152q0 109 -49 167t-154 93l-161 55q-164 57 -241 153.5t-77 253.5q0 199 125 308.5t336 109.5q106 0 187 -26.5t123 -64.5t68.5 -95t33 -102.5t6.5 -100.5v-33h-236v31q0 213 -207 213q-86 0 -142 -51t-56 -162 q0 -92 50 -149.5t171 -100.5l158 -57q158 -55 229.5 -146.5t71.5 -244.5q0 -444 -490 -445q-129 0 -222 40t-139 109.5t-66.5 143.5t-20.5 158zM436 -102h199v-179q0 -88 -45 -129t-133 -51v68q33 8 51 26.5t22 59.5h-94v205z" />
<glyph unicode="&#x219;" horiz-adv-x="880" d="M57 317v41h199v-34q0 -102 40 -150.5t134 -48.5q182 0 182 162q0 121 -123 164l-194 69q-117 41 -171 113t-54 203q0 154 100 230.5t281 76.5q193 0 270.5 -89t77.5 -216v-50h-211v29q0 172 -148 172q-160 0 -159 -145q0 -66 33.5 -99.5t123.5 -64.5l144 -49 q125 -43 183 -117t58 -203q0 -170 -110.5 -255t-288.5 -85q-201 0 -284 87t-83 259zM340 -102h199v-179q0 -88 -46.5 -129t-132.5 -51v68q33 8 50.5 26.5t21.5 59.5h-92v205z" />
<glyph unicode="&#x21a;" horiz-adv-x="956" d="M12 1278v199h934v-199h-346v-1278h-235v1278h-353zM383 -102h199v-179q0 -88 -46.5 -129t-132.5 -51v68q33 8 50.5 26.5t21.5 59.5h-92v205z" />
<glyph unicode="&#x21b;" horiz-adv-x="573" d="M8 948v164h154v318h223v-318h182v-164h-182v-665q0 -66 21.5 -91.5t78.5 -25.5q51 0 82 6v-166q-72 -18 -180 -18q-121 0 -173 54t-52 214v692h-154zM264 -102h199v-179q0 -88 -45 -129t-133 -51v68q35 8 52 26.5t21 59.5h-94v205z" />
<glyph unicode="&#x237;" d="M-49 -203h51q63 0 90 32t27 120v1163h223v-1184q0 -170 -70.5 -239.5t-224.5 -69.5q-47 0 -96 6v172z" />
<glyph unicode="&#x2c6;" d="M-68 1257l189 299h223l184 -299h-188l-113 183l-116 -183h-179z" />
<glyph unicode="&#x2c7;" d="M-68 1556h189l110 -182l119 182h178l-188 -299h-223z" />
<glyph unicode="&#x2c9;" d="M-61 1341v129h583v-129h-583z" />
<glyph unicode="&#x2d8;" d="M-45 1546h127q0 -45 41 -91t106.5 -46t106.5 46t41 91h127q0 -119 -74 -198.5t-201 -79.5t-200.5 79.5t-73.5 198.5z" />
<glyph unicode="&#x2d9;" d="M131 1294v224h199v-224h-199z" />
<glyph unicode="&#x2da;" d="M10 1440q0 92 63.5 153.5t157 61.5t156 -61.5t62.5 -153.5t-62.5 -153.5t-156 -61.5t-157 61.5t-63.5 153.5zM115 1440q0 -47 33.5 -82t80.5 -35t82 35t35 82t-35 81.5t-82 34.5t-80.5 -34.5t-33.5 -81.5z" />
<glyph unicode="&#x2db;" d="M47 -279q0 70 53.5 145t149.5 134h104q-145 -145 -145 -254q0 -51 28.5 -79.5t73.5 -28.5t101 24l20 -84q-72 -39 -164 -39q-98 0 -159.5 46t-61.5 136z" />
<glyph unicode="&#x2dc;" d="M-82 1280q0 88 52.5 168t150.5 80q41 0 118.5 -36t110.5 -36q63 0 64 78h129q0 -82 -49.5 -163t-128.5 -81q-49 0 -134.5 37t-113.5 37q-35 0 -53.5 -25.5t-18.5 -58.5h-127z" />
<glyph unicode="&#x2dd;" d="M-133 1257l125 299h248l-220 -299h-153zM260 1257l125 299h248l-219 -299h-154z" />
<glyph unicode="&#x374;" d="M96 1161l74 352h229l-145 -352h-158z" />
<glyph unicode="&#x375;" d="M49 -420l146 354h157l-73 -354h-230z" />
<glyph unicode="&#x37e;" horiz-adv-x="495" d="M131 0v272h236v-272q0 -133 -53.5 -213t-182.5 -106v120q102 27 102 168v31h-102zM131 786v273h236v-273h-236z" />
<glyph unicode="&#x384;" horiz-adv-x="358" d="M98 1257l54 299h229l-129 -299h-154z" />
<glyph unicode="&#x385;" d="M-145 1294v224h198v-224h-198zM98 1257l54 299h229l-129 -299h-154zM408 1294v224h198v-224h-198z" />
<glyph unicode="&#x386;" horiz-adv-x="1122" d="M8 1180l51 297h230l-127 -297h-154zM37 0l420 1477h303l389 -1477h-248l-90 362h-432l-96 -362h-246zM422 551h350l-170 727h-4z" />
<glyph unicode="&#x387;" horiz-adv-x="495" d="M131 786v273h236v-273h-236z" />
<glyph unicode="&#x388;" horiz-adv-x="1251" d="M8 1180l51 297h230l-127 -297h-154zM379 0v1477h799v-199h-564v-410h531v-198h-531v-471h580v-199h-815z" />
<glyph unicode="&#x389;" horiz-adv-x="1404" d="M8 1180l51 297h230l-127 -297h-154zM379 0v1477h235v-592h435v592h235v-1477h-235v686h-435v-686h-235z" />
<glyph unicode="&#x38a;" horiz-adv-x="724" d="M8 1180l51 297h230l-127 -297h-154zM379 0v1477h235v-1477h-235z" />
<glyph unicode="&#x38c;" horiz-adv-x="1341" d="M8 1180l51 297h230l-127 -297h-154zM279 738.5q0 396.5 116.5 581.5t371.5 185t371.5 -185t116.5 -581.5t-116.5 -582t-371.5 -185.5t-371.5 185.5t-116.5 582zM514 745q0 -184 19.5 -306t56.5 -183t78 -83.5t99 -22.5t99 22.5t79 83.5t56.5 183t18.5 306 q0 178 -18.5 299t-56.5 179.5t-79 81t-99 22.5t-99 -22.5t-78 -81t-56.5 -179.5t-19.5 -299z" />
<glyph unicode="&#x38e;" horiz-adv-x="1347" d="M8 1180l51 297h230l-127 -297h-154zM346 1477h262l248 -637l254 637h248l-395 -899v-578h-236v578z" />
<glyph unicode="&#x38f;" horiz-adv-x="1341" d="M8 1180l51 297h230l-127 -297h-154zM262 0v199h219v8q-203 227 -202 594q0 354 128 529t361 175q487 0 487 -704q0 -356 -198 -594v-8h223v-199h-434v195q98 98 136 251.5t38 380.5q0 500 -252 500q-119 0 -186.5 -111.5t-67.5 -388.5q0 -223 41 -376.5t141 -253.5v-197 h-434z" />
<glyph unicode="&#x390;" horiz-adv-x="475" d="M-129 1294v224h199v-224h-199zM111 215v897h223v-838q0 -66 9 -92t36 -26q29 0 70 16v-160q-66 -41 -146 -41q-192 0 -192 244zM117 1257l51 299h229l-129 -299h-151zM424 1294v224h199v-224h-199z" />
<glyph unicode="&#x391;" horiz-adv-x="1073" d="M-18 0l419 1477h301l390 -1477h-246l-90 362h-432l-97 -362h-245zM367 551h348l-168 727h-4z" />
<glyph unicode="&#x392;" horiz-adv-x="1110" d="M123 0v1477h477q178 0 287.5 -87t109.5 -272q0 -266 -217 -334v-4q127 -23 195.5 -110.5t68.5 -266.5q0 -186 -122.5 -294.5t-331.5 -108.5h-467zM358 178h234q217 0 217 260q0 119 -63.5 184.5t-167.5 65.5h-220v-510zM358 854h187q104 0 160.5 63.5t56.5 169.5 q0 123 -62.5 167t-175.5 44h-166v-444z" />
<glyph unicode="&#x393;" horiz-adv-x="880" d="M123 0v1477h745v-199h-510v-1278h-235z" />
<glyph unicode="&#x394;" horiz-adv-x="1073" d="M-14 0l415 1477h301l385 -1477h-1101zM285 199h506l-244 1079h-4z" />
<glyph unicode="&#x395;" horiz-adv-x="993" d="M123 0v1477h797v-199h-562v-410h529v-198h-529v-471h580v-199h-815z" />
<glyph unicode="&#x396;" horiz-adv-x="956" d="M37 0v186l618 1092h-581v199h839v-199l-618 -1079h625v-199h-883z" />
<glyph unicode="&#x397;" horiz-adv-x="1148" d="M123 0v1477h235v-592h435v592h235v-1477h-235v686h-435v-686h-235z" />
<glyph unicode="&#x398;" horiz-adv-x="1148" d="M86 738.5q0 396.5 118 581.5t371.5 185t370.5 -185t117 -581.5t-117 -582t-370.5 -185.5t-371.5 185.5t-118 582zM324 745q0 -184 18 -306t55 -183t78 -83.5t99.5 -22.5t99.5 22.5t79 83.5t56 183t18 306q0 178 -18 299t-56 179.5t-79 81t-99.5 22.5t-99.5 -22.5t-78 -81 t-55 -179.5t-18 -299zM401 684v170h351v-170h-351z" />
<glyph unicode="&#x399;" d="M113 0v1477h235v-1477h-235z" />
<glyph unicode="&#x39a;" horiz-adv-x="1073" d="M123 0v1477h235v-643h4l447 643h258l-426 -623l471 -854h-266l-359 664l-129 -187v-477h-235z" />
<glyph unicode="&#x39b;" horiz-adv-x="1073" d="M-18 0l419 1477h301l390 -1477h-246l-299 1278h-4l-316 -1278h-245z" />
<glyph unicode="&#x39c;" horiz-adv-x="1492" d="M123 0v1477h366l263 -1094h4l256 1094h360v-1477h-223v1229h-4l-299 -1229h-199l-297 1229h-4v-1229h-223z" />
<glyph unicode="&#x39d;" horiz-adv-x="1185" d="M123 0v1477h287l428 -1100h4v1100h223v-1477h-287l-428 1128h-4v-1128h-223z" />
<glyph unicode="&#x39e;" horiz-adv-x="864" d="M35 0v199h792v-199h-792zM35 1278v199h792v-199h-792zM127 682v199h606v-199h-606z" />
<glyph unicode="&#x39f;" horiz-adv-x="1148" d="M86 738.5q0 396.5 118 581.5t371.5 185t370.5 -185t117 -581.5t-117 -582t-370.5 -185.5t-371.5 185.5t-118 582zM324 745q0 -184 18 -306t55 -183t78 -83.5t99.5 -22.5t99.5 22.5t79 83.5t56 183t18 306q0 178 -18 299t-56 179.5t-79 81t-99.5 22.5t-99.5 -22.5t-78 -81 t-55 -179.5t-18 -299z" />
<glyph unicode="&#x3a0;" horiz-adv-x="1105" d="M96 0v1477h912v-1477h-236v1278h-438v-1278h-238z" />
<glyph unicode="&#x3a1;" horiz-adv-x="1034" d="M123 0v1477h467q205 0 306 -116t101 -314q0 -201 -113.5 -319t-318.5 -118h-207v-610h-235zM358 788h168q102 0 169 60.5t67 193.5q0 127 -59.5 191.5t-194.5 64.5h-150v-510z" />
<glyph unicode="&#x3a3;" horiz-adv-x="958" d="M39 0v178l397 588l-379 534v177h844v-199h-561l369 -506l-385 -573h604v-199h-889z" />
<glyph unicode="&#x3a4;" horiz-adv-x="956" d="M12 1278v199h934v-199h-346v-1278h-235v1278h-353z" />
<glyph unicode="&#x3a5;" horiz-adv-x="993" d="M-8 1477h262l248 -637l256 637h246l-396 -899v-578h-235v578z" />
<glyph unicode="&#x3a6;" horiz-adv-x="1310" d="M72 752q0 270 128 423.5t339 174.5v149h237v-149q217 -16 340 -168t123 -422t-123 -425t-340 -175v-160h-237v158q-219 18 -343 169t-124 425zM315 752q0 -367 224 -394v791q-109 -10 -166.5 -114.5t-57.5 -282.5zM774 358q225 25 225 402q0 365 -225 389v-791z" />
<glyph unicode="&#x3a7;" horiz-adv-x="1034" d="M0 0l389 752l-356 725h260l237 -490l232 490h254l-359 -725l377 -752h-260l-258 535l-262 -535h-254z" />
<glyph unicode="&#x3a8;" horiz-adv-x="1337" d="M102 905v572h238v-566q0 -375 209 -397v963h235v-963q215 25 215 397v566h236v-572q0 -535 -444 -577v-328h-242v326q-238 12 -342.5 153t-104.5 426z" />
<glyph unicode="&#x3a9;" horiz-adv-x="1148" d="M70 0v199h219v8q-203 227 -203 594q0 354 128 529t361 175q487 0 488 -704q0 -356 -199 -594v-8h223v-199h-434v195q98 98 136 251.5t38 380.5q0 500 -252 500q-119 0 -185 -111.5t-66 -388.5q0 -223 39.5 -376.5t140.5 -253.5v-197h-434z" />
<glyph unicode="&#x3aa;" d="M-41 1634v224h199v-224h-199zM113 0v1477h235v-1477h-235zM301 1634v224h199v-224h-199z" />
<glyph unicode="&#x3ab;" horiz-adv-x="993" d="M-8 1477h262l248 -637l256 637h246l-396 -899v-578h-235v578zM236 1634v224h198v-224h-198zM580 1634v224h198v-224h-198z" />
<glyph unicode="&#x3ac;" horiz-adv-x="1009" d="M63 556q0 294 83 440.5t262 146.5q82 0 146 -47t91 -113h4v129h223v-836v-20q0 -39 1 -55.5t11.5 -31.5t32 -15t70.5 16v-160q-70 -39 -139 -39q-74 0 -122 46t-64 120h-5q-53 -166 -243 -166q-186 0 -268.5 145.5t-82.5 439.5zM297 555q0 -406 172 -405q102 0 147.5 88 t45.5 311q0 229 -45.5 322.5t-147.5 93.5q-172 0 -172 -410zM387 1257l51 299h230l-127 -299h-154z" />
<glyph unicode="&#x3ad;" horiz-adv-x="856" d="M63 319q0 88 43.5 160t114.5 109v6q-135 63 -135 227q0 150 99.5 236t252.5 86q168 0 261.5 -82t101.5 -242h-219q-12 160 -144 160q-61 0 -100 -42t-39 -118q0 -154 123 -153h117v-158h-127q-59 0 -92 -50t-33 -126q0 -197 151 -197q74 0 112 50.5t48 162.5h221 q-10 -182 -109.5 -279.5t-281.5 -97.5q-172 0 -268.5 91t-96.5 257zM354 1257l52 299h229l-129 -299h-152z" />
<glyph unicode="&#x3ae;" horiz-adv-x="993" d="M109 0v1112h210v-129h7q41 74 115.5 117t168.5 43q135 0 206 -71t71 -232v-1205h-223v1129q0 111 -34 156t-122 45q-74 0 -125 -56.5t-51 -160.5v-748h-223zM424 1257l51 299h230l-127 -299h-154z" />
<glyph unicode="&#x3af;" horiz-adv-x="475" d="M111 215v897h223v-838q0 -66 9 -92t36 -26q29 0 70 16v-160q-66 -41 -146 -41q-192 0 -192 244zM133 1257l51 299h230l-129 -299h-152z" />
<glyph unicode="&#x3b0;" horiz-adv-x="937" d="M74 1294v224h198v-224h-198zM98 362v750h226v-764q0 -109 33.5 -160t107.5 -51q96 0 134 99.5t38 330.5q0 127 -21.5 284t-62.5 261h225q84 -205 84 -541t-94 -468t-324 -132q-180 0 -263 86t-83 305zM319 1257l52 299h229l-129 -299h-152zM627 1294v224h198v-224h-198z " />
<glyph unicode="&#x3b1;" horiz-adv-x="1009" d="M63 556q0 294 83 440.5t262 146.5q82 0 146 -47t91 -113h4v129h223v-836v-20q0 -39 1 -55.5t11.5 -31.5t32 -15t70.5 16v-160q-70 -39 -139 -39q-74 0 -122 46t-64 120h-5q-53 -166 -243 -166q-186 0 -268.5 145.5t-82.5 439.5zM297 555q0 -406 172 -405q102 0 147.5 88 t45.5 311q0 229 -45.5 322.5t-147.5 93.5q-172 0 -172 -410z" />
<glyph unicode="&#x3b2;" horiz-adv-x="991" d="M109 -365v1428q0 461 376 461q170 0 267.5 -92.5t97.5 -268.5q0 -211 -145 -276v-4q117 -31 170 -148t53 -270q0 -238 -99.5 -366t-257.5 -128q-186 0 -247 166h-5v-502h-210zM319 559q0 -229 45.5 -319t141.5 -90q186 0 186 313q0 158 -38 225.5t-117 67.5h-99v162h56 q129 0 129 247q0 193 -140 193q-90 0 -127 -73t-37 -247v-479z" />
<glyph unicode="&#x3b3;" horiz-adv-x="833" d="M12 1112h236q100 -231 180 -833q31 41 82 355t61 478h236q-37 -336 -125 -640t-186 -490l4 -347h-228v265q0 225 -85 610t-175 602z" />
<glyph unicode="&#x3b4;" horiz-adv-x="944" d="M63 514q0 182 75 313t216 181q-164 143 -159 282q2 92 77.5 163t233.5 71q170 0 274 -72v-203q-152 100 -266 101q-96 0 -96 -82q0 -35 25.5 -71t97.5 -99l59 -51q137 -119 209 -242t72 -295q0 -238 -96.5 -388.5t-303.5 -150.5q-213 0 -315.5 144.5t-102.5 398.5z M287 514q0 -186 42 -281.5t146 -95.5t144 92.5t40 280.5q0 123 -46 215t-162 188q-164 -65 -164 -399z" />
<glyph unicode="&#x3b5;" horiz-adv-x="856" d="M63 319q0 88 43.5 160t114.5 109v6q-135 63 -135 227q0 150 99.5 236t252.5 86q168 0 261.5 -82t101.5 -242h-219q-12 160 -144 160q-61 0 -100 -42t-39 -118q0 -154 123 -153h117v-158h-127q-59 0 -92 -50t-33 -126q0 -197 151 -197q74 0 112 50.5t48 162.5h221 q-10 -182 -109.5 -279.5t-281.5 -97.5q-172 0 -268.5 91t-96.5 257z" />
<glyph unicode="&#x3b6;" horiz-adv-x="733" d="M72 543q0 266 84 433t325 312h-338v189h615v-177q-197 -125 -297.5 -236.5t-133 -224t-32.5 -290.5q0 -391 199 -391q109 0 175 -64.5t66 -177.5q0 -82 -22 -182h-211q20 104 20 160q0 106 -88 106q-168 0 -265 144.5t-97 398.5z" />
<glyph unicode="&#x3b7;" horiz-adv-x="993" d="M109 0v1112h210v-129h7q41 74 115.5 117t168.5 43q135 0 206 -71t71 -232v-1205h-223v1129q0 111 -34 156t-122 45q-74 0 -125 -56.5t-51 -160.5v-748h-223z" />
<glyph unicode="&#x3b8;" horiz-adv-x="948" d="M63 764q0 383 94.5 571.5t321.5 188.5q223 0 314.5 -184.5t91.5 -575.5q0 -410 -95.5 -601.5t-310.5 -191.5q-217 0 -316.5 195t-99.5 598zM299 700q4 -295 46 -429t134 -134t131 128t39 435h-350zM299 856h350q-4 258 -44 381t-126 123q-90 0 -133 -124t-47 -380z" />
<glyph unicode="&#x3b9;" horiz-adv-x="475" d="M111 215v897h223v-838q0 -66 9 -92t36 -26q29 0 70 16v-160q-66 -41 -146 -41q-192 0 -192 244z" />
<glyph unicode="&#x3ba;" horiz-adv-x="956" d="M109 0v1112h223v-465h4l336 465h258l-334 -428l379 -684h-244l-274 506l-125 -152v-354h-223z" />
<glyph unicode="&#x3bb;" horiz-adv-x="913" d="M12 0l355 1020l-48 190q-20 76 -42.5 107t-59.5 31q-25 0 -94 -23v164q70 35 149 35q106 0 161.5 -57.5t98.5 -231.5l205 -856q31 -131 54.5 -177t56.5 -46q18 0 59 14v-160q-74 -39 -137 -39q-80 0 -125 60.5t-74 189.5l-120 506h-5l-194 -727h-240z" />
<glyph unicode="&#x3bc;" horiz-adv-x="993" d="M109 -365v1477h223v-797q0 -166 141 -165q80 0 135.5 52t55.5 144v766h223v-1112h-211v131h-6q-98 -160 -236 -160q-63 0 -102 33v-369h-223z" />
<glyph unicode="&#x3bd;" horiz-adv-x="854" d="M12 1112h244l172 -872q39 96 99.5 384.5t72.5 487.5h231q-57 -506 -290 -1112h-248z" />
<glyph unicode="&#x3be;" horiz-adv-x="735" d="M76 412q0 162 45 266t164 158q-80 27 -128 99.5t-48 176.5q0 197 97 304.5t265 107.5q139 0 231 -51v-193q-117 68 -205.5 68t-126.5 -69t-38 -171q0 -215 176 -215h164v-199h-166q-104 0 -155.5 -65.5t-51.5 -208.5q0 -145 50 -195.5t171 -58.5q104 -8 147.5 -70.5 t43.5 -173.5q0 -100 -21 -188h-205q18 104 19 155q0 70 -15.5 90.5t-82.5 20.5q-158 0 -244 112t-86 300z" />
<glyph unicode="&#x3bf;" horiz-adv-x="946" d="M63 557q0 283 93.5 434.5t321 151.5t321.5 -151.5t94 -434.5q0 -586 -416 -586q-414 0 -414 586zM287 557q0 -227 39 -323.5t151 -96.5q117 0 155 96.5t38 323.5q0 209 -39 314.5t-154 105.5q-76 0 -119 -57.5t-57 -142.5t-14 -220z" />
<glyph unicode="&#x3c0;" horiz-adv-x="1183" d="M25 924v188h1101v-188h-176v-641q0 -68 12.5 -95.5t49.5 -27.5q29 0 84 20v-172q-70 -37 -156 -37q-102 0 -160.5 60.5t-58.5 181.5v711h-287v-924h-227v924h-182z" />
<glyph unicode="&#x3c1;" horiz-adv-x="991" d="M96 -365v918q0 135 20.5 236.5t65.5 184.5t128 126t202 43q117 0 199 -43t126 -122t63.5 -176t19.5 -222q0 -608 -351 -609q-68 0 -137.5 34t-105.5 126h-4v-496h-226zM307 555q0 -205 41 -305t154 -100q102 0 142 101t40 320q0 195 -40 294.5t-146 99.5t-148.5 -98.5 t-42.5 -311.5z" />
<glyph unicode="&#x3c2;" horiz-adv-x="860" d="M63 543q0 135 18.5 236.5t63.5 187.5t131 131t209 45q160 0 257.5 -81t111.5 -241h-223q-16 156 -152 156q-104 0 -147 -106.5t-43 -327.5q0 -203 59.5 -288t175.5 -85h31q219 0 219 -242q0 -84 -22 -194h-203q16 109 16 174q0 33 -3 48t-17.5 29.5t-44.5 14.5 q-437 0 -437 543z" />
<glyph unicode="&#x3c3;" horiz-adv-x="966" d="M63 535q0 266 122 421.5t339 155.5h418v-190h-182q133 -117 133 -387q0 -563 -418 -564q-412 1 -412 564zM289 535q0 -213 42 -305.5t144 -92.5q115 0 155 92.5t40 305.5q0 287 -76 389h-78q-227 0 -227 -389z" />
<glyph unicode="&#x3c4;" horiz-adv-x="790" d="M18 924v188h754v-188h-276v-641q0 -68 13 -95.5t50 -27.5q39 0 94 22v-172q-72 -39 -168 -39q-100 0 -158.5 60.5t-58.5 181.5v711h-250z" />
<glyph unicode="&#x3c5;" horiz-adv-x="937" d="M98 362v750h226v-764q0 -109 33.5 -160t107.5 -51q96 0 134 99.5t38 330.5q0 127 -21.5 284t-62.5 261h225q84 -205 84 -541t-94 -468t-324 -132q-180 0 -263 86t-83 305z" />
<glyph unicode="&#x3c6;" horiz-adv-x="1230" d="M68 545q0 274 109.5 424.5t326.5 160.5v246h225v-246q217 -10 331 -161.5t114 -423.5q0 -285 -118 -423t-325 -147v-340h-229v340q-434 21 -434 570zM291 545q0 -199 50 -300.5t163 -109.5v842q-121 -6 -167 -117.5t-46 -314.5zM729 135q113 8 162 109.5t49 300.5 q0 422 -211 432v-842z" />
<glyph unicode="&#x3c7;" horiz-adv-x="763" d="M-29 -365l289 746l-260 731h236l155 -494l150 494h237l-270 -729l287 -748h-238l-172 502l-170 -502h-244z" />
<glyph unicode="&#x3c8;" horiz-adv-x="1218" d="M109 504v608h223v-598q0 -80 6 -137.5t21.5 -113.5t50 -86t86.5 -32v1229h223v-1229q100 6 151.5 120t51.5 313q0 121 -21.5 276.5t-64.5 257.5h225q86 -209 86 -541q0 -272 -121 -423.5t-309 -172.5v-340h-221v342q-203 14 -295 139.5t-92 387.5z" />
<glyph unicode="&#x3c9;" horiz-adv-x="1294" d="M76 487q0 381 135 625h227q-139 -236 -139 -610q0 -152 35 -257.5t96 -105.5q104 0 105 242v471h223v-471q0 -242 100 -242q63 0 100 106.5t37 260.5q0 365 -139 606h227q135 -238 136 -620q0 -229 -99.5 -375t-242.5 -146q-180 0 -236 160q-35 -86 -86 -123t-149 -37 q-147 0 -238.5 142.5t-91.5 373.5z" />
<glyph unicode="&#x3ca;" horiz-adv-x="475" d="M-47 1294v224h199v-224h-199zM111 215v897h223v-838q0 -66 9 -92t36 -26q29 0 70 16v-160q-66 -41 -146 -41q-192 0 -192 244zM295 1294v224h199v-224h-199z" />
<glyph unicode="&#x3cb;" horiz-adv-x="937" d="M98 362v750h226v-764q0 -109 33.5 -160t107.5 -51q96 0 134 99.5t38 330.5q0 127 -21.5 284t-62.5 261h225q84 -205 84 -541t-94 -468t-324 -132q-180 0 -263 86t-83 305zM162 1294v224h198v-224h-198zM504 1294v224h198v-224h-198z" />
<glyph unicode="&#x3cc;" horiz-adv-x="946" d="M63 557q0 283 93.5 434.5t321 151.5t321.5 -151.5t94 -434.5q0 -586 -416 -586q-414 0 -414 586zM287 557q0 -227 39 -323.5t151 -96.5q117 0 155 96.5t38 323.5q0 209 -39 314.5t-154 105.5q-76 0 -119 -57.5t-57 -142.5t-14 -220zM385 1257l51 299h230l-127 -299h-154z " />
<glyph unicode="&#x3cd;" horiz-adv-x="937" d="M98 362v750h226v-764q0 -109 33.5 -160t107.5 -51q96 0 134 99.5t38 330.5q0 127 -21.5 284t-62.5 261h225q84 -205 84 -541t-94 -468t-324 -132q-180 0 -263 86t-83 305zM360 1257l52 299h229l-129 -299h-152z" />
<glyph unicode="&#x3ce;" horiz-adv-x="1294" d="M76 487q0 381 135 625h227q-139 -236 -139 -610q0 -152 35 -257.5t96 -105.5q104 0 105 242v471h223v-471q0 -242 100 -242q63 0 100 106.5t37 260.5q0 365 -139 606h227q135 -238 136 -620q0 -229 -99.5 -375t-242.5 -146q-180 0 -236 160q-35 -86 -86 -123t-149 -37 q-147 0 -238.5 142.5t-91.5 373.5zM565 1257l51 299h230l-129 -299h-152z" />
<glyph unicode="&#x400;" horiz-adv-x="993" d="M123 0v1477h797v-199h-562v-410h529v-198h-529v-471h580v-199h-815zM233 1894h248l125 -297h-153z" />
<glyph unicode="&#x401;" horiz-adv-x="993" d="M123 0v1477h797v-199h-562v-410h529v-198h-529v-471h580v-199h-815zM246 1634v224h198v-224h-198zM590 1634v224h198v-224h-198z" />
<glyph unicode="&#x402;" horiz-adv-x="1347" d="M12 1278v199h975v-199h-409v-481q104 139 296 139q197 0 300.5 -129t103.5 -416q0 -362 -131 -521t-399 -159v193q156 0 223 108.5t67 378.5q0 199 -54 282t-163 83q-121 0 -182 -91.5t-61 -230.5v-434h-236v1278h-330z" />
<glyph unicode="&#x403;" horiz-adv-x="880" d="M129 0v1477h745v-199h-509v-1278h-236zM367 1597l122 297h250l-219 -297h-153z" />
<glyph unicode="&#x404;" horiz-adv-x="1073" d="M86 729q0 399 104.5 587.5t380.5 188.5q233 0 339 -114.5t110 -341.5h-229q-6 279 -220 278q-139 0 -191 -111.5t-58 -349.5h411v-194h-411q4 -281 58 -401.5t195 -120.5q217 0 224 339h231q-14 -518 -465 -518q-141 0 -236.5 49.5t-146.5 150.5t-73.5 234.5t-22.5 323.5 z" />
<glyph unicode="&#x405;" horiz-adv-x="1073" d="M68 422v35h235v-37q0 -270 244 -270q102 0 162.5 63t60.5 152q0 109 -49 167t-154 93l-161 55q-164 57 -241 153.5t-77 253.5q0 199 125 308.5t336 109.5q106 0 187 -26.5t123 -64.5t68.5 -95t33 -102.5t6.5 -100.5v-33h-236v31q0 213 -207 213q-86 0 -142 -51t-56 -162 q0 -92 50 -149.5t171 -100.5l158 -57q158 -55 229.5 -146.5t71.5 -244.5q0 -444 -490 -445q-129 0 -222 40t-139 109.5t-66.5 143.5t-20.5 158z" />
<glyph unicode="&#x406;" d="M113 0v1477h235v-1477h-235z" />
<glyph unicode="&#x407;" d="M-41 1634v224h199v-224h-199zM113 0v1477h235v-1477h-235zM301 1634v224h199v-224h-199z" />
<glyph unicode="&#x408;" horiz-adv-x="917" d="M33 360v84h223v-71q0 -106 34 -164.5t124 -58.5q45 0 76.5 17t47 39.5t23.5 70t9 77t1 88.5v1035h236v-1069q0 -436 -397 -437q-377 0 -377 389z" />
<glyph unicode="&#x409;" horiz-adv-x="1734" d="M4 -14v182q45 -10 72 -10q57 0 87 25.5t47 105.5t21 237l25 951h772v-584h174q471 0 471 -440q0 -229 -121.5 -341t-347.5 -112h-411v1278h-308l-22 -766q-10 -293 -86 -417t-252 -124q-60 1 -121 15zM1028 182h143q135 0 199 64.5t64 206.5q0 139 -69 198.5t-198 59.5 h-139v-529z" />
<glyph unicode="&#x40a;" horiz-adv-x="1734" d="M123 0v1477h235v-584h435v584h235v-584h174q471 0 471 -440q0 -229 -121.5 -341t-347.5 -112h-411v707h-435v-707h-235zM1028 182h143q135 0 199 64.5t64 206.5q0 139 -69 198.5t-198 59.5h-139v-529z" />
<glyph unicode="&#x40b;" horiz-adv-x="1318" d="M12 1278v199h975v-199h-409v-393q129 35 233 35q410 0 410 -400v-520h-236v506q0 119 -55.5 171t-159.5 52q-70 0 -192 -29v-700h-236v1278h-330z" />
<glyph unicode="&#x40c;" horiz-adv-x="1073" d="M123 0v1477h235v-643h4l447 643h258l-426 -623l471 -854h-266l-359 664l-129 -187v-477h-235zM449 1597l124 297h248l-219 -297h-153z" />
<glyph unicode="&#x40d;" horiz-adv-x="1171" d="M123 0v1477h235v-756q0 -233 -6 -334h6q25 78 144 385l282 705h267v-1477h-236v750q0 129 6 340h-6l-88 -234l-338 -856h-266zM303 1894h250l123 -297h-152z" />
<glyph unicode="&#x40e;" horiz-adv-x="1015" d="M-8 1477h262l172 -476q84 -236 102 -337h7q18 88 108 366l141 447h248l-403 -1153q-68 -197 -144.5 -275t-244.5 -78q-45 0 -113 9v180q53 -8 88 -8q119 0 164 124l41 117zM250 1886h129q0 -45 40 -92t106.5 -47t106.5 47t40 92h129q0 -119 -75 -198.5t-201 -79.5 t-200.5 79.5t-74.5 198.5z" />
<glyph unicode="&#x40f;" horiz-adv-x="1148" d="M123 0v1477h235v-1278h435v1278h235v-1477h-340v-354h-227v354h-338z" />
<glyph unicode="&#x410;" horiz-adv-x="1073" d="M-18 0l419 1477h301l390 -1477h-246l-90 362h-432l-97 -362h-245zM367 551h348l-168 727h-4z" />
<glyph unicode="&#x411;" horiz-adv-x="1097" d="M123 0v1477h807v-199h-572v-385h201q471 0 471 -440q0 -229 -122 -341t-347 -112h-438zM358 182h170q133 0 198 64.5t65 206.5q0 139 -69 198.5t-198 59.5h-166v-529z" />
<glyph unicode="&#x412;" horiz-adv-x="1110" d="M123 0v1477h477q178 0 287.5 -87t109.5 -272q0 -266 -217 -334v-4q127 -23 195.5 -110.5t68.5 -266.5q0 -186 -122.5 -294.5t-331.5 -108.5h-467zM358 178h234q217 0 217 260q0 119 -63.5 184.5t-167.5 65.5h-220v-510zM358 854h187q104 0 160.5 63.5t56.5 169.5 q0 123 -62.5 167t-175.5 44h-166v-444z" />
<glyph unicode="&#x413;" horiz-adv-x="880" d="M123 0v1477h745v-199h-510v-1278h-235z" />
<glyph unicode="&#x414;" horiz-adv-x="1198" d="M0 199h113q193 358 192 907v371h739v-1278h144v-553h-227v354h-734v-354h-227v553zM365 199h444v1079h-274v-213q0 -285 -38 -478t-132 -388z" />
<glyph unicode="&#x415;" horiz-adv-x="993" d="M123 0v1477h797v-199h-562v-410h529v-198h-529v-471h580v-199h-815z" />
<glyph unicode="&#x416;" horiz-adv-x="1613" d="M-23 0l435 874l-387 603h262l280 -461q61 -102 125 -230q-4 47 -4 207v484h236v-486q0 -166 -4 -213q63 125 131 236l278 463h260l-387 -598l436 -879h-268l-315 682l-131 -209v-473h-236v469l-129 211l-317 -680h-265z" />
<glyph unicode="&#x417;" horiz-adv-x="1054" d="M57 442h232q0 -297 231 -297q219 0 219 261q0 145 -63.5 206.5t-202.5 61.5h-86v190h57q135 0 196.5 55.5t61.5 192.5q0 104 -49 161.5t-145 57.5q-197 0 -197 -246h-231q0 207 110.5 313.5t323.5 106.5t318.5 -102.5t105.5 -282.5q0 -121 -59.5 -209t-171.5 -125 q129 -25 200.5 -120t71.5 -246q0 -217 -119 -333t-344 -116q-231 0 -345 114.5t-114 356.5z" />
<glyph unicode="&#x418;" horiz-adv-x="1171" d="M123 0v1477h235v-756q0 -233 -6 -334h6q25 78 144 385l282 705h267v-1477h-236v750q0 129 6 340h-6l-88 -234l-338 -856h-266z" />
<glyph unicode="&#x419;" horiz-adv-x="1171" d="M123 0v1477h235v-756q0 -233 -6 -334h6q25 78 144 385l282 705h267v-1477h-236v750q0 129 6 340h-6l-88 -234l-338 -856h-266zM313 1886h127q0 -45 41 -92t106.5 -47t106.5 47t41 92h127q0 -119 -74.5 -198.5t-200.5 -79.5t-200 79.5t-74 198.5z" />
<glyph unicode="&#x41a;" horiz-adv-x="1073" d="M123 0v1477h235v-643h4l447 643h258l-426 -623l471 -854h-266l-359 664l-129 -187v-477h-235z" />
<glyph unicode="&#x41b;" horiz-adv-x="1148" d="M4 -14v182q45 -10 72 -10q57 0 87 25.5t47 105.5t21 237l25 951h772v-1477h-235v1278h-308l-22 -766q-10 -293 -86 -417t-252 -124q-60 1 -121 15z" />
<glyph unicode="&#x41c;" horiz-adv-x="1492" d="M123 0v1477h366l263 -1094h4l256 1094h360v-1477h-223v1229h-4l-299 -1229h-199l-297 1229h-4v-1229h-223z" />
<glyph unicode="&#x41d;" horiz-adv-x="1148" d="M123 0v1477h235v-592h435v592h235v-1477h-235v686h-435v-686h-235z" />
<glyph unicode="&#x41e;" horiz-adv-x="1148" d="M86 738.5q0 396.5 118 581.5t371.5 185t370.5 -185t117 -581.5t-117 -582t-370.5 -185.5t-371.5 185.5t-118 582zM324 745q0 -184 18 -306t55 -183t78 -83.5t99.5 -22.5t99.5 22.5t79 83.5t56 183t18 306q0 178 -18 299t-56 179.5t-79 81t-99.5 22.5t-99.5 -22.5t-78 -81 t-55 -179.5t-18 -299z" />
<glyph unicode="&#x41f;" horiz-adv-x="1148" d="M123 0v1477h905v-1477h-235v1278h-435v-1278h-235z" />
<glyph unicode="&#x420;" horiz-adv-x="1034" d="M123 0v1477h467q205 0 306 -116t101 -314q0 -201 -113.5 -319t-318.5 -118h-207v-610h-235zM358 788h168q102 0 169 60.5t67 193.5q0 127 -59.5 191.5t-194.5 64.5h-150v-510z" />
<glyph unicode="&#x421;" horiz-adv-x="1073" d="M86 739.5q0 407.5 108.5 586.5t383.5 179q444 0 444 -463v-26h-236v24q0 287 -208 287q-94 0 -146.5 -46t-80 -173t-27.5 -363.5t27.5 -366.5t78.5 -179t145 -49q219 0 220 354v26h235v-32q0 -104 -23.5 -194.5t-73.5 -168.5t-142.5 -121t-215.5 -43q-274 0 -381.5 180.5 t-107.5 588z" />
<glyph unicode="&#x422;" horiz-adv-x="956" d="M12 1278v199h934v-199h-346v-1278h-235v1278h-353z" />
<glyph unicode="&#x423;" horiz-adv-x="1015" d="M-8 1477h262l172 -476q84 -236 102 -337h7q18 88 108 366l141 447h248l-403 -1153q-68 -197 -144.5 -275t-244.5 -78q-45 0 -113 9v180q53 -8 88 -8q119 0 164 124l41 117z" />
<glyph unicode="&#x424;" horiz-adv-x="1529" d="M78 745q0 244 147.5 408t421.5 170v154h236v-154q285 -2 427 -168t142 -418q0 -246 -146.5 -409.5t-422.5 -169.5v-158h-236v158q-283 2 -426 167.5t-143 419.5zM315 745q0 -197 86 -296t250 -103v793q-160 -6 -248 -102.5t-88 -291.5zM879 344q160 4 249 101.5t89 291.5 q0 197 -87.5 295t-250.5 103v-791z" />
<glyph unicode="&#x425;" horiz-adv-x="1034" d="M0 0l389 752l-356 725h260l237 -490l232 490h254l-359 -725l377 -752h-260l-258 535l-262 -535h-254z" />
<glyph unicode="&#x426;" horiz-adv-x="1181" d="M123 0v1477h235v-1278h435v1278h235v-1278h143v-553h-227v354h-821z" />
<glyph unicode="&#x427;" horiz-adv-x="1099" d="M94 987v490h238v-480q0 -119 53 -169t162 -50q80 0 196 25v674h236v-1477h-236v616q-121 -31 -239 -30q-410 0 -410 401z" />
<glyph unicode="&#x428;" horiz-adv-x="1703" d="M123 0v1477h235v-1278h377v1278h236v-1278h377v1278h235v-1477h-1460z" />
<glyph unicode="&#x429;" horiz-adv-x="1736" d="M123 0v1477h235v-1278h377v1278h236v-1278h377v1278h235v-1278h141v-553h-227v354h-1374z" />
<glyph unicode="&#x42a;" horiz-adv-x="1286" d="M12 1278v199h561v-584h181q471 0 471 -440q0 -229 -122 -341t-347 -112h-418v1278h-326zM573 182h148q135 0 199.5 64.5t64.5 206.5q0 139 -68.5 198.5t-199.5 59.5h-144v-529z" />
<glyph unicode="&#x42b;" horiz-adv-x="1515" d="M123 0v1477h235v-584h181q471 0 471 -440q0 -229 -122 -341t-347 -112h-418zM358 182h148q135 0 199.5 64.5t64.5 206.5q0 139 -68.5 198.5t-199.5 59.5h-144v-529zM1159 0v1477h236v-1477h-236z" />
<glyph unicode="&#x42c;" horiz-adv-x="1071" d="M123 0v1477h235v-584h181q471 0 471 -440q0 -229 -122 -341t-347 -112h-418zM358 182h148q135 0 199.5 64.5t64.5 206.5q0 139 -68.5 198.5t-199.5 59.5h-144v-529z" />
<glyph unicode="&#x42d;" horiz-adv-x="1073" d="M43 489h231q6 -340 230 -339q137 0 191.5 115.5t58.5 406.5h-412v194h412q-4 244 -56.5 352.5t-185.5 108.5q-215 0 -227 -278h-230q10 227 120 341.5t339 114.5q270 0 371.5 -180t101.5 -596q0 -387 -108.5 -572.5t-380.5 -185.5q-242 0 -345.5 137t-109.5 381z" />
<glyph unicode="&#x42e;" horiz-adv-x="1599" d="M123 0v1477h235v-607h187q18 328 135 481.5t348 153.5q252 0 368.5 -185t116.5 -581.5t-116.5 -582t-368.5 -185.5q-242 0 -358.5 171t-126.5 534h-185v-676h-235zM774 745q0 -184 18.5 -306t54.5 -183t79 -83.5t102 -22.5q57 0 98 22.5t78 83.5t55.5 183t18.5 306 q0 143 -13.5 250t-34 170.5t-54 100.5t-68.5 49t-80 12q-47 0 -83 -12t-69.5 -49t-54 -100.5t-34 -170.5t-13.5 -250z" />
<glyph unicode="&#x42f;" horiz-adv-x="1103" d="M25 0l342 625q-135 37 -210 143t-75 272q0 211 121 324t332 113h448v-1477h-235v602h-152l-307 -602h-264zM319 1040q0 -260 252 -260h177v516h-197q-113 0 -172.5 -69.5t-59.5 -186.5z" />
<glyph unicode="&#x430;" horiz-adv-x="956" d="M63 283q0 172 70 244.5t221 113.5l142 39q72 18 101.5 48t29.5 95q0 80 -34 123t-120 43q-100 0 -135 -57.5t-35 -155.5h-211q0 186 89 276.5t302 90.5q160 0 257.5 -66.5t97.5 -208.5v-637q0 -31 16 -54t41 -23t39 6v-146q-51 -27 -111 -26q-180 0 -188 147h-4 q-88 -164 -277 -164q-291 1 -291 312zM287 303q0 -74 36.5 -120t102.5 -46q100 0 150.5 68.5t50.5 195.5v187q-47 -31 -144 -64l-71 -26q-125 -43 -125 -195z" />
<glyph unicode="&#x431;" horiz-adv-x="968" d="M80 616q0 377 89 551t304 222l96 20q59 12 82 25.5t31 42.5h172q-6 -94 -52 -142.5t-147 -68.5l-98 -21q-150 -31 -222.5 -111.5t-105.5 -261.5h7q55 125 132.5 175.5t190.5 50.5q346 0 346 -563t-416 -564q-221 0 -315 153.5t-94 491.5zM299 535q0 -223 43 -313.5 t147 -90.5q109 0 151 88t42 316q0 209 -39 307t-154 98q-76 0 -118.5 -56.5t-57 -139t-14.5 -209.5z" />
<glyph unicode="&#x432;" horiz-adv-x="956" d="M109 0v1112h407q338 0 338 -285q0 -88 -47 -150.5t-131 -86.5q213 -45 213 -262q0 -328 -359 -328h-421zM328 160h166q92 0 134 39t42 129q0 92 -45 134t-142 42h-155v-344zM328 655h135q92 0 135 35t43 113q0 76 -38 113.5t-128 37.5h-147v-299z" />
<glyph unicode="&#x433;" horiz-adv-x="743" d="M109 0v1112h624v-188h-401v-924h-223z" />
<glyph unicode="&#x434;" horiz-adv-x="1034" d="M12 184h99q121 252 120 676v252h660v-928h131v-481h-213v297h-584v-297h-213v481zM340 184h328v750h-222v-109q0 -389 -106 -641z" />
<glyph unicode="&#x435;" horiz-adv-x="956" d="M76 541q0 602 411 602q221 0 307.5 -125t86.5 -373v-117h-582v-65q0 -66 7 -118t24.5 -106.5t56.5 -84t98 -29.5q57 0 95 27.5t54.5 71.5t23 80t6.5 69h210q0 -188 -104 -295t-287 -107q-63 0 -112 9.5t-107.5 43t-96.5 93t-64.5 167t-26.5 257.5zM299 680h358v61 q0 248 -172 248q-96 0 -141 -82t-45 -205v-22z" />
<glyph unicode="&#x436;" horiz-adv-x="1409" d="M-14 0l354 672l-299 440h246l182 -291q88 -139 129 -225q-4 74 -4 168v348h223v-352q0 -96 -4 -170q35 74 131 227l178 295h246l-297 -436l354 -676h-249l-238 496l-121 -181v-315h-223v313l-123 181l-240 -494h-245z" />
<glyph unicode="&#x437;" horiz-adv-x="888" d="M49 362h205q0 -227 180 -227q78 0 122 46t44 136q0 98 -44 142.5t-140 44.5h-78v158h63q84 0 129 36.5t45 124.5q0 156 -137 156q-154 0 -153 -188h-205q0 172 92 262t268 90q174 0 264.5 -81t90.5 -222q0 -190 -183 -246q98 -18 154.5 -89t56.5 -181 q0 -166 -102.5 -259.5t-295 -93.5t-284.5 95t-92 296z" />
<glyph unicode="&#x438;" horiz-adv-x="1026" d="M109 0v1112h215v-569q0 -164 -11 -254h6q35 90 87 207l262 616h252v-1112h-215v571q0 188 4 248h-7q-18 -55 -69 -180l-273 -639h-251z" />
<glyph unicode="&#x439;" horiz-adv-x="1026" d="M109 0v1112h215v-569q0 -164 -11 -254h6q35 90 87 207l262 616h252v-1112h-215v571q0 188 4 248h-7q-18 -55 -69 -180l-273 -639h-251zM240 1546h129q0 -45 40 -91t106.5 -46t106.5 46t40 91h129q0 -119 -75 -198.5t-201 -79.5t-200.5 79.5t-74.5 198.5z" />
<glyph unicode="&#x43a;" horiz-adv-x="956" d="M109 0v1112h223v-465h4l336 465h258l-334 -428l379 -684h-244l-274 506l-125 -152v-354h-223z" />
<glyph unicode="&#x43b;" horiz-adv-x="993" d="M0 -12v170q39 -8 66 -8q57 0 85.5 54t32.5 202l19 706h684v-1112h-223v934h-248l-15 -547q-6 -238 -79.5 -327t-198.5 -89q-62 1 -123 17z" />
<glyph unicode="&#x43c;" horiz-adv-x="1284" d="M109 0v1112h327l139 -571q59 -250 66 -287h6q4 33 66 287l139 571h326v-1112h-213v641q0 166 6 277h-6q-12 -72 -52 -228l-172 -690h-196l-174 690q-41 180 -49 228h-7q6 -111 7 -277v-641h-213z" />
<glyph unicode="&#x43d;" horiz-adv-x="993" d="M109 0v1112h223v-430h332v430h223v-1112h-223v498h-332v-498h-223z" />
<glyph unicode="&#x43e;" horiz-adv-x="956" d="M63 557q0 283 93.5 434.5t321 151.5t321.5 -151.5t94 -434.5q0 -586 -416 -586q-414 0 -414 586zM287 557q0 -227 39 -323.5t151 -96.5q117 0 155 96.5t38 323.5q0 209 -39 314.5t-154 105.5q-76 0 -119 -57.5t-57 -142.5t-14 -220z" />
<glyph unicode="&#x43f;" horiz-adv-x="991" d="M109 0v1112h776v-1112h-223v928h-330v-928h-223z" />
<glyph unicode="&#x440;" horiz-adv-x="993" d="M109 -365v1477h210v-135h5q78 166 249 166q356 0 357 -600q0 -168 -31 -286t-83 -177.5t-108.5 -84t-119.5 -24.5q-186 0 -252 160h-4v-496h-223zM319 569q0 -217 39 -318t150 -101q98 0 142 89t44 314q0 209 -39 310.5t-149 101.5q-106 0 -146.5 -99.5t-40.5 -296.5z " />
<glyph unicode="&#x441;" horiz-adv-x="917" d="M63 556q0 284 93.5 435.5t324.5 151.5q109 0 188 -37t117.5 -98.5t56 -127t17.5 -137.5h-223q0 233 -156 234q-111 0 -152.5 -102.5t-41.5 -317.5q0 -209 41 -314.5t151 -105.5q168 0 168 269h211q-12 -215 -98 -325t-283 -110q-227 0 -320.5 150.5t-93.5 434.5z" />
<glyph unicode="&#x442;" horiz-adv-x="827" d="M8 924v188h811v-188h-293v-924h-225v924h-293z" />
<glyph unicode="&#x443;" horiz-adv-x="880" d="M16 1112h240l193 -836h4l178 836h233l-286 -1081q-70 -260 -139.5 -336t-231.5 -76q-84 0 -127 8v178q45 -8 86 -8q111 0 145 107l23 71z" />
<glyph unicode="&#x444;" horiz-adv-x="1447" d="M70 571q0 123 13 216.5t47 178.5t99.5 131t165.5 46q154 0 219 -123q-2 45 -2 129v328h224v-328q0 -94 -5 -137q76 131 222 131q180 0 252.5 -145.5t72.5 -426.5q0 -307 -79.5 -453.5t-256.5 -146.5q-139 0 -211 115q4 -70 5 -102v-353h-224v353q0 66 2 106 q-78 -119 -211 -119q-102 0 -169.5 44t-102.5 131t-48 187.5t-13 237.5zM293 555q0 -211 38 -309.5t134 -98.5q115 0 149 134v553q-45 133 -155 133q-96 0 -131 -98.5t-35 -313.5zM834 281q35 -133 147 -134q92 0 133 91.5t41 316.5q0 223 -37 317.5t-131 94.5 q-119 0 -153 -133v-553z" />
<glyph unicode="&#x445;" horiz-adv-x="880" d="M6 0l305 578l-288 534h243l174 -367l183 367h239l-289 -534l301 -578h-241l-195 412l-194 -412h-238z" />
<glyph unicode="&#x446;" horiz-adv-x="1026" d="M109 0v1112h223v-928h330v928h223v-928h131v-481h-213v297h-694z" />
<glyph unicode="&#x447;" horiz-adv-x="946" d="M78 731v381h223v-375q0 -141 150 -141q72 0 157 16v500h223v-1112h-223v440q-119 -20 -194 -20q-162 0 -249 78.5t-87 232.5z" />
<glyph unicode="&#x448;" horiz-adv-x="1456" d="M109 0v1112h223v-928h284v928h224v-928h284v928h226v-1112h-1241z" />
<glyph unicode="&#x449;" horiz-adv-x="1490" d="M109 0v1112h223v-928h284v928h224v-928h284v928h226v-928h129v-481h-213v297h-1157z" />
<glyph unicode="&#x44a;" horiz-adv-x="1060" d="M8 924v188h465v-401h160q371 0 371 -340q0 -371 -367 -371h-387v924h-242zM473 172h105q109 0 157.5 40t48.5 148q0 98 -48 139.5t-144 41.5h-119v-369z" />
<glyph unicode="&#x44b;" horiz-adv-x="1296" d="M109 0v1112h223v-401h141q371 0 371 -340q0 -371 -367 -371h-368zM332 172h86q111 0 159 40t48 148q0 98 -47.5 139.5t-145.5 41.5h-100v-369zM967 0v1112h223v-1112h-223z" />
<glyph unicode="&#x44c;" horiz-adv-x="917" d="M109 0v1112h223v-401h157q371 0 371 -340q0 -371 -366 -371h-385zM332 172h102q111 0 159 40t48 148q0 98 -47 139.5t-145 41.5h-117v-369z" />
<glyph unicode="&#x44d;" horiz-adv-x="917" d="M55 362h209q8 -231 176 -231q100 0 145.5 90t49.5 281h-318v153h316q-4 172 -49 250t-135 78q-154 0 -173 -207h-217q10 170 110.5 268.5t279.5 98.5q121 0 202.5 -42t124.5 -124t60.5 -183.5t17.5 -238.5q0 -285 -98.5 -434.5t-319.5 -149.5q-186 0 -280.5 102.5 t-100.5 288.5z" />
<glyph unicode="&#x44e;" horiz-adv-x="1378" d="M109 0v1112h223v-442h166q14 227 107 350t296 123q227 0 320.5 -152.5t93.5 -433.5q0 -586 -414 -586q-385 0 -405 518h-164v-489h-223zM711 557q0 -227 38.5 -323.5t152.5 -96.5t152 96.5t38 323.5q0 209 -39 314.5t-152 105.5q-76 0 -119 -57.5t-57 -142.5t-14 -220z " />
<glyph unicode="&#x44f;" horiz-adv-x="952" d="M27 0l262 453q-98 31 -156.5 114.5t-58.5 204.5q0 170 98 255t270 85h404v-1112h-223v428h-123l-226 -428h-247zM293 772q0 -178 194 -178h136v354h-148q-84 0 -133 -45t-49 -131z" />
<glyph unicode="&#x450;" horiz-adv-x="956" d="M76 541q0 602 411 602q221 0 307.5 -125t86.5 -373v-117h-582v-65q0 -66 7 -118t24.5 -106.5t56.5 -84t98 -29.5q57 0 95 27.5t54.5 71.5t23 80t6.5 69h210q0 -188 -104 -295t-287 -107q-63 0 -112 9.5t-107.5 43t-96.5 93t-64.5 167t-26.5 257.5zM211 1556h248l125 -299 h-154zM299 680h358v61q0 248 -172 248q-96 0 -141 -82t-45 -205v-22z" />
<glyph unicode="&#x451;" horiz-adv-x="956" d="M76 541q0 602 411 602q221 0 307.5 -125t86.5 -373v-117h-582v-65q0 -66 7 -118t24.5 -106.5t56.5 -84t98 -29.5q57 0 95 27.5t54.5 71.5t23 80t6.5 69h210q0 -188 -104 -295t-287 -107q-63 0 -112 9.5t-107.5 43t-96.5 93t-64.5 167t-26.5 257.5zM219 1294v224h199v-224 h-199zM299 680h358v61q0 248 -172 248q-96 0 -141 -82t-45 -205v-22zM563 1294v224h199v-224h-199z" />
<glyph unicode="&#x452;" horiz-adv-x="993" d="M-51 1200v154h160v123h223v-123h227v-154h-227v-237l6 -5q100 147 272 148q135 0 206 -69.5t71 -231.5v-660q0 -262 -118 -390t-359 -136v174q141 14 197.5 96t56.5 265v579q0 109 -35 155t-121 46q-74 0 -125 -57.5t-51 -161.5v-715h-223v1200h-160z" />
<glyph unicode="&#x453;" horiz-adv-x="743" d="M109 0v1112h624v-188h-401v-924h-223zM297 1257l125 299h248l-219 -299h-154z" />
<glyph unicode="&#x454;" horiz-adv-x="917" d="M63 555q0 283 92.5 435.5t323.5 152.5q362 0 383 -367h-219q-4 92 -45 149.5t-119 57.5q-180 0 -194 -328h317v-153h-319q4 -82 12 -141.5t28.5 -116t59.5 -85t94 -28.5q80 0 123 53.5t51 177.5h209q-25 -391 -391 -391q-219 0 -312.5 151.5t-93.5 432.5z" />
<glyph unicode="&#x455;" horiz-adv-x="880" d="M57 317v41h199v-34q0 -102 40 -150.5t134 -48.5q182 0 182 162q0 121 -123 164l-194 69q-117 41 -171 113t-54 203q0 154 100 230.5t281 76.5q193 0 270.5 -89t77.5 -216v-50h-211v29q0 172 -148 172q-160 0 -159 -145q0 -66 33.5 -99.5t123.5 -64.5l144 -49 q125 -43 183 -117t58 -203q0 -170 -110.5 -255t-288.5 -85q-201 0 -284 87t-83 259z" />
<glyph unicode="&#x456;" d="M119 0v1112h223v-1112h-223zM119 1270v223h223v-223h-223z" />
<glyph unicode="&#x457;" d="M-41 1294v224h199v-224h-199zM119 0v1112h223v-1112h-223zM301 1294v224h199v-224h-199z" />
<glyph unicode="&#x458;" d="M-49 -203h51q63 0 90 32t27 120v1163h223v-1184q0 -170 -70.5 -239.5t-224.5 -69.5q-47 0 -96 6v172zM119 1270v223h223v-223h-223z" />
<glyph unicode="&#x459;" horiz-adv-x="1468" d="M0 -12v170q39 -8 66 -8q57 0 85.5 54t32.5 202l19 706h684v-418h151q373 0 373 -332q0 -362 -369 -362h-378v934h-248l-15 -547q-6 -238 -79.5 -327t-198.5 -89q-62 1 -123 17zM887 172h98q111 0 161 38t50 142q0 94 -50 133t-147 39h-112v-352z" />
<glyph unicode="&#x45a;" horiz-adv-x="1468" d="M109 0v1112h223v-414h332v414h223v-418h151q373 0 373 -332q0 -362 -369 -362h-378v520h-332v-520h-223zM887 172h98q111 0 161 38t50 142q0 94 -50 133t-147 39h-112v-352z" />
<glyph unicode="&#x45b;" horiz-adv-x="993" d="M-51 1200v154h160v123h223v-123h227v-154h-227v-237l6 -5q100 147 272 148q135 0 206 -69.5t71 -231.5v-805h-223v733q0 109 -35 155t-121 46q-74 0 -125 -57.5t-51 -161.5v-715h-223v1200h-160z" />
<glyph unicode="&#x45c;" horiz-adv-x="956" d="M109 0v1112h223v-465h4l336 465h258l-334 -428l379 -684h-244l-274 506l-125 -152v-354h-223zM387 1257l123 299h250l-219 -299h-154z" />
<glyph unicode="&#x45d;" horiz-adv-x="1026" d="M109 0v1112h215v-569q0 -164 -11 -254h6q35 90 87 207l262 616h252v-1112h-215v571q0 188 4 248h-7q-18 -55 -69 -180l-273 -639h-251zM236 1556h247l125 -299h-153z" />
<glyph unicode="&#x45e;" horiz-adv-x="880" d="M16 1112h240l193 -836h4l178 836h233l-286 -1081q-70 -260 -139.5 -336t-231.5 -76q-84 0 -127 8v178q45 -8 86 -8q111 0 145 107l23 71zM174 1546h127q0 -45 41 -91t106.5 -46t106.5 46t41 91h129q0 -119 -75 -198.5t-200.5 -79.5t-200.5 79.5t-75 198.5z" />
<glyph unicode="&#x45f;" horiz-adv-x="991" d="M109 0v1112h223v-934h330v934h223v-1112h-283v-297h-213v297h-280z" />
<glyph unicode="&#x462;" horiz-adv-x="1193" d="M8 1114v191h238v172h235v-172h340v-191h-340v-221h181q471 0 471 -440q0 -229 -122 -341t-347 -112h-418v1114h-238zM481 182h150q135 0 198.5 64.5t63.5 206.5q0 139 -67.5 198.5t-198.5 59.5h-146v-529z" />
<glyph unicode="&#x463;" horiz-adv-x="1034" d="M8 924v188h215v365h223v-365h306v-188h-306v-213h160q371 0 371 -340q0 -371 -367 -371h-387v924h-215zM446 172h105q109 0 158 40t49 148q0 98 -48 139.5t-145 41.5h-119v-369z" />
<glyph unicode="&#x472;" horiz-adv-x="1148" d="M86 738.5q0 396.5 118 581.5t371.5 185t370.5 -185t117 -581.5t-117 -582t-370.5 -185.5t-371.5 185.5t-118 582zM319 672q4 -213 42 -333t87.5 -154.5t126.5 -34.5q55 0 95.5 19t77 72.5t57 161t24.5 269.5h-510zM322 866h505q-6 141 -26.5 236.5t-57 142.5t-75.5 64.5 t-92.5 17.5t-93.5 -17.5t-75.5 -64.5t-57 -142.5t-27.5 -236.5z" />
<glyph unicode="&#x473;" horiz-adv-x="956" d="M63 557q0 283 93.5 434.5t321 151.5t321.5 -151.5t94 -434.5q0 -586 -416 -586q-414 0 -414 586zM283 504q4 -201 45 -288t150.5 -87t150.5 87t45 288h-391zM285 653h387q-8 162 -51 247t-142.5 85t-143.5 -85t-50 -247z" />
<glyph unicode="&#x474;" horiz-adv-x="1058" d="M-12 1477h250l249 -1180h5l196 963q51 246 293 245q57 0 111 -16v-199q-47 10 -72 10q-74 0 -100 -106l-285 -1194h-299z" />
<glyph unicode="&#x475;" horiz-adv-x="909" d="M14 1112h240l195 -876h4l127 688q39 219 251 219q59 0 105 -17v-174q-43 10 -68 11q-68 0 -88 -93l-207 -870h-260z" />
<glyph unicode="&#x490;" horiz-adv-x="880" d="M123 0v1477h510v309h227v-508h-502v-1278h-235z" />
<glyph unicode="&#x491;" horiz-adv-x="743" d="M109 0v1112h405v287h215v-475h-397v-924h-223z" />
<glyph unicode="&#x1e80;" horiz-adv-x="1531" d="M12 1477h238l194 -1147h5l194 1147h248l199 -1153h4l192 1153h234l-293 -1477h-273l-190 1112h-4l-189 -1112h-274zM502 1894h250l122 -297h-153z" />
<glyph unicode="&#x1e81;" horiz-adv-x="1415" d="M31 1112h231l156 -876h4l166 876h252l166 -876h4l153 876h223l-256 -1112h-249l-174 864h-5l-157 -864h-262zM442 1556h248l125 -299h-153z" />
<glyph unicode="&#x1e82;" horiz-adv-x="1531" d="M12 1477h238l194 -1147h5l194 1147h248l199 -1153h4l192 1153h234l-293 -1477h-273l-190 1112h-4l-189 -1112h-274zM653 1597l125 297h248l-219 -297h-154z" />
<glyph unicode="&#x1e83;" horiz-adv-x="1415" d="M31 1112h231l156 -876h4l166 876h252l166 -876h4l153 876h223l-256 -1112h-249l-174 864h-5l-157 -864h-262zM606 1257l125 299h248l-219 -299h-154z" />
<glyph unicode="&#x1e84;" horiz-adv-x="1531" d="M12 1477h238l194 -1147h5l194 1147h248l199 -1153h4l192 1153h234l-293 -1477h-273l-190 1112h-4l-189 -1112h-274zM494 1634v224h198v-224h-198zM838 1634v224h198v-224h-198z" />
<glyph unicode="&#x1e85;" horiz-adv-x="1415" d="M31 1112h231l156 -876h4l166 876h252l166 -876h4l153 876h223l-256 -1112h-249l-174 864h-5l-157 -864h-262zM440 1294v224h199v-224h-199zM784 1294v224h199v-224h-199z" />
<glyph unicode="&#x1ef2;" horiz-adv-x="993" d="M-8 1477h262l248 -637l256 637h246l-396 -899v-578h-235v578zM223 1894h248l125 -297h-154z" />
<glyph unicode="&#x1ef3;" horiz-adv-x="880" d="M16 1112h240l193 -836h4l178 836h233l-286 -1081q-70 -260 -139.5 -336t-231.5 -76q-84 0 -127 8v178q45 -8 86 -8q111 0 145 107l23 71zM170 1556h248l125 -299h-154z" />
<glyph unicode="&#x2000;" horiz-adv-x="991" />
<glyph unicode="&#x2001;" horiz-adv-x="1982" />
<glyph unicode="&#x2002;" horiz-adv-x="991" />
<glyph unicode="&#x2003;" horiz-adv-x="1982" />
<glyph unicode="&#x2004;" horiz-adv-x="659" />
<glyph unicode="&#x2005;" horiz-adv-x="495" />
<glyph unicode="&#x2006;" horiz-adv-x="329" />
<glyph unicode="&#x2007;" horiz-adv-x="329" />
<glyph unicode="&#x2008;" horiz-adv-x="247" />
<glyph unicode="&#x2009;" horiz-adv-x="395" />
<glyph unicode="&#x200a;" horiz-adv-x="108" />
<glyph unicode="&#x2010;" horiz-adv-x="727" d="M92 492v210h543v-210h-543z" />
<glyph unicode="&#x2011;" horiz-adv-x="727" d="M92 492v210h543v-210h-543z" />
<glyph unicode="&#x2012;" horiz-adv-x="727" d="M92 492v210h543v-210h-543z" />
<glyph unicode="&#x2013;" horiz-adv-x="1034" d="M0 498v198h1034v-198h-1034z" />
<glyph unicode="&#x2014;" horiz-adv-x="2068" d="M0 498v198h2068v-198h-2068z" />
<glyph unicode="&#x2015;" horiz-adv-x="2068" d="M0 498v198h2068v-198h-2068z" />
<glyph unicode="&#x2018;" horiz-adv-x="495" d="M131 885v274q0 131 52.5 212t183.5 106v-119q-104 -29 -105 -168v-31h105v-274h-236z" />
<glyph unicode="&#x2019;" horiz-adv-x="495" d="M131 885v121q102 27 102 168v30h-102v273h236v-273q0 -133 -53.5 -213.5t-182.5 -105.5z" />
<glyph unicode="&#x201a;" horiz-adv-x="495" d="M131 0v272h236v-272q0 -133 -53.5 -213t-182.5 -106v120q102 27 102 168v31h-102z" />
<glyph unicode="&#x201c;" horiz-adv-x="880" d="M139 885v274q0 131 52.5 212t183.5 106v-119q-104 -29 -105 -168v-31h105v-274h-236zM506 885v274q0 131 53 212t184 106v-119q-104 -29 -104 -168v-31h104v-274h-237z" />
<glyph unicode="&#x201d;" horiz-adv-x="880" d="M139 885v121q102 27 103 168v30h-103v273h236v-273q0 -133 -53.5 -213.5t-182.5 -105.5zM506 885v121q104 27 104 168v30h-104v273h237v-273q0 -133 -53 -213.5t-184 -105.5z" />
<glyph unicode="&#x201e;" horiz-adv-x="880" d="M139 0v272h236v-272q0 -133 -53.5 -213t-182.5 -106v120q102 27 103 168v31h-103zM506 0v272h237v-272q0 -133 -53 -213t-184 -106v120q104 27 104 168v31h-104z" />
<glyph unicode="&#x2020;" horiz-adv-x="995" d="M33 870v189h354v418h223v-418h355v-189h-355v-1163h-223v1163h-354z" />
<glyph unicode="&#x2021;" horiz-adv-x="995" d="M31 119v176h356v600h-356v178h356v404h223v-404h357v-178h-357v-600h357v-176h-357v-412h-223v412h-356z" />
<glyph unicode="&#x2022;" horiz-adv-x="1034" d="M150 738.5q0 152.5 107.5 260t260 107.5t260 -107.5t107.5 -260t-107.5 -260t-260 -107.5t-260 107.5t-107.5 260z" />
<glyph unicode="&#x2026;" horiz-adv-x="2068" d="M227 0v272h236v-272h-236zM915 0v272h238v-272h-238zM1606 0v272h235v-272h-235z" />
<glyph unicode="&#x202f;" horiz-adv-x="395" />
<glyph unicode="&#x2030;" horiz-adv-x="2183" d="M51 1067q0 217 75 307t209 90t208.5 -90t74.5 -307t-74.5 -307t-208.5 -90t-209 90t-75 307zM229 1067.5q0 -149.5 21.5 -209t84 -59.5t84 59.5t21.5 209t-21.5 208.5t-84 59t-84 -59t-21.5 -208.5zM350 -29l656 1493h159l-661 -1493h-154zM905 369q0 217 75 307t209 90 t209 -90t75 -307t-75 -307.5t-209 -90.5t-209 90.5t-75 307.5zM1083 367.5q0 -148.5 21.5 -209t84 -60.5t84 60.5t21.5 209t-21.5 209t-84 60.5t-84 -60.5t-21.5 -209zM1567 369q0 217 73.5 307t209 90t209 -90t73.5 -307t-73.5 -307.5t-209 -90.5t-209 90.5t-73.5 307.5z M1743 367.5q0 -148.5 22.5 -209t84 -60.5t83 60.5t21.5 209t-21.5 209t-83 60.5t-84 -60.5t-22.5 -209z" />
<glyph unicode="&#x2039;" horiz-adv-x="495" d="M98 479v236l299 280v-227l-182 -170l182 -170v-227z" />
<glyph unicode="&#x203a;" horiz-adv-x="495" d="M98 201v227l183 170l-183 170v227l299 -280v-236z" />
<glyph unicode="&#x203d;" horiz-adv-x="956" d="M63 967q0 147 77 248.5t220 134.5v127h205v-121q152 -23 236 -115t84 -233q0 -164 -121 -291l-113 -113q-90 -96 -90 -207h-170l-31 613v172q-94 -41 -98 -215h-199zM354 0v236h236v-236h-236zM547 743l49 56q74 82 74 213q0 59 -28 108t-77 66v-176z" />
<glyph unicode="&#x2044;" horiz-adv-x="344" d="M-297 -63l791 1562h149l-793 -1562h-147z" />
<glyph unicode="&#x205f;" horiz-adv-x="495" />
<glyph unicode="&#x2070;" horiz-adv-x="669" d="M45 1255q0 248 72.5 353.5t218.5 105.5q147 0 218 -103.5t71 -348.5q0 -248 -73 -353.5t-216 -105.5q-150 0 -220.5 103t-70.5 349zM221 1255q0 -180 24.5 -253.5t89 -73.5t89.5 66.5t25 267.5q0 180 -25 253.5t-89.5 73.5t-89 -66.5t-24.5 -267.5z" />
<glyph unicode="&#x2074;" horiz-adv-x="669" d="M25 1001v154l346 541h159v-557h107v-138h-107v-180h-172v180h-333zM156 1139h202v331z" />
<glyph unicode="&#x2075;" horiz-adv-x="669" d="M53 1047h168q6 -119 107 -119q113 0 112 188q0 172 -106 172q-70 0 -101 -67h-163l67 475h443v-140h-318l-31 -206q51 57 146 57q113 0 176 -76t63 -211q0 -147 -75.5 -232t-208.5 -85q-129 0 -203 63.5t-76 180.5z" />
<glyph unicode="&#x2076;" horiz-adv-x="669" d="M51 1221q0 264 73 378.5t232 114.5q225 0 256 -207h-178q-8 82 -88 82q-121 0 -121 -278q68 80 174 80t166 -70t60 -199q0 -154 -74 -236.5t-203 -82.5q-154 0 -225.5 100.5t-71.5 317.5zM231 1106q0 -178 113 -178q109 0 109 176q0 170 -107 170q-115 0 -115 -168z" />
<glyph unicode="&#x2077;" horiz-adv-x="669" d="M68 1552v144h534v-131q-115 -117 -179.5 -331t-68.5 -413h-186q31 436 262 731h-362z" />
<glyph unicode="&#x2078;" horiz-adv-x="669" d="M39 1069q0 84 43 140.5t113 78.5q-125 49 -125 185q0 111 69.5 176t194.5 65q133 0 198.5 -63.5t65.5 -169.5q0 -137 -125 -187q152 -51 152 -223q0 -127 -80 -197.5t-209 -70.5q-137 0 -217 67.5t-80 198.5zM213 1079q0 -156 123 -155q117 0 117 155q0 147 -120 147 t-120 -147zM231 1468q0 -121 101.5 -120.5t101.5 120.5q0 129 -101.5 129t-101.5 -129z" />
<glyph unicode="&#x2079;" horiz-adv-x="669" d="M45 1393q0 154 74 236.5t205 82.5q152 0 223 -100.5t71 -317.5q0 -264 -72.5 -378.5t-230.5 -114.5q-227 0 -258 207h179q8 -82 90 -82q119 0 118 278q-68 -80 -174 -80t-165.5 70t-59.5 199zM217 1411q0 -170 109 -170q113 0 112 168q0 178 -110 178q-111 0 -111 -176z " />
<glyph unicode="&#x207a;" horiz-adv-x="722" d="M57 1075v137h228v254h153v-254h228v-137h-228v-254h-153v254h-228z" />
<glyph unicode="&#x207b;" horiz-adv-x="454" d="M57 1087v144h340v-144h-340z" />
<glyph unicode="&#x207c;" horiz-adv-x="722" d="M57 938v131h609v-131h-609zM57 1210v131h609v-131h-609z" />
<glyph unicode="&#x207d;" horiz-adv-x="350" d="M57 1235q0 299 150 577h129q-117 -260 -117 -577t117 -578h-129q-150 254 -150 578z" />
<glyph unicode="&#x207e;" horiz-adv-x="350" d="M16 657q117 260 117 577.5t-117 577.5h129q147 -254 148 -577q0 -299 -148 -578h-129z" />
<glyph unicode="&#x207f;" horiz-adv-x="669" d="M63 821v660h168v-99q63 117 197 117q86 0 132 -51t46 -139v-488h-178v453q0 94 -80 94q-49 0 -77.5 -38t-28.5 -95v-414h-179z" />
<glyph unicode="&#x2080;" horiz-adv-x="669" d="M45 84q0 250 72.5 355.5t218.5 105.5q147 0 218 -103.5t71 -351.5t-73 -353.5t-216 -105.5q-150 0 -220.5 103.5t-70.5 349.5zM221 84q0 -178 24.5 -252t89 -74t89.5 65.5t25 266.5q0 180 -25 254t-89.5 74t-89 -66.5t-24.5 -267.5z" />
<glyph unicode="&#x2081;" horiz-adv-x="669" d="M94 270v117q117 0 176.5 31t71.5 108h123v-876h-178v620h-193z" />
<glyph unicode="&#x2082;" horiz-adv-x="669" d="M53 -350q0 143 40 227t134 156l125 94q88 63 88 164q0 123 -96 123q-55 0 -79.5 -34t-24.5 -118h-174q0 283 284 283q131 0 198.5 -66.5t67.5 -183.5q0 -90 -36.5 -153.5t-126.5 -129.5l-117 -86q-80 -57 -88 -131h362v-145h-557z" />
<glyph unicode="&#x2083;" horiz-adv-x="669" d="M35 -111h170q10 -131 125 -131q57 0 89 40t32 110q0 143 -150 143h-51v125h49q57 0 91 32t34 91q0 119 -102 119q-57 0 -82 -32t-25 -105h-166q0 127 73 195.5t208 68.5q131 0 199.5 -64.5t68.5 -169.5q0 -63 -38 -113.5t-109 -68.5q176 -41 176 -219q0 -131 -85 -205 t-214 -74q-293 0 -293 258z" />
<glyph unicode="&#x2084;" horiz-adv-x="669" d="M25 -16l346 542h159v-559h107v-137h-107v-180h-172v180h-333v154zM156 -33h202v332z" />
<glyph unicode="&#x2085;" horiz-adv-x="669" d="M53 -125h168q6 -117 107 -117q113 0 112 189q0 172 -106 172q-70 0 -101 -70h-163l67 477h443v-141h-318l-31 -207q51 57 146 58q113 0 176 -76t63 -209q0 -150 -75.5 -235t-208.5 -85q-129 0 -203 64.5t-76 179.5z" />
<glyph unicode="&#x2086;" horiz-adv-x="669" d="M51 49q0 266 73 381t232 115q225 0 256 -207h-178q-8 80 -88 80q-121 0 -121 -277q68 78 174 78t166 -69.5t60 -196.5q0 -156 -74 -239t-203 -83q-154 0 -225.5 100.5t-71.5 317.5zM231 -63q0 -178 113 -179q109 0 109 176q0 168 -107 168q-115 1 -115 -165z" />
<glyph unicode="&#x2087;" horiz-adv-x="669" d="M68 381v145h534v-133q-115 -117 -179.5 -331t-68.5 -412h-186q31 436 262 731h-362z" />
<glyph unicode="&#x2088;" horiz-adv-x="669" d="M39 -100q0 82 43 138t113 81q-125 49 -125 182q0 111 69.5 177.5t194.5 66.5q133 0 198.5 -64.5t65.5 -169.5q0 -137 -125 -186q152 -53 152 -223q0 -129 -80 -200t-209 -71q-137 0 -217 68t-80 201zM213 -90q0 -156 123 -156q117 0 117 156q0 145 -120 145t-120 -145z M231 297q0 -121 101.5 -121t101.5 121q0 129 -101.5 129t-101.5 -129z" />
<glyph unicode="&#x2089;" horiz-adv-x="669" d="M45 221q0 156 74 239t205 83q152 0 223 -100.5t71 -317.5q0 -266 -72.5 -381t-230.5 -115q-227 0 -258 207h179q8 -80 90 -80q119 0 118 277q-68 -78 -174 -78t-165.5 68.5t-59.5 197.5zM217 240q0 -170 109 -170q113 0 112 168q0 178 -110 178q-111 0 -111 -176z" />
<glyph unicode="&#x208a;" horiz-adv-x="722" d="M57 41h228v254h153v-254h228v-135h-228v-256h-153v256h-228v135z" />
<glyph unicode="&#x208b;" horiz-adv-x="454" d="M57 59h340v-141h-340v141z" />
<glyph unicode="&#x208c;" horiz-adv-x="722" d="M57 39v133h609v-133h-609zM57 -100h609v-133h-609v133z" />
<glyph unicode="&#x208d;" horiz-adv-x="350" d="M57 63q0 301 150 578h129q-117 -260 -117 -576.5t117 -576.5h-129q-150 253 -150 575z" />
<glyph unicode="&#x208e;" horiz-adv-x="350" d="M16 -512q117 260 117 576.5t-117 576.5h129q147 -254 148 -578q0 -299 -148 -575h-129z" />
<glyph unicode="&#x20ac;" horiz-adv-x="991" d="M0 510l49 141h98q-2 78 0 146h-147l49 141h107q20 305 184 438q111 88 303 88q125 0 215 -39q80 -35 135 -104l-71 -191q-35 74 -107 123q-66 45 -166 45q-109 0 -168 -67q-72 -76 -90 -293h463l-49 -141h-422q-2 -68 0 -146h383l-51 -141h-324q0 -66 20.5 -156 t69.5 -145q68 -72 172 -72q92 0 176 43q80 39 132 117v-227q-43 -35 -97 -58q-88 -41 -215 -41q-197 0 -309 88q-164 129 -184 451h-156z" />
<glyph unicode="&#x2105;" horiz-adv-x="1488" d="M53 1014q0 248 67.5 355.5t225.5 107.5q113 0 179.5 -69t72.5 -202h-174q-4 141 -88 142q-63 0 -85 -71t-22 -261q0 -176 23.5 -249t79.5 -73q86 0 96 162h174q-6 -129 -74.5 -210t-191.5 -81q-150 0 -216.5 105.5t-66.5 343.5zM262 -63l793 1562h149l-792 -1562h-150z M860 424q0 248 73 353.5t218 105.5q147 0 218 -103.5t71 -349.5q0 -248 -73 -353.5t-216 -105.5q-150 0 -220.5 103.5t-70.5 349.5zM1036 424q0 -180 24.5 -254t89 -74t89.5 66.5t25 267.5q0 180 -25 254t-89.5 74t-89 -66.5t-24.5 -267.5z" />
<glyph unicode="&#x2113;" horiz-adv-x="1034" d="M92 418l197 176v514q0 170 90 276.5t227 106.5q121 0 192.5 -78t71.5 -207q0 -301 -372 -647v-272q0 -86 42 -123t99 -37q90 0 182 78h4l72 -111q-137 -123 -307 -123q-137 0 -218 76t-81 207v166l-117 -115h-4zM498 739q203 227 202 453q0 68 -27.5 114t-68.5 46 q-43 0 -74.5 -54.5t-31.5 -150.5v-408z" />
<glyph unicode="&#x2116;" horiz-adv-x="1777" d="M119 0v1436h280l267 -721q117 -311 147 -447l6 -4q-12 123 -12 328v844h217v-1436h-281l-276 750q-139 385 -143 409q-6 -2 -7 -4q18 -176 19 -352v-803h-217zM1155 0v172h541v-172h-541zM1155 590q0 176 63.5 265t211.5 89q139 0 202.5 -85t63.5 -263q0 -176 -63.5 -265 t-211.5 -89q-139 0 -202.5 85t-63.5 263zM1317 592q0 -137 27.5 -183.5t80.5 -46.5q51 0 79 46.5t28 185.5q0 137 -26.5 183t-80.5 46q-51 0 -79.5 -46t-28.5 -185z" />
<glyph unicode="&#x2117;" horiz-adv-x="1654" d="M59 738.5q0 318.5 224.5 542.5t543.5 224q322 0 545 -224t223 -542.5t-224 -543t-544 -224.5q-322 0 -545 224.5t-223 543zM231 739q0 -258 173.5 -438t422.5 -180q252 0 424 179t172 439q0 256 -173 437.5t-423 181.5q-252 0 -424 -180.5t-172 -438.5zM539 299v879h342 q328 0 327 -267q0 -121 -77.5 -193.5t-225.5 -72.5h-215v-346h-151zM690 776h189q176 0 176 131q0 139 -172 140h-193v-271z" />
<glyph unicode="&#x2122;" horiz-adv-x="2068" d="M66 1335v142h688v-142h-256v-710h-176v710h-256zM922 625v852h247l232 -605l231 605h246v-852h-166v673h-4l-250 -673h-117l-249 673h-5v-673h-165z" />
<glyph unicode="&#x2126;" horiz-adv-x="1148" d="M70 0v199h219v8q-203 227 -203 594q0 354 128 529t361 175q487 0 488 -704q0 -356 -199 -594v-8h223v-199h-434v195q98 98 136 251.5t38 380.5q0 500 -252 500q-119 0 -185 -111.5t-66 -388.5q0 -223 39.5 -376.5t140.5 -253.5v-197h-434z" />
<glyph unicode="&#x212e;" horiz-adv-x="1591" d="M96 715q0 322 192.5 535.5t506.5 213.5q309 0 503.5 -208.5t196.5 -540.5h-1092v-488q160 -160 392 -159q170 0 296 77.5t226 247.5l94 -57q-127 -195 -266 -280t-350 -85q-313 0 -506 214.5t-193 529.5zM403 815h787v393q-172 162 -397 162q-223 0 -390 -162v-393z" />
<glyph unicode="&#x2153;" horiz-adv-x="1490" d="M33 1204v115q117 0 175 31.5t71 107.5h124v-874h-178v620h-192zM186 -63l793 1562h147l-790 -1562h-150zM840 240h170q10 -131 123 -131q59 0 90.5 39.5t31.5 107.5q0 145 -149 145h-51v125h49q57 0 91 32t34 91q0 119 -105 119q-55 0 -79.5 -33t-24.5 -104h-166 q0 127 72.5 194.5t206.5 67.5q133 0 201.5 -63.5t68.5 -170.5q0 -61 -39 -112t-109 -70q176 -39 177 -219q0 -129 -85 -202.5t-217 -73.5q-290 0 -290 258z" />
<glyph unicode="&#x2154;" horiz-adv-x="1490" d="M25 584q0 143 38.5 226t135.5 157l125 92q88 63 88 166q0 123 -97 123q-55 0 -79.5 -35t-24.5 -117h-174q0 281 285 281q131 0 198.5 -67t67.5 -181q0 -90 -38 -153.5t-126 -129.5l-119 -88q-78 -55 -86 -129h350v-145h-544zM266 -63l793 1562h149l-792 -1562h-150z M860 240h170q10 -131 125 -131q57 0 89 39.5t32 107.5q0 145 -150 145h-51v125h49q57 0 91 32t34 91q0 119 -102 119q-57 0 -82 -33t-25 -104h-166q0 127 73 194.5t208 67.5q131 0 199.5 -63.5t68.5 -170.5q0 -61 -37.5 -112t-109.5 -70q176 -39 176 -219q0 -129 -85 -202.5 t-214 -73.5q-293 0 -293 258z" />
<glyph unicode="&#x215b;" horiz-adv-x="1490" d="M33 1204v115q117 0 175 31.5t71 107.5h124v-874h-178v620h-192zM186 -63l793 1562h147l-790 -1562h-150zM844 248q0 84 42 140t113 79q-125 49 -125 184q0 111 70 176.5t195 65.5q133 0 198.5 -63.5t65.5 -170.5q0 -135 -125 -186q152 -51 152 -223q0 -127 -80 -197.5 t-209 -70.5q-137 0 -217 67.5t-80 198.5zM1018 258q0 -156 123 -156q117 0 116 156q0 147 -119.5 147t-119.5 -147zM1036 647q0 -121 101.5 -121t101.5 121q0 129 -101.5 129t-101.5 -129z" />
<glyph unicode="&#x215c;" horiz-adv-x="1490" d="M20 823h170q10 -133 125 -133q57 0 89 41t32 109q0 145 -149 145h-51v123h49q57 0 91 33t34 92q0 119 -105 119q-55 0 -79.5 -33t-24.5 -105h-166q0 125 72.5 194t207.5 69q131 0 200 -63.5t69 -170.5q0 -61 -39 -112.5t-109 -69.5q176 -39 176 -219q0 -131 -85 -204 t-214 -73q-293 0 -293 258zM262 -63l793 1562h149l-792 -1562h-150zM852 248q0 84 43 140t113 79q-125 49 -125 184q0 111 69.5 176.5t194.5 65.5q133 0 198.5 -63.5t65.5 -170.5q0 -135 -125 -186q152 -51 152 -223q0 -127 -80 -197.5t-209 -70.5q-137 0 -217 67.5 t-80 198.5zM1026 258q0 -156 123 -156q117 0 117 156q0 147 -120 147t-120 -147zM1044 647q0 -121 101.5 -121t101.5 121q0 129 -101.5 129t-101.5 -129z" />
<glyph unicode="&#x215d;" horiz-adv-x="1490" d="M35 809h168q6 -119 104 -119q115 0 115 189q0 172 -107 172q-70 0 -100 -68h-164l68 475h442v-141h-317l-31 -207q51 59 145 59q113 0 176.5 -75.5t63.5 -210.5q0 -147 -76 -232.5t-209 -85.5q-129 0 -202.5 63.5t-75.5 180.5zM256 -63l793 1562h149l-792 -1562h-150z M854 248q0 84 43 140t113 79q-125 49 -125 184q0 111 69.5 176.5t194.5 65.5q133 0 198.5 -63.5t65.5 -170.5q0 -135 -125 -186q152 -51 152 -223q0 -127 -80 -197.5t-209 -70.5q-137 0 -217 67.5t-80 198.5zM1028 258q0 -156 123 -156q117 0 117 156q0 147 -120 147 t-120 -147zM1047 647q0 -121 101 -121t101 121q0 129 -101 129t-101 -129z" />
<glyph unicode="&#x215e;" horiz-adv-x="1490" d="M92 1313v145h535v-133q-115 -115 -179.5 -329t-68.5 -412h-186q31 436 262 729h-363zM193 -63l792 1562h148l-791 -1562h-149zM831 248q0 84 42 140t114 79q-125 49 -125 184q0 111 69.5 176.5t192.5 65.5q135 0 201 -63.5t66 -170.5q0 -135 -125 -186q152 -51 151 -223 q0 -127 -80 -197.5t-211 -70.5q-135 0 -215 67.5t-80 198.5zM1006 258q0 -156 120 -156q119 0 119 156q0 147 -119.5 147t-119.5 -147zM1024 647q0 -121 101.5 -121t101.5 121q0 129 -101.5 129t-101.5 -129z" />
<glyph unicode="&#x2202;" horiz-adv-x="1118" d="M76 444q0 195 120.5 323t313.5 128q170 0 309 -127l2 68q4 117 -23.5 222t-107.5 187t-201 82q-113 0 -241 -98l-111 131q170 131 346 131q152 0 262.5 -64.5t171 -178t88 -238.5t27.5 -265q0 -143 -21.5 -266t-74.5 -242.5t-159.5 -190.5t-256.5 -71q-199 0 -321.5 134 t-122.5 335zM279 434q0 -127 63.5 -214t185.5 -87q80 0 139.5 45t90 118t45 146.5t14.5 149.5q-123 145 -276 145q-127 0 -194.5 -87t-67.5 -216z" />
<glyph unicode="&#x2206;" horiz-adv-x="1073" d="M-14 0l415 1477h301l385 -1477h-1101zM285 199h506l-244 1079h-4z" />
<glyph unicode="&#x220f;" horiz-adv-x="1515" d="M133 -442v2068h1253v-2068h-210v1876h-832v-1876h-211z" />
<glyph unicode="&#x2211;" horiz-adv-x="1316" d="M51 -274l639 876l-612 858v166h1163v-192h-883l586 -830l-625 -856h947v-190h-1215v168z" />
<glyph unicode="&#x2212;" horiz-adv-x="1241" d="M96 434v178h1049v-178h-1049z" />
<glyph unicode="&#x2215;" horiz-adv-x="344" d="M-297 -63l791 1562h149l-793 -1562h-147z" />
<glyph unicode="&#x2219;" horiz-adv-x="495" d="M98 636.5q0 61.5 44 105.5t106.5 44t105.5 -44t43 -105.5t-43 -105.5t-105.5 -44t-106.5 44t-44 105.5z" />
<glyph unicode="&#x221a;" horiz-adv-x="1087" d="M-23 342l281 129l285 -598l356 1753h213l-436 -2068h-201l-319 665l-103 -47z" />
<glyph unicode="&#x221e;" horiz-adv-x="1644" d="M90 533.5q0 152.5 90 254t242 101.5q82 0 162 -40t126 -81t115 -121q98 115 189.5 179.5t208.5 64.5q152 0 242.5 -100.5t90.5 -251.5q0 -156 -90 -258.5t-243 -102.5q-186 0 -398 232l-88.5 -87t-83 -68t-110 -58.5t-115.5 -16.5q-154 0 -246 100.5t-92 253zM258 532 q0 -78 46 -125t124 -47q72 0 151.5 50.5t135.5 119.5q-180 180 -295 181q-72 0 -117 -53.5t-45 -125.5zM934 530q53 -55 86 -83.5t92 -58.5t113 -30q76 0 120 48.5t44 125.5q0 78 -45.5 129.5t-122.5 51.5q-49 0 -110.5 -36t-89.5 -62z" />
<glyph unicode="&#x222b;" horiz-adv-x="1216" d="M195 -301q0 41 24.5 67.5t65.5 26.5q47 0 72.5 -31.5t39 -64.5t27.5 -33q41 0 41 94q0 33 -2 99.5t-2 99.5v1122v41v100q0 34 5 95t15.5 97t32 81t51 71.5t76.5 44t109 17.5q76 0 140 -36t64 -107q0 -41 -29.5 -70t-70.5 -29q-45 0 -71.5 31t-40 61.5t-29.5 30.5 q-45 0 -45 -71q0 -45 3 -135.5t3 -135.5v-1169q0 -68 -5 -122t-22.5 -115.5t-47.5 -103.5t-84 -69.5t-126 -27.5q-70 0 -132 36.5t-62 104.5z" />
<glyph unicode="&#x2248;" horiz-adv-x="1241" d="M78 164q31 315 295 315q86 0 268 -68.5t252 -68.5q61 0 93 34t44 103h133q-31 -315 -295 -315q-92 0 -271 68.5t-249 68.5q-61 0 -93 -34t-44 -103h-133zM78 571q31 315 295 316q86 0 268 -68.5t252 -68.5q61 0 93 33.5t44 103.5h133q-31 -315 -295 -316q-92 0 -271 69 t-249 69q-61 0 -93 -34t-44 -104h-133z" />
<glyph unicode="&#x2260;" horiz-adv-x="1241" d="M96 219v178h363l137 252h-500v178h594l166 306l150 -78l-125 -228h264v-178h-359l-137 -252h496v-178h-590l-168 -313l-149 78l127 235h-269z" />
<glyph unicode="&#x2264;" horiz-adv-x="1241" d="M96 0v178h1049v-178h-1049zM96 571v154l1049 342v-178l-795 -242l795 -241v-179z" />
<glyph unicode="&#x2265;" horiz-adv-x="1241" d="M96 0v178h1049v-178h-1049zM96 227v179l795 241l-795 242v178l1049 -342v-154z" />
<glyph unicode="&#x25ca;" horiz-adv-x="1224" d="M158 737l358 807h189l364 -807l-364 -809h-189zM360 737l252 -612l254 612l-254 606z" />
<glyph unicode="&#xe000;" horiz-adv-x="1110" d="M0 1110h1110v-1110h-1110v1110z" />
<glyph unicode="&#xe002;" d="M117 1597l123 297h247l-219 -297h-151z" />
<glyph unicode="&#xe004;" d="M-68 1597l189 297h223l184 -297h-188l-113 183l-116 -183h-179z" />
<glyph unicode="&#xe006;" d="M-68 1894h189l110 -182l119 182h178l-188 -297h-223z" />
<glyph unicode="&#xe008;" d="M117 1180l57 297h217l-131 -297h-143z" />
<glyph unicode="&#xe009;" d="M-82 1620q0 86 52.5 167t150.5 81q41 0 118.5 -36t110.5 -36q63 0 64 78h129q0 -82 -49.5 -163t-128.5 -81q-49 0 -134.5 36t-113.5 36q-35 0 -53.5 -24.5t-18.5 -57.5h-127z" />
<glyph unicode="&#xe00b;" d="M-41 1634v224h199v-224h-199zM301 1634v224h199v-224h-199z" />
<glyph unicode="&#xe00d;" d="M-61 1681v129h583v-129h-583z" />
<glyph unicode="&#xe00f;" d="M-45 1886h127q0 -45 41 -92t106.5 -47t106.5 47t41 92h127q0 -119 -74 -198.5t-201 -79.5t-200.5 79.5t-73.5 198.5z" />
<glyph unicode="&#xe011;" d="M10 1766.5q0 93.5 63.5 154.5t157 61t156 -61t62.5 -154.5t-62.5 -154t-156 -60.5t-157 60.5t-63.5 154zM115 1766.5q0 -48.5 33.5 -82t80.5 -33.5t82 33.5t35 82t-35 82t-82 33.5t-80.5 -33.5t-33.5 -82z" />
<glyph unicode="&#xe013;" d="M-133 1597l125 297h248l-220 -297h-153zM260 1597l125 297h248l-219 -297h-154z" />
<glyph unicode="&#xe015;" d="M131 1634v224h199v-224h-199z" />
<glyph unicode="&#xe017;" horiz-adv-x="495" d="M150 -102h198v-179q0 -88 -46 -129t-132 -51v68q33 8 50.5 26.5t21.5 59.5h-92v205z" />
<glyph unicode="&#xe01a;" horiz-adv-x="495" d="M154 1272v178q0 86 45 128t133 52v-67q-35 -8 -52.5 -27.5t-21.5 -58.5h94v-205h-198z" />
<glyph unicode="&#xe01b;" horiz-adv-x="358" d="M98 1180l54 297h229l-129 -297h-154z" />
<glyph unicode="&#xf001;" horiz-adv-x="1034" d="M20 948v164h156v105q0 152 70.5 214t212.5 62q74 0 123 -6v-172h-62q-121 0 -121 -105v-98h183v-164h-183v-948h-223v948h-156zM692 0v1112h223v-1112h-223zM692 1270v223h223v-223h-223z" />
<glyph unicode="&#xf002;" horiz-adv-x="1034" d="M20 948v164h156v105q0 152 70.5 214t212.5 62q74 0 123 -6v-172h-62q-121 0 -121 -105v-98h183v-164h-183v-948h-223v948h-156zM692 0v1477h223v-1477h-223z" />
<glyph unicode="&#xf8ff;" horiz-adv-x="1058" d="M0 0v1485h1059v-1485h-1059zM102 102h854v1278h-854v-1278zM256 977q14 141 89 212t192 71q111 0 183.5 -75t72.5 -196q0 -72 -27 -125t-104 -123q-76 -70 -89 -108q-12 -41 -12 -150h-96l-4 37q0 115 26 166q33 59 97 123q63 59 82.5 95t19.5 77q0 74 -46 125t-110 51 q-147 0 -170 -196zM459 242v139h116v-139h-116z" />
</font>
</defs>
</svg>
