<?xml version="1.0" standalone="no"?>
<!DOCTYPE svg PUBLIC "-//W3C//DTD SVG 1.1//EN" "http://www.w3.org/Graphics/SVG/1.1/DTD/svg11.dtd" >
<svg xmlns="http://www.w3.org/2000/svg">
<metadata></metadata>
<defs>
<font id="kepler_stditalic" horiz-adv-x="966" >
<font-face units-per-em="2048" ascent="1434" descent="-614" />
<missing-glyph horiz-adv-x="423" />
<glyph unicode="&#xfb01;" horiz-adv-x="1064" d="M-397 -371q0 31 24.5 61.5t55.5 39.5q35 12 61 -31q27 -45 56.5 -69.5t66.5 -24.5q59 0 95 54t71 171q20 61 49 166.5t62.5 235.5t69.5 275.5t69 287.5l-152 16l23 57h149q20 74 42 132.5t46.5 105.5t53 86t63.5 74q70 68 151.5 97.5t165.5 29.5q117 0 181.5 -48.5 t64.5 -127.5q0 -47 -27.5 -82t-82.5 -35q-16 0 -31 4t-23 14q-16 12 -17 26.5t3 31.5q4 16 9 29.5t5 29.5q2 41 -20.5 70.5t-95.5 29.5q-63 0 -118 -48t-93 -130q-27 -57 -51.5 -131t-47.5 -158q143 0 236.5 1t155 6.5t98.5 11.5t67 16l6 -8q-35 -76 -75.5 -195.5 t-81.5 -250.5q-33 -98 -57.5 -182.5t-36.5 -135.5q-12 -61 16 -61q23 0 50.5 17t55 46t53 63.5t42.5 69.5l39 -43q-66 -123 -155 -187.5t-181 -64.5q-45 0 -67.5 17.5t-29 48.5t1 73t23.5 91q14 49 37.5 120.5t50.5 154.5t54.5 170t52.5 165l-373 -16q-31 -125 -63.5 -253 t-64.5 -244t-61.5 -214t-52.5 -162q-49 -129 -113.5 -215t-168.5 -147q-47 -29 -91.5 -40.5t-91.5 -11.5q-29 0 -56.5 10.5t-49 27t-34.5 38t-13 45.5z" />
<glyph unicode="&#xfb02;" horiz-adv-x="1062" d="M-399 -371q0 33 23.5 60.5t49.5 36.5q39 16 66 -27q27 -45 57.5 -69.5t67.5 -24.5q57 0 93 54t73 171q20 61 49 165.5t62.5 234.5t69.5 276.5t69 288.5l-152 18l23 55h147q23 80 45.5 139.5t47 106.5t52 83t62.5 69q72 66 148.5 96.5t164.5 30.5q63 0 113.5 -16.5 t79.5 -41.5q43 10 85 23.5t85 23.5q-29 -72 -80 -226.5t-123 -389.5q-33 -111 -62.5 -209t-53 -181t-40 -145.5t-24.5 -99.5q-12 -59 18 -59q41 0 100.5 55t98.5 139l41 -43q-66 -127 -156 -190.5t-182 -63.5q-47 0 -69.5 19.5t-29 52.5t2 77t22.5 91q35 119 74 247t79 258 t77.5 258t72.5 249q-10 39 -49 74.5t-111 35.5t-124 -44t-89 -130q-29 -59 -51 -133t-45 -156h240l-25 -57l-233 -16q-31 -125 -63.5 -253t-64.5 -244t-60.5 -213t-53.5 -161q-47 -129 -113.5 -217t-168.5 -149q-47 -29 -91.5 -39.5t-91.5 -10.5q-29 0 -56.5 10.5t-49 27 t-34.5 38t-13 45.5z" />
<glyph unicode="&#xfb03;" horiz-adv-x="1593" d="M-395 -371q0 33 25.5 65t54.5 36q35 10 61 -33q25 -41 52.5 -66.5t68.5 -25.5q59 0 95 55t71 172q20 61 49 166.5t62.5 236t69.5 275.5t71 287l-154 14l21 57h151q31 109 71 193t111 153q72 68 149 98.5t163 30.5q88 0 147.5 -27.5t81.5 -62.5q53 53 136 96.5t192 43.5 q115 0 180 -47.5t65 -124.5q0 -47 -28.5 -83t-83.5 -36q-33 0 -49 16q-27 20 -17 62q4 14 9.5 27.5t5.5 29.5q2 41 -21.5 69.5t-95.5 28.5q-63 0 -117.5 -49t-93.5 -131q-27 -55 -50.5 -128t-45.5 -159q141 0 234 1t154.5 6.5t98.5 11.5t68 16l6 -8q-41 -88 -79 -199.5 t-79 -240.5q-31 -100 -55.5 -184.5t-38.5 -141.5q-12 -59 16 -59q23 0 50.5 17t55 45t52.5 63.5t41 70.5l41 -41q-66 -123 -155 -188.5t-181 -65.5q-45 0 -67.5 17.5t-28.5 48.5t1 73t21 91t39 120.5t51.5 154.5t54 170t50.5 165l-369 -12q-31 -129 -63.5 -256t-63 -238.5 t-57.5 -200t-45 -137.5q-47 -119 -111.5 -208t-175.5 -152q-59 -35 -100 -44t-78 -9q-18 0 -40.5 7t-41 20t-31 31.5t-12.5 39.5q0 18 8 34.5t20.5 31t26 23.5t23.5 11q20 4 31.5 -5t27.5 -26q47 -63 109 -63q55 0 85 47t58 123q14 41 43 144.5t64 238.5t72.5 289.5 t70.5 298.5h-350q-31 -125 -63.5 -253t-64.5 -245t-60.5 -215t-53.5 -164q-49 -129 -113.5 -215t-168.5 -147q-47 -29 -92.5 -40.5t-92.5 -11.5q-55 0 -102 36t-47 85zM481 868h350q20 78 48 147.5t61 129.5q-10 53 -53 96t-117 43q-76 0 -129 -53t-88 -137 q-41 -100 -72 -226z" />
<glyph unicode="&#xfb04;" horiz-adv-x="1593" d="M-397 -371q0 33 25.5 61.5t52.5 37.5q20 8 34.5 -0.5t28.5 -28.5q25 -43 53.5 -68.5t69.5 -25.5q57 0 94 54t72 171q20 61 49 167.5t62.5 237t69.5 275.5t71 287l-154 14l21 57h151q29 109 69 192t111 152q139 133 318 134q78 0 138 -27t85 -62q59 59 140 97.5t186 38.5 q66 0 114.5 -16.5t77.5 -43.5q45 10 85 24.5t85 24.5q-31 -72 -81 -226.5t-122 -389.5q-33 -111 -62.5 -209t-53 -181t-40 -145.5t-24.5 -99.5q-12 -59 17 -59q41 0 100 55t98 139l41 -43q-63 -127 -153.5 -190.5t-182.5 -63.5q-47 0 -69.5 19.5t-28.5 52.5t2 77t23 91 q72 242 151.5 503t149.5 509q-10 39 -48 74.5t-110 35.5q-68 0 -121 -42t-94 -136q-27 -57 -49.5 -131t-44.5 -154h237l-24 -57l-230 -12q-33 -131 -65.5 -259t-63 -239t-56.5 -199t-44 -137q-47 -117 -111.5 -206t-175.5 -152q-57 -33 -97 -43t-81 -10q-18 0 -40.5 7 t-42 20t-32 30.5t-12.5 40.5q0 35 27.5 64.5t48.5 33.5q20 6 31.5 -2t27.5 -24q49 -66 113 -66q55 0 85 46t58 124q14 41 43 143.5t64 237.5t71.5 289.5t71.5 300.5h-350q-31 -125 -63.5 -253t-64.5 -245t-60.5 -215t-53.5 -164q-49 -129 -114.5 -215t-167.5 -147 q-47 -29 -92.5 -40.5t-92.5 -11.5q-57 0 -104 36t-47 85zM481 868h350q18 76 46 150t63 133q-10 53 -53 93t-115 40q-78 0 -131 -53t-88 -137q-23 -53 -39 -108.5t-33 -117.5z" />
<glyph horiz-adv-x="0" />
<glyph unicode="&#xd;" horiz-adv-x="423" />
<glyph unicode=" "  horiz-adv-x="423" />
<glyph unicode="&#x09;" horiz-adv-x="423" />
<glyph unicode="&#xa0;" horiz-adv-x="423" />
<glyph unicode="!" horiz-adv-x="417" d="M31 90q4 59 42 101t91 42q51 0 78.5 -34.5t23.5 -89.5q-4 -61 -42 -98.5t-97 -37.5h-2q-41 0 -69.5 32t-24.5 85zM195 418q14 57 28.5 127.5t25.5 144.5t20.5 148.5t13.5 144.5q4 55 7 99t13 79q8 31 27.5 59.5t43 50t49.5 34t48 12.5h2q25 0 44.5 -17.5t30.5 -43 t14 -56.5t-5 -57q-8 -31 -26.5 -71t-49.5 -97q-35 -66 -68.5 -139.5t-63.5 -147.5t-54.5 -143.5t-40.5 -126.5h-59z" />
<glyph unicode="&#x22;" horiz-adv-x="616" d="M268 981q18 55 33.5 112.5t25 109.5t14.5 96t3 71q10 6 29.5 16.5t41 19.5t43 15t34.5 6q16 0 24 -12t11 -29.5t2 -35t-3 -29.5q-10 -37 -35.5 -85t-58.5 -97t-65.5 -93.5t-55.5 -74.5zM553 981q20 55 35.5 112.5t26 109.5t14.5 96t2 71q10 6 29.5 16.5t42 19.5t43 15 t34.5 6t22.5 -12t11.5 -29.5t2 -36t-3 -28.5q-10 -37 -35.5 -85t-57.5 -97t-64.5 -93.5t-55.5 -74.5z" />
<glyph unicode="#" horiz-adv-x="903" d="M92 446q16 29 30.5 65t24.5 71q29 0 67 -1t105 -3l103 247q-63 2 -112.5 1t-88.5 -3q12 25 27.5 60t25.5 71q29 -2 81.5 -2h115.5q33 76 59.5 146.5t44.5 115.5l80 7q-12 -31 -43.5 -104t-72.5 -165h196q33 78 60.5 145.5t44.5 116.5l84 7q-25 -53 -56.5 -124t-60.5 -145 q72 0 111.5 1t68.5 1q-18 -35 -34.5 -72.5t-24.5 -60.5q-29 0 -69 1t-105 1l-97 -243q78 2 118 2t79 2q-14 -29 -29.5 -69t-25.5 -66q-37 -2 -83 -1t-112 1q-41 -102 -66.5 -176t-45.5 -130l-84 -6q14 35 46.5 113t80.5 199h-199q-45 -111 -74 -187t-45 -119l-86 -12 q16 39 47 109.5t88 208.5h-85t-89 -3zM389 578h199l98 247h-199z" />
<glyph unicode="$" d="M20 141q27 59 55.5 150.5t51.5 185.5l59 10q-27 -78 -28 -147q-8 -109 41 -168t143 -80q29 86 68 211t82 260q-37 27 -73 50.5t-63 45.5q-59 43 -91 99.5t-32 134.5q0 82 37 151.5t105 120.5q47 35 113.5 55.5t146.5 20.5q18 0 36.5 -1t28.5 -3l48 147l77 13l-57 -172 q47 -10 95 -37t69 -51q4 2 21.5 23.5t37.5 51.5l37 -20q-20 -45 -38.5 -94t-34 -96.5t-29 -91.5t-21.5 -76l-49 8q33 137 -1 215t-110 108q-23 -72 -60.5 -192.5t-78.5 -247.5q72 -49 111 -76.5t65 -52.5q53 -43 79 -92t26 -123q0 -72 -29 -132.5t-72 -103.5 q-66 -66 -155.5 -95.5t-202.5 -29.5h-20.5t-16.5 3l-55 -179l-80 -14l66 199q-84 10 -161 41.5t-141 70.5zM391 967q0 -72 44 -119t116 -94q20 66 40.5 132t39 123.5t33 102.5t20.5 70q-10 2 -27.5 3t-27.5 1q-115 0 -176.5 -62.5t-61.5 -154.5v-2zM408 80q8 -2 16 -2h16 q57 0 108.5 13t90.5 41t61.5 69t22.5 98v2q0 39 -11.5 68.5t-34 56.5t-55 51.5t-75.5 52.5q-18 -55 -38 -117.5t-38 -122t-34.5 -114.5t-28.5 -96z" />
<glyph unicode="%" horiz-adv-x="1501" d="M209 795q0 84 30.5 170t85 156.5t130 114.5t166.5 44q61 0 120 -33l27 21q35 -39 90 -69t135 -30q121 0 189.5 33t97.5 58q14 10 31.5 30.5t46.5 55.5l110 12q-53 -61 -129.5 -152.5t-171 -202t-201 -237.5t-218 -261t-225 -271.5t-222.5 -270.5l-59 53q53 59 134 153.5 t174 206t193.5 229.5t190.5 225.5t163.5 195.5t116.5 137q-113 -59 -251 -59q-39 0 -82 7t-72 19q4 -12 7 -35.5t3 -47.5q0 -84 -27.5 -170t-80 -155t-125 -113t-160.5 -44q-96 0 -156.5 56.5t-60.5 173.5zM362 766q0 -53 22 -94t79 -41q66 0 116 46t83.5 113.5t51 143.5 t17.5 135t-22.5 103.5t-90.5 44.5h-2q-23 0 -46 -8.5t-46 -30.5q-37 -31 -66.5 -80t-51 -106.5t-33 -116t-11.5 -109.5zM831 248q0 78 30 164t83 157.5t127 118.5t162 47h2q109 0 157 -63.5t48 -163.5q0 -82 -25.5 -169t-76 -157.5t-123 -117t-164.5 -46.5q-96 0 -158 54.5 t-62 175.5zM987 219q0 -57 22.5 -96t80.5 -39q63 0 112 47t83 113.5t51.5 140.5t17.5 129q0 29 -4 56.5t-16.5 50t-34 37t-56.5 14.5h-2q-53 0 -94 -39q-35 -31 -64.5 -80t-51 -105.5t-33 -117t-11.5 -111.5z" />
<glyph unicode="&#x26;" horiz-adv-x="1337" d="M90 317q0 92 37 162t109 129q47 39 121.5 66.5t154.5 38.5v10q-66 20 -114 67.5t-48 145.5q0 80 33 143.5t89 106.5t129 65.5t153 22.5q92 0 149.5 -21.5t91 -54.5t46 -68.5t12.5 -64.5q0 -63 -30 -90t-65 -27q-39 0 -55 21.5t-8 50.5q4 12 8 31.5t4 33.5 q0 53 -33.5 92.5t-111.5 39.5q-59 0 -102.5 -29t-71 -73t-42 -97t-14.5 -103q0 -80 27 -119.5t59 -54.5q23 0 57 2t62 7l8 -23l-57 -61q-16 4 -39.5 6t-40.5 2q-68 0 -124 -24.5t-96 -68.5t-62.5 -103.5t-22.5 -127.5q0 -145 86 -220t219 -75q90 0 163 32t124 88t82 132 t37 166h37l32 -115q-61 -180 -208.5 -285.5t-356.5 -105.5q-84 0 -161.5 19.5t-137 61.5t-94.5 108.5t-35 160.5zM649 418q23 49 54.5 92t68.5 75.5t78 51t84 18.5q53 0 120.5 -3t139.5 -7q68 -4 98.5 17.5t34.5 68.5q2 16 1 40t-5 40l16 12q18 -4 38 -22.5t18 -48.5 q0 -33 -14.5 -65t-34 -58.5t-44 -48t-47.5 -35.5q-31 -20 -65.5 -32.5t-77.5 -10.5q-57 2 -122.5 6t-110.5 4q-63 0 -107.5 -29.5t-83.5 -97.5z" />
<glyph unicode="'" horiz-adv-x="333" d="M270 981q18 57 33.5 114.5t25 109.5t14.5 95t3 70q8 6 27.5 16.5t41 19.5t43 15t36.5 6q14 0 23 -12t12 -29.5t2 -36t-3 -28.5q-10 -37 -35.5 -85t-57.5 -96t-64.5 -93.5t-57.5 -75.5z" />
<glyph unicode="(" horiz-adv-x="671" d="M102 193q0 141 31 292.5t89.5 296t145.5 274.5t197 226q72 61 146.5 108.5t148.5 79.5l23 -53q-80 -35 -178.5 -121t-196.5 -252q-59 -102 -105.5 -218.5t-79 -240.5t-49 -251t-16.5 -252q0 -166 39 -274.5t104 -161.5q-10 -14 -21 -25.5t-22 -26.5q-72 51 -120 119 t-78.5 146t-44 162.5t-13.5 171.5z" />
<glyph unicode=")" horiz-adv-x="671" d="M-115 -352q80 35 178.5 121t196.5 251q59 102 106.5 219t79 241t48 251t16.5 252q0 166 -39 274.5t-104 161.5q8 10 21 25.5t20 25.5q72 -49 121 -117.5t79.5 -146.5t44 -163t13.5 -171q0 -141 -31 -292.5t-90.5 -296t-146.5 -273.5t-197 -227q-70 -61 -144.5 -108.5 t-148.5 -80.5z" />
<glyph unicode="*" horiz-adv-x="796" d="M238 973q0 8 2 23.5t9 31.5t18.5 28.5t29.5 16.5q14 2 39.5 -1t57.5 -7t67 -6t69 4l5 -41q-35 -10 -66 -29.5t-58.5 -39t-49 -35t-35.5 -17.5q-18 -4 -34 4t-27 20.5t-18 26t-9 21.5zM328 1246.5q0 17.5 4 33.5t11 30.5t11 20.5q6 6 20.5 13.5t31 10.5t32 -1t25.5 -19 q8 -10 18.5 -35.5t21.5 -57.5t26.5 -64.5t35.5 -59.5l-30 -31q-25 25 -54.5 43.5t-59.5 34t-52.5 27.5t-30.5 25q-10 12 -10 29.5zM413 769q-5 17 1 36q6 12 22.5 32.5t38 47t43 57.5t35.5 66l37 -13q-10 -35 -11 -71.5t0 -70.5t2 -61.5t-6 -41.5q-6 -16 -21 -25.5 t-31.5 -14.5t-32 -6.5t-21.5 1.5q-8 2 -19.5 11t-21.5 22.5t-15 30.5zM586 1122q10 33 12 71t2 72.5v63.5t6 41q6 16 19.5 25.5t29 13.5t29.5 4t23 -2q8 -2 19 -10t21.5 -21.5t14.5 -30t-4 -34.5q-6 -12 -22.5 -33.5t-37 -48.5t-41 -57.5t-34.5 -63.5zM614 1008l31 28 q20 -25 50 -44t58.5 -34.5t52 -26.5t34.5 -24q10 -12 10 -29.5t-4 -35t-12.5 -30.5t-14.5 -19t-19.5 -13.5t-29.5 -10.5t-32.5 -1t-26.5 18q-8 10 -15.5 36t-18.5 58.5t-25.5 66.5t-37.5 61zM643 1094q35 10 67.5 29.5t60.5 39t50.5 34.5t36.5 20q16 2 30.5 -5.5t26 -19.5 t17.5 -25.5t8 -19.5q2 -8 -1 -24.5t-10 -33t-19.5 -29.5t-30.5 -16q-14 -2 -39 1.5t-56.5 7.5t-67.5 6t-69 -4z" />
<glyph unicode="+" horiz-adv-x="1062" d="M98 430v107h371v368h111v-368h364v-107h-364v-407h-111v407h-371z" />
<glyph unicode="," horiz-adv-x="397" d="M-68 -176q82 16 145.5 68.5t80.5 119.5q2 14 -15 4q-23 -12 -49 -12q-35 0 -58.5 27.5t-21.5 70.5q2 57 41 97.5t95 40.5q51 0 80.5 -41t27.5 -109q-2 -66 -29.5 -120t-70.5 -96t-98.5 -67.5t-110.5 -33.5z" />
<glyph unicode="-" horiz-adv-x="608" d="M82 391l45 123q111 -4 214 -4t228 4l-43 -123q-121 4 -227 4t-217 -4z" />
<glyph unicode="." horiz-adv-x="403" d="M20 88q4 59 42 101t92 42q51 0 78.5 -34.5t23.5 -90.5q-4 -61 -42 -98t-95 -37h-2q-43 0 -71 32t-26 85z" />
<glyph unicode="/" horiz-adv-x="716" d="M-55 -176q35 57 82 143t103 189.5t117.5 218t125.5 231.5q61 115 126.5 238t124 232.5t103.5 194.5t64 122l94 -33q-16 -23 -62.5 -103.5t-108 -192.5t-133 -242t-135.5 -253q-47 -86 -98 -184t-104.5 -199.5t-104.5 -201t-98 -187.5z" />
<glyph unicode="0" d="M96 330q0 109 25.5 235.5t76 247.5t123 225.5t166.5 167.5q57 39 117 56.5t123 17.5h4q82 0 138.5 -27.5t90 -77t49 -114t15.5 -137.5q0 -106 -23.5 -233.5t-69.5 -249.5t-114.5 -227t-159.5 -167q-66 -45 -131 -60.5t-125 -15.5q-84 0 -141 29t-94 78t-53.5 113.5 t-16.5 138.5zM274 246q0 -94 35 -153.5t109 -59.5q53 0 95 26.5t87 85.5q53 72 99 182.5t80 233.5t53.5 243t19.5 210q0 39 -6 76.5t-21.5 66.5t-41 46.5t-64.5 17.5h-2q-47 0 -88 -26t-88 -85q-59 -74 -107.5 -181.5t-84.5 -227t-55.5 -239.5t-19.5 -216z" />
<glyph unicode="1" d="M76 -6l20 55l150 14q41 4 57 12.5t27 35.5q23 55 60.5 179t98.5 341q35 127 72 253t70 255q6 27 -21 26q-31 -2 -90 -3t-125 -3l29 58q55 6 120.5 14t125 16t107.5 16.5t71 16.5l10 -6q-18 -51 -39.5 -124t-46 -158t-51.5 -177t-51 -184q-33 -117 -56.5 -201t-40 -144.5 t-26.5 -102.5t-17 -74q-4 -23 4.5 -32t34.5 -14l179 -14l-19 -55q-115 0 -194.5 3t-139.5 3q-72 0 -144.5 -3t-174.5 -3z" />
<glyph unicode="2" d="M-27 12q16 29 36 57.5t30 49.5q117 74 220 150.5t188 151.5t148.5 143.5t100.5 127.5q41 70 69 146.5t28 162.5q0 98 -41 157t-129 59q-55 0 -95.5 -24t-69 -61.5t-45 -88t-22.5 -105.5q-4 -41 -22.5 -66.5t-59.5 -25.5q-80 0 -80 102q0 49 35 114.5t101 119.5 q57 47 130.5 72.5t159.5 25.5q94 0 158 -27.5t102 -66.5q35 -37 55.5 -91.5t20.5 -119.5q0 -125 -59.5 -219t-157.5 -181q-70 -57 -208 -160.5t-359 -262.5q123 2 210 4t145.5 3t91 3t46.5 4q39 6 68 43q16 23 47 65.5t51 77.5l45 -26q-55 -104 -95 -196.5t-56 -137.5 q-14 0 -44 2t-92.5 3t-166 2t-262.5 1h-123.5t-91.5 -4z" />
<glyph unicode="3" d="M35 215q0 43 24.5 72.5t69.5 29.5q57 0 70 -88q14 -86 60 -142t138 -56q70 0 125.5 33.5t93 89t57 126t19.5 142.5q0 213 -213 213q-55 0 -114 -17l-23 37l23 35q25 2 62.5 7t70.5 12q123 23 203.5 105.5t80.5 219.5q0 78 -41 124t-116 46q-96 0 -172 -63.5t-117 -196.5 h-23l-43 76q14 37 48 82t87.5 85t125 66.5t157.5 26.5q127 0 206 -63.5t79 -178.5q0 -98 -46 -158.5t-118 -107.5q-43 -27 -92 -47t-109 -37l-2 -10q76 -10 139.5 -40t100.5 -77q25 -29 39 -68.5t14 -89.5q0 -104 -50 -191t-128 -144q-63 -47 -148.5 -72t-195.5 -25 q-70 0 -132.5 17.5t-108.5 49.5t-73.5 77t-27.5 100z" />
<glyph unicode="4" d="M53 446q100 113 212 231t215.5 223.5t191.5 192.5t141 140q39 8 90 20.5t86 26.5l12 -8q-63 -197 -119.5 -410t-113.5 -422q86 2 139.5 14.5t81.5 22.5l-12 -59q-35 -20 -93.5 -35.5t-135.5 -22.5q-23 -82 -46.5 -173t-50.5 -195q-57 0 -107 -7.5t-85 -17.5l-13 10 q23 61 49.5 153.5t65.5 223.5q-68 0 -147.5 3t-151.5 9.5t-129 13.5t-78 15zM180 467q12 -4 51 -10t95.5 -10.5t123 -7.5t134.5 -3q57 182 109 364.5t95 325.5q-170 -166 -328.5 -338t-279.5 -321z" />
<glyph unicode="5" d="M45 209q0 43 24.5 73.5t69.5 30.5q57 0 70 -90q12 -86 56 -139t138 -53q74 0 130.5 39t94.5 100t57.5 138t19.5 153q0 49 -12.5 89t-28.5 62q-20 31 -54.5 51.5t-89.5 20.5q-92 0 -164.5 -47t-122.5 -121l-38 53q25 47 50 111.5t48.5 134.5t46 140.5t40 133t30 109.5 t16.5 72q20 -8 54 -16.5t75 -14.5q43 -6 89 -10t89 -4q127 0 201 16t121 66l26 -39q-27 -47 -69.5 -92.5t-89.5 -67.5q-90 -45 -238 -45q-31 0 -65.5 2t-65.5 5t-56.5 6t-39.5 7q-20 -53 -41 -111.5t-40.5 -114.5t-39 -107.5t-35.5 -90.5q63 51 145 81t160 30q135 0 220 -76 t83 -227q0 -117 -47 -212t-127 -161q-66 -57 -151.5 -90t-202.5 -33q-70 0 -131.5 17.5t-106.5 48.5t-71.5 75t-26.5 97z" />
<glyph unicode="6" d="M96 350q0 109 27 217.5t77 210t121.5 190.5t161.5 156q115 86 233 121t220 35q57 0 88 -10l-4 -60q-12 2 -29.5 3t-34.5 1q-98 0 -194 -42t-178 -116.5t-146.5 -181t-101.5 -235.5q90 82 176 124t172 42q117 0 190.5 -80t73.5 -221q0 -127 -51 -234.5t-143 -185.5 q-63 -53 -143.5 -83t-174.5 -30q-172 0 -256 104.5t-84 274.5zM281 279q0 -113 44 -179.5t130 -66.5q49 0 94 19.5t86 72.5q29 37 51.5 82t37.5 96t22.5 103.5t7.5 101.5q0 39 -8.5 76t-26 65.5t-46 46t-71.5 17.5h-2q-47 0 -87 -15.5t-71.5 -40t-58.5 -56.5t-45 -64 q-29 -51 -43 -118t-14 -140z" />
<glyph unicode="7" d="M225 70q16 76 146 247q57 88 136 187.5t161 201t160.5 198.5t138.5 181q-47 6 -130 7.5t-180 1.5q-90 0 -141 -4.5t-79.5 -13.5t-44 -25.5t-32.5 -40.5q-20 -33 -41.5 -69t-37.5 -67l-50 19q20 37 43 93t42.5 111.5t34 102.5t18.5 70q14 -6 34.5 -9.5t65.5 -5.5 q43 -4 118 -4h195h152.5h95.5t58.5 1t37.5 1l7 -16q-35 -74 -89.5 -157t-113.5 -165q-96 -125 -182 -241.5t-157 -231t-125 -229.5t-87 -238l-8 -6q-35 0 -67 7.5t-52 21.5q-35 25 -27 72z" />
<glyph unicode="8" d="M63 252q0 72 33 129t90 102q41 33 102.5 70t135.5 80q-72 70 -108.5 133t-36.5 143q0 74 29.5 139.5t82.5 116.5q123 115 305 115h2q59 0 112.5 -17.5t92.5 -50t61.5 -81t22.5 -107.5q0 -74 -32.5 -127t-92.5 -96q-37 -29 -81 -54.5t-109 -62.5q59 -51 101 -93t67.5 -82 t38 -79t12.5 -84q0 -94 -42 -162.5t-114 -120.5q-66 -47 -145.5 -69.5t-169.5 -22.5q-78 0 -143.5 19.5t-112.5 55.5t-74 88t-27 118zM217 266q0 -106 63.5 -170.5t172.5 -64.5h4q51 0 97 16t81 48t55.5 77t20.5 102q0 86 -63.5 159t-176.5 163q-119 -72 -186.5 -151.5 t-67.5 -178.5zM442 989q0 -78 50.5 -142.5t136.5 -125.5q43 25 83 56.5t71.5 68.5t50 82t18.5 98q0 88 -50 141.5t-138 53.5h-2q-96 0 -158 -64.5t-62 -167.5z" />
<glyph unicode="9" d="M121 -16l2 61q14 -4 45 -4t53 4q113 6 206 54t165 127t122 180.5t81 214.5q-84 -84 -166 -122t-172 -38q-57 0 -107.5 18.5t-87.5 56t-58.5 94t-21.5 132.5q0 113 43 210t121 175q63 63 144 98t186 35q84 0 147.5 -29.5t106.5 -82t64.5 -124t21.5 -153.5 q0 -117 -25.5 -231.5t-75 -220t-121 -194.5t-163.5 -153q-53 -39 -109.5 -62.5t-109 -36.5t-99.5 -17.5t-84 -4.5q-33 0 -59.5 4.5t-48.5 8.5zM369 772q0 -98 46 -159.5t126 -61.5q86 0 140 45t93 109q33 57 48.5 130.5t15.5 139.5q0 106 -41 177t-129 71h-2 q-47 0 -93.5 -21.5t-89.5 -77.5q-57 -72 -85.5 -167t-28.5 -185z" />
<glyph unicode=":" horiz-adv-x="403" d="M23 86q4 59 41.5 100t91.5 41q49 0 76.5 -34.5t23.5 -88.5q-4 -61 -42 -97t-95 -36h-2q-41 0 -69 31t-25 84zM174 678q4 59 42 100t91 41q49 0 77 -33.5t24 -89.5q-4 -59 -42 -96t-96 -37h-2q-41 0 -68.5 31t-25.5 84z" />
<glyph unicode=";" horiz-adv-x="403" d="M-66 -174q80 16 143.5 68.5t80.5 117.5q2 8 -3 8t-14 -4q-18 -12 -49 -12q-35 0 -57.5 26.5t-20.5 69.5q2 55 41 96.5t95 41.5q49 0 78.5 -40t27.5 -108q-2 -66 -29.5 -120t-70.5 -95t-97.5 -67.5t-109.5 -32.5zM180 678q4 59 42 100t91 41q49 0 77 -33.5t24 -89.5 q-4 -59 -42 -96t-96 -37h-2q-41 0 -69.5 31t-24.5 84z" />
<glyph unicode="&#x3c;" horiz-adv-x="1024" d="M137 426v121l725 387v-123l-616 -324v-4l616 -319v-127z" />
<glyph unicode="=" horiz-adv-x="1062" d="M98 244v106h848v-106h-848zM98 614v107h848v-107h-848z" />
<glyph unicode="&#x3e;" horiz-adv-x="1024" d="M137 37v123l613 323v4l-613 322v125l725 -387v-121z" />
<glyph unicode="?" horiz-adv-x="811" d="M209 86q4 59 42 100t91 41q51 0 77.5 -34.5t22.5 -88.5q-4 -59 -40.5 -96t-94.5 -37h-2q-43 0 -70.5 31t-25.5 84zM264 1040q0 57 31 107.5t81 87.5t115.5 58.5t137.5 21.5q127 0 210 -72t81 -209q-2 -86 -49.5 -150.5t-127.5 -117.5q-76 -47 -137 -92t-102 -76 q-53 -41 -70.5 -84t-5.5 -104l-47 -21q-25 37 -45.5 83t-18.5 93q2 94 95 166q27 20 65.5 50t78.5 60.5t77 59.5t59 47q76 63 76 152q2 74 -41 113.5t-113 39.5q-78 0 -130 -42t-52 -121q0 -16 2 -29.5t6 -28.5q10 -35 -16 -61q-25 -29 -72 -29q-37 0 -62.5 26.5t-25.5 71.5 z" />
<glyph unicode="@" horiz-adv-x="1503" d="M82 209q0 184 63.5 349t179 290t275.5 197.5t350 72.5q131 0 230.5 -38t164 -103.5t97.5 -152.5t33 -185q0 -106 -34 -209.5t-98.5 -186.5t-155.5 -134.5t-204 -51.5q-53 0 -79.5 17.5t-34 49.5t2 77t27.5 100q-31 -47 -72 -91t-86 -78t-93 -54.5t-95 -20.5q-61 0 -89 41 t-28 105q0 72 23.5 148.5t64.5 148t94.5 132t112.5 97.5q53 33 94 46t88 13q49 0 79 -22.5t42 -52.5l19 49h139q-31 -72 -59.5 -152t-53 -155.5t-44 -139t-27.5 -100.5q-10 -45 -2 -65.5t38 -20.5q88 0 154 49t109 124t63.5 162t20.5 161q0 195 -119 309.5t-342 114.5 q-145 0 -265 -57.5t-206 -162.5q-111 -135 -163 -292.5t-52 -329.5q0 -102 26.5 -185t67.5 -133q53 -61 134 -98t179 -37q133 0 235.5 46t188.5 139l23 -54q-59 -63 -122 -104t-127.5 -63.5t-130 -32t-132.5 -9.5q-117 0 -210 37t-158.5 106.5t-100.5 168t-35 221.5z M592 213q0 -29 10 -46t33 -17q47 0 97 36.5t95 92t81 119t55 116.5q16 39 23 59.5t13 47.5q6 49 -15 79.5t-69 30.5q-41 0 -84 -28.5t-83 -81.5q-66 -88 -111 -199t-45 -207v-2z" />
<glyph unicode="A" horiz-adv-x="1198" d="M-104 -6l14 57q43 4 72.5 10.5t53 19.5t45 38.5t50.5 68.5q31 47 86 131t122 184.5t136.5 208t131 202t108.5 167t65 103.5q31 47 39 76l6 18q18 0 41 3t45.5 9t43 15.5t34.5 21.5l15 -8q-2 -47 -4.5 -127t-2.5 -180.5v-210t2 -213.5q4 -197 7.5 -308.5t11.5 -166.5 q4 -25 14 -35t35 -15l111 -12l-11 -57q-39 0 -111.5 3t-146.5 3q-66 0 -133 -2t-121 -4l17 57q47 4 74.5 8t41 12.5t18.5 23t5 36.5q4 115 4 211v182q-141 0 -240.5 -7t-150.5 -15q-80 -129 -131 -218t-70 -126q-14 -31 -15 -50.5t14.5 -30.5t50 -16.5t94.5 -9.5l-15 -57 q-47 0 -111.5 3t-115.5 3q-78 0 -135.5 -3t-93.5 -3zM475 580q59 8 140 10t200 6q2 111 2 253t4 281q-29 -47 -61.5 -97t-73.5 -113.5t-92 -146.5t-119 -193z" />
<glyph unicode="B" horiz-adv-x="1159" d="M-45 -6l16 55q49 4 80 8t49.5 10.5t26.5 15.5t14 21q43 123 86 266.5t88 299.5q18 63 38 131.5t39.5 137.5t36.5 133.5t30 119.5q2 12 -2 20.5t-21.5 14.5t-52.5 9t-92 7l18 55q20 0 52 -1t66 -2t66.5 -2t55.5 -1q66 0 125 3t143 3q68 0 115 -5t81 -16t57.5 -26.5 t41.5 -33.5q53 -59 53 -156q0 -127 -59 -205t-166 -121q-35 -14 -77 -22t-89 -15v-10q96 -12 154.5 -38.5t89.5 -61.5q66 -63 65 -178q0 -131 -69.5 -222.5t-177.5 -140.5q-66 -31 -149 -42t-169 -11q-82 0 -160.5 3t-158.5 3q-59 0 -129 -2t-115 -4zM344 92q-1 -2 -1 -5 q1 -13 21 -21q24 -10 107 -11q190 0 295.5 104.5t107.5 284.5v2q0 33 -7 67t-25 62q-29 41 -87.5 65t-168.5 24q-23 0 -47.5 -1t-40.5 -4q-18 -66 -40 -141.5t-42.5 -150t-40 -146t-31.5 -129.5zM516 721q12 -2 34.5 -2h51.5q76 0 143.5 23.5t118.5 68.5t80 109.5t29 146.5 v2q0 29 -8.5 56.5t-20.5 45.5q-18 27 -60 46.5t-139 19.5q-51 0 -66 -8t-20 -25q-14 -39 -32.5 -100.5t-38 -130t-39 -136t-33.5 -116.5z" />
<glyph unicode="C" horiz-adv-x="1200" d="M152 449q0 94 20.5 193t60 193.5t98 179.5t134.5 152q76 63 181.5 110.5t250.5 47.5q111 0 191.5 -36t115.5 -89l72 107l43 -21q-16 -39 -34.5 -93t-37 -112.5t-35 -116t-24.5 -102.5l-51 -2q12 70 12 131q0 19 -1 38q-5 77 -34 124q-31 53 -81 81t-126 28t-153.5 -34 t-149.5 -112q-59 -70 -104 -152.5t-75 -172t-45 -182.5t-15 -181q0 -90 21.5 -164t49.5 -112q39 -49 97.5 -78t128.5 -29q164 0 265 81t169 228h32q2 -25 4.5 -56.5t0.5 -53.5q-37 -63 -93.5 -114.5t-126 -87.5t-147.5 -55.5t-160 -19.5q-225 0 -339.5 128t-114.5 354z" />
<glyph unicode="D" horiz-adv-x="1337" d="M-47 -6l20 57l97 8q35 4 50 16.5t32 53.5q6 20 15 49t26.5 83t44 143.5t67.5 230.5q39 133 64.5 224t42 152.5t25.5 99.5t16 63q8 31 -1.5 42t-37.5 15l-127 14l22 53q14 0 42 -1t59.5 -2t65.5 -2t63 -1q33 0 66.5 1t70.5 3q39 2 80 3t88 1q133 0 221 -27.5t147 -80.5 q61 -53 96 -145.5t35 -206.5q0 -125 -31.5 -246t-92 -226.5t-150.5 -189.5t-207 -133q-72 -29 -164 -42t-186 -13q-78 0 -154 6q-39 2 -76.5 3t-76.5 1q-29 0 -66 -1t-72.5 -2t-66.5 -2t-47 -1zM354 102q-1 -5 -1 -9q0 -6 2 -12q3 -9 15.5 -15.5t38 -10.5t68.5 -4 q109 0 173.5 15.5t111.5 39.5q88 47 157.5 133.5t117.5 194t75 225t27 226.5q0 84 -17.5 146.5t-48.5 101.5q-45 59 -115.5 82.5t-162.5 23.5h-2q-76 0 -98.5 -8t-30.5 -27q-6 -16 -16.5 -46t-29 -90t-47 -158.5t-71.5 -250.5q-41 -152 -67.5 -249t-43 -158.5t-25 -95 t-10.5 -54.5z" />
<glyph unicode="E" horiz-adv-x="1118" d="M-53 -6l18 55l115 14q29 4 44 16.5t28 51.5q35 104 76.5 242.5t88.5 306.5q47 160 81 286t55 218q6 25 -1.5 35t-39.5 14l-119 10l20 55q53 0 135 -3t158 -3h312q117 0 188.5 4t101.5 9q-10 -20 -24.5 -63.5t-29.5 -95.5t-29.5 -104.5t-22.5 -89.5l-49 -2q4 41 8 90.5 t4 94.5q0 29 -8 47t-30.5 29.5t-64.5 15.5t-112 4h-150q-18 0 -26 -7t-17 -28q-12 -37 -30.5 -96.5t-39 -127t-40 -137t-33.5 -128.5q14 -4 58 -4.5t98 -0.5q53 0 88 8.5t60.5 27t45 50t41.5 78.5h51q-41 -104 -73.5 -225t-55.5 -225h-49q8 61 9 104v6q0 38 -12 62 q-13 26 -44 37.5t-86 11.5h-88t-65 -4q-43 -152 -79 -285t-59 -231q-4 -16 -3 -27.5t16.5 -17.5t48.5 -8.5t92 -2.5q78 0 132 3.5t92 10.5t64.5 20.5t51.5 33.5q51 43 93 105.5t77 121.5l51 -18q-10 -23 -31.5 -72t-44 -104.5t-44 -105.5t-29.5 -70q-25 4 -63 5t-97 5 q-59 2 -140 3t-192 1h-199q-41 0 -82 -1t-77 -1q-37 -2 -69 -3t-54 -1z" />
<glyph unicode="F" horiz-adv-x="1052" d="M-45 -6l18 55l105 12q23 2 39 11.5t26 38.5q35 90 77 232t95 329q31 106 53.5 188t40 144.5t29 107.5t17.5 80q6 33 -29 37l-135 14l20 55q29 0 68 -1t81 -2t86 -2t81 -1h233q106 0 202.5 3t182.5 14q-23 -55 -41 -113.5t-33.5 -109t-25.5 -89.5t-15 -53h-53 q8 37 13.5 87t5.5 97q0 31 -7.5 50.5t-31 32t-68.5 16.5t-121 4h-163q-16 0 -27.5 -6t-18.5 -25q-10 -25 -27.5 -83t-39 -132t-44 -154.5t-40.5 -148.5q14 -4 55 -4h107q61 0 101 6t67.5 24.5t50 52.5t49.5 91l49 -4q-16 -43 -36.5 -108.5t-39 -134t-34 -131t-21.5 -95.5 h-51q10 70 12 115v10q1 38 -13 62q-16 26 -52.5 36t-104.5 10h-103t-57 -2q-37 -131 -72.5 -264t-56.5 -229q-6 -29 3.5 -38t31.5 -13q23 -4 72 -8.5t84 -8.5l-19 -55q-29 0 -66.5 1t-77.5 2t-79 2t-69 1q-37 0 -77 -1t-79 -2t-72 -2t-55 -1z" />
<glyph unicode="G" horiz-adv-x="1304" d="M152 442q0 123 31.5 247t91 233.5t147.5 197.5t199 142q139 63 305 63q68 0 121 -11t94 -29.5t68.5 -41t41.5 -43.5l78 115l45 -21q-10 -23 -28.5 -71.5t-41 -111t-44 -130.5t-33.5 -125h-58q16 77 16 140q0 99 -39 162q-65 104 -222 104q-70 0 -138.5 -26t-132.5 -81 q-72 -66 -126 -151.5t-91 -184t-55.5 -204t-18.5 -207.5q0 -94 23 -167t51 -108q35 -41 89.5 -70.5t133.5 -29.5q106 0 154.5 33.5t71.5 87.5q23 53 44 128.5t40 147.5q10 39 10 62q0 14 -4 22q-10 21 -57 25l-127 12l18 55q18 0 54 -1t77 -2t80 -2t65 -1q31 0 64 1t65.5 2 t60.5 2t48 1l-12 -53q-35 -4 -56.5 -8t-35 -10.5t-21.5 -16.5t-14 -24q-12 -29 -25.5 -69t-26 -83t-22.5 -81t-16 -60q-12 -53 -16.5 -85t-8.5 -61q-43 -10 -97 -26.5t-95 -28.5q-43 -10 -106.5 -21.5t-135.5 -11.5q-229 0 -356 125t-127 350z" />
<glyph unicode="H" horiz-adv-x="1366" d="M-41 -6l16 57q45 2 76 6t51.5 12.5t31.5 21.5t18 34q35 102 75.5 239.5t87.5 303.5q49 176 85 297.5t53 199.5q3 12 3 21q0 26 -22 38q-28 14 -133 19l21 55q41 -2 108.5 -4t138.5 -2q55 0 127 3t133 3l-14 -55q-43 -2 -71.5 -6t-46 -12t-28 -21.5t-18.5 -34.5 q-14 -43 -31.5 -98t-36 -116.5t-36 -125t-33.5 -120.5q29 -2 97.5 -2h152.5h163t128 2q16 55 34.5 120.5t36 130t33 122t23.5 96.5q6 37 -18.5 49t-116.5 14l16 57q72 -2 136.5 -4t111.5 -2q31 0 66.5 1t70.5 2t64.5 2t48.5 1l-15 -57q-45 -2 -73.5 -6t-46 -12.5 t-27.5 -21.5t-19 -34q-14 -39 -29.5 -85t-33 -105t-39 -137t-47.5 -181q-47 -166 -82 -297t-57 -233q-4 -23 -1 -37t20 -22.5t51 -12.5t89 -6l-22 -57q-51 0 -128 3t-143 3q-68 0 -134 -2t-122 -4l21 57q45 2 74.5 7t48 14.5t30 27t19.5 45.5q18 63 38.5 133t39 135.5 t35 124t28.5 99.5q-43 2 -121.5 3t-162.5 1q-86 0 -155 -1t-103 -3q-20 -72 -40 -144.5t-38.5 -140t-32.5 -126t-25 -103.5q-10 -41 16.5 -54.5t125.5 -17.5l-17 -57q-59 2 -137 4t-135 2q-68 0 -133.5 -2t-118.5 -4z" />
<glyph unicode="I" horiz-adv-x="634" d="M-43 -6l20 55l89 10q37 4 54 17.5t32 54.5q10 27 22 64.5t30.5 98t44 146.5t62.5 213q33 111 55.5 193t40 142.5t28.5 103.5t20 73q10 37 0.5 50.5t-43.5 17.5l-105 8l21 57q59 0 122.5 -3t129.5 -3q76 0 142 3t114 3l-19 -57l-90 -8q-31 -4 -46 -16.5t-28 -47.5 q-18 -49 -57 -177t-98 -341q-59 -205 -95 -339t-47 -189q-8 -37 2.5 -48.5t38.5 -15.5l111 -10l-19 -55q-25 0 -59.5 1t-72.5 2t-75.5 2t-70.5 1q-80 0 -143.5 -3t-110.5 -3z" />
<glyph unicode="J" horiz-adv-x="606" d="M-197 -221l15 18q18 -10 44.5 -17t57.5 -7q27 0 51.5 7t46 28.5t43 60.5t43.5 104q25 63 62 179t86 290q55 203 91 332t57.5 210t31.5 123t17 71q6 29 -1.5 40t-35.5 15q-27 4 -55.5 6t-57.5 4l23 55q53 0 109 -3t128 -3q68 0 137.5 3t120.5 3l-16 -55q-23 -4 -48.5 -6 t-50.5 -6q-23 -4 -33 -15.5t-18 -35.5q-16 -41 -65 -223.5t-135 -493.5q-35 -131 -62 -216t-47 -149q-29 -86 -69 -155.5t-95 -120.5q-39 -39 -80 -62.5t-78.5 -37t-71.5 -18.5t-59 -5q-49 0 -67 25q-8 12 -12.5 28.5t-6.5 26.5z" />
<glyph unicode="K" horiz-adv-x="1230" d="M-35 -6l19 57l86 8q37 4 53 18.5t27 43.5q10 31 24 75t34.5 107.5t46.5 150.5t60 208q23 80 45.5 158.5t41 146t33 122t20.5 89.5q8 31 -1.5 43t-45.5 14l-97 8l21 55q49 -2 117.5 -4t128.5 -2q78 0 139 3t112 3l-16 -55l-80 -8q-35 -4 -51 -12.5t-27 -36.5 q-18 -47 -58 -178t-93 -324q39 14 95 50t117.5 84t125 103.5t120 107.5t99.5 96t63 71q27 29 -12 33l-104 12l18 55q49 0 106.5 -2t118.5 -2t116.5 2t92.5 4l-18 -55q-45 -4 -75 -9t-53.5 -13.5t-45 -21.5t-45.5 -32q-35 -27 -91.5 -75t-126 -107t-145.5 -124.5t-149 -125.5 q23 -49 66.5 -141t93 -189.5t93.5 -181.5t68 -117q8 -12 19.5 -21t31 -15.5t49 -11.5t76.5 -7l-22 -57q-47 3 -88 3h-20q-48 -1 -87 -5q-47 -2 -79.5 -6t-55.5 -9q-12 33 -49 109t-81 167t-89 182t-74 157q-12 31 -27.5 41t-46.5 -2q-47 -168 -82.5 -302t-54.5 -220 q-6 -27 4.5 -36.5t44.5 -13.5l95 -8l-19 -57q-20 0 -52 1t-69 2t-76.5 2t-72.5 1q-72 0 -135.5 -3t-106.5 -3z" />
<glyph unicode="L" horiz-adv-x="1058" d="M-47 -6l16 55q25 4 52.5 6t56.5 6q25 4 41 13.5t26 36.5q29 86 71 226t101 345q47 162 80 285t58 219q4 23 -4.5 33t-36.5 14l-111 10l21 55q16 0 46.5 -1t66.5 -2t74 -2t69 -1q66 0 134 2t134 4l-17 -55l-106 -12q-33 -4 -47 -14.5t-25 -38.5q-29 -78 -64.5 -200 t-86.5 -304q-25 -90 -48.5 -175t-43 -161t-36 -139.5t-26.5 -108.5q-4 -16 15.5 -23.5t93.5 -7.5q84 0 139 3.5t92 11.5t61.5 23.5t47.5 39.5q47 47 88 110.5t80 133.5l55 -8q-12 -29 -30.5 -75t-39 -99.5t-42 -107.5t-40.5 -101q-29 4 -93 6t-151 3t-189.5 1h-209.5 q-35 0 -73.5 -1t-76.5 -2t-70 -2t-52 -1z" />
<glyph unicode="M" horiz-adv-x="1660" d="M-84 -6l18 55q35 4 62 8t47 9q29 4 50.5 22t37.5 59q29 70 71 187t91 258t99 294.5t97 297.5q6 25 -1 33t-31 12l-142 14l25 55q47 -2 107.5 -4t117.5 -2q109 0 156 6q0 -31 7 -98t16.5 -156.5t20.5 -191.5t22.5 -201.5t20.5 -188.5t15 -151q55 86 120 187.5t130.5 204 t127 199.5t112.5 178t87 138.5t48 79.5q31 -4 73 -5t78 -1q53 0 113 3t117 3l-17 -55q-35 -4 -64.5 -7t-57.5 -7q-43 -6 -56 -53q-18 -66 -39.5 -152t-44 -182.5t-46 -197.5t-45 -195.5t-38 -177.5t-26.5 -142q-8 -41 6 -52t55 -16l105 -12l-21 -55q-53 4 -128 5t-148 1 q-74 0 -142.5 -1t-122.5 -5l19 55q51 6 80.5 11.5t47 14.5t27 24.5t15.5 37.5q20 70 49 178.5t65.5 247.5t80.5 305t94 353h-2q-123 -190 -237 -376t-212 -346.5t-175 -290.5t-124 -210q-23 -2 -44 -6l-42 -8q-2 59 -8 145t-13.5 188.5t-16.5 216t-17 226t-16.5 220 t-14.5 198.5h-2q-53 -170 -103.5 -327t-91.5 -290t-71.5 -236.5t-44.5 -162.5q-8 -31 -6 -51.5t18 -32.5t53 -18.5t101 -10.5l-19 -55q-49 0 -108.5 3t-124.5 3q-31 0 -67 -1t-69.5 -2t-61.5 -2t-42 -1z" />
<glyph unicode="N" horiz-adv-x="1308" d="M-47 -6l20 55q20 0 52 5t51 9q27 6 45 24.5t37 62.5q10 27 29.5 86t43 140t51 178t57.5 199.5t57.5 205t52.5 192.5q10 41 -7.5 57.5t-54.5 20.5l-117 12l21 57q33 0 89 -4t116 -4q43 0 73.5 2t61.5 6q39 -109 88 -243.5t101 -276t103.5 -278.5t94.5 -248 q106 391 162.5 612t66.5 301q4 35 -8 48.5t-55 17.5l-107 10l23 57q17 1 35 1q35 0 73 -3q56 -4 101 -4q53 0 121 4q46 3 80 3q17 0 30 -1l-20 -57q-53 -4 -99 -12q-23 -4 -39 -17.5t-28 -42.5q-12 -33 -35 -100.5t-50.5 -160.5t-58 -204.5t-62.5 -230.5t-62.5 -240.5 t-55.5 -234.5q-37 0 -72.5 -7t-60.5 -16q-29 92 -77 230.5t-103 293t-112.5 311.5t-102.5 290q-41 -152 -79 -296.5t-69.5 -268t-54.5 -220t-33 -151.5q-6 -29 -6 -49q0 -15 4 -23q8 -20 37 -24q25 -4 61.5 -9.5t77.5 -9.5l-18 -55q-59 0 -127 3t-127 3q-47 0 -107.5 -1 t-107.5 -5z" />
<glyph unicode="O" horiz-adv-x="1310" d="M143 416q0 104 26 215.5t73 218t115.5 199t152.5 153.5q80 59 173 91t204 32h2q213 0 324.5 -120t111.5 -337q0 -88 -18.5 -184t-52 -190.5t-82 -179.5t-109.5 -148q-104 -109 -222 -154t-251 -45q-98 0 -180 25.5t-141.5 81t-92.5 140.5t-33 202zM350 346 q0 -168 68.5 -241.5t171.5 -73.5q78 0 147.5 30.5t139.5 114.5q55 72 101 168t77.5 202.5t49 214t17.5 204.5q0 61 -12 116.5t-41 96.5t-74 65.5t-110 24.5h-2q-72 0 -143.5 -37t-137.5 -117q-57 -72 -103 -167t-79 -198.5t-51.5 -208t-18.5 -194.5z" />
<glyph unicode="P" horiz-adv-x="1105" d="M-45 -6l18 57l86 8q41 4 59.5 18.5t35.5 55.5q14 39 27.5 82t31.5 103.5t44 145.5t60 206q35 125 59.5 211t40 144t25 93t13.5 58q8 29 -0.5 39t-36.5 14l-129 12l24 57q16 0 44 -1t60 -2t65.5 -2t62.5 -1q53 0 112.5 3t145.5 3q145 0 213.5 -30.5t103.5 -73.5 q35 -39 52.5 -95.5t17.5 -121.5q0 -106 -42 -206.5t-128 -174.5q-39 -31 -82 -51.5t-86 -31.5t-83 -16t-73 -5q-96 0 -147 22l14 59q23 -8 48.5 -11t52.5 -3q43 0 92 16.5t90 53.5q76 68 110.5 169t34.5 208q0 53 -12 94t-35 65q-23 29 -65.5 49.5t-118.5 20.5 q-49 0 -69.5 -9t-31.5 -34q-16 -47 -62 -196.5t-110 -381.5q-35 -121 -57 -204.5t-36.5 -140t-23 -89.5t-12.5 -49q-6 -35 2.5 -49t47.5 -19l133 -12l-21 -57q-57 0 -133 3t-172 3q-82 0 -153.5 -3t-106.5 -3z" />
<glyph unicode="Q" horiz-adv-x="1310" d="M143 416q0 104 26 218t74 219t114.5 195.5t148.5 149.5t174 93t209 34q211 0 322.5 -120t111.5 -337q0 -88 -18.5 -185t-52 -190.5t-81 -178.5t-106.5 -146q-92 -96 -188.5 -139t-184.5 -58v-6q53 -23 125 -60.5t152 -70.5q100 -43 184 -50q53 -4 90 -4q21 0 37 1v-47 q-18 -16 -47 -29.5t-63.5 -24t-72.5 -16.5t-73 -6q-55 0 -106.5 17.5t-100.5 48t-97 70.5t-99 85q-55 47 -95.5 68.5t-85.5 36.5q-147 47 -222 148t-75 284zM350 340q0 -160 66.5 -237.5t177.5 -77.5q72 0 143.5 32.5t139.5 118.5q55 74 101 170t77.5 200.5t49 212 t17.5 204.5q0 141 -57 223t-182 82h-2q-152 0 -281 -156q-55 -74 -101 -169t-79 -198.5t-51.5 -208t-18.5 -196.5z" />
<glyph unicode="R" horiz-adv-x="1155" d="M-39 -6l21 57l71 8q47 4 64.5 18.5t32.5 51.5q35 84 167 543q33 113 56.5 196.5t40 143t27 97.5t16.5 62q8 35 -3.5 45.5t-45.5 14.5l-117 12l22 55h45t63 -2t67.5 -3t62.5 -1q53 0 120.5 3t159.5 3q117 0 177.5 -18t101.5 -53q35 -33 50.5 -81t15.5 -104 q0 -86 -33 -152.5t-90.5 -112.5t-137 -74.5t-172.5 -38.5l-2 -11q157 -29 215 -89q51 -53 51 -140q0 -12 -1 -25q2 -13 2 -28q0 -21 -4 -45q-6 -42 -23 -117q-8 -37 -7 -65q0 -30 8 -52q17 -41 85 -43h32.5t30.5 4l-24 -59q-18 -4 -54 -8t-73 -4q-74 0 -119 17t-66.5 50 t-23.5 80v14q0 42 10 90q10 45 18.5 85t16.5 77q7 34 7 63q0 24 -5 42q-10 42 -36.5 68t-67.5 36t-90 14q-39 4 -76 6.5t-58 -1.5q-35 -123 -58 -206t-38.5 -138.5t-24 -91t-14.5 -62.5q-8 -37 2.5 -48t44.5 -16l105 -12l-19 -55q-18 0 -49.5 1t-68.5 2t-76 2t-76 1 q-70 0 -139.5 -3t-116.5 -3zM510 690q14 -2 29.5 -2h31.5q96 0 171 27.5t127.5 77t80 117t27.5 147.5q0 82 -39 125q-20 23 -56 39t-102 16h-51q-27 0 -43 -8t-27 -35q-6 -16 -14 -42t-23.5 -80t-42 -144t-69.5 -238z" />
<glyph unicode="S" horiz-adv-x="954" d="M35 88q12 31 27.5 76t31 93t27.5 96t22 87l62 11q-10 -37 -19.5 -89.5t-9.5 -93.5q0 -127 73 -182t189 -55q57 0 106.5 18.5t86.5 52t57.5 81.5t20.5 108q0 53 -19.5 92t-54.5 74q-20 20 -48 46.5t-59.5 54.5t-64.5 56.5t-60 53.5q-63 53 -99 117.5t-36 150.5 q0 98 39 175t107 130q51 41 116.5 62.5t149.5 21.5q98 0 165.5 -31.5t96.5 -74.5l70 98l43 -27q-20 -45 -40 -96t-37 -103.5t-31.5 -101.5t-24.5 -88l-56 8q17 71 17 129q0 80 -33 134q-57 92 -180 92q-117 0 -174.5 -70t-57.5 -170q0 -55 22.5 -105.5t76.5 -91.5 q74 -74 131 -124t98 -85q59 -47 93 -104t34 -137q0 -160 -102 -268q-70 -76 -165.5 -109t-211.5 -33q-104 0 -204.5 34t-174.5 87z" />
<glyph unicode="T" horiz-adv-x="1155" d="M168 -6l16 57q29 2 54.5 4t66.5 6q35 4 55.5 15.5t30.5 44.5q41 109 85 252t97 332q47 166 86 304t62 226q-94 0 -150.5 -4t-91.5 -15.5t-55.5 -32t-42.5 -50.5q-37 -51 -67.5 -106.5t-53.5 -96.5l-49 18q14 29 33.5 78t40 103.5t39 105.5t28.5 84q18 -8 46 -12t75 -9 q47 -4 118 -5t175 -1h135h198t126 3t78.5 8.5t58.5 15.5q-6 -14 -20.5 -54t-33 -93.5t-36 -113t-29.5 -110.5l-59 -16q14 76 19 135q4 42 4 71q0 12 -1 21q0 23 -9 38t-39 23.5t-87 11.5t-156 3q-35 -106 -75.5 -252.5t-81.5 -290.5q-45 -162 -86 -313.5t-64 -255.5 q-6 -31 4.5 -43t34.5 -14q47 -6 78 -9.5t72 -5.5l-19 -57q-25 0 -61.5 1t-79.5 2t-87 2t-83 1q-70 0 -149.5 -2t-149.5 -4z" />
<glyph unicode="U" horiz-adv-x="1277" d="M198 227q-3 21 -2 44q0 64 21 147q18 72 51 185.5t67 230t61.5 214t35.5 136.5q2 9 2 16q0 28 -31 31l-110 12l20 55q61 0 126 -3t130 -3q72 0 128.5 3t109.5 3l-14 -55l-97 -12q-23 -4 -36 -13.5t-23 -31.5q-23 -59 -55.5 -162.5t-65.5 -220.5t-62.5 -230.5 t-47.5 -193.5q-14 -60 -14 -105q0 -28 6 -50q14 -56 46 -95q29 -35 85.5 -56.5t119.5 -21.5q76 0 134.5 18.5t105.5 64.5t85 122t73 190q29 94 56 195.5t52 196t44.5 175.5t29.5 134q5 24 5 40.5t-5 24.5q-10 16 -51 19l-105 12l19 55q41 0 100 -3t106 -3q53 0 107.5 3 t107.5 3l-14 -55q-49 -4 -78.5 -9t-47 -16.5t-28 -32t-20.5 -52.5q-23 -66 -48.5 -156t-53 -188.5t-55 -194.5t-52.5 -176q-23 -74 -45 -133.5t-51 -105.5t-67 -84t-87 -68q-57 -35 -133 -48.5t-160 -13.5q-106 0 -195 35t-130 94q-40 55 -50 133z" />
<glyph unicode="V" horiz-adv-x="1183" d="M197 1241l18 57q39 0 102.5 -3t126.5 -3q68 0 135.5 2t131.5 4l-15 -57q-49 -4 -77.5 -8t-44 -11.5t-19.5 -17.5t-4 -26q-2 -53 -3 -166v-120v-134q1 -140 2 -289.5t3 -278.5q174 276 325.5 510t276.5 461q18 35 14 48.5t-26 17.5q-33 4 -63.5 7t-63.5 7l16 57 q12 0 37 -1t55.5 -2t63.5 -2t61 -1q47 0 105.5 3t118.5 3l-15 -57q-47 -4 -76.5 -10t-53 -19.5t-42 -35t-43.5 -54.5q-55 -78 -141 -206t-186.5 -280.5t-204 -319t-195.5 -322.5q-43 0 -80 -9.5t-59 -19.5l-8 8v185.5t-1 221.5t-3.5 234.5t-4.5 226t-5 195.5t-5 144 q-2 25 -12 36t-43 15z" />
<glyph unicode="W" horiz-adv-x="1710" d="M205 1243l16 55q41 -2 103.5 -4t128.5 -2q72 0 134 2t128 4l-15 -55q-49 -4 -77.5 -7t-44 -11t-19.5 -21.5t-6 -36.5q-6 -74 -11 -179t-10.5 -229t-11.5 -259t-12 -267q55 113 118.5 237t129 252t129 256t119.5 249q12 29 20 61q8 -1 17 -1q24 0 62 4q52 5 85 14 q-2 -41 -4 -146.5t-4 -253t-5.5 -326t-7.5 -364.5q125 217 211 368.5t146.5 259t99.5 181.5t68 135q18 39 11 53.5t-40 18.5l-111 12l17 55q18 0 43.5 -1t54.5 -2t58.5 -2t56.5 -1q59 0 112.5 3t106.5 3l-12 -55q-43 -4 -72 -9t-49.5 -15.5t-35.5 -25.5t-32 -40 q-47 -70 -104.5 -164t-121 -200.5t-128 -217t-123.5 -216t-111.5 -199t-87.5 -160.5q-88 -8 -131 -29l-12 8q4 86 6 209t5 269.5t5 306.5t7 319q-186 -381 -323.5 -645t-213.5 -438q-47 -6 -78 -12.5t-55 -16.5l-12 8q2 55 6 150.5t8 209.5t8 236.5t7 237.5t4 211t1 156 q-2 29 -9 40t-36 15q-57 8 -106 12z" />
<glyph unicode="X" horiz-adv-x="1204" d="M-104 -6l14 55q43 2 74.5 8t56.5 16.5t47.5 26t48.5 39.5q37 33 94.5 97.5t123 140.5t131 153.5t116.5 141.5q-35 125 -62.5 216t-46 152.5t-30.5 97.5t-17 48q-10 25 -28.5 34t-48.5 13l-113 10l16 55q47 -2 109.5 -4t134.5 -2q135 0 262 6l-12 -55q-41 -4 -64.5 -8 t-35 -11t-12.5 -18.5t3 -27.5l45 -153t56 -208q43 49 86 99.5t82 98.5t70.5 89t52.5 72q18 29 12 40t-37 15l-90 12l16 55q33 0 92.5 -3t126.5 -3q68 0 127.5 3t106.5 3l-12 -55q-59 -6 -96.5 -12t-67 -18.5t-55 -34t-58.5 -54.5q-53 -53 -135 -147t-199 -232 q74 -258 120 -404t71 -216q10 -35 32.5 -46t67.5 -16l103 -14l-13 -55q-53 0 -124.5 3t-137.5 3q-70 0 -140.5 -2t-144.5 -4l13 55q88 10 111.5 23.5t13.5 50.5q-23 86 -55.5 202.5t-71.5 274.5q-49 -61 -104.5 -127.5t-104.5 -130t-90 -117t-62 -86.5q-20 -28 -20 -46 q0 -25 39 -30l110 -14l-16 -55q-80 6 -240 6h-71.5t-58 -1t-54.5 -2t-57 -3z" />
<glyph unicode="Y" horiz-adv-x="1050" d="M115 -6l18 57q39 4 68.5 7t58.5 8q39 4 56.5 19t33.5 58q8 25 23.5 72t33 104.5t35 118t31.5 113.5q6 23 6 42t-4 48q-4 27 -18.5 92.5t-34 143t-40 153.5t-36.5 121q-10 29 -20.5 45t-28.5 25.5t-49 13.5t-82 8l16 55q41 -2 106.5 -4t137.5 -2q135 0 252 6l-16 -57 q-43 -4 -68 -8t-37 -10t-14 -15.5t0 -21.5q6 -39 20.5 -99.5t30.5 -130t33.5 -141.5t31.5 -133q129 172 223.5 292t145.5 200q12 20 12 32q0 19 -26 23q-29 4 -57.5 7t-51.5 5l19 57q45 0 94 -3t108 -3q45 0 100.5 3t121.5 3l-19 -57q-41 -4 -68.5 -8t-51 -14.5t-45 -27.5 t-50.5 -46q-43 -45 -97 -109.5t-109.5 -134.5t-106.5 -137.5t-88 -116.5q-23 -29 -35 -54.5t-23 -64.5q-12 -39 -26.5 -96t-29.5 -115.5t-26.5 -111.5t-17.5 -84q-1 -7 -1 -13q0 -35 38 -40q23 -4 58.5 -8.5t90.5 -8.5l-18 -57q-86 4 -167 5t-148 1q-78 0 -143.5 -2 t-149.5 -4z" />
<glyph unicode="Z" horiz-adv-x="1189" d="M-16 33q66 70 150.5 165t181 203.5t196.5 223t194.5 224t177.5 208t144 174.5h-242q-100 0 -160.5 -6t-97 -19.5t-58 -37t-44.5 -58.5q-29 -45 -55.5 -98.5t-55.5 -114.5l-49 16q20 49 38 104.5t31 110t22.5 102.5t13.5 85q29 -10 59.5 -13.5t63.5 -7.5q37 -2 93 -2h161 h315q55 0 108.5 2t118.5 4q-31 -66 -48 -90t-30 -41q-20 -25 -52 -63.5t-82 -96t-118.5 -137t-162.5 -186.5q-115 -133 -195 -226t-139.5 -164t-105.5 -125t-91 -106q207 0 329 3.5t190.5 13.5t100.5 30.5t58 55.5q47 53 83 120.5t65 133.5l49 -25q-6 -20 -20.5 -63 t-32 -99.5t-37 -120t-33.5 -124.5q-29 4 -74 6t-94 4q-53 2 -109.5 2h-115.5h-400h-81.5t-57.5 -1t-45.5 -2t-44.5 -3z" />
<glyph unicode="[" horiz-adv-x="671" d="M12 -356q14 51 34 117.5t48.5 169t68.5 250t97 356.5q92 334 151.5 563t82.5 321q14 -4 59 -5t101.5 -1t112.5 2t95 4l-24 -59q-51 0 -105.5 -5t-73.5 -9q-16 -4 -25 -11.5t-18 -29.5q-10 -27 -27.5 -77t-43 -139.5t-63.5 -224.5t-89 -329q-49 -186 -85 -322.5 t-60.5 -231t-36.5 -150.5t-16 -83q-6 -31 45 -33l163 -6l-30 -59q-115 4 -213.5 3t-147.5 -11z" />
<glyph unicode="\" horiz-adv-x="788" d="M367 1356l96 43q2 -37 8 -124t15.5 -203t20.5 -246t23 -253q8 -86 17.5 -191.5t18.5 -207.5t18.5 -194.5t17.5 -151.5l-96 -37q-4 55 -10.5 146.5t-15.5 200t-19 229t-21 235.5q-10 117 -21 241t-21.5 230.5t-18.5 183t-12 99.5z" />
<glyph unicode="]" horiz-adv-x="671" d="M-98 -352l24 59q53 0 105.5 6t70.5 11q16 2 25.5 9t19.5 29q10 27 26.5 77t43.5 139.5t63.5 224.5t90.5 329q49 186 85 323.5t60.5 232t36.5 150.5t16 83q6 29 -47 33l-160 4l27 59q115 -4 213 -3t148 11q-14 -51 -34 -117.5t-48.5 -169t-68.5 -249t-97 -357.5 q-90 -334 -149.5 -562t-82.5 -322q-16 4 -61 5t-100.5 1t-111.5 -2t-95 -4z" />
<glyph unicode="^" horiz-adv-x="1028" d="M186 586l342 723h115l342 -723h-125l-278 598l-267 -598h-129z" />
<glyph unicode="_" horiz-adv-x="1024" d="M-100 -227h1024v-119h-1024v119z" />
<glyph unicode="`" horiz-adv-x="894" d="M426 1350q4 37 25.5 54t44.5 17q31 -2 54 -22.5t38 -55.5q8 -20 23.5 -62t33 -91t32.5 -94t25 -72l-43 -29q-31 39 -62.5 79t-59 74t-47 59.5t-27.5 35.5q-16 23 -28.5 52.5t-8.5 54.5z" />
<glyph unicode="a" horiz-adv-x="1050" d="M74 182q0 84 25.5 177.5t70.5 181.5t107.5 163.5t138.5 124.5q59 41 115.5 57.5t113.5 16.5q68 0 114 -24.5t62 -69.5l21 70h168q-29 -78 -60.5 -178.5t-61.5 -203t-55.5 -195.5t-37.5 -157q-6 -29 -4 -51t24 -22q20 0 46 15t50.5 42t49 62.5t43.5 74.5l38 -41 q-18 -41 -47.5 -86t-69.5 -82t-90.5 -61.5t-107.5 -24.5q-43 0 -65.5 18.5t-30.5 47.5q-5 19 -5 42q0 13 1 25q4 38 14 74q4 14 9 32.5t9 35.5h-4q-31 -47 -74.5 -96.5t-96 -89.5t-114 -64.5t-128.5 -24.5q-88 0 -128 59.5t-40 151.5zM258 188q0 -43 17.5 -79.5t60.5 -36.5 q70 0 146.5 63.5t154.5 192.5q18 33 43 85t46.5 107t36.5 105.5t15 81.5q0 70 -33.5 99.5t-80.5 29.5q-51 0 -99.5 -25t-101.5 -84q-45 -53 -82 -119.5t-64.5 -138.5t-43 -143.5t-15.5 -135.5v-2z" />
<glyph unicode="b" horiz-adv-x="1003" d="M89 100q-3 13 -3 28q0 34 14 81q31 106 70 237.5t80 272.5q68 229 104.5 366.5t44.5 180.5q6 31 -20 30l-129 2l20 54q49 2 100.5 5t98.5 8t86 10t63 11q-16 -41 -35.5 -100t-41 -129t-44 -143.5t-43 -142t-37 -127t-28.5 -95.5q37 47 82 93t97.5 82t109.5 57.5t119 21.5 q100 -1 142 -65q40 -62 40 -151v-9q0 -86 -25.5 -175t-68.5 -170t-100.5 -149.5t-125.5 -111.5q-63 -43 -145 -72t-166 -29q-63 0 -116.5 14.5t-86.5 39.5q-47 33 -56 75zM264 147q0 -59 33 -85.5t86 -26.5h2q41 0 86 20.5t86 57.5t84 100t77 141t56.5 164t22.5 168v10 q1 54 -19 84q-22 33 -63 33q-37 0 -79 -20.5t-82 -56.5t-77 -83t-67 -100q-29 -49 -55.5 -106.5t-46 -112.5t-32 -104.5t-12.5 -82.5z" />
<glyph unicode="c" horiz-adv-x="860" d="M88 268q0 74 18.5 151t53.5 148.5t85 133t115 108.5q59 41 125 67.5t148 26.5q119 0 175 -53t56 -131q0 -63 -33.5 -95t-72.5 -32q-41 0 -60 26q-18 25 -4 58q8 18 14.5 38.5t6.5 37.5q0 41 -22.5 66.5t-76.5 25.5q-66 0 -129 -49.5t-118 -157.5q-45 -80 -71 -178.5 t-26 -194.5q0 -100 43 -154.5t121 -54.5q106 0 186 67.5t134 190.5h30l5 -98q-27 -45 -68 -88t-94.5 -78t-118 -56.5t-137.5 -21.5q-285 0 -285 297z" />
<glyph unicode="d" horiz-adv-x="1077" d="M76 203q0 82 22.5 168t63.5 166.5t99 152.5t130 123q53 41 118.5 65.5t143.5 24.5q141 0 191 -82q59 190 86.5 290.5t38.5 143.5q4 23 0 31t-21 8q-23 0 -56.5 1t-76.5 1l21 56q43 0 94 4t101 8t93 10t68 12q-18 -47 -47 -132t-65 -198.5t-76.5 -250.5t-83.5 -289 q-39 -137 -61.5 -224t-35.5 -145q-6 -29 -6 -53t23 -24q20 0 46.5 17t52.5 45t50.5 62.5t40.5 71.5l41 -41q-55 -113 -137 -184.5t-184 -71.5q-41 0 -62.5 19.5t-29.5 51.5q-5 21 -4 45q0 13 1 27q4 40 17 81q4 16 8 30.5t8 30.5q-33 -51 -76 -101.5t-96 -90t-115.5 -65.5 t-134.5 -26q-98 0 -144 65.5t-46 166.5zM262 201q0 -55 21.5 -93t68.5 -38q68 0 141.5 59t145.5 172q25 37 52.5 91t51 112.5t39 114t15.5 92.5q0 47 -28 88t-93 41q-53 0 -101.5 -23.5t-101.5 -77.5q-43 -45 -81 -107.5t-66.5 -133t-46 -146.5t-17.5 -149v-2z" />
<glyph unicode="e" horiz-adv-x="858" d="M84 256q0 74 17.5 151.5t51 150.5t83 137.5t114.5 113.5q61 47 129 70.5t139 23.5q63 0 107.5 -18.5t72 -47t39 -66.5t11.5 -77q0 -72 -46 -114.5t-100 -67.5q-41 -18 -94 -35.5t-110.5 -31t-113.5 -23.5t-99 -16q-6 -29 -11.5 -68t-5.5 -74q0 -90 36 -148.5t122 -58.5 q106 0 188 66.5t136 191.5h30l8 -102q-76 -115 -193.5 -178.5t-246.5 -63.5t-196.5 75t-67.5 210zM297 471q33 4 73 11t78.5 17.5t72.5 20.5t57 21q114 58 114 180q0 57 -24 89t-72 32h-2q-31 0 -70 -17.5t-78.5 -59.5t-78.5 -113.5t-70 -180.5z" />
<glyph unicode="f" horiz-adv-x="530" d="M-395 -369q0 31 21.5 59.5t49.5 39.5q12 5 23 5q27 0 45 -32q27 -45 56.5 -71.5t68.5 -26.5q57 0 93 54t73 171q18 61 48 165.5t63.5 234.5t69.5 275.5t69 287.5l-154 16l25 59h147q37 139 83 239.5t120 174.5q59 59 122.5 85t133.5 26q84 0 133 -40t49 -106 q0 -55 -32.5 -78.5t-63.5 -23.5q-33 0 -49.5 14.5t-12.5 40.5q4 14 6.5 30.5t2.5 26.5q0 31 -14.5 52.5t-55.5 21.5q-47 0 -85 -44t-67 -120q-25 -61 -46 -137t-44 -162h201l-22 -61l-197 -14q-31 -125 -63.5 -252t-64.5 -243t-60.5 -213t-53.5 -163q-49 -129 -114.5 -216 t-167.5 -148q-47 -29 -92.5 -39.5t-92.5 -10.5q-59 0 -105 37t-46 86z" />
<glyph unicode="g" horiz-adv-x="884" d="M-100 -225q0 45 19.5 80.5t51 60.5t73.5 38t85 13q20 0 36.5 -2t27.5 -6l14 -41q-72 0 -119 -35t-47 -98q0 -47 26.5 -87t71.5 -68.5t106.5 -46t129.5 -17.5q129 0 195.5 54t66.5 130q0 100 -119 137q-68 23 -138.5 45.5t-131.5 40.5q-35 10 -66.5 24.5t-56.5 37 t-40 52.5t-15 71q0 61 45 108t123 70q-63 59 -64 166q0 76 29.5 148.5t82 129t122 90t151.5 33.5h2q59 0 108.5 -14.5t88.5 -48.5q105 73 176 73h2q33 0 54.5 -17t21.5 -34q-2 -18 -25.5 -46t-44.5 -40q-33 23 -74 28q-11 1 -21 1q-29 0 -56 -10q16 -25 25 -61t9 -72 q0 -80 -26.5 -153t-76.5 -127t-122 -87t-160 -33q-43 0 -87 11.5t-72 29.5q-35 -10 -54.5 -30.5t-19.5 -49.5q0 -53 94 -84q55 -18 132 -38.5t151 -43.5q90 -25 148.5 -77t58.5 -150q0 -92 -44.5 -156.5t-113 -104.5t-152.5 -57.5t-164 -17.5q-68 0 -141.5 16.5t-134.5 51.5 t-101 87t-40 126zM336 457q0 -78 32.5 -108t73.5 -30q72 0 121 60q25 29 45.5 68.5t33.5 85t21.5 90.5t8.5 86q0 70 -29 103.5t-76 33.5h-2q-35 0 -67.5 -16.5t-61.5 -55.5q-23 -31 -41 -69.5t-31.5 -81.5t-20.5 -86t-7 -80z" />
<glyph unicode="h" horiz-adv-x="1050" d="M27 -18q35 117 98 317.5t135 454.5q35 123 59.5 208t40 142t24.5 93l15 60q4 16 -1 24.5t-27 10.5h-125l20 56q23 0 69 3t98 8t103.5 12t86.5 15q-12 -29 -37 -100.5t-56.5 -174.5t-70.5 -233t-82 -276q43 55 93 109.5t108.5 96.5t124 68.5t135.5 26.5q41 0 64.5 -11 t39.5 -28q20 -18 26.5 -47t5.5 -61.5t-9.5 -65.5t-16.5 -57q-47 -141 -96 -274.5t-80 -223.5q-8 -25 -6 -45t20 -20q23 0 50.5 16t55.5 44t52.5 63.5t42.5 74.5l39 -43q-63 -127 -148 -191.5t-180 -64.5q-47 0 -70.5 20.5t-28.5 55.5q-2 13 -2 29q0 24 5 52q8 46 27 97 q25 74 50.5 143.5t47 131t39.5 113t31 87.5q6 16 8 36t-2 37t-17.5 28.5t-40.5 11.5q-59 0 -140 -55.5t-171 -182.5q-53 -78 -89 -158.5t-62 -160.5q-18 -59 -37 -116.5t-43 -143.5q-33 0 -82 -4t-94 -8z" />
<glyph unicode="i" horiz-adv-x="546" d="M100 110q6 42 23 91q18 59 42.5 133t49.5 149.5t47.5 148.5t38.5 132q6 20 2 27.5t-22 7.5h-55.5t-71.5 -2l20 57q39 4 84 8t91 10.5t89 13.5t78 17l6 -8q-23 -53 -58.5 -154.5t-72.5 -215t-68.5 -222t-48.5 -172.5q-6 -29 -5 -45t20 -16q23 0 51.5 17t56 45t53 63.5 t42.5 70.5l40 -43q-66 -123 -153.5 -187.5t-179.5 -64.5q-45 0 -67 17q-22 18 -30 49q-4 17 -5 38q0 16 3 35zM379 1176q4 59 41 89.5t76 30.5h2q42 0 64 -26q20 -24 20 -66v-8q-4 -55 -38 -87t-79 -32q-37 -1 -63 25q-24 24 -23 67v7z" />
<glyph unicode="j" horiz-adv-x="495" d="M-377 -389q0 31 25.5 60.5t52.5 33.5q6 1 11 1q26 0 46 -32q23 -37 49.5 -60.5t59.5 -23.5q37 0 66.5 32t58.5 106q29 76 64.5 195.5t86.5 299.5q68 244 99.5 368t42.5 171q10 41 -25 41l-135 -2l22 53q86 8 178.5 19.5t168.5 29.5l6 -8q-23 -82 -48.5 -178t-53 -195.5 t-55.5 -198t-52.5 -183.5t-44 -150.5t-31.5 -100.5q-70 -203 -205 -297q-61 -43 -119.5 -65.5t-121.5 -22.5q-68 0 -107 36t-39 71zM350 1178q4 59 41 89.5t78 30.5h2q45 0 65 -28q17 -24 17 -65v-9q-4 -55 -39 -86t-80 -31q-35 0 -60 25q-24 24 -24 67v7z" />
<glyph unicode="k" horiz-adv-x="960" d="M27 -14q12 37 33.5 105.5t51 162.5t64.5 210t74 245q33 115 58.5 202.5t44 154.5t30.5 114t20 80q10 35 -28 34l-119 2l20 54q41 2 89.5 5t96.5 8t90 10t73 13q-33 -90 -69 -202.5t-71.5 -232.5t-70.5 -236.5t-64 -214.5q72 20 134.5 72.5t107.5 107.5q31 39 64.5 79 t69.5 72.5t74 53t79 20.5q51 0 71.5 -24.5t20.5 -55.5q0 -41 -21.5 -59t-44.5 -23q-20 -2 -39 13q-23 23 -51 22q-29 0 -65.5 -25.5t-92.5 -90.5q-35 -39 -70.5 -73t-60.5 -50q57 -10 96.5 -66.5t49.5 -138.5q6 -49 11 -90t11 -88q4 -35 17.5 -56.5t33.5 -21.5q29 0 74 43 t92 147l41 -37q-31 -74 -67.5 -125t-75.5 -82.5t-79 -45t-75 -13.5q-68 0 -97.5 50.5t-37.5 127.5q-4 53 -7 102.5t-9 96.5q-4 53 -26.5 88t-61.5 35q-23 0 -48.5 -14.5t-37.5 -26.5q-35 -119 -67 -228.5t-54 -195.5q-47 -2 -98.5 -6t-83.5 -8z" />
<glyph unicode="l" horiz-adv-x="512" d="M78 42q-3 17 -3 36.5t3 40.5q6 43 20 90q18 59 36 118.5t37 124t40.5 136t46.5 155.5q35 117 58.5 200t40 142.5t27.5 99.5t19 72q4 23 -2 30t-24 7l-121 2l20 56q102 2 197.5 10t155.5 24q-33 -80 -83 -231t-122 -399q-70 -238 -114 -391.5t-60 -231.5q-5 -19 -5 -33 q0 -30 25 -30q18 0 45 15t54.5 42t53.5 63.5t46 77.5l41 -43q-66 -129 -156 -192.5t-178 -63.5q-47 0 -69.5 19.5t-28.5 53.5z" />
<glyph unicode="m" horiz-adv-x="1611" d="M47 -20q39 104 78 219.5t70.5 222t56 197t35.5 143.5q4 23 -1 32t-28 9l-119 -2l19 53q72 8 167 19.5t167 29.5q-10 -37 -23.5 -84t-27 -95t-27 -94t-25.5 -79q39 57 89 119.5t108.5 114t127 85t146.5 33.5q51 0 80 -21.5t39 -55.5q7 -24 7 -52q0 -12 -1 -24 q-4 -43 -18 -88q-8 -29 -14.5 -51.5t-16.5 -51.5q39 59 90 120.5t110.5 111t128 81t144.5 31.5q39 0 62.5 -11t39.5 -28q20 -20 26.5 -51t3.5 -63.5t-12 -64.5t-18 -56q-20 -59 -46.5 -128t-52.5 -137.5t-48.5 -129t-34.5 -101.5q-8 -27 -6 -45t25 -18q20 0 47.5 16t55.5 43 t53.5 62.5t43.5 74.5l39 -43q-63 -127 -152 -190.5t-182 -63.5q-47 0 -70.5 19.5t-29.5 53.5q-2 14 -2 29q0 23 5 50q9 45 28 94q45 121 91 242t85 227q12 31 12 58q0 13 -3 26q-9 37 -54 37q-63 0 -131 -53.5t-130.5 -134t-112.5 -176t-81 -179.5q-20 -53 -42.5 -114.5 t-49.5 -153.5q-51 -2 -100.5 -6t-83.5 -8q29 76 63.5 175t67.5 199.5t59.5 188.5t40.5 141q6 20 8 42t-3 39t-17 28.5t-37 11.5q-53 0 -115.5 -47t-124 -124t-116 -173t-91.5 -197q-23 -55 -44 -118.5t-48 -151.5q-47 -2 -96 -6t-84 -8z" />
<glyph unicode="n" horiz-adv-x="1077" d="M47 -20q37 94 74 208.5t69.5 224t58 203t36.5 148.5q8 37 -19 37l-125 -2l19 55q80 6 165 17.5t162 31.5q-23 -84 -49 -177t-51 -175q43 63 94 126.5t110.5 114t127 81t143.5 30.5q35 0 60.5 -9t42.5 -24q20 -18 28 -48q7 -26 7 -56v-7q-1 -34 -9 -68t-18 -62 q-20 -55 -44 -119t-47.5 -128.5t-45 -128t-39.5 -120.5q-10 -29 -5 -45t21 -16q20 0 47 15t54.5 42t53 61.5t46.5 73.5l39 -41q-63 -125 -153.5 -189.5t-178.5 -64.5q-47 0 -71 19q-24 20 -30 54q-3 14 -2 30q0 23 6 50q10 46 27 97q41 113 88 240t82 227q11 31 11 58 q0 13 -3 25q-8 36 -57 36q-68 0 -135.5 -52.5t-126.5 -131t-107.5 -171t-78.5 -171.5q-23 -57 -45.5 -121t-51.5 -162q-49 -2 -95 -7t-85 -9z" />
<glyph unicode="o" d="M86 268q0 76 19.5 155t55.5 152.5t86 138t113 107.5q57 39 125 60.5t140 21.5h2q143 0 219 -79t76 -226q0 -74 -18.5 -152.5t-52.5 -152.5t-82 -136.5t-110 -103.5q-66 -43 -132 -62.5t-144 -19.5q-51 0 -103.5 12.5t-95.5 45t-70.5 90t-27.5 149.5zM258 217 q0 -104 43 -145t96 -41q47 0 89 21.5t83 68.5q39 47 72 115.5t57.5 144.5t39 151.5t14.5 137.5q0 78 -30 127t-101 49h-3q-109 0 -198 -125q-33 -47 -62.5 -109.5t-51 -132t-35 -138.5t-13.5 -124z" />
<glyph unicode="p" horiz-adv-x="1040" d="M-231 -481l18 55l86 14q35 6 53.5 18.5t30.5 43.5q33 94 74 224t84 270.5t83 279.5t72 252q-35 -25 -85 -51.5t-81 -34.5q-6 10 -12 22.5t-12 22.5q68 33 127 80t100 106q6 20 14.5 49t16.5 57.5t14 53.5t10 37q14 2 37 8t48.5 13.5t49 15.5t40.5 14l6 -8 q-14 -45 -31.5 -101.5t-36 -115t-37 -117.5t-35.5 -111q37 49 81 99.5t96.5 92.5t113 68.5t125.5 26.5q49 0 86 -19.5t61.5 -51t37 -74.5t12.5 -92q0 -92 -27.5 -190.5t-78 -187.5t-120 -162t-153.5 -112q-49 -23 -97 -33t-91 -10q-59 0 -114.5 19.5t-84.5 62.5 q-39 -133 -66.5 -238.5t-38.5 -152.5q-10 -35 -0.5 -46t35.5 -15l129 -13l-16 -55h-197q-74 0 -162 -3t-165 -11zM301 176q0 -72 41 -105.5t98 -33.5q106 0 203 117q39 47 73 110.5t59.5 133t40.5 141t15 135.5q0 55 -22.5 96t-69.5 41h-2q-39 0 -79 -22.5t-79.5 -60.5 t-76.5 -86t-68 -99q-25 -37 -48.5 -86t-41.5 -100.5t-30.5 -98.5t-12.5 -82z" />
<glyph unicode="q" horiz-adv-x="1011" d="M70 188q0 82 25.5 176.5t73.5 183.5t117.5 166t155.5 128q53 31 107.5 46t101.5 15q59 0 113.5 -25.5t75.5 -91.5l30 93h162q-16 -49 -39.5 -123t-50.5 -160t-55.5 -179t-52.5 -186q-37 -135 -65 -234t-46 -169t-29.5 -113t-15.5 -67q-6 -27 3 -35t30 -12l110 -17 l-18 -55q-43 4 -111.5 4h-128.5q-68 0 -138.5 -4t-135.5 -8l16 55q25 4 57.5 9t61.5 12q29 4 44 16t28 41q8 20 24.5 72.5t41 129t53 173t61.5 202.5q-43 -53 -90 -101t-99.5 -83t-112 -55.5t-122.5 -20.5q-90 0 -136 57.5t-46 159.5zM254 186q0 -51 21.5 -87t62.5 -36 q74 0 149.5 61.5t145.5 164.5q27 37 54.5 90t50 109.5t38 108.5t15.5 87q0 57 -27 104.5t-94 47.5h-2q-43 0 -91.5 -24t-97.5 -77q-51 -57 -93 -124.5t-70.5 -139.5t-45 -144.5t-16.5 -140.5z" />
<glyph unicode="r" horiz-adv-x="761" d="M55 -18q33 92 69 204.5t66.5 222t53 203t28.5 148.5q2 37 -26 37h-117l21 55q76 6 162.5 18.5t152.5 32.5q-4 -31 -14.5 -75t-21.5 -91t-23.5 -94t-20.5 -84h8q86 174 166 259t170 85q29 0 48.5 -10t31.5 -26.5t17 -35t5 -34.5q0 -68 -35.5 -98.5t-68.5 -30.5 q-41 0 -53 41q-6 23 -15.5 34t-29.5 11q-29 0 -63 -32t-67.5 -83t-65.5 -112.5t-56 -120.5q-35 -84 -70 -184.5t-69 -223.5q-53 -4 -99.5 -8t-83.5 -8z" />
<glyph unicode="s" horiz-adv-x="765" d="M25 55q16 41 42.5 122t51.5 171l51 8q-8 -27 -13 -67.5t-5 -69.5v-7q0 -81 46 -129q48 -50 150 -50q68 0 119 36.5t53 108.5q0 41 -15.5 65.5t-45.5 51.5q-31 25 -76 60.5t-86 68.5q-47 35 -79 81t-32 116q0 131 101 215q81 67 209 67h4q66 0 118 -21.5t72 -47.5l55 75 l41 -22q-29 -66 -58.5 -150t-49.5 -170l-49 -2q10 52 10 95q0 65 -23 110q-38 74 -137 74q-68 0 -106.5 -43t-38.5 -103q0 -41 15.5 -68.5t45.5 -49.5q33 -29 88.5 -69t96.5 -71q49 -35 73.5 -75.5t24.5 -106.5q0 -68 -30 -119t-70 -86q-98 -82 -263 -82q-74 0 -152.5 21.5 t-137.5 62.5z" />
<glyph unicode="t" horiz-adv-x="618" d="M97 108q5 38 18 82q20 70 45.5 154t50.5 166t47.5 156.5t38.5 128.5l-145 14l28 59h139q23 72 41.5 136.5t32.5 111.5q53 8 105.5 18.5t91.5 26.5q-6 -16 -18.5 -48t-26 -73t-28.5 -86t-28 -86h226l-31 -59l-217 -14q-14 -43 -42 -132.5t-57.5 -188.5t-56 -193.5 t-39.5 -149.5q-8 -35 -2 -55.5t41 -20.5t71 20.5t68.5 53.5t58.5 73t42 79l31 -68q-31 -59 -72 -104.5t-88 -76t-95 -46t-94 -15.5q-59 0 -89 19q-32 18 -42 49q-7 21 -7 45q0 12 2 24z" />
<glyph unicode="u" horiz-adv-x="1062" d="M97 124q5 48 24 105q20 66 48 150t53.5 163t46 140t26.5 84q4 16 0 24.5t-27 8.5l-118 -4l26 57q39 4 84 8t91 10.5t89 14.5t78 18q-12 -23 -32.5 -71t-43 -111.5t-47 -137t-47 -146t-41 -139.5t-28.5 -116q-6 -24 -5 -43q0 -21 6 -37q13 -30 50 -30q57 0 117.5 37.5 t114.5 99t99.5 137.5t75.5 154q14 39 28.5 78.5t26 74.5t20.5 65t13 48q4 14 0 22.5t-26 8.5l-115 -2l23 57q80 6 172 17.5t168 33.5q-29 -72 -66 -173t-72 -209.5t-65.5 -211t-46.5 -176.5q-6 -29 -3 -48t21 -19q20 0 47 16t53.5 44t52 63.5t46.5 76.5l39 -43 q-25 -49 -58.5 -95t-74.5 -81t-89.5 -56.5t-103.5 -21.5q-45 0 -67.5 18.5t-28.5 49.5q-3 16 -3 33q0 18 3 36q6 38 18 78q6 16 9.5 28.5t13.5 43.5q-86 -127 -195.5 -206t-226.5 -79q-61 0 -96 19q-34 18 -48 52q-10 25 -10 57q0 12 1 25z" />
<glyph unicode="v" horiz-adv-x="876" d="M86 801l18 53q82 6 165 17.5t155 31.5q-16 -90 -24.5 -207.5t-12.5 -259.5q-4 -76 -6 -154q-1 -39 -1 -73.5t1 -65.5q70 70 136.5 154t119.5 169t86 165t37 141q2 35 -1 59.5t-7 42.5q39 16 76.5 32t48.5 16q10 0 23 -33q11 -29 11 -63v-11q0 -35 -14 -80t-49 -102 q-37 -61 -106.5 -152.5t-145.5 -183.5t-146.5 -175t-113.5 -128q-33 -4 -66.5 -9t-62.5 -12q6 119 11 239t8 225.5t4 191.5v54q0 50 -1 85q-2 16 -7 25.5t-27 9.5z" />
<glyph unicode="w" horiz-adv-x="1337" d="M102 799l19 55q78 4 167 15.5t165 33.5q-12 -35 -24.5 -119t-25 -189.5t-22.5 -216t-19 -198.5q35 49 87.5 125t106.5 156t99 148.5t66 103.5q6 29 10 68.5t10 86.5q45 2 90.5 9.5t86.5 17.5q-10 -43 -17.5 -102.5t-12.5 -126t-9.5 -138t-6.5 -139.5q-4 -69 -5 -137v-43 q0 -41 1 -74q59 68 122 146.5t114 161.5t85 166t36 159q2 31 0 57.5t-4 42.5q35 20 68.5 35t43.5 15q9 0 25 -34q14 -30 14 -70v-11q-2 -39 -14 -81t-43 -99q-29 -51 -89.5 -135.5t-132 -174.5t-144 -176t-124.5 -143q-35 -4 -69.5 -10.5t-59.5 -10.5q0 43 2 115t5.5 158 t6.5 177t9 171q-14 -23 -59.5 -87.5t-104.5 -149.5t-123.5 -181t-120.5 -182q-29 -4 -63.5 -10.5t-63.5 -10.5q6 51 13.5 123t14.5 152t14 159.5t12.5 150.5t8.5 125t3 79q0 20 -7 29.5t-30 9.5z" />
<glyph unicode="x" horiz-adv-x="952" d="M-45 63q0 47 29.5 75t64.5 28q20 0 31.5 -9.5t19.5 -25.5q18 -39 43 -39t56.5 26.5t69.5 73t80 108.5t89 134q-8 39 -17 82t-19.5 85t-20.5 80t-19 67q-10 33 -20 42t-33 9t-62.5 -3t-68.5 -8l10 54q33 6 77 13t89 15.5t85 16.5t67 18q14 -72 32.5 -157.5t36.5 -163.5 q41 57 85.5 114.5t90.5 103.5t94 75.5t99 29.5q57 0 84 -22q-4 -10 -6 -24.5t-6 -24.5h-8q-52 0 -100 -23q-52 -25 -104 -68t-104.5 -104t-105.5 -133q18 -111 34.5 -177.5t28.5 -119.5q16 -59 33 -91t43 -32q29 0 70 36t94 132l37 -39q-37 -74 -75 -122t-77 -75.5 t-74.5 -39t-66.5 -11.5q-66 0 -95.5 51.5t-56.5 165.5q-10 41 -16 84t-16 84q-59 -90 -108.5 -164.5t-100.5 -132.5q-49 -53 -92 -77.5t-93 -24.5q-49 0 -78.5 30.5t-29.5 77.5z" />
<glyph unicode="y" horiz-adv-x="882" d="M-174 -362q0 51 30.5 77.5t61.5 26.5q47 0 64 -47q18 -68 63 -68q59 0 119.5 75t146.5 249q-16 16 -21 47t-9 68q-4 88 -10.5 192t-13.5 201.5t-14 177.5t-14 121q-2 14 -8 24.5t-23.5 15.5t-47.5 6h-23q-25 0 -59 -1l16 55q37 2 80 6t86 10.5t85 14.5t75 18 q-1 -24 -1 -54q0 -46 2 -103q3 -97 8 -201.5t11 -204.5t10 -168q49 96 104.5 201.5t119.5 220.5q37 68 75.5 124t82.5 98t94.5 65.5t111.5 25.5l6 -49q-35 -8 -73.5 -37.5t-76.5 -72.5t-76 -94.5t-73 -104.5q-49 -78 -98 -161t-96 -168t-93.5 -168t-85.5 -158 q-59 -111 -108 -187t-95 -122t-91 -65.5t-97 -19.5q-78 0 -111.5 43t-33.5 91z" />
<glyph unicode="z" horiz-adv-x="851" d="M-23 25q8 14 22.5 31.5l29 35t28 30.5t23.5 21q35 31 112.5 101.5t169 157.5t183.5 178.5t157 164.5q-166 -2 -255 -5t-125 -11q-39 -8 -73 -55t-81 -142l-41 25q53 123 92 218t47 130q25 -18 78 -22q41 -6 124 -7.5t208 -1.5q72 0 123 4.5t75 16.5l15 -18 q-6 -14 -19.5 -36t-30 -45.5t-36 -47t-39.5 -43.5q-51 -55 -121 -124t-146.5 -142.5t-154.5 -147.5t-145 -139q25 4 61.5 -1.5t81.5 -11.5q57 -10 118.5 -21.5t94.5 -11.5q47 0 78 12.5t49 31t26.5 40t8.5 41.5q0 27 -6 56q-4 16 -3 24t7 19q10 16 33.5 35.5t39.5 19.5h2 q12 0 17.5 -15.5t5.5 -29.5q0 -57 -18.5 -106.5t-47 -90.5t-62.5 -73.5t-67 -57.5q-31 -23 -72.5 -38t-78.5 -15q-61 0 -117.5 14.5t-114.5 30.5q-35 10 -67.5 17.5t-65.5 7.5q-47 0 -104 -37z" />
<glyph unicode="{" horiz-adv-x="671" d="M123 500l14 59q90 0 149.5 39t86.5 152q10 39 19 85t17.5 93t16.5 92t16 84q25 106 74 175t109.5 107.5t125 52t119.5 9.5l-20 -62q-117 -6 -174.5 -59t-77.5 -180q-12 -88 -22.5 -169t-28.5 -153q-31 -129 -100.5 -196.5t-192.5 -100.5q45 -20 79 -45.5t52 -62.5 t20.5 -85t-14.5 -112q-16 -59 -42.5 -128.5t-55.5 -149.5q-29 -74 -38 -125t2 -85t46 -50.5t96 -22.5l-18 -59q-49 0 -103.5 14t-95.5 52t-58.5 102.5t7.5 162.5q10 39 28.5 91.5t38 107.5t37 107.5t25.5 89.5q23 94 -12 130t-125 40z" />
<glyph unicode="|" horiz-adv-x="600" d="M236 -512v2048h137v-2048h-137z" />
<glyph unicode="}" horiz-adv-x="671" d="M-106 -397l18 61q117 6 174 60.5t76 179.5q14 88 22.5 169t28.5 154q33 127 101.5 194.5t195.5 102.5q-96 39 -135 107.5t-6 195.5q16 59 42.5 129t57.5 148q29 76 39 128t0 86t-45 50t-96 23l18 57q47 2 101.5 -13.5t94.5 -53.5t57 -102.5t-7 -160.5q-10 -39 -27.5 -91 t-37 -107.5t-38 -108.5t-26.5 -90q-23 -92 12 -128t125 -40l-12 -61q-88 0 -148.5 -38t-87.5 -141q-10 -41 -19.5 -88t-18.5 -96t-17 -96t-17 -86q-25 -106 -73.5 -175t-109 -108t-125 -52t-117.5 -9z" />
<glyph unicode="~" horiz-adv-x="1067" d="M96 315q4 121 30 194t60.5 110.5t75.5 49t76 11.5q63 0 115.5 -37t105.5 -106q47 -59 86 -96.5t76 -37.5q20 0 40.5 8.5t37 36t30 80t19.5 140.5l102 -17q-4 -109 -23.5 -178.5t-52 -111.5t-73.5 -58t-88 -16q-70 0 -124 45t-110 117q-41 53 -75.5 85.5t-75.5 32.5 q-51 0 -84 -58t-45 -208z" />
<glyph unicode="&#xa1;" horiz-adv-x="409" d="M-108.5 -357.5q-6.5 31.5 4.5 70.5q8 29 28.5 70t48.5 98q35 66 69 139.5t63.5 147.5t54 143.5t41.5 126.5h59q-16 -59 -29.5 -128.5t-25.5 -143.5t-20.5 -148.5t-12.5 -142.5q-4 -55 -7 -100t-13 -80q-6 -27 -23.5 -54.5t-41.5 -50t-51.5 -37t-53.5 -14.5h-2 q-14 0 -34 12.5t-34 36t-20.5 55zM188 745q4 59 42 98.5t94 39.5h2q47 0 73.5 -32t24.5 -85q-4 -59 -42 -101t-93 -42q-49 0 -77 34.5t-24 87.5z" />
<glyph unicode="&#xa2;" d="M150 535q2 139 67.5 261t188.5 201q63 41 143 62.5t168 23.5l47 150l80 16l-58 -170q100 -10 160 -62t60 -132q0 -59 -32 -86t-67 -27q-33 2 -50 22.5t-7 55.5q14 33 14 59q0 94 -98 113q-57 -180 -112.5 -362.5t-114.5 -368.5q131 4 216 68.5t138 168.5h33l-11 -104 q-25 -37 -63.5 -72t-89.5 -62.5t-112.5 -46t-131.5 -22.5l-51 -170l-82 -16l61 186q-139 10 -217.5 90t-78.5 224zM340 524q0 -78 31.5 -143.5t101.5 -79.5q59 178 115.5 361.5t111.5 363.5q-84 -6 -150.5 -53t-113.5 -117t-71.5 -157t-24.5 -173v-2z" />
<glyph unicode="&#xa3;" d="M-57 16l71 101q61 35 122 88t91 155q20 66 31.5 134.5t15.5 123.5h-82t-118 -4l37 72q27 -2 68.5 -2h101.5q10 96 25.5 168t37.5 127q31 82 78 142.5t117 101.5q47 27 97 42t116 15q74 0 124 -19.5t80.5 -49t43 -67.5t12.5 -75q0 -53 -31 -86t-66 -33q-41 0 -55 20.5 t-8 51.5q4 16 9 36.5t5 37.5q2 68 -34.5 97.5t-96.5 29.5q-72 0 -127 -55.5t-86 -192.5q-14 -63 -23.5 -133t-19.5 -158h125t83 1t60.5 2t59.5 3l-45 -78q-16 0 -36.5 1t-53.5 2t-82 2t-121 1q-10 -70 -33.5 -145.5t-64.5 -134.5q-35 -51 -87.5 -99.5t-129.5 -97.5 q158 2 266 5.5t177 6.5t103.5 6t42.5 7q14 8 21.5 13t23.5 30q18 31 38 72t36 75h60q-45 -106 -77 -204.5t-44 -151.5l-19 -12q-57 4 -133 6t-157 4q-82 2 -161 2h-143q-92 0 -144 -2t-93 -4z" />
<glyph unicode="&#xa4;" d="M66 227l161 127q-27 37 -38 88.5t-9 108.5q4 88 44 178t108 150l-119 127l90 86l100 -156q53 35 112.5 51.5t115.5 16.5h2q51 0 104.5 -16.5t89.5 -51.5l142 149l67 -84l-166 -129q51 -72 48 -196q-4 -94 -42 -179t-104 -145l121 -133l-90 -84l-103 162 q-47 -33 -107.5 -50.5t-123.5 -17.5q-53 0 -108.5 19.5t-88.5 48.5l-145 -154zM315 532q-4 -111 44.5 -169t129.5 -58q78 0 134.5 40t91.5 100.5t52 131t19 130.5q2 45 -7 86t-29.5 71.5t-54 49t-83.5 18.5h-2q-70 0 -124 -37t-92 -95.5t-57.5 -129t-21.5 -138.5z" />
<glyph unicode="&#xa5;" d="M72 -6l18 55q35 4 66.5 7t58.5 7q35 4 52.5 20.5t27.5 45.5q6 16 16.5 48t22.5 71t24.5 81t22.5 79h-138.5t-109.5 -5l29 72q39 0 99.5 -2t137.5 -2l45 164h-153.5t-108.5 -4l35 71q20 0 73.5 -2t164.5 -4q-10 47 -23.5 107.5t-28 120t-29 111.5t-26.5 83 q-10 27 -20.5 44.5t-25.5 26.5t-38.5 12t-58.5 3l18 56q41 0 95.5 -3.5t111.5 -3.5q72 0 131.5 3.5t106.5 3.5l-15 -56q-23 -2 -47 -4t-51 -6q-25 -2 -23 -37q4 -31 13.5 -76t22 -98t24.5 -111.5t24 -115.5q125 156 199 249t103 134q25 35 7 47t-106 18l23 56q37 0 87 -3.5 t95 -3.5q43 0 89 3.5t91 3.5l-14 -56q-31 -2 -54.5 -6t-45 -14t-44 -28.5t-49.5 -45.5q-37 -35 -81 -83t-91 -104.5t-94 -115.5t-90 -113q78 0 136.5 1t127.5 5l-37 -71q-25 0 -96.5 2t-157.5 4l-45 -166q111 0 168.5 1t93.5 3l-36 -72q-10 0 -36 1t-59.5 2.5t-72.5 2.5 t-76 1q-8 -31 -18.5 -71t-21.5 -82t-20.5 -80t-15.5 -66q-8 -45 35 -48q27 -4 60.5 -6t82.5 -6l-20 -55q-72 2 -142.5 4t-162.5 2q-51 0 -119 -2t-137 -4z" />
<glyph unicode="&#xa6;" horiz-adv-x="600" d="M233 358h138v-716h-138v716zM233 666v716h138v-716h-138z" />
<glyph unicode="&#xa7;" horiz-adv-x="944" d="M37 -70q0 53 29.5 89t74.5 36q29 0 43.5 -14t20.5 -29q6 -14 4 -27.5t-8 -21.5q-25 -29 -25 -57q0 -37 31 -69t96 -32q72 0 121 41t51 111q2 39 -10 75t-41 83q-18 31 -47 76t-57.5 92t-54 91t-40.5 75q-47 90 -47 194q0 76 21.5 147.5t58.5 136t87 121t106 99.5 q57 45 124.5 82t153.5 37h2q82 0 142.5 -41t60.5 -121q0 -53 -27.5 -85t-64.5 -32t-56 25q-8 10 -7 24.5t5 28.5q12 25 13 51q0 33 -24.5 60.5t-90.5 27.5q-61 0 -100 -41t-41 -102q-2 -29 2 -56.5t18 -56.5q12 -27 43 -75t67 -105t71.5 -115.5t58.5 -103.5q39 -80 39 -174 q0 -61 -17.5 -126t-47.5 -124t-70.5 -113.5t-88.5 -97.5q-53 -49 -100 -82t-89 -52.5t-82 -27.5t-79 -8q-43 0 -84 11.5t-72.5 34t-52 57t-20.5 83.5zM295 752q0 -57 15.5 -115.5t56.5 -126.5q47 -80 89 -147.5t76 -126.5q37 -61 51.5 -136t-10.5 -153q70 59 108 144t38 179 q0 45 -8.5 86t-30.5 82q-20 41 -51 94.5t-62.5 105.5t-59.5 96t-40 69q-27 49 -40 117.5t15 148.5q-66 -59 -106.5 -141t-40.5 -174v-2z" />
<glyph unicode="&#xa8;" horiz-adv-x="894" d="M391 1182q4 53 39 83.5t76 30.5h2q43 0 65.5 -27.5t18.5 -74.5q-4 -53 -39 -82t-76 -29q-37 0 -63.5 25t-22.5 74zM733 1182q4 53 39 83.5t76 30.5h2q43 0 65.5 -27.5t18.5 -74.5q-4 -53 -39 -82t-76 -29q-37 0 -63.5 25t-22.5 74z" />
<glyph unicode="&#xa9;" horiz-adv-x="1495" d="M182 659q0 137 47 258t131 209t198 139.5t247 51.5h2q137 0 250.5 -51.5t195.5 -139.5t128 -208.5t46 -258.5q0 -141 -47 -259.5t-131 -207t-197.5 -137.5t-246.5 -49t-248 49t-198 136.5t-130 207t-47 260.5zM268 659q0 -129 41 -236.5t113 -185t171 -121.5t216 -44 q115 0 213 44t170 121.5t113 185t41 236.5q0 125 -38 232.5t-109 187.5t-170 126t-222 46h-2q-115 0 -213 -44t-170 -122.5t-113 -187.5t-41 -238zM475 662q0 86 30 153.5t83 114.5q43 39 107.5 62.5t148.5 23.5q66 0 108.5 -14.5t71.5 -32.5q14 -8 16 4l17 37l41 -4 q-8 -51 -10.5 -120t4.5 -147h-41q-8 43 -22.5 87t-37.5 73q-51 63 -139 64q-47 0 -82 -17.5t-59 -48.5q-29 -35 -45.5 -90t-16.5 -129q0 -78 15.5 -130t44.5 -83q27 -33 66.5 -51.5t86.5 -18.5q86 0 138.5 45t80.5 123l41 -24q-16 -59 -47 -100.5t-71.5 -66t-88 -35.5 t-92.5 -11q-90 0 -159.5 27.5t-112.5 76.5q-35 41 -55.5 98.5t-20.5 133.5z" />
<glyph unicode="&#xaa;" horiz-adv-x="749" d="M152 690q0 49 16 103.5t46 108.5t72 102.5t91 82.5q45 31 87 45.5t91 14.5t76.5 -21.5t38.5 -48.5l12 39h143q-25 -57 -49 -121.5t-44.5 -127t-36 -116t-21.5 -85.5q-6 -37 10 -37q29 0 69 39t70 98l33 -33q-16 -29 -37.5 -61.5t-52.5 -59t-69 -44t-87 -17.5 q-53 0 -68.5 38t7.5 107q4 10 7 22.5t7 20.5q-25 -31 -56.5 -64.5t-68.5 -61t-79 -45t-89 -17.5q-61 0 -89.5 39t-28.5 100zM303 696q0 -29 9.5 -47t31.5 -18q94 0 201 164q14 20 29.5 49.5t27.5 60.5t20.5 59.5t8.5 47.5q0 37 -17.5 59.5t-44.5 22.5h-2q-29 0 -61.5 -17.5 t-67.5 -58.5q-55 -66 -94 -155t-41 -167z" />
<glyph unicode="&#xab;" horiz-adv-x="937" d="M113 424l26 45q92 33 198.5 126t199.5 234l47 -28q-27 -55 -59.5 -108.5t-68.5 -100.5t-70 -87t-60 -71q14 -35 28.5 -81t24.5 -95t17 -98t10 -92l-52 -35q-18 74 -44.5 140.5t-59.5 117.5t-69 86t-68 47zM494 422l26 45q59 25 113.5 64.5t102.5 86t87 95.5t68 90l39 -33 q-20 -41 -50 -89t-64 -94t-67.5 -87t-62.5 -70q14 -37 28.5 -84t26 -94t17.5 -90t6 -74l-51 -31q-33 133 -92.5 227.5t-126.5 137.5z" />
<glyph unicode="&#xac;" horiz-adv-x="1067" d="M102 612v107h842v-520h-110v413h-732z" />
<glyph unicode="&#xad;" horiz-adv-x="608" d="M82 391l45 123q111 -4 214 -4t228 4l-43 -123q-121 4 -227 4t-217 -4z" />
<glyph unicode="&#xae;" horiz-adv-x="528" d="M219 1092q0 49 17.5 91t47 72.5t69.5 48t87 17.5h2q47 0 87 -17.5t69 -48t45 -72.5t16 -91q0 -47 -16 -89t-46 -73t-71 -49.5t-88 -18.5t-87 18.5t-68.5 49.5t-46 72.5t-17.5 89.5zM268 1090q0 -78 50.5 -132.5t123.5 -54.5q74 0 124 54.5t50 132.5q0 82 -49 137t-129 55 h-2q-70 0 -119 -53t-49 -139zM326 1171l2 23q6 0 24.5 -1t28.5 -1q14 0 32.5 1t45.5 1q39 0 54 -12.5t15 -34.5q0 -23 -14 -34t-39 -15v-2q25 -2 35 -9.5t14 -17.5q8 -16 8 -31q2 -20 21 -20q2 0 5 1t7 1l-2 -23q-12 -2 -23.5 -4t-21.5 -2q-25 0 -34 12.5t-11 30.5 q0 6 -1 12.5t-1 12.5q-4 18 -27 22q-8 2 -14 1t-14 -1q0 -16 1 -28.5t1 -22.5q0 -8 8 -8l20 -4l-2 -23h-112v23l12 2q14 0 16 8q2 10 2 29.5v40.5v40t-2 23q0 8 -8 8zM416 1104q14 0 24 2q12 0 20.5 9t8.5 22v2q0 35 -33 35q-18 0 -20 -7v-63z" />
<glyph unicode="&#xaf;" horiz-adv-x="899" d="M422 1094l43 123h426l-41 -123h-428z" />
<glyph unicode="&#xb0;" horiz-adv-x="647" d="M279 1077q2 61 23.5 107.5t57 79t84 49t101.5 16.5h2q102 0 162.5 -64.5t56.5 -172.5q-4 -117 -79 -181.5t-177 -64.5q-51 0 -94 14t-74 44t-48.5 73t-14.5 100zM406 1092q-4 -90 28.5 -134.5t79.5 -44.5q41 0 65.5 19.5t39 49.5t19.5 61.5t5 56.5q0 20 -3 49t-14.5 54.5 t-32.5 45t-58 19.5q-39 0 -64 -18.5t-39 -46t-20 -58.5t-6 -53z" />
<glyph unicode="&#xb1;" horiz-adv-x="1062" d="M98 10v107h848v-107h-848zM98 567v105h369v348h113v-348h366v-105h-366v-372h-113v372h-369z" />
<glyph unicode="&#xb2;" horiz-adv-x="704" d="M145 881q10 16 22.5 37.5t22.5 39.5q147 78 251 157t151 142q29 41 45 81t16 92q0 57 -26.5 88.5t-73.5 31.5q-39 0 -63.5 -15t-40 -40t-24.5 -55.5t-15 -61.5q-4 -33 -22.5 -48t-41.5 -15q-68 0 -67 76q0 29 18 65.5t56 69.5t93.5 55.5t128.5 22.5q98 0 166 -50.5 t68 -150.5q0 -70 -41 -122t-100 -95q-27 -18 -56.5 -38t-68.5 -42.5t-87 -52t-112 -66.5q147 4 216 7t89 5q23 0 43 27q12 14 30.5 41t33.5 49l39 -20q-45 -90 -73 -149.5t-36 -82.5q-12 0 -34.5 1t-65.5 2t-110.5 2t-172.5 1h-84t-69 -2z" />
<glyph unicode="&#xb3;" horiz-adv-x="704" d="M176 1012q0 31 21.5 54.5t56.5 23.5q47 0 53 -64q6 -53 35 -86t92 -33q74 0 122 55.5t48 135.5q0 66 -33.5 94.5t-101.5 28.5q-16 0 -34.5 -2t-37.5 -7l-22 35l14 23q29 2 59.5 7t59.5 15q66 16 106.5 53t40.5 99q0 47 -26.5 74.5t-77.5 27.5q-59 0 -110.5 -41 t-80.5 -127l-20 -2l-37 62q8 25 32.5 53.5t62.5 54t88.5 42t109.5 16.5q98 0 155.5 -40t57.5 -116q0 -53 -28.5 -86t-69.5 -55q-31 -14 -63 -24.5t-79 -20.5v-9q57 -6 99.5 -21t64.5 -38q23 -20 32 -47t9 -57q0 -53 -30.5 -98.5t-81.5 -76.5q-47 -29 -105.5 -45t-130.5 -16 q-104 0 -177 43t-73 115z" />
<glyph unicode="&#xb4;" horiz-adv-x="894" d="M528 1028q16 23 45 68t61 92t59.5 90t41.5 61q25 35 53.5 52.5t55.5 17.5q29 0 44 -19.5t13 -48.5q0 -31 -21.5 -62.5t-45.5 -53.5q-29 -27 -97.5 -85.5t-167.5 -144.5z" />
<glyph unicode="&#xb5;" horiz-adv-x="1040" d="M-106 -442q29 80 63.5 175t65 183t54 154.5t29.5 91.5q8 31 27 89t40.5 130t46 149.5t46 147.5t37.5 124t25 79q51 0 105 6t97 14q-14 -23 -35.5 -73t-46 -116.5t-50 -143t-48 -150.5t-40 -138.5t-25.5 -107.5q-18 -100 43 -100q55 0 111.5 40t108.5 102t96 139t75 153 q14 39 30.5 89t33 101.5t30.5 99.5t25 85q29 0 78 5t118 17q-35 -74 -73.5 -180.5t-75.5 -220t-68 -220t-47 -180.5q-6 -29 -3 -39t17 -10q41 0 99.5 53.5t109.5 157.5l29 -65q-20 -41 -52 -83t-73 -75t-90 -53.5t-105 -20.5q-33 0 -53 8.5t-33 18.5q-31 29 -12 92l55 178 q-43 -66 -91 -119t-97 -91t-97 -58.5t-91 -20.5q-23 0 -47.5 10.5t-40.5 32.5q-41 -143 -72 -282t-49 -228l-17 -12q-66 4 -110.5 26.5t-52.5 35.5z" />
<glyph unicode="&#xb6;" horiz-adv-x="1048" d="M102 -195q0 59 40 105.5t94 46.5q35 0 56 -13.5t32 -33.5q10 -25 -9 -29q-47 -4 -73.5 -29.5t-26.5 -62.5q0 -45 29.5 -76.5t95.5 -31.5q49 0 88 18t75 72.5t69.5 153t74.5 255.5l23 88q-66 -16 -109 -27.5t-65 -11.5q-55 0 -105.5 26t-87.5 72t-58.5 111.5t-21.5 145.5 q2 80 23.5 153.5t60.5 137t93.5 113.5t121.5 83q49 23 98.5 33t108.5 10h55.5t66.5 -1t65.5 -2t56.5 -1q49 -2 103 0t93 4l-18 -55l-123 -12q-29 -4 -44 -17.5t-30 -71.5l-186 -677q-37 -129 -63.5 -223.5t-53 -163t-56.5 -116.5t-73 -85q-47 -45 -100 -61.5t-103 -16.5 q-43 0 -82.5 10t-69.5 33t-47.5 58.5t-17.5 88.5z" />
<glyph unicode="&#xb7;" horiz-adv-x="382" d="M100 446q4 59 43 102.5t93 43.5q51 0 78.5 -35t23.5 -92q-4 -61 -43 -99t-96 -38h-2q-43 0 -72 31.5t-25 86.5z" />
<glyph unicode="&#xb8;" horiz-adv-x="917" d="M172 -383l25 57q16 -10 44.5 -18t51.5 -8q33 0 60.5 16.5t27.5 56.5q0 37 -35 58.5t-90 21.5l-4 23q31 35 75 87t87 103h65q-14 -16 -41.5 -51t-50.5 -63q39 -10 80 -43t41 -99q0 -49 -17.5 -83.5t-46 -56t-65.5 -32t-76 -10.5q-47 0 -84 15.5t-47 25.5z" />
<glyph unicode="&#xb9;" horiz-adv-x="704" d="M223 866l17 49l90 11q25 4 36 11t17 24q14 33 32.5 92t53.5 174q23 72 42 142.5t30 115.5q6 23 -13 20q-16 0 -57 -1t-76 -3l23 51q37 4 80 10.5t84 12.5t74.5 13t52.5 14l8 -7q-20 -66 -49 -162t-58 -200q-31 -115 -46 -176.5t-21 -98.5q-6 -29 22 -30l105 -10l-19 -52 q-57 0 -115.5 2t-103.5 2q-49 0 -102.5 -2t-106.5 -2z" />
<glyph unicode="&#xba;" horiz-adv-x="718" d="M174 756q0 80 31 150.5t84 123.5t122.5 85t149.5 32h2q102 0 167 -52.5t65 -158.5q0 -82 -31 -152.5t-83 -122t-124 -81t-151 -29.5q-35 0 -76 8t-76 31.5t-57.5 63.5t-22.5 102zM324 719q0 -63 29.5 -89t66.5 -26q33 0 63.5 14.5t61.5 49.5q25 29 45 67.5t34.5 80.5 t21.5 85t7 78q0 53 -22.5 84t-75.5 31h-2q-72 0 -133 -80q-20 -27 -37.5 -63t-31 -75.5t-20.5 -79.5t-7 -77z" />
<glyph unicode="&#xbb;" horiz-adv-x="933" d="M47 94q18 41 48 89t64 94.5t68.5 87.5t63.5 71q-16 37 -30.5 83t-25 93t-16.5 90t-6 74l49 29q33 -133 92.5 -227.5t128.5 -135.5l-28 -47q-59 -25 -112.5 -64.5t-101.5 -85.5t-87 -95.5t-68 -90.5zM393 61q25 55 58.5 108.5t68.5 101.5t69 88t60 69q-16 35 -29.5 81 t-23.5 95t-16.5 98.5t-8.5 92.5l52 34q18 -74 44.5 -140t58.5 -117.5t66.5 -85t69.5 -46.5l-26 -47q-92 -35 -198 -127t-198 -233z" />
<glyph unicode="&#xbc;" horiz-adv-x="1560" d="M174 563l16 49l89 11q27 4 38 11t17 23q12 33 31.5 92.5t54.5 174.5q20 72 40.5 142.5t31.5 115.5q6 23 -13 20q-16 0 -57 -1t-78 -3l25 51q37 4 80 10.5t83.5 12.5t74.5 13t52 13l9 -6q-20 -66 -49 -162t-58 -200q-31 -115 -46 -176.5t-23 -98.5q-4 -29 22 -30l107 -11 l-19 -51q-57 0 -116.5 2t-102.5 2q-49 0 -102.5 -2t-106.5 -2zM236 -8q141 164 300.5 353.5t316.5 374.5t296 355t242 295l61 -47q-100 -117 -232.5 -270.5t-283 -332.5t-315 -378t-330.5 -405zM774 307q68 63 140.5 130t139 127.5t121 108.5t85.5 75q33 6 73.5 14t69.5 18 l10 -8q-33 -106 -64.5 -229t-62.5 -240q53 2 91 11.5t61 19.5l-8 -45q-27 -18 -72 -30.5t-88 -16.5q-10 -41 -22.5 -89.5t-22.5 -101.5q-47 0 -86 -5t-68 -15l-10 8q12 35 26.5 83t32.5 114q-55 0 -109.5 3t-101.5 7t-81.5 10t-49.5 10zM883 326q23 -8 95.5 -17.5 t162.5 -9.5q31 104 58.5 202.5t49.5 170.5q-100 -86 -198.5 -180.5t-167.5 -165.5z" />
<glyph unicode="&#xbd;" horiz-adv-x="1560" d="M139 563l17 49l88 11q27 4 38 11t17 23q12 33 31.5 92.5t54.5 174.5q20 72 40.5 142.5t31.5 115.5q6 23 -13 20q-16 0 -57 -1t-78 -3l25 51q37 4 80 10.5t84 12.5t74.5 13t52.5 13l8 -6q-20 -63 -49 -160.5t-58 -201.5q-31 -115 -46 -176.5t-23 -98.5q-6 -29 22 -30 l107 -11l-19 -51q-57 0 -116.5 2t-104.5 2q-49 0 -101 -2t-106 -2zM203 -8q141 166 301 354.5t315.5 374.5t295.5 355t241 294l63 -47q-100 -117 -232 -270.5t-282.5 -332.5t-315.5 -378t-331 -405zM817 57q10 16 22.5 37t22.5 41q147 78 251 157t151 142q29 41 45 81t16 91 q0 57 -26.5 89t-73.5 32q-37 0 -61.5 -14.5t-41 -39t-26 -55t-15.5 -63.5q-4 -33 -21.5 -48t-41.5 -15q-66 0 -66 75q0 29 18.5 66t55.5 69.5t92.5 55t128.5 22.5q98 0 166 -50t68 -150q0 -70 -40 -122t-100 -96q-53 -37 -126.5 -79.5t-198.5 -118.5q147 4 215.5 6t89.5 4 q23 2 43 29q12 14 31.5 40.5t31.5 49.5l39 -21q-45 -90 -71.5 -149.5t-36.5 -81.5q-12 0 -35 1t-66 2t-110.5 2t-171.5 1h-84t-70 -2z" />
<glyph unicode="&#xbe;" horiz-adv-x="1560" d="M150 709q0 31 21.5 54t55.5 23q47 0 54 -63q6 -53 34.5 -86t92.5 -33q74 0 122 55.5t48 135.5q0 66 -34 94.5t-100 28.5q-18 0 -36.5 -2.5t-36.5 -6.5l-23 35l14 23q27 2 59 7t58 15q66 16 108 53t42 99q0 47 -27 74.5t-78 27.5q-59 0 -110.5 -42t-79.5 -128h-21l-37 62 q8 25 33 53.5t63 54t88 41.5t109 16q98 0 155.5 -39.5t57.5 -115.5q0 -53 -29.5 -86t-70.5 -55q-29 -14 -61.5 -24.5t-77.5 -21.5v-8q115 -12 164 -59q23 -20 32 -47t9 -58q0 -53 -31 -98t-80 -76q-47 -29 -106.5 -45t-131.5 -16q-51 0 -97 11t-80 31.5t-53 50.5t-19 65z M281 -8q94 109 196.5 230.5t209 246.5t210.5 250t200.5 241.5t182.5 220t154 187.5l61 -45q-100 -117 -232.5 -270.5t-283 -333.5t-314 -379t-329.5 -403zM807 307q68 63 141.5 130t139 127.5t120 108.5t84.5 75q33 6 74 14t70 18l10 -8q-31 -106 -63.5 -229t-63.5 -240 q53 2 91 11.5t60 19.5l-10 -45q-25 -18 -69.5 -30.5t-87.5 -16.5q-10 -41 -21.5 -89.5t-24.5 -101.5q-94 0 -151 -20l-12 8q12 35 26.5 83t32.5 114q-55 0 -109.5 3t-101.5 7t-82 10t-49 10zM918 326q23 -8 94.5 -17.5t161.5 -9.5q31 104 58.5 202.5t49.5 170.5 q-100 -86 -198.5 -180.5t-165.5 -165.5z" />
<glyph unicode="&#xbf;" horiz-adv-x="811" d="M-39 -172q2 86 49 150.5t127 117.5q76 47 137.5 92t102.5 78q51 41 69.5 83t6.5 106l47 18q25 -35 45 -81t18 -93t-26.5 -89t-67.5 -77q-27 -23 -64.5 -52.5t-78.5 -60t-78 -59.5t-60 -47q-76 -61 -75 -152q-2 -74 41 -113.5t112 -39.5q78 0 129 42t51 122q0 16 -2 30.5 t-6 26.5q-10 35 17 61q25 29 73 29q35 0 60.5 -26.5t25.5 -69.5q0 -59 -30.5 -109.5t-80.5 -87.5t-115.5 -58.5t-135.5 -21.5q-129 0 -211 72t-80 209zM442 760q4 59 41 96t95 37h2q43 0 70.5 -31t25.5 -84q-4 -59 -42 -100t-91 -41q-51 0 -78 34t-23 89z" />
<glyph unicode="&#xc0;" horiz-adv-x="1198" d="M-104 -6l14 57q43 4 72.5 10.5t53 19.5t45 38.5t50.5 68.5q31 47 86 131t122 184.5t136.5 208t131 202t108.5 167t65 103.5q31 47 39 76l6 18q18 0 41 3t45.5 9t43 15.5t34.5 21.5l15 -8q-2 -47 -4.5 -127t-2.5 -180.5v-210t2 -213.5q4 -197 7.5 -308.5t11.5 -166.5 q4 -25 14 -35t35 -15l111 -12l-11 -57q-39 0 -111.5 3t-146.5 3q-66 0 -133 -2t-121 -4l17 57q47 4 74.5 8t41 12.5t18.5 23t5 36.5q4 115 4 211v182q-141 0 -240.5 -7t-150.5 -15q-80 -129 -131 -218t-70 -126q-14 -31 -15 -50.5t14.5 -30.5t50 -16.5t94.5 -9.5l-15 -57 q-47 0 -111.5 3t-115.5 3q-78 0 -135.5 -3t-93.5 -3zM475 580q59 8 140 10t200 6q2 111 2 253t4 281q-29 -47 -61.5 -97t-73.5 -113.5t-92 -146.5t-119 -193zM590 1583q-8 35 9 57.5t46 30.5q25 8 55.5 1t55.5 -25q12 -8 45 -37t70.5 -61.5t72.5 -64.5t51 -46l-28 -43 q-47 14 -95.5 31.5t-90.5 32t-71.5 25.5t-41.5 15q-25 10 -49.5 33.5t-28.5 50.5z" />
<glyph unicode="&#xc1;" horiz-adv-x="1198" d="M-104 -6l14 57q43 4 72.5 10.5t53 19.5t45 38.5t50.5 68.5q31 47 86 131t122 184.5t136.5 208t131 202t108.5 167t65 103.5q31 47 39 76l6 18q18 0 41 3t45.5 9t43 15.5t34.5 21.5l15 -8q-2 -47 -4.5 -127t-2.5 -180.5v-210t2 -213.5q4 -197 7.5 -308.5t11.5 -166.5 q4 -25 14 -35t35 -15l111 -12l-11 -57q-39 0 -111.5 3t-146.5 3q-66 0 -133 -2t-121 -4l17 57q47 4 74.5 8t41 12.5t18.5 23t5 36.5q4 115 4 211v182q-141 0 -240.5 -7t-150.5 -15q-80 -129 -131 -218t-70 -126q-14 -31 -15 -50.5t14.5 -30.5t50 -16.5t94.5 -9.5l-15 -57 q-47 0 -111.5 3t-115.5 3q-78 0 -135.5 -3t-93.5 -3zM475 580q59 8 140 10t200 6q2 111 2 253t4 281q-29 -47 -61.5 -97t-73.5 -113.5t-92 -146.5t-119 -193zM819 1442q20 14 61.5 46t85.5 66.5t81.5 64.5t54.5 40q27 18 56.5 25.5t55.5 -1.5q29 -6 42.5 -28.5t3.5 -57.5 q-6 -29 -35 -52t-60 -38q-31 -12 -114.5 -40.5t-202.5 -69.5z" />
<glyph unicode="&#xc2;" horiz-adv-x="1198" d="M-104 -6l14 57q43 4 72.5 10.5t53 19.5t45 38.5t50.5 68.5q31 47 86 131t122 184.5t136.5 208t131 202t108.5 167t65 103.5q31 47 39 76l6 18q18 0 41 3t45.5 9t43 15.5t34.5 21.5l15 -8q-2 -47 -4.5 -127t-2.5 -180.5v-210t2 -213.5q4 -197 7.5 -308.5t11.5 -166.5 q4 -25 14 -35t35 -15l111 -12l-11 -57q-39 0 -111.5 3t-146.5 3q-66 0 -133 -2t-121 -4l17 57q47 4 74.5 8t41 12.5t18.5 23t5 36.5q4 115 4 211v182q-141 0 -240.5 -7t-150.5 -15q-80 -129 -131 -218t-70 -126q-14 -31 -15 -50.5t14.5 -30.5t50 -16.5t94.5 -9.5l-15 -57 q-47 0 -111.5 3t-115.5 3q-78 0 -135.5 -3t-93.5 -3zM475 580q59 8 140 10t200 6q2 111 2 253t4 281q-29 -47 -61.5 -97t-73.5 -113.5t-92 -146.5t-119 -193zM651 1436q123 70 197 133t108 104l50 6q14 -39 64 -110.5t136 -132.5l-39 -50q-49 18 -112.5 53.5t-106.5 63.5 q-29 -14 -63.5 -30.5t-72.5 -32t-75 -29.5t-67 -25z" />
<glyph unicode="&#xc3;" horiz-adv-x="1198" d="M-104 -6l14 57q43 4 72.5 10.5t53 19.5t45 38.5t50.5 68.5q31 47 86 131t122 184.5t136.5 208t131 202t108.5 167t65 103.5q31 47 39 76l6 18q18 0 41 3t45.5 9t43 15.5t34.5 21.5l15 -8q-2 -47 -4.5 -127t-2.5 -180.5v-210t2 -213.5q4 -197 7.5 -308.5t11.5 -166.5 q4 -25 14 -35t35 -15l111 -12l-11 -57q-39 0 -111.5 3t-146.5 3q-66 0 -133 -2t-121 -4l17 57q47 4 74.5 8t41 12.5t18.5 23t5 36.5q4 115 4 211v182q-141 0 -240.5 -7t-150.5 -15q-80 -129 -131 -218t-70 -126q-14 -31 -15 -50.5t14.5 -30.5t50 -16.5t94.5 -9.5l-15 -57 q-47 0 -111.5 3t-115.5 3q-78 0 -135.5 -3t-93.5 -3zM475 580q59 8 140 10t200 6q2 111 2 253t4 281q-29 -47 -61.5 -97t-73.5 -113.5t-92 -146.5t-119 -193zM659 1403q2 45 12.5 89t31 78t52 55.5t74.5 21.5q31 0 62 -14.5t72 -49.5q68 -55 94 -55q25 0 43 30.5t24 96.5 l64 -13q-2 -49 -11.5 -92t-28 -76.5t-48 -53t-68.5 -19.5q-35 0 -66.5 17.5t-78.5 56.5q-27 23 -47.5 35t-40.5 12q-29 0 -48.5 -36t-25.5 -89z" />
<glyph unicode="&#xc4;" horiz-adv-x="1198" d="M-104 -6l14 57q43 4 72.5 10.5t53 19.5t45 38.5t50.5 68.5q31 47 86 131t122 184.5t136.5 208t131 202t108.5 167t65 103.5q31 47 39 76l6 18q18 0 41 3t45.5 9t43 15.5t34.5 21.5l15 -8q-2 -47 -4.5 -127t-2.5 -180.5v-210t2 -213.5q4 -197 7.5 -308.5t11.5 -166.5 q4 -25 14 -35t35 -15l111 -12l-11 -57q-39 0 -111.5 3t-146.5 3q-66 0 -133 -2t-121 -4l17 57q47 4 74.5 8t41 12.5t18.5 23t5 36.5q4 115 4 211v182q-141 0 -240.5 -7t-150.5 -15q-80 -129 -131 -218t-70 -126q-14 -31 -15 -50.5t14.5 -30.5t50 -16.5t94.5 -9.5l-15 -57 q-47 0 -111.5 3t-115.5 3q-78 0 -135.5 -3t-93.5 -3zM475 580q59 8 140 10t200 6q2 111 2 253t4 281q-29 -47 -61.5 -97t-73.5 -113.5t-92 -146.5t-119 -193zM635 1520q6 49 40 80.5t79 31.5h2q47 0 69.5 -30.5t18.5 -73.5q-6 -53 -45 -84t-76 -31t-65.5 25.5t-22.5 81.5z M1014 1520q6 49 38.5 80.5t80.5 31.5h2q47 0 69.5 -30.5t18.5 -73.5q-6 -53 -45 -84t-76 -31t-65.5 25.5t-22.5 81.5z" />
<glyph unicode="&#xc5;" horiz-adv-x="1198" d="M-104 -6l14 57q43 4 72.5 10.5t53 19.5t45 38.5t50.5 68.5q31 47 86 131t122 184.5t136.5 208t131 202t108.5 167t65 103.5q31 47 39 76l6 18q18 0 41 3t45.5 9t43 15.5t34.5 21.5l15 -8q-2 -47 -4.5 -127t-2.5 -180.5v-210t2 -213.5q4 -197 7.5 -308.5t11.5 -166.5 q4 -25 14 -35t35 -15l111 -12l-11 -57q-39 0 -111.5 3t-146.5 3q-66 0 -133 -2t-121 -4l17 57q47 4 74.5 8t41 12.5t18.5 23t5 36.5q4 115 4 211v182q-141 0 -240.5 -7t-150.5 -15q-80 -129 -131 -218t-70 -126q-14 -31 -15 -50.5t14.5 -30.5t50 -16.5t94.5 -9.5l-15 -57 q-47 0 -111.5 3t-115.5 3q-78 0 -135.5 -3t-93.5 -3zM475 580q59 8 140 10t200 6q2 111 2 253t4 281q-29 -47 -61.5 -97t-73.5 -113.5t-92 -146.5t-119 -193zM743 1550q12 92 77 140.5t153 48.5h2q82 0 127 -46t33 -132q-6 -47 -27 -81t-51.5 -56.5t-68.5 -34t-79 -11.5 q-80 0 -128 44t-38 128zM858 1556q-10 -61 10.5 -90.5t53.5 -29.5q29 0 47 14t29.5 34.5t16.5 44t7 40.5q2 16 1 36.5t-7 38t-20.5 28.5t-37.5 11h-2q-25 0 -43 -13t-29.5 -32.5t-17.5 -41t-8 -40.5z" />
<glyph unicode="&#xc6;" horiz-adv-x="1669" d="M-125 -6l14 55q43 4 73 11.5t56.5 24.5t54 49t66.5 85q80 111 171 233.5t186.5 248.5t191.5 252t186 241q10 14 9.5 23.5t-21.5 11.5l-166 12l17 57q39 0 85 -1t95 -2t97 -2t89 -1h365q76 0 150.5 1t148.5 12q-8 -20 -21.5 -61.5t-27 -92.5t-26.5 -103.5t-23 -93.5h-54 q4 35 8.5 85.5t-0.5 90.5q-2 29 -10 48.5t-29.5 31t-60.5 15.5t-104 4h-160q-31 0 -41 -33q-12 -41 -29.5 -105.5t-37 -139t-38 -149.5t-32.5 -134h139q59 0 98 7t65.5 26.5t45 51t39.5 78.5h53q-35 -102 -66.5 -226t-54.5 -226l-49 2q6 55 8 97t-11 68.5t-47 40t-97 13.5 h-142q-39 -160 -65.5 -272.5t-44.5 -212.5q-4 -16 -2 -26.5t17 -16.5t48 -8.5t92 -2.5q76 0 129.5 3.5t91 11.5t63.5 21.5t48 33.5q49 43 92 106.5t74 120.5l49 -18q-6 -18 -25.5 -67.5t-41 -105.5t-41 -107.5t-29.5 -71.5q-27 4 -63.5 5t-94.5 3q-57 2 -138 3t-191 1h-195 q-43 0 -83 -1t-77 -1q-35 -2 -65.5 -3t-57.5 -1l17 55l114 12q27 4 41.5 19.5t26.5 52.5q31 102 62.5 220t62.5 247h-59t-87.5 -1t-99.5 -2t-94 -3q-78 -111 -152.5 -214.5t-146.5 -225.5q-16 -29 -19.5 -46.5t10 -28.5t48.5 -18.5t96 -11.5l-16 -55q-57 0 -109.5 3 t-109.5 3q-59 0 -120 -3t-118 -3zM567 670q66 -2 150 -3t153 1l142 561h-29q-49 -59 -101.5 -128t-105.5 -141.5t-106.5 -146.5t-102.5 -143z" />
<glyph unicode="&#xc7;" horiz-adv-x="1185" d="M150 444q0 96 20 195.5t60 195t99.5 180.5t135.5 152q76 63 181.5 110.5t252.5 47.5q109 0 189.5 -36t115.5 -89l72 109l43 -21q-16 -39 -34.5 -93t-37 -112.5t-35 -116t-24.5 -104.5l-53 -2q16 92 12 168t-33 123q-33 53 -81 82t-124 29q-78 0 -156.5 -34t-150.5 -112 q-61 -70 -106 -153.5t-75 -174t-44.5 -184.5t-14.5 -184q0 -86 20.5 -159t51.5 -111q39 -49 97.5 -78t127.5 -29q164 0 266.5 81t170.5 228h32q2 -23 3.5 -56.5t1.5 -53.5q-33 -55 -82.5 -102.5t-108.5 -83.5t-127.5 -57.5t-140.5 -27.5q-14 -16 -29.5 -34.5t-28.5 -34.5 q18 -6 40 -16.5t40.5 -28t30.5 -43t12 -58.5q0 -49 -17 -83.5t-47 -56.5t-67 -32t-76 -10q-47 0 -83.5 15.5t-49.5 25.5l27 57q16 -10 44 -18t52 -8q33 0 60.5 16t27.5 57q0 39 -34.5 59.5t-90.5 22.5l-4 21q23 29 57.5 69.5t63.5 75.5h-10q-221 4 -331.5 131t-110.5 346z " />
<glyph unicode="&#xc8;" horiz-adv-x="1118" d="M-53 -6l18 55l115 14q29 4 44 16.5t28 51.5q35 104 76.5 242.5t88.5 306.5q47 160 81 286t55 218q6 25 -1.5 35t-39.5 14l-119 10l20 55q53 0 135 -3t158 -3h312q117 0 188.5 4t101.5 9q-10 -20 -24.5 -63.5t-29.5 -95.5t-29.5 -104.5t-22.5 -89.5l-49 -2q4 41 8 90.5 t4 94.5q0 29 -8 47t-30.5 29.5t-64.5 15.5t-112 4h-150q-18 0 -26 -7t-17 -28q-12 -37 -30.5 -96.5t-39 -127t-40 -137t-33.5 -128.5q14 -4 58 -4.5t98 -0.5q53 0 88 8.5t60.5 27t45 50t41.5 78.5h51q-41 -104 -73.5 -225t-55.5 -225h-49q8 61 9 104t-12 68.5t-44 37 t-86 11.5h-88t-65 -4q-43 -152 -79 -285t-59 -231q-4 -16 -3 -27.5t16.5 -17.5t48.5 -8.5t92 -2.5q78 0 132 3.5t92 10.5t64.5 20.5t51.5 33.5q51 43 93 105.5t77 121.5l51 -18q-10 -23 -31.5 -72t-44 -104.5t-44 -105.5t-29.5 -70q-25 4 -63 5t-97 5q-59 2 -140 3t-192 1 h-199q-41 0 -82 -1t-77 -1q-37 -2 -69 -3t-54 -1zM543 1583q-8 35 9 57.5t46 30.5q25 8 55.5 1t55.5 -25q12 -8 44.5 -37t70.5 -61.5t73 -64.5t51 -46l-28 -43q-47 14 -95.5 31.5t-90.5 32t-71.5 25.5t-41.5 15q-25 10 -49.5 33.5t-28.5 50.5z" />
<glyph unicode="&#xc9;" horiz-adv-x="1118" d="M-53 -6l18 55l115 14q29 4 44 16.5t28 51.5q35 104 76.5 242.5t88.5 306.5q47 160 81 286t55 218q6 25 -1.5 35t-39.5 14l-119 10l20 55q53 0 135 -3t158 -3h312q117 0 188.5 4t101.5 9q-10 -20 -24.5 -63.5t-29.5 -95.5t-29.5 -104.5t-22.5 -89.5l-49 -2q4 41 8 90.5 t4 94.5q0 29 -8 47t-30.5 29.5t-64.5 15.5t-112 4h-150q-18 0 -26 -7t-17 -28q-12 -37 -30.5 -96.5t-39 -127t-40 -137t-33.5 -128.5q14 -4 58 -4.5t98 -0.5q53 0 88 8.5t60.5 27t45 50t41.5 78.5h51q-41 -104 -73.5 -225t-55.5 -225h-49q8 61 9 104t-12 68.5t-44 37 t-86 11.5h-88t-65 -4q-43 -152 -79 -285t-59 -231q-4 -16 -3 -27.5t16.5 -17.5t48.5 -8.5t92 -2.5q78 0 132 3.5t92 10.5t64.5 20.5t51.5 33.5q51 43 93 105.5t77 121.5l51 -18q-10 -23 -31.5 -72t-44 -104.5t-44 -105.5t-29.5 -70q-25 4 -63 5t-97 5q-59 2 -140 3t-192 1 h-199q-41 0 -82 -1t-77 -1q-37 -2 -69 -3t-54 -1zM700 1442q20 14 61.5 46t85.5 66.5t82 64.5t54 40q27 18 56.5 25.5t56.5 -1.5q29 -6 42 -28.5t3 -57.5q-6 -29 -35 -52t-59 -38q-31 -12 -115 -40.5t-203 -69.5z" />
<glyph unicode="&#xca;" horiz-adv-x="1118" d="M-53 -6l18 55l115 14q29 4 44 16.5t28 51.5q35 104 76.5 242.5t88.5 306.5q47 160 81 286t55 218q6 25 -1.5 35t-39.5 14l-119 10l20 55q53 0 135 -3t158 -3h312q117 0 188.5 4t101.5 9q-10 -20 -24.5 -63.5t-29.5 -95.5t-29.5 -104.5t-22.5 -89.5l-49 -2q4 41 8 90.5 t4 94.5q0 29 -8 47t-30.5 29.5t-64.5 15.5t-112 4h-150q-18 0 -26 -7t-17 -28q-12 -37 -30.5 -96.5t-39 -127t-40 -137t-33.5 -128.5q14 -4 58 -4.5t98 -0.5q53 0 88 8.5t60.5 27t45 50t41.5 78.5h51q-41 -104 -73.5 -225t-55.5 -225h-49q8 61 9 104t-12 68.5t-44 37 t-86 11.5h-88t-65 -4q-43 -152 -79 -285t-59 -231q-4 -16 -3 -27.5t16.5 -17.5t48.5 -8.5t92 -2.5q78 0 132 3.5t92 10.5t64.5 20.5t51.5 33.5q51 43 93 105.5t77 121.5l51 -18q-10 -23 -31.5 -72t-44 -104.5t-44 -105.5t-29.5 -70q-25 4 -63 5t-97 5q-59 2 -140 3t-192 1 h-199q-41 0 -82 -1t-77 -1q-37 -2 -69 -3t-54 -1zM557 1446q123 70 196.5 133t108.5 104l49 7q14 -39 64.5 -111t136.5 -133l-39 -49q-49 18 -112.5 53t-106.5 63q-29 -14 -63.5 -30.5t-72.5 -31.5t-75 -29.5t-68 -24.5z" />
<glyph unicode="&#xcb;" horiz-adv-x="1118" d="M-53 -6l18 55l115 14q29 4 44 16.5t28 51.5q35 104 76.5 242.5t88.5 306.5q47 160 81 286t55 218q6 25 -1.5 35t-39.5 14l-119 10l20 55q53 0 135 -3t158 -3h312q117 0 188.5 4t101.5 9q-10 -20 -24.5 -63.5t-29.5 -95.5t-29.5 -104.5t-22.5 -89.5l-49 -2q4 41 8 90.5 t4 94.5q0 29 -8 47t-30.5 29.5t-64.5 15.5t-112 4h-150q-18 0 -26 -7t-17 -28q-12 -37 -30.5 -96.5t-39 -127t-40 -137t-33.5 -128.5q14 -4 58 -4.5t98 -0.5q53 0 88 8.5t60.5 27t45 50t41.5 78.5h51q-41 -104 -73.5 -225t-55.5 -225h-49q8 61 9 104t-12 68.5t-44 37 t-86 11.5h-88t-65 -4q-43 -152 -79 -285t-59 -231q-4 -16 -3 -27.5t16.5 -17.5t48.5 -8.5t92 -2.5q78 0 132 3.5t92 10.5t64.5 20.5t51.5 33.5q51 43 93 105.5t77 121.5l51 -18q-10 -23 -31.5 -72t-44 -104.5t-44 -105.5t-29.5 -70q-25 4 -63 5t-97 5q-59 2 -140 3t-192 1 h-199q-41 0 -82 -1t-77 -1q-37 -2 -69 -3t-54 -1zM551 1522q6 49 40 80.5t79 31.5h2q47 0 69.5 -30.5t18.5 -73.5q-6 -53 -45 -84t-76 -31t-65.5 25.5t-22.5 81.5zM930 1522q6 49 38.5 80.5t80.5 31.5h2q47 0 69.5 -30.5t18.5 -73.5q-6 -53 -45 -84t-76 -31t-65.5 25.5 t-22.5 81.5z" />
<glyph unicode="&#xcc;" horiz-adv-x="634" d="M-43 -6l20 55l89 10q37 4 54 17.5t32 54.5q10 27 22 64.5t30.5 98t44 146.5t62.5 213q33 111 55.5 193t40 142.5t28.5 103.5t20 73q10 37 0.5 50.5t-43.5 17.5l-105 8l21 57q59 0 122.5 -3t129.5 -3q76 0 142 3t114 3l-19 -57l-90 -8q-31 -4 -46 -16.5t-28 -47.5 q-18 -49 -57 -177t-98 -341q-59 -205 -95 -339t-47 -189q-8 -37 2.5 -48.5t38.5 -15.5l111 -10l-19 -55q-25 0 -59.5 1t-72.5 2t-75.5 2t-70.5 1q-80 0 -143.5 -3t-110.5 -3zM309 1583q-8 35 9.5 57.5t46.5 30.5q25 8 55.5 1t54.5 -25q12 -8 45 -37t71 -61.5t72.5 -64.5 t51.5 -46l-29 -43q-47 14 -95 31.5t-90 32t-72 25.5t-42 15q-25 10 -49.5 33.5t-28.5 50.5z" />
<glyph unicode="&#xcd;" horiz-adv-x="634" d="M-43 -6l20 55l89 10q37 4 54 17.5t32 54.5q10 27 22 64.5t30.5 98t44 146.5t62.5 213q33 111 55.5 193t40 142.5t28.5 103.5t20 73q10 37 0.5 50.5t-43.5 17.5l-105 8l21 57q59 0 122.5 -3t129.5 -3q76 0 142 3t114 3l-19 -57l-90 -8q-31 -4 -46 -16.5t-28 -47.5 q-18 -49 -57 -177t-98 -341q-59 -205 -95 -339t-47 -189q-8 -37 2.5 -48.5t38.5 -15.5l111 -10l-19 -55q-25 0 -59.5 1t-72.5 2t-75.5 2t-70.5 1q-80 0 -143.5 -3t-110.5 -3zM481 1438q20 14 61.5 46t85.5 66.5t82 64.5t54 40q27 18 56.5 25.5t56.5 -1.5q29 -6 42 -28.5 t3 -57.5q-6 -29 -35 -52t-60 -38q-31 -12 -114.5 -40.5t-202.5 -69.5z" />
<glyph unicode="&#xce;" horiz-adv-x="634" d="M-43 -6l20 55l89 10q37 4 54 17.5t32 54.5q10 27 22 64.5t30.5 98t44 146.5t62.5 213q33 111 55.5 193t40 142.5t28.5 103.5t20 73q10 37 0.5 50.5t-43.5 17.5l-105 8l21 57q59 0 122.5 -3t129.5 -3q76 0 142 3t114 3l-19 -57l-90 -8q-31 -4 -46 -16.5t-28 -47.5 q-18 -49 -57 -177t-98 -341q-59 -205 -95 -339t-47 -189q-8 -37 2.5 -48.5t38.5 -15.5l111 -10l-19 -55q-25 0 -59.5 1t-72.5 2t-75.5 2t-70.5 1q-80 0 -143.5 -3t-110.5 -3zM332 1442q123 70 196.5 133t108.5 104l49 7q14 -39 64.5 -111t136.5 -133l-39 -49 q-49 18 -112.5 53t-106.5 63q-29 -14 -64 -30.5t-72.5 -31.5t-74.5 -29.5t-68 -24.5z" />
<glyph unicode="&#xcf;" horiz-adv-x="634" d="M-43 -6l20 55l89 10q37 4 54 17.5t32 54.5q10 27 22 64.5t30.5 98t44 146.5t62.5 213q33 111 55.5 193t40 142.5t28.5 103.5t20 73q10 37 0.5 50.5t-43.5 17.5l-105 8l21 57q59 0 122.5 -3t129.5 -3q76 0 142 3t114 3l-19 -57l-90 -8q-31 -4 -46 -16.5t-28 -47.5 q-18 -49 -57 -177t-98 -341q-59 -205 -95 -339t-47 -189q-8 -37 2.5 -48.5t38.5 -15.5l111 -10l-19 -55q-25 0 -59.5 1t-72.5 2t-75.5 2t-70.5 1q-80 0 -143.5 -3t-110.5 -3zM336 1518q6 49 40 80.5t79 31.5h2q47 0 69.5 -30.5t18.5 -73.5q-6 -53 -45 -84t-76 -31 t-65.5 25.5t-22.5 81.5zM715 1518q6 49 38.5 80.5t80.5 31.5h2q47 0 69.5 -30.5t18.5 -73.5q-6 -53 -45 -84t-76 -31t-65.5 25.5t-22.5 81.5z" />
<glyph unicode="&#xd0;" horiz-adv-x="1357" d="M-25 -6l21 55l88 8q35 4 54.5 18.5t35.5 55.5q29 86 68 214t86 298q-49 2 -103.5 1t-105.5 -3l31 74q31 0 81 -1t117 -3q31 104 51.5 179t35 129t23.5 91t15 68q8 29 -4 39t-45 14l-121 12l23 55q31 0 93 -3t134 -3q84 0 157.5 3t157.5 3q121 0 212 -25.5t151 -78.5 q135 -115 135 -354q0 -135 -38 -258t-102.5 -226.5t-152.5 -182.5t-188 -124q-139 -57 -342 -57q-41 0 -79 1t-79 3q-39 2 -78 3t-80 1q-70 0 -143.5 -3t-108.5 -3zM375 102q-4 -23 16.5 -36t100.5 -13q119 0 181 14.5t109 38.5q82 43 152 126t120 189.5t77.5 228.5 t27.5 245q0 86 -18.5 143.5t-46.5 96.5q-43 53 -109.5 77.5t-155.5 24.5q-45 0 -71.5 -2t-42 -6t-21.5 -10.5t-10 -14.5q-10 -23 -21.5 -57.5t-29 -91t-42 -140.5t-56.5 -206q100 2 178 3t141 5l-33 -80q-35 0 -119 2t-188 4q-31 -115 -54.5 -201t-41 -150.5t-27.5 -110.5 t-16 -79z" />
<glyph unicode="&#xd1;" horiz-adv-x="1308" d="M-47 -6l20 55q20 0 52 5t51 9q27 6 45 24.5t37 62.5q10 27 29.5 86t43 140t51 178t57.5 199.5t57.5 205t52.5 192.5q10 41 -7.5 57.5t-54.5 20.5l-117 12l21 57q33 0 89 -4t116 -4q43 0 73.5 2t61.5 6q39 -109 88 -243.5t101 -276t103.5 -278.5t94.5 -248 q106 391 162.5 612t66.5 301q4 35 -8 48.5t-55 17.5l-107 10l23 57q51 2 107.5 -2t101.5 -4q53 0 121.5 4t109.5 2l-20 -57q-53 -4 -99 -12q-23 -4 -39 -17.5t-28 -42.5q-12 -33 -35 -100.5t-50.5 -160.5t-58 -204.5t-62.5 -230.5t-62.5 -240.5t-55.5 -234.5q-37 0 -72.5 -7 t-60.5 -16q-29 92 -77 230.5t-103 293t-112.5 311.5t-102.5 290q-41 -152 -79 -296.5t-69.5 -268t-54.5 -220t-33 -151.5q-10 -53 -2 -72.5t37 -23.5q25 -4 61.5 -9.5t77.5 -9.5l-18 -55q-59 0 -127 3t-127 3q-47 0 -107.5 -1t-107.5 -5zM692 1403q2 45 12.5 89t31 78 t52 55.5t74.5 21.5q31 0 61.5 -14.5t71.5 -49.5q68 -55 95 -55q25 0 43 30.5t24 96.5l64 -13q-2 -49 -11.5 -92t-28 -76.5t-48 -53t-68.5 -19.5q-35 0 -66.5 17.5t-78.5 56.5q-27 23 -47.5 35t-41.5 12q-29 0 -48 -36t-25 -89z" />
<glyph unicode="&#xd2;" horiz-adv-x="1310" d="M143 416q0 104 26 215.5t73 218t115.5 199t152.5 153.5q80 59 173 91t204 32h2q213 0 324.5 -120t111.5 -337q0 -88 -18.5 -184t-52 -190.5t-82 -179.5t-109.5 -148q-104 -109 -222 -154t-251 -45q-98 0 -180 25.5t-141.5 81t-92.5 140.5t-33 202zM350 346 q0 -168 68.5 -241.5t171.5 -73.5q78 0 147.5 30.5t139.5 114.5q55 72 101 168t77.5 202.5t49 214t17.5 204.5q0 61 -12 116.5t-41 96.5t-74 65.5t-110 24.5h-2q-72 0 -143.5 -37t-137.5 -117q-57 -72 -103 -167t-79 -198.5t-51.5 -208t-18.5 -194.5zM635 1587 q-8 35 9.5 57.5t45.5 30.5q25 8 55.5 1t55.5 -25q12 -8 45 -37t70.5 -61.5t72.5 -64.5t51 -46l-28 -43q-47 14 -95.5 31.5t-90.5 32t-71.5 25.5t-41.5 15q-25 10 -49.5 34t-28.5 50z" />
<glyph unicode="&#xd3;" horiz-adv-x="1310" d="M143 416q0 104 26 215.5t73 218t115.5 199t152.5 153.5q80 59 173 91t204 32h2q213 0 324.5 -120t111.5 -337q0 -88 -18.5 -184t-52 -190.5t-82 -179.5t-109.5 -148q-104 -109 -222 -154t-251 -45q-98 0 -180 25.5t-141.5 81t-92.5 140.5t-33 202zM350 346 q0 -168 68.5 -241.5t171.5 -73.5q78 0 147.5 30.5t139.5 114.5q55 72 101 168t77.5 202.5t49 214t17.5 204.5q0 61 -12 116.5t-41 96.5t-74 65.5t-110 24.5h-2q-72 0 -143.5 -37t-137.5 -117q-57 -72 -103 -167t-79 -198.5t-51.5 -208t-18.5 -194.5zM776 1446q20 14 61.5 46 t85.5 66.5t81.5 64.5t54.5 40q27 18 56.5 25.5t55.5 -0.5q29 -6 42.5 -29t3.5 -57q-6 -29 -35 -52.5t-60 -38.5q-31 -12 -114.5 -40.5t-202.5 -69.5z" />
<glyph unicode="&#xd4;" horiz-adv-x="1310" d="M143 416q0 104 26 215.5t73 218t115.5 199t152.5 153.5q80 59 173 91t204 32h2q213 0 324.5 -120t111.5 -337q0 -88 -18.5 -184t-52 -190.5t-82 -179.5t-109.5 -148q-104 -109 -222 -154t-251 -45q-98 0 -180 25.5t-141.5 81t-92.5 140.5t-33 202zM350 346 q0 -168 68.5 -241.5t171.5 -73.5q78 0 147.5 30.5t139.5 114.5q55 72 101 168t77.5 202.5t49 214t17.5 204.5q0 61 -12 116.5t-41 96.5t-74 65.5t-110 24.5h-2q-72 0 -143.5 -37t-137.5 -117q-57 -72 -103 -167t-79 -198.5t-51.5 -208t-18.5 -194.5zM618 1446 q123 70 197 133t109 104l49 7q14 -39 64 -111t137 -133l-39 -49q-49 18 -113 53t-107 63q-29 -14 -63.5 -30.5t-72.5 -31.5t-74.5 -29.5t-67.5 -24.5z" />
<glyph unicode="&#xd5;" horiz-adv-x="1310" d="M143 416q0 104 26 215.5t73 218t115.5 199t152.5 153.5q80 59 173 91t204 32h2q213 0 324.5 -120t111.5 -337q0 -88 -18.5 -184t-52 -190.5t-82 -179.5t-109.5 -148q-104 -109 -222 -154t-251 -45q-98 0 -180 25.5t-141.5 81t-92.5 140.5t-33 202zM350 346 q0 -168 68.5 -241.5t171.5 -73.5q78 0 147.5 30.5t139.5 114.5q55 72 101 168t77.5 202.5t49 214t17.5 204.5q0 61 -12 116.5t-41 96.5t-74 65.5t-110 24.5h-2q-72 0 -143.5 -37t-137.5 -117q-57 -72 -103 -167t-79 -198.5t-51.5 -208t-18.5 -194.5zM639 1407q2 45 12.5 89 t30.5 78t52 55.5t75 21.5q31 0 61.5 -14.5t71.5 -49.5q68 -55 94 -55q25 0 43.5 30.5t24.5 96.5l63 -12q-2 -49 -11 -92.5t-27.5 -77t-48 -53t-68.5 -19.5q-35 0 -67 17.5t-79 56.5q-27 23 -47 35t-41 12q-29 0 -48 -36t-25 -89z" />
<glyph unicode="&#xd6;" horiz-adv-x="1310" d="M143 416q0 104 26 215.5t73 218t115.5 199t152.5 153.5q80 59 173 91t204 32h2q213 0 324.5 -120t111.5 -337q0 -88 -18.5 -184t-52 -190.5t-82 -179.5t-109.5 -148q-104 -109 -222 -154t-251 -45q-98 0 -180 25.5t-141.5 81t-92.5 140.5t-33 202zM350 346 q0 -168 68.5 -241.5t171.5 -73.5q78 0 147.5 30.5t139.5 114.5q55 72 101 168t77.5 202.5t49 214t17.5 204.5q0 61 -12 116.5t-41 96.5t-74 65.5t-110 24.5h-2q-72 0 -143.5 -37t-137.5 -117q-57 -72 -103 -167t-79 -198.5t-51.5 -208t-18.5 -194.5zM618 1522q6 49 40 80.5 t79 31.5h2q47 0 69.5 -30.5t18.5 -73.5q-6 -53 -45 -84t-75 -31q-37 0 -66 25.5t-23 81.5zM997 1522q6 49 39 80.5t80 31.5h2q47 0 69.5 -30.5t18.5 -73.5q-6 -53 -45 -84t-76 -31t-65.5 25.5t-22.5 81.5z" />
<glyph unicode="&#xd7;" horiz-adv-x="1062" d="M109 129l340 344l-340 342l75 80l338 -346l336 350l76 -82l-340 -344l340 -344l-76 -82l-336 350l-338 -350z" />
<glyph unicode="&#xd8;" horiz-adv-x="1310" d="M119 -55l129 153q-47 49 -76 130t-29 186q0 106 26 220t73 219t114.5 196.5t151.5 152.5q82 59 177 91t206 32q172 0 274 -78l101 123l63 -43l-110 -129q104 -115 104 -319q0 -96 -18.5 -195.5t-52 -194t-82 -178.5t-109.5 -147q-117 -119 -234.5 -159t-240.5 -40 q-82 0 -158 21.5t-127 62.5l-117 -145zM356.5 461q-10.5 -123 10.5 -225q180 229 360 459.5t356 457.5q-25 53 -76 84t-120 31h-2q-76 0 -148.5 -36t-140.5 -116q-61 -76 -112.5 -184.5t-84 -228t-43 -242.5zM389 152q27 -57 77 -90t114 -33h4q74 0 148.5 29.5t146.5 115.5 q61 74 112 181.5t84 230.5t43 250t-10 237q-180 -225 -359.5 -456.5t-359.5 -464.5z" />
<glyph unicode="&#xd9;" horiz-adv-x="1277" d="M198.5 227q-10.5 78 18.5 191q18 72 51 185.5t67 230t61.5 214t35.5 136.5q10 43 -29 47l-110 12l20 55q61 0 126 -3t130 -3q72 0 128.5 3t109.5 3l-14 -55l-97 -12q-23 -4 -36 -13.5t-23 -31.5q-23 -59 -55.5 -162.5t-65.5 -220.5t-62.5 -230.5t-47.5 -193.5 q-23 -98 -8.5 -154.5t46.5 -95.5q29 -35 85.5 -56.5t119.5 -21.5q76 0 134.5 18.5t105.5 64.5t85 122t73 190q29 94 56 195.5t52 196t44.5 175.5t29.5 134q10 49 0 64.5t-51 19.5l-105 12l19 55q41 0 100 -3t106 -3q53 0 107.5 3t107.5 3l-14 -55q-49 -4 -78.5 -9t-47 -16.5 t-28 -32t-20.5 -52.5q-23 -66 -48.5 -156t-53 -188.5t-55 -194.5t-52.5 -176q-23 -74 -45 -133.5t-51 -105.5t-67 -84t-87 -68q-57 -35 -133 -48.5t-160 -13.5q-106 0 -195 35t-130 94q-39 55 -49.5 133zM643 1583q-8 35 9.5 57.5t45.5 30.5q25 8 55.5 1t55.5 -25 q12 -8 45 -37t71 -61.5t72.5 -64.5t51.5 -46l-29 -43q-47 14 -95 31.5t-90 32t-72 25.5t-42 15q-25 10 -49.5 33.5t-28.5 50.5z" />
<glyph unicode="&#xda;" horiz-adv-x="1277" d="M198.5 227q-10.5 78 18.5 191q18 72 51 185.5t67 230t61.5 214t35.5 136.5q10 43 -29 47l-110 12l20 55q61 0 126 -3t130 -3q72 0 128.5 3t109.5 3l-14 -55l-97 -12q-23 -4 -36 -13.5t-23 -31.5q-23 -59 -55.5 -162.5t-65.5 -220.5t-62.5 -230.5t-47.5 -193.5 q-23 -98 -8.5 -154.5t46.5 -95.5q29 -35 85.5 -56.5t119.5 -21.5q76 0 134.5 18.5t105.5 64.5t85 122t73 190q29 94 56 195.5t52 196t44.5 175.5t29.5 134q10 49 0 64.5t-51 19.5l-105 12l19 55q41 0 100 -3t106 -3q53 0 107.5 3t107.5 3l-14 -55q-49 -4 -78.5 -9t-47 -16.5 t-28 -32t-20.5 -52.5q-23 -66 -48.5 -156t-53 -188.5t-55 -194.5t-52.5 -176q-23 -74 -45 -133.5t-51 -105.5t-67 -84t-87 -68q-57 -35 -133 -48.5t-160 -13.5q-106 0 -195 35t-130 94q-39 55 -49.5 133zM809 1442q20 14 61 46t85 66.5t82 64.5t55 40q27 18 56.5 25.5 t55.5 -1.5q29 -6 42.5 -28.5t2.5 -57.5q-6 -29 -34.5 -52t-59.5 -38q-31 -12 -115 -40.5t-202 -69.5z" />
<glyph unicode="&#xdb;" horiz-adv-x="1277" d="M198.5 227q-10.5 78 18.5 191q18 72 51 185.5t67 230t61.5 214t35.5 136.5q10 43 -29 47l-110 12l20 55q61 0 126 -3t130 -3q72 0 128.5 3t109.5 3l-14 -55l-97 -12q-23 -4 -36 -13.5t-23 -31.5q-23 -59 -55.5 -162.5t-65.5 -220.5t-62.5 -230.5t-47.5 -193.5 q-23 -98 -8.5 -154.5t46.5 -95.5q29 -35 85.5 -56.5t119.5 -21.5q76 0 134.5 18.5t105.5 64.5t85 122t73 190q29 94 56 195.5t52 196t44.5 175.5t29.5 134q10 49 0 64.5t-51 19.5l-105 12l19 55q41 0 100 -3t106 -3q53 0 107.5 3t107.5 3l-14 -55q-49 -4 -78.5 -9t-47 -16.5 t-28 -32t-20.5 -52.5q-23 -66 -48.5 -156t-53 -188.5t-55 -194.5t-52.5 -176q-23 -74 -45 -133.5t-51 -105.5t-67 -84t-87 -68q-57 -35 -133 -48.5t-160 -13.5q-106 0 -195 35t-130 94q-39 55 -49.5 133zM664 1440q123 70 196.5 133t108.5 104l49 6q14 -39 64.5 -110.5 t136.5 -132.5l-39 -49q-49 18 -112.5 53t-106.5 63q-29 -14 -64 -30.5t-73 -31.5t-74.5 -29.5t-67.5 -24.5z" />
<glyph unicode="&#xdc;" horiz-adv-x="1277" d="M198.5 227q-10.5 78 18.5 191q18 72 51 185.5t67 230t61.5 214t35.5 136.5q10 43 -29 47l-110 12l20 55q61 0 126 -3t130 -3q72 0 128.5 3t109.5 3l-14 -55l-97 -12q-23 -4 -36 -13.5t-23 -31.5q-23 -59 -55.5 -162.5t-65.5 -220.5t-62.5 -230.5t-47.5 -193.5 q-23 -98 -8.5 -154.5t46.5 -95.5q29 -35 85.5 -56.5t119.5 -21.5q76 0 134.5 18.5t105.5 64.5t85 122t73 190q29 94 56 195.5t52 196t44.5 175.5t29.5 134q10 49 0 64.5t-51 19.5l-105 12l19 55q41 0 100 -3t106 -3q53 0 107.5 3t107.5 3l-14 -55q-49 -4 -78.5 -9t-47 -16.5 t-28 -32t-20.5 -52.5q-23 -66 -48.5 -156t-53 -188.5t-55 -194.5t-52.5 -176q-23 -74 -45 -133.5t-51 -105.5t-67 -84t-87 -68q-57 -35 -133 -48.5t-160 -13.5q-106 0 -195 35t-130 94q-39 55 -49.5 133zM657 1522q6 49 40 80.5t79 31.5h2q47 0 69.5 -30.5t18.5 -73.5 q-6 -53 -45 -84t-76 -31t-65.5 25.5t-22.5 81.5zM1036 1522q6 49 39 80.5t80 31.5h2q47 0 69.5 -30.5t18.5 -73.5q-6 -53 -45 -84t-76 -31t-65.5 25.5t-22.5 81.5z" />
<glyph unicode="&#xdd;" horiz-adv-x="1050" d="M115 -6l18 57q39 4 68.5 7t58.5 8q39 4 56.5 19t33.5 58q8 25 23.5 72t33 104.5t35 118t31.5 113.5q6 23 6 42t-4 48q-4 27 -18.5 92.5t-34 143t-40 153.5t-36.5 121q-10 29 -20.5 45t-28.5 25.5t-49 13.5t-82 8l16 55q41 -2 106.5 -4t137.5 -2q135 0 252 6l-16 -57 q-43 -4 -68 -8t-37 -10t-14 -15.5t0 -21.5q6 -39 20.5 -99.5t30.5 -130t33.5 -141.5t31.5 -133q129 172 223.5 292t145.5 200q29 49 -14 55q-29 4 -57.5 7t-51.5 5l19 57q45 0 94 -3t108 -3q45 0 100.5 3t121.5 3l-19 -57q-41 -4 -68.5 -8t-51 -14.5t-45 -27.5t-50.5 -46 q-43 -45 -97 -109.5t-109.5 -134.5t-106.5 -137.5t-88 -116.5q-23 -29 -35 -54.5t-23 -64.5q-12 -39 -26.5 -96t-29.5 -115.5t-26.5 -111.5t-17.5 -84q-8 -47 37 -53q23 -4 58.5 -8.5t90.5 -8.5l-18 -57q-86 4 -167 5t-148 1q-78 0 -143.5 -2t-149.5 -4zM705 1442 q20 14 61 46t85 66.5t82 64.5t54 40q27 18 56.5 25.5t56.5 -1.5q29 -6 42 -28.5t3 -57.5q-6 -29 -35 -52t-59 -38q-31 -12 -115 -40.5t-203 -69.5z" />
<glyph unicode="&#xde;" horiz-adv-x="1107" d="M-35 -6l17 57q49 4 79.5 8t48 12.5t26.5 21.5t18 36q12 33 25.5 76t31.5 105.5t43 146.5t57 196q43 154 79 281t63 240q6 20 3 33.5t-18.5 19.5t-48.5 9t-86 7l23 55q33 -2 97 -4t142 -2q76 0 141.5 3t120.5 3l-14 -55q-49 -2 -78.5 -5t-46 -10t-24 -18.5t-13.5 -27.5 q-10 -27 -20 -61l-25 -85q41 4 80 7.5t98 3.5q121 0 186.5 -32t100.5 -75q27 -35 42 -83t15 -114q0 -121 -49 -225t-145 -174q-72 -51 -155 -70.5t-169 -19.5q-66 0 -124 11t-89 28q-10 -41 -21 -84t-22 -84q-4 -23 -2 -35t18.5 -19.5t51.5 -11.5t98 -8l-16 -57 q-57 2 -131 4t-158 2q-72 0 -137.5 -2t-112.5 -4zM420 367q18 -16 65 -32t107 -16q53 0 102 15.5t90 50.5q37 33 63.5 79t45 96t28 104.5t9.5 105.5v2q0 39 -9.5 75t-25.5 58q-27 39 -73 58.5t-124 19.5q-70 0 -91 -10t-25 -27q-14 -47 -35 -115.5t-42.5 -147.5t-44 -161 t-40.5 -155z" />
<glyph unicode="&#xdf;" horiz-adv-x="1124" d="M-397 -371q0 33 21.5 59.5t49.5 37.5q39 16 68 -25q29 -49 57.5 -72.5t67.5 -23.5q57 0 92 49t70 160q20 68 51 176t64.5 240t69.5 277.5t69 287.5l-152 14l23 59h149q41 139 95.5 233.5t138.5 168.5q61 55 140 89t181 34q82 0 139.5 -20.5t93 -55.5t52 -82t16.5 -98 q0 -35 -7 -68t-22 -55q-154 -41 -229.5 -112t-75.5 -152q0 -59 39 -115q33 -53 84 -121q41 -53 63.5 -103.5t22.5 -111.5q0 -74 -29.5 -134.5t-80 -103.5t-118 -66.5t-142.5 -23.5q-70 0 -133.5 18.5t-104.5 43.5q8 25 16.5 56.5t14.5 65t12 66.5t10 58l51 6 q-6 -129 35 -190.5t133 -61.5q74 0 122 51t48 129q0 41 -12 76t-35 69q-23 33 -41 59.5t-41 55.5q-31 41 -51 87t-20 99q0 117 88 208t231 145q12 23 20.5 56.5t8.5 76.5q0 37 -9.5 69.5t-31 59t-54 42t-79.5 15.5q-72 0 -128.5 -35.5t-100.5 -105.5t-80.5 -169t-69.5 -228 q-29 -109 -59.5 -232t-62.5 -240.5t-62.5 -222t-57.5 -176.5q-49 -129 -112.5 -215t-167.5 -147q-47 -29 -92.5 -40.5t-92.5 -11.5q-29 0 -56.5 10.5t-49 27t-34.5 38t-13 45.5z" />
<glyph unicode="&#xe0;" horiz-adv-x="1050" d="M74 182q0 84 25.5 177.5t70.5 181.5t107.5 163.5t138.5 124.5q59 41 115.5 57.5t113.5 16.5q68 0 114 -24.5t62 -69.5l21 70h168q-29 -78 -60.5 -178.5t-61.5 -203t-55.5 -195.5t-37.5 -157q-6 -29 -4 -51t24 -22q20 0 46 15t50.5 42t49 62.5t43.5 74.5l38 -41 q-18 -41 -47.5 -86t-69.5 -82t-90.5 -61.5t-107.5 -24.5q-43 0 -65.5 18.5t-30.5 47.5t-4 66.5t14 74.5q4 14 9 32.5t9 35.5h-4q-31 -47 -74.5 -96.5t-96 -89.5t-114 -64.5t-128.5 -24.5q-88 0 -128 59.5t-40 151.5zM258 188q0 -43 17.5 -79.5t60.5 -36.5q70 0 146.5 63.5 t154.5 192.5q18 33 43 85t46.5 107t36.5 105.5t15 81.5q0 70 -33.5 99.5t-80.5 29.5q-51 0 -99.5 -25t-101.5 -84q-45 -53 -82 -119.5t-64.5 -138.5t-43 -143.5t-15.5 -135.5v-2zM504 1350q4 37 25.5 54t43.5 17q31 -2 54.5 -22.5t38.5 -55.5q8 -20 23.5 -62t32.5 -91 t32.5 -94t25.5 -72l-43 -29q-31 39 -62.5 79t-59 74t-47 59.5t-27.5 35.5q-16 23 -28.5 52.5t-8.5 54.5z" />
<glyph unicode="&#xe1;" horiz-adv-x="1050" d="M74 182q0 84 25.5 177.5t70.5 181.5t107.5 163.5t138.5 124.5q59 41 115.5 57.5t113.5 16.5q68 0 114 -24.5t62 -69.5l21 70h168q-29 -78 -60.5 -178.5t-61.5 -203t-55.5 -195.5t-37.5 -157q-6 -29 -4 -51t24 -22q20 0 46 15t50.5 42t49 62.5t43.5 74.5l38 -41 q-18 -41 -47.5 -86t-69.5 -82t-90.5 -61.5t-107.5 -24.5q-43 0 -65.5 18.5t-30.5 47.5t-4 66.5t14 74.5q4 14 9 32.5t9 35.5h-4q-31 -47 -74.5 -96.5t-96 -89.5t-114 -64.5t-128.5 -24.5q-88 0 -128 59.5t-40 151.5zM258 188q0 -43 17.5 -79.5t60.5 -36.5q70 0 146.5 63.5 t154.5 192.5q18 33 43 85t46.5 107t36.5 105.5t15 81.5q0 70 -33.5 99.5t-80.5 29.5q-51 0 -99.5 -25t-101.5 -84q-45 -53 -82 -119.5t-64.5 -138.5t-43 -143.5t-15.5 -135.5v-2zM614 1030q16 23 45 68t61 92t59.5 90t41.5 61q25 35 53.5 52.5t55.5 17.5q29 0 44 -19.5 t13 -48.5q0 -31 -21.5 -62.5t-45.5 -53.5q-29 -27 -97.5 -85.5t-167.5 -144.5z" />
<glyph unicode="&#xe2;" horiz-adv-x="1050" d="M74 182q0 84 25.5 177.5t70.5 181.5t107.5 163.5t138.5 124.5q59 41 115.5 57.5t113.5 16.5q68 0 114 -24.5t62 -69.5l21 70h168q-29 -78 -60.5 -178.5t-61.5 -203t-55.5 -195.5t-37.5 -157q-6 -29 -4 -51t24 -22q20 0 46 15t50.5 42t49 62.5t43.5 74.5l38 -41 q-18 -41 -47.5 -86t-69.5 -82t-90.5 -61.5t-107.5 -24.5q-43 0 -65.5 18.5t-30.5 47.5t-4 66.5t14 74.5q4 14 9 32.5t9 35.5h-4q-31 -47 -74.5 -96.5t-96 -89.5t-114 -64.5t-128.5 -24.5q-88 0 -128 59.5t-40 151.5zM258 188q0 -43 17.5 -79.5t60.5 -36.5q70 0 146.5 63.5 t154.5 192.5q18 33 43 85t46.5 107t36.5 105.5t15 81.5q0 70 -33.5 99.5t-80.5 29.5q-51 0 -99.5 -25t-101.5 -84q-45 -53 -82 -119.5t-64.5 -138.5t-43 -143.5t-15.5 -135.5v-2zM469 1038q117 123 190.5 222.5t102.5 142.5l51 12q8 -51 38 -157.5t87 -225.5l-47 -35 q-16 18 -34.5 43t-38 54.5t-37 59.5t-31.5 58q-25 -27 -58 -56.5t-66.5 -58t-65.5 -55t-56 -45.5z" />
<glyph unicode="&#xe3;" horiz-adv-x="1050" d="M74 182q0 84 25.5 177.5t70.5 181.5t107.5 163.5t138.5 124.5q59 41 115.5 57.5t113.5 16.5q68 0 114 -24.5t62 -69.5l21 70h168q-29 -78 -60.5 -178.5t-61.5 -203t-55.5 -195.5t-37.5 -157q-6 -29 -4 -51t24 -22q20 0 46 15t50.5 42t49 62.5t43.5 74.5l38 -41 q-18 -41 -47.5 -86t-69.5 -82t-90.5 -61.5t-107.5 -24.5q-43 0 -65.5 18.5t-30.5 47.5t-4 66.5t14 74.5q4 14 9 32.5t9 35.5h-4q-31 -47 -74.5 -96.5t-96 -89.5t-114 -64.5t-128.5 -24.5q-88 0 -128 59.5t-40 151.5zM258 188q0 -43 17.5 -79.5t60.5 -36.5q70 0 146.5 63.5 t154.5 192.5q18 33 43 85t46.5 107t36.5 105.5t15 81.5q0 70 -33.5 99.5t-80.5 29.5q-51 0 -99.5 -25t-101.5 -84q-45 -53 -82 -119.5t-64.5 -138.5t-43 -143.5t-15.5 -135.5v-2zM485 1051q0 43 9.5 87t29 77.5t49 55t72.5 21.5q29 0 59.5 -15t67.5 -52q66 -57 90 -58 q25 0 43.5 28t22.5 99l59 -10q-2 -102 -34.5 -172t-112.5 -70q-35 0 -65 17.5t-73 58.5q-27 23 -43 36t-41 13q-29 0 -48 -32.5t-23 -92.5z" />
<glyph unicode="&#xe4;" horiz-adv-x="1050" d="M74 182q0 84 25.5 177.5t70.5 181.5t107.5 163.5t138.5 124.5q59 41 115.5 57.5t113.5 16.5q68 0 114 -24.5t62 -69.5l21 70h168q-29 -78 -60.5 -178.5t-61.5 -203t-55.5 -195.5t-37.5 -157q-6 -29 -4 -51t24 -22q20 0 46 15t50.5 42t49 62.5t43.5 74.5l38 -41 q-18 -41 -47.5 -86t-69.5 -82t-90.5 -61.5t-107.5 -24.5q-43 0 -65.5 18.5t-30.5 47.5t-4 66.5t14 74.5q4 14 9 32.5t9 35.5h-4q-31 -47 -74.5 -96.5t-96 -89.5t-114 -64.5t-128.5 -24.5q-88 0 -128 59.5t-40 151.5zM258 188q0 -43 17.5 -79.5t60.5 -36.5q70 0 146.5 63.5 t154.5 192.5q18 33 43 85t46.5 107t36.5 105.5t15 81.5q0 70 -33.5 99.5t-80.5 29.5q-51 0 -99.5 -25t-101.5 -84q-45 -53 -82 -119.5t-64.5 -138.5t-43 -143.5t-15.5 -135.5v-2zM455 1184q4 53 38.5 83.5t75.5 30.5h2q43 0 65.5 -27.5t18.5 -74.5q-4 -53 -38.5 -82 t-75.5 -29q-37 0 -63.5 25t-22.5 74zM797 1184q4 53 38.5 83.5t75.5 30.5h2q43 0 65.5 -27.5t18.5 -74.5q-4 -53 -38.5 -82t-75.5 -29q-37 0 -63.5 25t-22.5 74z" />
<glyph unicode="&#xe5;" horiz-adv-x="1050" d="M74 182q0 84 25.5 177.5t70.5 181.5t107.5 163.5t138.5 124.5q59 41 115.5 57.5t113.5 16.5q68 0 114 -24.5t62 -69.5l21 70h168q-29 -78 -60.5 -178.5t-61.5 -203t-55.5 -195.5t-37.5 -157q-6 -29 -4 -51t24 -22q20 0 46 15t50.5 42t49 62.5t43.5 74.5l38 -41 q-18 -41 -47.5 -86t-69.5 -82t-90.5 -61.5t-107.5 -24.5q-43 0 -65.5 18.5t-30.5 47.5t-4 66.5t14 74.5q4 14 9 32.5t9 35.5h-4q-31 -47 -74.5 -96.5t-96 -89.5t-114 -64.5t-128.5 -24.5q-88 0 -128 59.5t-40 151.5zM258 188q0 -43 17.5 -79.5t60.5 -36.5q70 0 146.5 63.5 t154.5 192.5q18 33 43 85t46.5 107t36.5 105.5t15 81.5q0 70 -33.5 99.5t-80.5 29.5q-51 0 -99.5 -25t-101.5 -84q-45 -53 -82 -119.5t-64.5 -138.5t-43 -143.5t-15.5 -135.5v-2zM545 1182q10 94 73.5 143t149.5 49h2q78 0 122 -46t34 -132q-10 -92 -74 -139t-145 -47 q-78 0 -125 45t-37 127zM655 1182q-8 -59 10.5 -89t53.5 -30q27 0 45 15.5t29.5 38t17.5 48t8 43.5q2 20 2 41t-7 37.5t-21.5 26.5t-36.5 10h-2q-25 0 -42.5 -14.5t-28.5 -36t-18.5 -46t-9.5 -44.5z" />
<glyph unicode="&#xe6;" horiz-adv-x="1402" d="M66 160q0 82 25.5 169t69.5 168t105.5 151.5t134.5 121.5q76 59 161 90t177 31q66 0 119 -14.5t82 -36.5q47 29 106.5 46t120.5 17q66 0 109 -18.5t68.5 -49t36 -68.5t10.5 -75q0 -41 -18.5 -76.5t-41.5 -54.5q-20 -16 -43.5 -29.5t-54.5 -27.5q-39 -16 -92.5 -32.5 t-109.5 -29t-110.5 -22.5t-93.5 -14q-8 -27 -13 -68t-5 -80q0 -92 42 -146.5t116 -54.5q113 0 191.5 66.5t137.5 191.5h31l4 -106q-178 -238 -450 -238q-66 0 -113 21.5t-76.5 57.5t-44 84t-14.5 102h-8q-33 -43 -77 -90.5t-96.5 -86.5t-111.5 -63.5t-121 -24.5 q-84 0 -118.5 52.5t-34.5 136.5zM250 162q0 -37 15.5 -64.5t45.5 -27.5q72 0 159 81.5t159 221.5q16 31 30.5 70.5t32.5 80.5q59 162 182 269q-23 18 -56.5 26t-69.5 8q-68 0 -152 -43t-156 -141q-80 -104 -135 -231t-55 -248v-2zM840 471q80 10 155.5 30.5t124.5 43.5 q115 51 115 180q0 45 -21.5 81t-80.5 36h-3q-29 0 -64.5 -16.5t-75.5 -57.5t-79 -112.5t-71 -184.5z" />
<glyph unicode="&#xe7;" horiz-adv-x="860" d="M88 262q0 76 18.5 154t54.5 149.5t86 134t115 109.5q59 41 124 67.5t147 26.5q119 0 174 -53t55 -131q0 -63 -33.5 -94t-72.5 -31q-41 0 -56 24q-10 10 -11 25.5t3 30.5q8 20 15.5 40.5t7.5 39.5q0 41 -21.5 65.5t-77.5 24.5q-66 0 -129 -48t-120 -159 q-43 -80 -69 -179.5t-26 -195.5q0 -100 43 -154.5t121 -54.5q106 0 186 67.5t134 188.5h24l6 -98q-23 -39 -55.5 -77t-76.5 -70.5t-97.5 -56.5t-114.5 -32q-14 -16 -29.5 -36.5t-31.5 -38.5q18 -4 39.5 -14.5t40 -28t31 -42t12.5 -57.5q0 -49 -17.5 -83.5t-47 -56t-66.5 -32 t-76 -10.5q-47 0 -83 15.5t-48 25.5l24 57q16 -10 45 -18t52 -8q33 0 60.5 16.5t27.5 56.5q0 39 -35 58.5t-88 21.5l-6 23q25 29 59.5 68.5t67.5 78.5h-19q-266 10 -266 291z" />
<glyph unicode="&#xe8;" horiz-adv-x="858" d="M84 256q0 74 17.5 151.5t51 150.5t83 137.5t114.5 113.5q61 47 129 70.5t139 23.5q63 0 107.5 -18.5t72 -47t39 -66.5t11.5 -77q0 -72 -46 -114.5t-100 -67.5q-41 -18 -94 -35.5t-110.5 -31t-113.5 -23.5t-99 -16q-6 -29 -11.5 -68t-5.5 -74q0 -90 36 -148.5t122 -58.5 q106 0 188 66.5t136 191.5h30l8 -102q-76 -115 -193.5 -178.5t-246.5 -63.5t-196.5 75t-67.5 210zM297 471q33 4 73 11t78.5 17.5t72.5 20.5t57 21q115 59 114 182q0 55 -24.5 87t-71.5 32h-2q-31 0 -70 -17.5t-78.5 -59.5t-78.5 -113.5t-70 -180.5zM414 1350q4 37 25.5 54 t43.5 17q31 -2 54.5 -22.5t37.5 -55.5q8 -20 23.5 -62t33 -91t33 -94t25.5 -72l-43 -29q-31 39 -62.5 79t-59 74t-47 59.5t-27.5 35.5q-16 23 -28.5 52.5t-8.5 54.5z" />
<glyph unicode="&#xe9;" horiz-adv-x="858" d="M84 256q0 74 17.5 151.5t51 150.5t83 137.5t114.5 113.5q61 47 129 70.5t139 23.5q63 0 107.5 -18.5t72 -47t39 -66.5t11.5 -77q0 -72 -46 -114.5t-100 -67.5q-41 -18 -94 -35.5t-110.5 -31t-113.5 -23.5t-99 -16q-6 -29 -11.5 -68t-5.5 -74q0 -90 36 -148.5t122 -58.5 q106 0 188 66.5t136 191.5h30l8 -102q-76 -115 -193.5 -178.5t-246.5 -63.5t-196.5 75t-67.5 210zM297 471q33 4 73 11t78.5 17.5t72.5 20.5t57 21q115 59 114 182q0 55 -24.5 87t-71.5 32h-2q-31 0 -70 -17.5t-78.5 -59.5t-78.5 -113.5t-70 -180.5zM537 1028q16 23 44.5 68 t60.5 92t59.5 90t41.5 61q25 35 53.5 52.5t55.5 17.5q29 0 44 -19.5t13 -48.5q0 -31 -21.5 -62.5t-45.5 -53.5q-29 -27 -97.5 -85.5t-166.5 -144.5z" />
<glyph unicode="&#xea;" horiz-adv-x="858" d="M84 256q0 74 17.5 151.5t51 150.5t83 137.5t114.5 113.5q61 47 129 70.5t139 23.5q63 0 107.5 -18.5t72 -47t39 -66.5t11.5 -77q0 -72 -46 -114.5t-100 -67.5q-41 -18 -94 -35.5t-110.5 -31t-113.5 -23.5t-99 -16q-6 -29 -11.5 -68t-5.5 -74q0 -90 36 -148.5t122 -58.5 q106 0 188 66.5t136 191.5h30l8 -102q-76 -115 -193.5 -178.5t-246.5 -63.5t-196.5 75t-67.5 210zM297 471q33 4 73 11t78.5 17.5t72.5 20.5t57 21q115 59 114 182q0 55 -24.5 87t-71.5 32h-2q-31 0 -70 -17.5t-78.5 -59.5t-78.5 -113.5t-70 -180.5zM389 1038 q117 123 190.5 222.5t102.5 142.5l51 12q8 -51 38 -157.5t87 -225.5l-47 -35q-16 18 -34.5 43t-38 54.5t-37 59.5t-31.5 58q-25 -27 -57.5 -56.5t-66.5 -58t-65.5 -55t-56.5 -45.5z" />
<glyph unicode="&#xeb;" horiz-adv-x="858" d="M84 256q0 74 17.5 151.5t51 150.5t83 137.5t114.5 113.5q61 47 129 70.5t139 23.5q63 0 107.5 -18.5t72 -47t39 -66.5t11.5 -77q0 -72 -46 -114.5t-100 -67.5q-41 -18 -94 -35.5t-110.5 -31t-113.5 -23.5t-99 -16q-6 -29 -11.5 -68t-5.5 -74q0 -90 36 -148.5t122 -58.5 q106 0 188 66.5t136 191.5h30l8 -102q-76 -115 -193.5 -178.5t-246.5 -63.5t-196.5 75t-67.5 210zM297 471q33 4 73 11t78.5 17.5t72.5 20.5t57 21q115 59 114 182q0 55 -24.5 87t-71.5 32h-2q-31 0 -70 -17.5t-78.5 -59.5t-78.5 -113.5t-70 -180.5zM385 1182q4 53 39 83.5 t76 30.5h2q43 0 65.5 -27.5t18.5 -74.5q-4 -53 -39 -82t-76 -29q-37 0 -63.5 25t-22.5 74zM727 1182q4 53 39 83.5t76 30.5h2q43 0 65.5 -27.5t18.5 -74.5q-4 -53 -39 -82t-76 -29q-37 0 -63.5 25t-22.5 74z" />
<glyph unicode="&#xec;" horiz-adv-x="546" d="M100 37q-6 31 0 73t23 91q18 59 42.5 133t49.5 149.5t47.5 148.5t38.5 132q6 20 2 27.5t-22 7.5h-55.5t-71.5 -2l20 57q39 2 84 7t91 11.5t89 13.5t78 17l6 -8q-23 -53 -58.5 -154.5t-72.5 -215t-68.5 -222t-48.5 -172.5q-6 -27 -5 -44t20 -17q23 0 51.5 17t56 45 t53 63.5t42.5 70.5l40 -43q-66 -123 -153.5 -187.5t-181.5 -64.5q-43 0 -67 17.5t-30 48.5zM223 1350q4 37 25.5 54t44.5 17q31 -2 54.5 -22.5t37.5 -55.5q8 -20 23.5 -62t33 -91t32.5 -94t26 -72l-43 -29q-31 39 -63 79t-59.5 74t-47 59.5t-27.5 35.5q-16 23 -28.5 52.5 t-8.5 54.5z" />
<glyph unicode="&#xed;" horiz-adv-x="546" d="M100 37q-6 31 0 73t23 91q18 59 42.5 133t49.5 149.5t47.5 148.5t38.5 132q6 20 2 27.5t-22 7.5h-55.5t-71.5 -2l20 57q39 2 84 7t91 11.5t89 13.5t78 17l6 -8q-23 -53 -58.5 -154.5t-72.5 -215t-68.5 -222t-48.5 -172.5q-6 -27 -5 -44t20 -17q23 0 51.5 17t56 45 t53 63.5t42.5 70.5l40 -43q-66 -123 -153.5 -187.5t-181.5 -64.5q-43 0 -67 17.5t-30 48.5zM350 1028q16 23 45 68t60.5 92t59.5 90t42 61q25 35 53.5 52.5t55.5 17.5q29 0 44 -19.5t13 -48.5q0 -31 -21.5 -62.5t-46.5 -53.5q-29 -27 -97.5 -85.5t-166.5 -144.5z" />
<glyph unicode="&#xee;" horiz-adv-x="546" d="M100 37q-6 31 0 73t23 91q18 59 42.5 133t49.5 149.5t47.5 148.5t38.5 132q6 20 2 27.5t-22 7.5h-55.5t-71.5 -2l20 57q39 2 84 7t91 11.5t89 13.5t78 17l6 -8q-23 -53 -58.5 -154.5t-72.5 -215t-68.5 -222t-48.5 -172.5q-6 -27 -5 -44t20 -17q23 0 51.5 17t56 45 t53 63.5t42.5 70.5l40 -43q-66 -123 -153.5 -187.5t-181.5 -64.5q-43 0 -67 17.5t-30 48.5zM197 1038q117 123 190.5 222.5t101.5 142.5l52 12q8 -51 37.5 -157.5t87.5 -225.5l-48 -35q-16 18 -34.5 43t-38 54.5t-36.5 59.5t-32 58q-25 -27 -57.5 -56.5t-66.5 -58t-65.5 -55 t-56.5 -45.5z" />
<glyph unicode="&#xef;" horiz-adv-x="546" d="M100 37q-6 31 0 73t23 91q18 59 42.5 133t49.5 149.5t47.5 148.5t38.5 132q6 20 2 27.5t-22 7.5h-55.5t-71.5 -2l20 57q39 2 84 7t91 11.5t89 13.5t78 17l6 -8q-23 -53 -58.5 -154.5t-72.5 -215t-68.5 -222t-48.5 -172.5q-6 -27 -5 -44t20 -17q23 0 51.5 17t56 45 t53 63.5t42.5 70.5l40 -43q-66 -123 -153.5 -187.5t-181.5 -64.5q-43 0 -67 17.5t-30 48.5zM190 1182q4 53 39 83.5t76 30.5h2q43 0 65.5 -27.5t18.5 -74.5q-4 -53 -39 -82t-76 -29q-37 0 -63.5 25t-22.5 74zM532 1182q4 53 39 83.5t76 30.5h2q43 0 65.5 -27.5t18.5 -74.5 q-4 -53 -39 -82t-76 -29q-37 0 -63.5 25t-22.5 74z" />
<glyph unicode="&#xf0;" d="M84 266q0 76 19.5 156t56.5 154.5t87 139t111 107.5q119 80 258 80q51 0 93.5 -13t66.5 -38q2 78 -16.5 151.5t-46.5 122.5q-78 -39 -138.5 -67.5t-132.5 -63.5l-10 72q82 39 136.5 61.5t113.5 51.5q-41 61 -115.5 102t-152.5 49l35 51q86 -4 177 -43t162 -110 q72 35 124.5 61.5t99.5 50.5l8 -71q-35 -16 -81 -38t-108 -52q49 -70 81 -177.5t30 -234.5q-2 -106 -23.5 -214t-60.5 -203t-94 -174t-125 -128q-59 -39 -121.5 -58.5t-140.5 -19.5q-47 0 -98.5 12.5t-94.5 45t-71.5 90t-28.5 147.5zM258 219q0 -109 42 -148.5t93 -39.5 q47 0 90 21.5t88 74.5q35 43 69 112.5t61.5 147.5t45 160t19.5 149q4 61 -33 105.5t-112 44.5h-3q-59 0 -105 -32t-87 -85q-35 -45 -65.5 -107.5t-54 -131t-36 -139t-12.5 -132.5z" />
<glyph unicode="&#xf1;" horiz-adv-x="1077" d="M47 -20q37 94 74 208.5t69.5 224t58 203t36.5 148.5q8 37 -19 37l-125 -2l19 55q80 6 165 17.5t162 31.5q-23 -84 -49 -177t-51 -175q43 63 94 126.5t110.5 114t127 81t143.5 30.5q35 0 60.5 -9t42.5 -24q20 -18 28 -47.5t7 -63.5t-9 -68t-18 -62q-20 -55 -44 -119 t-47.5 -128.5t-45 -128t-39.5 -120.5q-10 -29 -5 -45t21 -16q20 0 47 15t54.5 42t53 61.5t46.5 73.5l39 -41q-63 -125 -153.5 -189.5t-178.5 -64.5q-47 0 -70.5 19.5t-30 53.5t3 80t27.5 97q41 113 88 240t82 227q16 47 8 83t-57 36q-68 0 -135.5 -52.5t-126.5 -131 t-107.5 -171t-78.5 -171.5q-23 -57 -45.5 -121t-51.5 -162q-49 -2 -95 -7t-85 -9zM494 1051q0 43 9 87t28.5 77.5t49 55t72.5 21.5q29 0 59.5 -15t67.5 -52q66 -57 90 -58q25 0 43.5 28t22.5 99l59 -10q-2 -102 -34.5 -172t-112.5 -70q-35 0 -64.5 17.5t-72.5 58.5 q-27 23 -43.5 36t-40.5 13q-29 0 -48.5 -32.5t-23.5 -92.5z" />
<glyph unicode="&#xf2;" d="M86 268q0 76 19.5 155t55.5 152.5t86 138t113 107.5q57 39 125 60.5t140 21.5h2q143 0 219 -79t76 -226q0 -74 -18.5 -152.5t-52.5 -152.5t-82 -136.5t-110 -103.5q-66 -43 -132 -62.5t-144 -19.5q-51 0 -103.5 12.5t-95.5 45t-70.5 90t-27.5 149.5zM258 217 q0 -104 43 -145t96 -41q47 0 89 21.5t83 68.5q39 47 72 115.5t57.5 144.5t39 151.5t14.5 137.5q0 78 -30 127t-101 49h-3q-109 0 -198 -125q-33 -47 -62.5 -109.5t-51 -132t-35 -138.5t-13.5 -124zM463 1350q4 37 25.5 54t43.5 17q31 -2 54.5 -22.5t38.5 -55.5 q8 -20 23.5 -62t32.5 -91t32.5 -94t25.5 -72l-43 -29q-31 39 -62.5 79t-59 74t-47 59.5t-27.5 35.5q-16 23 -28.5 52.5t-8.5 54.5z" />
<glyph unicode="&#xf3;" d="M86 268q0 76 19.5 155t55.5 152.5t86 138t113 107.5q57 39 125 60.5t140 21.5h2q143 0 219 -79t76 -226q0 -74 -18.5 -152.5t-52.5 -152.5t-82 -136.5t-110 -103.5q-66 -43 -132 -62.5t-144 -19.5q-51 0 -103.5 12.5t-95.5 45t-70.5 90t-27.5 149.5zM258 217 q0 -104 43 -145t96 -41q47 0 89 21.5t83 68.5q39 47 72 115.5t57.5 144.5t39 151.5t14.5 137.5q0 78 -30 127t-101 49h-3q-109 0 -198 -125q-33 -47 -62.5 -109.5t-51 -132t-35 -138.5t-13.5 -124zM573 1028q16 23 45 68t61 92t59.5 90t41.5 61q25 35 53.5 52.5t55.5 17.5 q29 0 44 -19.5t13 -48.5q0 -31 -21.5 -62.5t-45.5 -53.5q-29 -27 -97.5 -85.5t-167.5 -144.5z" />
<glyph unicode="&#xf4;" d="M86 268q0 76 19.5 155t55.5 152.5t86 138t113 107.5q57 39 125 60.5t140 21.5h2q143 0 219 -79t76 -226q0 -74 -18.5 -152.5t-52.5 -152.5t-82 -136.5t-110 -103.5q-66 -43 -132 -62.5t-144 -19.5q-51 0 -103.5 12.5t-95.5 45t-70.5 90t-27.5 149.5zM258 217 q0 -104 43 -145t96 -41q47 0 89 21.5t83 68.5q39 47 72 115.5t57.5 144.5t39 151.5t14.5 137.5q0 78 -30 127t-101 49h-3q-109 0 -198 -125q-33 -47 -62.5 -109.5t-51 -132t-35 -138.5t-13.5 -124zM426 1038q117 123 190.5 222.5t102.5 142.5l51 12q8 -51 38 -157.5 t87 -225.5l-47 -35q-16 18 -34.5 43t-38 54.5t-37 59.5t-31.5 58q-25 -27 -58 -56.5t-66.5 -58t-65.5 -55t-56 -45.5z" />
<glyph unicode="&#xf5;" d="M86 268q0 76 19.5 155t55.5 152.5t86 138t113 107.5q57 39 125 60.5t140 21.5h2q143 0 219 -79t76 -226q0 -74 -18.5 -152.5t-52.5 -152.5t-82 -136.5t-110 -103.5q-66 -43 -132 -62.5t-144 -19.5q-51 0 -103.5 12.5t-95.5 45t-70.5 90t-27.5 149.5zM258 217 q0 -104 43 -145t96 -41q47 0 89 21.5t83 68.5q39 47 72 115.5t57.5 144.5t39 151.5t14.5 137.5q0 78 -30 127t-101 49h-3q-109 0 -198 -125q-33 -47 -62.5 -109.5t-51 -132t-35 -138.5t-13.5 -124zM434 1051q0 43 9.5 87t29 77.5t49 55t72.5 21.5q29 0 59.5 -15t67.5 -52 q66 -57 90 -58q25 0 43 28t23 99l59 -10q-2 -102 -35 -172t-113 -70q-35 0 -64.5 17.5t-72.5 58.5q-27 23 -43 36t-41 13q-29 0 -48 -32.5t-23 -92.5z" />
<glyph unicode="&#xf6;" d="M86 268q0 76 19.5 155t55.5 152.5t86 138t113 107.5q57 39 125 60.5t140 21.5h2q143 0 219 -79t76 -226q0 -74 -18.5 -152.5t-52.5 -152.5t-82 -136.5t-110 -103.5q-66 -43 -132 -62.5t-144 -19.5q-51 0 -103.5 12.5t-95.5 45t-70.5 90t-27.5 149.5zM258 217 q0 -104 43 -145t96 -41q47 0 89 21.5t83 68.5q39 47 72 115.5t57.5 144.5t39 151.5t14.5 137.5q0 78 -30 127t-101 49h-3q-109 0 -198 -125q-33 -47 -62.5 -109.5t-51 -132t-35 -138.5t-13.5 -124zM414 1182q4 53 38.5 83.5t75.5 30.5h2q43 0 65.5 -27.5t18.5 -74.5 q-4 -53 -38.5 -82t-75.5 -29q-37 0 -63.5 25t-22.5 74zM756 1182q4 53 38.5 83.5t75.5 30.5h2q43 0 66 -27.5t18 -74.5q-4 -53 -38.5 -82t-75.5 -29q-37 0 -63.5 25t-22.5 74z" />
<glyph unicode="&#xf7;" horiz-adv-x="1062" d="M98 434v107h848l-2 -107h-846zM430 182q0 41 29.5 71t64.5 30h2q43 0 71 -29t28 -72q0 -39 -29 -69.5t-70 -30.5q-37 0 -66.5 29.5t-29.5 70.5zM430 793q0 39 31 68.5t67 29.5q41 0 70 -30t29 -68q0 -45 -29 -73t-74 -28h-2q-33 0 -62.5 30t-29.5 71z" />
<glyph unicode="&#xf8;" d="M41 -41l104 111q-29 33 -44 83t-15 115q0 74 19.5 152t54.5 151.5t84 138t110 107.5q125 86 271 86q66 0 109.5 -13t78.5 -42l66 76l77 -23l-94 -102q59 -72 60 -205q0 -78 -19.5 -158t-55.5 -152.5t-85 -134t-107 -100.5q-117 -78 -266 -78q-51 0 -101 11.5t-93 42.5 q-23 -25 -41.5 -46.5t-34.5 -44.5zM264 197q59 70 125 146.5t128.5 152t119.5 143.5t100 121q-29 86 -119 86h-2q-104 0 -198 -121q-35 -43 -65.5 -106.5t-53.5 -136t-33 -146.5t-2 -139zM279 117q16 -43 48.5 -64.5t69.5 -21.5h4q98 0 179 94q39 47 71.5 116.5t56 146.5 t36 153.5t6.5 138.5q-45 -53 -105.5 -124t-124 -147.5t-127 -152.5t-114.5 -139z" />
<glyph unicode="&#xf9;" horiz-adv-x="1062" d="M97 124q5 48 24 105q20 66 48 150t53.5 163t46 140t26.5 84q4 16 0 24.5t-27 8.5l-118 -4l26 57q39 4 84 8t91 10.5t89 14.5t78 18q-12 -23 -32.5 -71t-43 -111.5t-47 -137t-47 -146t-41 -139.5t-28.5 -116q-12 -49 1 -79.5t50 -30.5q57 0 117.5 37.5t114.5 99 t99.5 137.5t75.5 154q14 39 28.5 78.5t26 74.5t20.5 65t13 48q4 14 0 22.5t-26 8.5l-115 -2l23 57q80 6 172 17.5t168 33.5q-29 -72 -66 -173t-72 -209.5t-65.5 -211t-46.5 -176.5q-6 -29 -3 -48t21 -19q20 0 47 16t53.5 44t52 63.5t46.5 76.5l39 -43q-25 -49 -58.5 -95 t-74.5 -81t-89.5 -56.5t-103.5 -21.5q-45 0 -67.5 18.5t-28.5 49.5t0 68.5t18 78.5q6 16 9.5 28.5t13.5 43.5q-86 -127 -195.5 -206t-226.5 -79q-61 0 -96 18.5t-48.5 52.5t-8.5 82zM475 1348q4 37 25.5 54t44.5 17q31 -2 54.5 -22.5t37.5 -55.5q8 -20 23.5 -62t33 -91 t32.5 -94t26 -72l-43 -29q-31 39 -63 79t-59.5 74t-47 59.5t-27.5 35.5q-16 23 -28.5 52.5t-8.5 54.5z" />
<glyph unicode="&#xfa;" horiz-adv-x="1062" d="M97 124q5 48 24 105q20 66 48 150t53.5 163t46 140t26.5 84q4 16 0 24.5t-27 8.5l-118 -4l26 57q39 4 84 8t91 10.5t89 14.5t78 18q-12 -23 -32.5 -71t-43 -111.5t-47 -137t-47 -146t-41 -139.5t-28.5 -116q-12 -49 1 -79.5t50 -30.5q57 0 117.5 37.5t114.5 99 t99.5 137.5t75.5 154q14 39 28.5 78.5t26 74.5t20.5 65t13 48q4 14 0 22.5t-26 8.5l-115 -2l23 57q80 6 172 17.5t168 33.5q-29 -72 -66 -173t-72 -209.5t-65.5 -211t-46.5 -176.5q-6 -29 -3 -48t21 -19q20 0 47 16t53.5 44t52 63.5t46.5 76.5l39 -43q-25 -49 -58.5 -95 t-74.5 -81t-89.5 -56.5t-103.5 -21.5q-45 0 -67.5 18.5t-28.5 49.5t0 68.5t18 78.5q6 16 9.5 28.5t13.5 43.5q-86 -127 -195.5 -206t-226.5 -79q-61 0 -96 18.5t-48.5 52.5t-8.5 82zM608 1028q16 23 45 68t60.5 92t59.5 90t42 61q25 35 53.5 52.5t55.5 17.5q29 0 44 -19.5 t13 -48.5q0 -31 -21.5 -62.5t-46.5 -53.5q-29 -27 -97 -85.5t-167 -144.5z" />
<glyph unicode="&#xfb;" horiz-adv-x="1062" d="M97 124q5 48 24 105q20 66 48 150t53.5 163t46 140t26.5 84q4 16 0 24.5t-27 8.5l-118 -4l26 57q39 4 84 8t91 10.5t89 14.5t78 18q-12 -23 -32.5 -71t-43 -111.5t-47 -137t-47 -146t-41 -139.5t-28.5 -116q-12 -49 1 -79.5t50 -30.5q57 0 117.5 37.5t114.5 99 t99.5 137.5t75.5 154q14 39 28.5 78.5t26 74.5t20.5 65t13 48q4 14 0 22.5t-26 8.5l-115 -2l23 57q80 6 172 17.5t168 33.5q-29 -72 -66 -173t-72 -209.5t-65.5 -211t-46.5 -176.5q-6 -29 -3 -48t21 -19q20 0 47 16t53.5 44t52 63.5t46.5 76.5l39 -43q-25 -49 -58.5 -95 t-74.5 -81t-89.5 -56.5t-103.5 -21.5q-45 0 -67.5 18.5t-28.5 49.5t0 68.5t18 78.5q6 16 9.5 28.5t13.5 43.5q-86 -127 -195.5 -206t-226.5 -79q-61 0 -96 18.5t-48.5 52.5t-8.5 82zM461 1038q117 123 190.5 222.5t102.5 142.5l51 12q8 -51 37.5 -157.5t87.5 -225.5l-47 -35 q-16 18 -35 43t-38 54.5t-36.5 59.5t-32.5 58q-25 -27 -57.5 -56.5t-66 -58t-65.5 -55t-56 -45.5z" />
<glyph unicode="&#xfc;" horiz-adv-x="1062" d="M97 124q5 48 24 105q20 66 48 150t53.5 163t46 140t26.5 84q4 16 0 24.5t-27 8.5l-118 -4l26 57q39 4 84 8t91 10.5t89 14.5t78 18q-12 -23 -32.5 -71t-43 -111.5t-47 -137t-47 -146t-41 -139.5t-28.5 -116q-12 -49 1 -79.5t50 -30.5q57 0 117.5 37.5t114.5 99 t99.5 137.5t75.5 154q14 39 28.5 78.5t26 74.5t20.5 65t13 48q4 14 0 22.5t-26 8.5l-115 -2l23 57q80 6 172 17.5t168 33.5q-29 -72 -66 -173t-72 -209.5t-65.5 -211t-46.5 -176.5q-6 -29 -3 -48t21 -19q20 0 47 16t53.5 44t52 63.5t46.5 76.5l39 -43q-25 -49 -58.5 -95 t-74.5 -81t-89.5 -56.5t-103.5 -21.5q-45 0 -67.5 18.5t-28.5 49.5t0 68.5t18 78.5q6 16 9.5 28.5t13.5 43.5q-86 -127 -195.5 -206t-226.5 -79q-61 0 -96 18.5t-48.5 52.5t-8.5 82zM444 1184q4 53 39 83.5t76 30.5h2q43 0 65.5 -27.5t18.5 -74.5q-4 -53 -39 -82t-76 -29 q-37 0 -63.5 25t-22.5 74zM786 1184q4 53 39 83.5t76 30.5h2q43 0 65.5 -27.5t18.5 -74.5q-4 -53 -39 -82t-76 -29q-37 0 -63.5 25t-22.5 74z" />
<glyph unicode="&#xfd;" horiz-adv-x="882" d="M-174 -362q0 51 30.5 77.5t61.5 26.5q47 0 64 -47q18 -68 63 -68q59 0 119.5 75t146.5 249q-16 16 -21 47t-9 68q-4 88 -10.5 192t-13.5 201.5t-14 177.5t-14 121q-2 14 -8 24.5t-23.5 15.5t-48 6t-81.5 -1l16 55q37 2 80 6t86 10.5t85 14.5t75 18q-2 -61 1 -157.5 t8 -201t11 -204.5t10 -168q49 96 104.5 201.5t119.5 220.5q37 68 75.5 124t82.5 98t94.5 65.5t111.5 25.5l6 -49q-35 -8 -73.5 -37.5t-76.5 -72.5t-76 -94.5t-73 -104.5q-49 -78 -98 -161t-96 -168t-93.5 -168t-85.5 -158q-59 -111 -108 -187t-95 -122t-91 -65.5t-97 -19.5 q-78 0 -111.5 43t-33.5 91zM543 1028q16 23 44.5 68t60.5 92t59.5 90t42.5 61q25 35 53 52.5t55 17.5q29 0 44.5 -19.5t12.5 -48.5q0 -31 -21.5 -62.5t-45.5 -53.5q-29 -27 -97.5 -85.5t-166.5 -144.5z" />
<glyph unicode="&#xfe;" horiz-adv-x="1003" d="M-270 -483l18 55l90 14q29 4 48.5 15.5t33.5 42.5q16 39 42 115.5t57.5 183t69.5 234.5t79 267q31 106 63.5 215t62.5 213.5t56.5 201.5t46.5 181q8 33 -24 37l-129 2l22 56q102 2 201.5 10t153.5 24q-25 -63 -53.5 -150t-59.5 -186.5t-61.5 -204t-61.5 -202.5 q41 51 88 98t99.5 84t109.5 58.5t117 21.5q94 0 137 -63.5t43 -155.5q0 -94 -27.5 -193.5t-76 -188.5t-114 -161.5t-143.5 -115.5q-100 -53 -208 -54q-72 0 -119 23.5t-74 64.5q-45 -158 -70.5 -254t-35.5 -143q-8 -35 -2 -47t28 -16l142 -13l-17 -55h-227q-72 0 -150 -3 t-155 -11zM264 182q4 -72 43 -108.5t99 -36.5q47 0 100 29.5t106 95.5q33 43 65 103.5t58.5 129t43 144t16.5 149.5q0 51 -17.5 87t-62.5 36h-2q-47 0 -97.5 -30.5t-97.5 -80t-87 -110t-66 -121.5q-14 -29 -31 -66.5t-30 -77.5t-24.5 -78t-15.5 -65z" />
<glyph unicode="&#xff;" horiz-adv-x="882" d="M-174 -362q0 51 30.5 77.5t61.5 26.5q47 0 64 -47q18 -68 63 -68q59 0 119.5 75t146.5 249q-16 16 -21 47t-9 68q-4 88 -10.5 192t-13.5 201.5t-14 177.5t-14 121q-2 14 -8 24.5t-23.5 15.5t-48 6t-81.5 -1l16 55q37 2 80 6t86 10.5t85 14.5t75 18q-2 -61 1 -157.5 t8 -201t11 -204.5t10 -168q49 96 104.5 201.5t119.5 220.5q37 68 75.5 124t82.5 98t94.5 65.5t111.5 25.5l6 -49q-35 -8 -73.5 -37.5t-76.5 -72.5t-76 -94.5t-73 -104.5q-49 -78 -98 -161t-96 -168t-93.5 -168t-85.5 -158q-59 -111 -108 -187t-95 -122t-91 -65.5t-97 -19.5 q-78 0 -111.5 43t-33.5 91zM383 1184q4 53 39 83.5t76 30.5h2q43 0 65.5 -27.5t18.5 -74.5q-4 -53 -39 -82t-76 -29q-37 0 -63.5 25t-22.5 74zM725 1184q4 53 39 83.5t76 30.5h2q43 0 65.5 -27.5t18.5 -74.5q-4 -53 -39 -82t-76 -29q-37 0 -63.5 25t-22.5 74z" />
<glyph unicode="&#x152;" horiz-adv-x="1916" d="M139 399q0 109 29 227.5t81 229.5t126 205t166 156q78 53 164 80.5t190 27.5q115 0 207 -44t135 -153q18 66 28.5 106t16.5 64q25 -4 55.5 -5t77.5 -1h301q82 0 156 1t133 12q-10 -20 -23.5 -62.5t-28 -92.5t-28.5 -102.5t-27 -95.5h-51q6 45 9.5 90t1.5 88 q-2 27 -9.5 46.5t-30 31t-63.5 16.5t-110 5h-150q-18 0 -27.5 -7.5t-17.5 -27.5q-14 -39 -32.5 -97.5t-38 -125t-39 -136t-33.5 -126.5q14 -4 56 -4h95q57 0 93 6t61.5 23.5t45 49t44.5 82.5h53q-39 -100 -72.5 -222t-60.5 -226l-49 4q8 59 11 100t-9 67.5t-45 38t-94 11.5 h-87t-63 -4q-45 -160 -81 -290t-58 -232q-4 -16 -2 -26.5t16.5 -17t47 -8.5t91.5 -2q76 0 129.5 3.5t91.5 11.5t64.5 21.5t48.5 33.5q49 43 95.5 106.5t76.5 116.5l49 -14q-6 -16 -26.5 -66.5t-43 -106.5t-44 -107.5t-31.5 -71.5q-27 4 -63.5 5t-94.5 3q-57 2 -140 4t-193 2 h-164q-96 0 -135 -6q6 20 16 55t29 96q-166 -180 -412 -180q-205 0 -309.5 114t-104.5 320zM344 334q0 -131 59.5 -216t188.5 -85q78 0 148.5 29.5t136.5 97.5q61 66 112 165t88 206.5t58.5 212t25.5 178.5q10 160 -52 249t-200 89q-61 0 -126.5 -26t-123.5 -81 q-72 -72 -130 -169t-99 -206.5t-63.5 -224.5t-22.5 -217v-2z" />
<glyph unicode="&#x153;" horiz-adv-x="1452" d="M86 266q0 78 19.5 158t55.5 153.5t86 136t113 107.5q57 39 123 60.5t142 21.5q203 0 249 -182q66 80 150 131t193 51q63 0 105 -17.5t68.5 -46t38 -66.5t11.5 -77q0 -41 -16.5 -73.5t-32.5 -49.5q-20 -20 -42 -33.5t-51 -25.5q-39 -18 -93 -35.5t-112.5 -32t-114.5 -25.5 t-99 -15q-16 -70 -17 -146q0 -41 8.5 -77t26.5 -64.5t48 -45t73 -16.5q109 0 190.5 66.5t134.5 189.5h33l4 -102q-80 -111 -192.5 -175.5t-247.5 -64.5q-94 0 -150.5 45t-74.5 115q-68 -82 -156 -121t-184 -39q-43 0 -93.5 10.5t-94.5 42t-72.5 90t-28.5 152.5zM258 219 q0 -55 12.5 -92t33 -58.5t46 -29.5t51.5 -8q94 0 172 92q37 45 70 115.5t57.5 146.5t38 149.5t13.5 127.5q0 78 -29 131t-100 53h-2q-113 0 -201 -125q-33 -47 -62.5 -109.5t-51 -131t-35 -136.5t-13.5 -125zM891 471q72 6 150.5 27.5t127.5 44.5q51 25 83 66.5t32 111.5 q0 49 -22.5 85t-75.5 36h-2q-29 0 -67 -16.5t-78 -57.5t-78.5 -112.5t-69.5 -184.5z" />
<glyph unicode="&#x178;" horiz-adv-x="1050" d="M115 -6l18 57q39 4 68.5 7t58.5 8q39 4 56.5 19t33.5 58q8 25 23.5 72t33 104.5t35 118t31.5 113.5q6 23 6 42t-4 48q-4 27 -18.5 92.5t-34 143t-40 153.5t-36.5 121q-10 29 -20.5 45t-28.5 25.5t-49 13.5t-82 8l16 55q41 -2 106.5 -4t137.5 -2q135 0 252 6l-16 -57 q-43 -4 -68 -8t-37 -10t-14 -15.5t0 -21.5q6 -39 20.5 -99.5t30.5 -130t33.5 -141.5t31.5 -133q129 172 223.5 292t145.5 200q29 49 -14 55q-29 4 -57.5 7t-51.5 5l19 57q45 0 94 -3t108 -3q45 0 100.5 3t121.5 3l-19 -57q-41 -4 -68.5 -8t-51 -14.5t-45 -27.5t-50.5 -46 q-43 -45 -97 -109.5t-109.5 -134.5t-106.5 -137.5t-88 -116.5q-23 -29 -35 -54.5t-23 -64.5q-12 -39 -26.5 -96t-29.5 -115.5t-26.5 -111.5t-17.5 -84q-8 -47 37 -53q23 -4 58.5 -8.5t90.5 -8.5l-18 -57q-86 4 -167 5t-148 1q-78 0 -143.5 -2t-149.5 -4zM532 1522 q6 49 40 80.5t79 31.5h2q47 0 69.5 -30.5t18.5 -73.5q-6 -53 -45 -84t-75 -31q-37 0 -66 25.5t-23 81.5zM911 1522q6 49 39 80.5t80 31.5h2q47 0 69.5 -30.5t18.5 -73.5q-6 -53 -45 -84t-76 -31t-65.5 25.5t-22.5 81.5z" />
<glyph unicode="&#x2c6;" horiz-adv-x="894" d="M387 1038q117 123 190.5 222.5t102.5 142.5l51 12q8 -51 38 -157.5t87 -225.5l-47 -35q-16 18 -34.5 43t-38 54.5t-37 59.5t-31.5 58q-25 -27 -57.5 -56.5t-66.5 -58t-66 -55t-56 -45.5z" />
<glyph unicode="&#x2dc;" horiz-adv-x="894" d="M408 1051q0 43 9 87t28.5 77.5t49 55t72.5 21.5q29 0 59.5 -15t67.5 -52q66 -57 90 -58q25 0 43.5 28t22.5 99l59 -10q-2 -102 -34.5 -172t-112.5 -70q-35 0 -64.5 17.5t-72.5 58.5q-27 23 -43.5 36t-40.5 13q-29 0 -48.5 -32.5t-23.5 -92.5z" />
<glyph unicode="&#x2000;" horiz-adv-x="869" />
<glyph unicode="&#x2001;" horiz-adv-x="1739" />
<glyph unicode="&#x2002;" horiz-adv-x="869" />
<glyph unicode="&#x2003;" horiz-adv-x="1739" />
<glyph unicode="&#x2004;" horiz-adv-x="579" />
<glyph unicode="&#x2005;" horiz-adv-x="434" />
<glyph unicode="&#x2006;" horiz-adv-x="289" />
<glyph unicode="&#x2007;" horiz-adv-x="289" />
<glyph unicode="&#x2008;" horiz-adv-x="217" />
<glyph unicode="&#x2009;" horiz-adv-x="347" />
<glyph unicode="&#x200a;" horiz-adv-x="96" />
<glyph unicode="&#x2010;" horiz-adv-x="608" d="M82 391l45 123q111 -4 214 -4t228 4l-43 -123q-121 4 -227 4t-217 -4z" />
<glyph unicode="&#x2011;" horiz-adv-x="608" d="M82 391l45 123q111 -4 214 -4t228 4l-43 -123q-121 4 -227 4t-217 -4z" />
<glyph unicode="&#x2012;" horiz-adv-x="608" d="M82 391l45 123q111 -4 214 -4t228 4l-43 -123q-121 4 -227 4t-217 -4z" />
<glyph unicode="&#x2013;" horiz-adv-x="1009" d="M84 391l45 121q39 -2 103.5 -2h142.5t162 -1t163.5 0t147 1t110.5 2l-45 -121q-43 0 -109.5 1t-145 1h-162.5h-163h-143.5t-105.5 -2z" />
<glyph unicode="&#x2014;" horiz-adv-x="1824" d="M88 391l45 121q29 0 107.5 -1t189.5 -1t244 -1t270 -1t271.5 1t247 1t193.5 1t113 1l-43 -121q-31 0 -111.5 1t-192 1h-246h-272.5h-271h-245t-190.5 -1t-109.5 -1z" />
<glyph unicode="&#x2018;" horiz-adv-x="374" d="M287 1145q4 61 31.5 112.5t68.5 89t92 62.5t101 31l12 -51q-78 -14 -137.5 -63.5t-73.5 -117.5q29 18 63 19q33 0 53.5 -24.5t18.5 -65.5q-4 -57 -40 -95t-89 -38q-49 0 -76.5 38.5t-23.5 102.5z" />
<glyph unicode="&#x2019;" horiz-adv-x="372" d="M250 1044q78 16 137 65.5t76 115.5q-29 -16 -64 -17q-33 0 -54 24.5t-17 65.5q4 55 39.5 93.5t89.5 38.5q47 0 74.5 -38t23.5 -102q-4 -61 -31.5 -112.5t-68.5 -89t-92.5 -62.5t-102.5 -31z" />
<glyph unicode="&#x201a;" horiz-adv-x="374" d="M-78 -160q78 16 139.5 66.5t77.5 120.5q-27 -20 -67 -21q-33 0 -54.5 25.5t-19.5 66.5q4 55 42 95t91 40q51 0 79 -38.5t23 -104.5q-4 -61 -31.5 -114.5t-70.5 -92.5t-95 -63.5t-104 -30.5z" />
<glyph unicode="&#x201c;" horiz-adv-x="690" d="M291 1147q4 61 31.5 111.5t68.5 89t92.5 62.5t102.5 30l12 -51q-78 -14 -139.5 -64.5t-75.5 -116.5q29 18 66 19q33 0 54 -24.5t17 -65.5q-4 -55 -41 -94t-90 -39q-47 0 -74.5 39.5t-23.5 103.5zM604 1145q4 61 32 112.5t68.5 89t92 62.5t100.5 31l12 -51 q-78 -14 -138 -64.5t-75 -116.5q29 18 66 19q31 0 52.5 -24.5t19.5 -65.5q-4 -55 -41 -94t-91 -39q-49 0 -75.5 38.5t-22.5 102.5z" />
<glyph unicode="&#x201d;" horiz-adv-x="690" d="M252 1044q78 16 139.5 66.5t75.5 116.5q-29 -18 -66 -19q-31 0 -52 24.5t-19 65.5q4 53 40 92.5t89 39.5q49 0 75.5 -38t22.5 -104q-4 -59 -30.5 -110.5t-68.5 -90t-92.5 -62.5t-101.5 -30zM565 1044q78 16 139.5 66.5t75.5 116.5q-25 -18 -65 -19q-33 0 -55.5 24.5 t-18.5 65.5q4 53 41 92.5t90 39.5q47 0 74.5 -38t23.5 -102q-4 -61 -31.5 -112.5t-68.5 -89t-92 -62.5t-103 -31z" />
<glyph unicode="&#x201e;" horiz-adv-x="700" d="M-78 -158q78 16 138.5 66.5t76.5 116.5q-29 -18 -65 -19q-33 0 -54.5 24.5t-19.5 65.5q4 55 41 95t90 40q49 0 76.5 -38.5t23.5 -104.5q-4 -61 -30.5 -112.5t-68.5 -89.5t-94 -62.5t-104 -30.5zM242 -158q78 16 140 66.5t77 116.5q-29 -18 -66 -19q-35 0 -56.5 24.5 t-19.5 65.5q4 55 42 95t92 40q49 0 76.5 -38.5t23.5 -104.5q-4 -61 -30.5 -112.5t-68.5 -89.5t-94.5 -62.5t-103.5 -30.5z" />
<glyph unicode="&#x2022;" horiz-adv-x="636" d="M182 434q4 82 56.5 138.5t128.5 56.5q68 0 104.5 -46t32.5 -118q-4 -84 -57.5 -135t-127.5 -51h-2q-61 0 -100 41.5t-35 113.5z" />
<glyph unicode="&#x2026;" horiz-adv-x="1513" d="M68 88q4 59 41.5 101t91.5 42q49 0 76.5 -34.5t23.5 -90.5q-4 -61 -41 -98t-96 -37h-2q-41 0 -70 32t-24 85zM571 88q4 59 42 101t92 42q51 0 78.5 -34.5t23.5 -90.5q-4 -61 -42 -98t-95 -37h-2q-43 0 -72 32t-25 85zM1077 88q4 59 42 101t91 42q49 0 77 -34.5t24 -90.5 q-4 -61 -41 -98t-96 -37h-3q-41 0 -69.5 32t-24.5 85z" />
<glyph unicode="&#x202f;" horiz-adv-x="347" />
<glyph unicode="&#x2039;" horiz-adv-x="577" d="M113 424l26 45q92 33 201 126t201 234l49 -28q-27 -55 -60.5 -108.5t-69.5 -100.5t-72 -87t-62 -71q16 -35 30.5 -81t26.5 -95t19.5 -99t9.5 -93l-52 -33q-16 74 -44.5 140.5t-62.5 117.5t-71 86t-69 47z" />
<glyph unicode="&#x203a;" horiz-adv-x="577" d="M27 61q27 55 60.5 108.5t69.5 100.5t70.5 87t63.5 71q-16 35 -30.5 81t-26 95t-19.5 99.5t-10 93.5l51 32q16 -74 45 -140t62.5 -117.5t69.5 -85t71 -46.5l-27 -47q-92 -35 -200.5 -127t-200.5 -233z" />
<glyph unicode="&#x205f;" horiz-adv-x="434" />
<glyph unicode="&#x20ac;" horiz-adv-x="962" d="M76 524l37 68h92q6 20 11 49t13 51h-75l34 68h62q29 82 76 174t116.5 169t162.5 127t214 50q72 0 123 -23.5t74 -56.5l47 74l45 -12q-29 -78 -53.5 -169.5t-40.5 -170.5l-51 -7q10 66 8 122.5t-19.5 97.5t-50.5 64.5t-82 23.5q-78 0 -140.5 -47.5t-110.5 -118 t-81.5 -150.5t-54.5 -147h483l-34 -68h-467q-6 -23 -11.5 -50.5t-9.5 -49.5h428l-33 -68h-405q-8 -41 -12 -81t-4 -81q0 -53 8 -107t31.5 -97t63.5 -71t103 -28q84 0 161 48.5t147 164.5l39 -41q-39 -63 -79 -111t-89.5 -81t-109.5 -49.5t-136 -16.5q-96 0 -158.5 35 t-99.5 91.5t-52.5 127t-15.5 142.5q0 41 4 79.5t11 75.5h-119z" />
<glyph unicode="&#x2122;" horiz-adv-x="802" d="M242 1171q4 35 6 66t4 47q16 -4 43 -6t65 -2h43q47 0 73 2t44 6q0 -6 -3 -33.5t-1 -72.5l-22 -7q-4 29 -9.5 42.5t-9.5 19.5q-4 8 -15 12t-48 2v-106q0 -29 1 -49.5t1 -30.5q2 -4 10 -7t41 -5l-2 -29q-12 0 -37 1t-59 1q-20 0 -36 -1t-32 -1l-2 29q31 2 39 6t8 8 q2 10 3 29.5t1 48.5v106q-35 0 -47 -3t-16 -13q-6 -14 -11.5 -29.5t-9.5 -32.5zM530 1020v29q29 2 37 7t11 23q2 20 5 64.5t3 91.5l-2 6q-2 6 -13 6l-28 4l2 29q29 -2 42 -2h23h32.5t27.5 2q2 -10 11 -30.5t20.5 -45t22.5 -48t17 -40.5q27 53 46.5 101.5t23.5 62.5 q16 -2 27.5 -2h27.5q18 0 32.5 1t31.5 1l2 -27q-25 -2 -32 -5t-7 -9q-2 -8 -2 -51q0 -37 1 -71t3 -50q2 -10 8 -14t33 -4v-29q-8 0 -27.5 1t-44.5 1t-46 -1t-27 -1v29q25 0 30.5 4t5.5 14q2 14 3 66.5t1 115.5h-2q-33 -78 -55 -137t-35 -86l-32 -6q-6 18 -17.5 48t-26 61.5 t-27.5 62.5t-22 53h-2q-2 -55 -1 -101t1 -67q2 -10 5.5 -17t19.5 -9l25 -2v-29q-12 0 -28 1t-36 1q-23 0 -40 -1t-28 -1z" />
<glyph unicode="&#x25fc;" horiz-adv-x="911" d="M0 0v911h911v-911h-911z" />
</font>
</defs>
</svg>
